# Blender 3.6.0
# www.blender.org
mtllib BIKarma.mtl
g Brazo_izq_Mesh
v -17.666162 -21.914597 -3.645700
v -7.708693 -2.840828 -2.314111
v -4.395668 -14.364784 -4.733306
v -9.999506 -1.587899 -3.172335
v -6.559587 -11.825906 -6.784328
v -8.554762 -3.402992 0.401400
v -11.546980 -9.958015 0.410886
v -4.405994 -15.103615 -1.096145
v -8.554762 -3.402992 0.401400
v -13.441899 -23.813141 -6.274427
v -8.554762 -3.402992 0.401400
v -7.708693 -2.840828 -2.314111
v -8.953520 -1.961999 -5.013963
v -6.505247 -3.501885 -4.990850
v -10.076815 -3.095101 0.942831
v -11.546980 -9.958015 0.410886
v -10.681223 -8.818092 -3.245004
v -14.491372 -22.739914 -7.671238
v -9.745344 -11.687477 1.980495
v -6.977705 -13.977692 2.265909
v -15.012903 -23.785500 -3.160268
v -13.536482 -24.153656 -4.474073
v -8.677445 -9.440927 -6.684272
v -6.505247 -3.501885 -4.990850
v -13.621996 -18.451294 0.023749
v -13.270437 -24.340614 -4.371459
v -16.074556 -14.039719 -4.711371
v -14.850397 -24.053932 -2.715104
v -10.213914 -18.298668 -7.505876
v -13.215131 -22.083206 -8.370927
v -10.451063 -1.935707 -0.762636
v -13.062337 -24.024353 -6.374152
v -15.551568 -21.884674 -8.560273
v -16.917795 -21.156128 -7.534656
v -16.129187 -22.372032 -1.589956
v -14.239191 -23.512924 -2.024536
v -11.505129 -20.122032 -0.553879
v -10.444014 -12.606117 2.597487
v -12.502996 -23.853394 -3.939817
v -9.571383 -20.566284 -2.746672
v -4.405994 -15.103615 -1.096145
v -4.451871 -15.478691 -5.115795
v -6.695035 -12.616326 -7.736252
v -4.390350 -16.189102 -1.002109
v -13.028448 -7.144394 -4.176867
v -14.557844 -13.891060 -1.111716
v -13.772074 -10.082108 -4.409545
v -14.919867 -16.376450 -1.445571
v -15.174497 -22.295303 -7.840560
v -13.471518 -8.079132 -1.041200
v -15.167189 -16.604439 -0.793702
v -15.624837 -18.181107 -7.112559
v -15.888730 -20.312492 -8.283862
v -13.166165 -15.824960 -7.597026
v -17.180933 -17.448730 -5.179945
v -13.964108 -11.465302 -6.296124
v -13.656976 -13.390252 -7.511507
v -6.977705 -13.977692 2.265909
v -9.745344 -11.687477 1.980495
v -7.188437 -14.941849 2.746578
v -6.559587 -11.825906 -6.784328
v -4.405994 -15.103615 -1.096145
v -17.822443 -19.601547 -6.054840
v -16.956713 -18.843956 -5.698153
v -16.944357 -18.594070 -3.749882
v -17.803888 -20.657913 -3.122470
v -11.602578 -8.007035 -6.411218
v -12.228452 -16.418488 -8.079519
v -14.256536 -15.199883 -7.756431
v -12.431130 -13.499558 -7.295448
v -15.627256 -13.830048 -1.552957
v -14.596346 -10.705872 -4.648549
v -16.947561 -17.508423 -3.152316
v -9.342103 -9.410737 -7.806851
v -13.035283 -11.092469 -6.333292
v -16.143396 -17.111626 -6.902648
v -15.146673 -11.399300 -2.769331
v -7.681612 -3.063676 -6.274282
v -16.264971 -15.832108 -1.664998
v -8.677445 -9.440927 -6.684272
v -6.505247 -3.501885 -4.990850
v -4.390350 -16.189102 -1.002109
v -4.395668 -14.364784 -4.733306
v -12.238397 -23.392807 -6.259471
v -13.536482 -24.153656 -4.474073
v -7.668539 -11.850136 -2.037698
v -16.225733 -23.093880 -2.930723
v -12.502996 -23.853394 -3.939817
v -13.270437 -24.340614 -4.371459
v -13.977738 -22.877579 -8.323634
v -9.571383 -20.566284 -2.746672
v -9.161496 -19.916176 -5.499977
v -14.230997 -11.151711 -2.101338
v -17.671587 -21.071259 -6.110681
v -12.415464 -10.310265 1.117811
v -16.631388 -22.974930 -2.491290
v -9.566999 -11.682266 0.293671
v -7.101995 -14.143410 -5.108361
v -7.241522 -14.005028 0.319131
v -6.328909 -14.916260 -2.141405
v -11.022612 -10.227814 -2.873200
v -8.834180 -12.413071 -5.828138
v -10.268869 -10.980247 -5.020961
v -6.328909 -14.916260 -2.141405
v 2.622844 -2.916580 1.970626
v 0.553217 -7.638794 -0.321613
v -2.349697 -7.293785 3.266480
v -3.754962 -5.779412 -4.550139
v -5.531549 -4.206688 -3.929194
v 1.946196 -2.144295 -3.195405
v 0.292410 -0.870820 -3.351762
v -0.998831 0.173920 2.710709
v 0.553217 -7.638794 -0.321613
v 1.341900 -1.639275 3.473031
v 3.088152 -3.340523 -0.467202
v -1.545829 -7.723557 -4.229975
v -1.757700 0.949524 -2.211625
v -5.201014 -4.726372 2.314172
v -6.620783 -3.080040 -1.682386
v -2.445141 1.443512 -0.274547
v 3.088152 -3.340523 -0.467202
v -5.211787 -9.494919 6.174555
v 2.322423 -10.001259 -5.436408
v -5.776083 -14.478165 -3.194660
v -6.765192 -13.453239 -4.763201
v -3.720947 -5.060853 -8.572051
v 0.984240 -8.549722 -7.298429
v -1.748198 -9.032264 7.004868
v 0.224708 -10.060143 5.497371
v -9.427847 -13.395607 0.671432
v -6.882903 -7.545211 5.179587
v -0.015261 -12.475586 0.667778
v -6.005507 -14.524971 -0.462714
v -6.372168 -13.921120 0.144731
v 0.524929 -12.629921 -1.824897
v -8.047762 -13.065948 1.209823
v -10.660604 -11.948074 -0.157911
v -5.570791 -14.641891 -2.493978
v -8.934400 -11.946136 -5.709310
v -7.177202 -13.400040 -5.381988
v -1.183887 -7.310410 -8.333269
v -7.177202 -13.400040 -5.381988
v 0.984240 -8.549722 -7.298429
v -6.765192 -13.453239 -4.763201
v 2.322423 -10.001259 -5.436408
v -6.005507 -14.524971 -0.462714
v -0.015261 -12.475586 0.667778
v -1.183887 -7.310410 -8.333269
v -8.934400 -11.946136 -5.709310
v -3.720947 -5.060853 -8.572051
v -5.776083 -14.478165 -3.194660
v -8.047762 -13.065948 1.209823
v -1.748198 -9.032264 7.004868
v -6.372168 -13.921120 0.144731
v -10.660604 -11.948074 -0.157911
v -9.427847 -13.395607 0.671432
v 0.224708 -10.060143 5.497371
v -5.211787 -9.494919 6.174555
v 0.524929 -12.629921 -1.824897
v -6.882903 -7.545211 5.179587
v -5.570791 -14.641891 -2.493978
vn -0.1104 -0.3434 -0.9327
vn -0.1332 -0.3101 -0.9413
vn -0.1558 -0.2763 -0.9483
vn 0.2342 -0.7396 -0.6310
vn 0.2230 -0.7160 -0.6615
vn 0.2114 -0.6914 -0.6909
vn 0.2988 -0.9463 0.1233
vn 0.3000 -0.9462 0.1213
vn 0.3001 -0.9462 0.1210
vn 0.3012 -0.9461 0.1189
vn -0.0323 -0.8035 0.5944
vn -0.0098 -0.8112 0.5847
vn 0.0127 -0.8183 0.5746
vn -0.7055 -0.2137 0.6757
vn -0.6951 -0.2241 0.6831
vn -0.6951 -0.2240 0.6831
vn -0.6844 -0.2343 0.6904
vn 0.2300 -0.9549 0.1879
vn 0.0025 -0.9943 -0.1063
vn -0.1715 -0.8254 0.5378
vn -0.2561 -0.9393 0.2284
vn -0.0987 -0.8497 0.5180
vn -0.5493 -0.7232 0.4186
vn 0.5148 -0.7926 0.3267
vn 0.1462 -0.6892 0.7096
vn -0.4491 -0.3925 0.8026
vn -0.9011 -0.1970 0.3863
vn 0.2574 -0.6015 0.7563
vn -0.3706 -0.2101 0.9047
vn -0.9184 0.0520 0.3922
vn -0.9505 -0.0757 -0.3013
vn 0.6560 -0.7282 0.1983
vn 0.8180 -0.4611 0.3437
vn 0.2727 -0.2319 0.9337
vn -0.1629 0.1877 0.9686
vn -0.8517 0.2304 0.4706
vn -0.9385 0.2791 0.2033
vn -0.8587 0.4007 -0.3196
vn -0.6850 0.1117 -0.7199
vn 0.6192 0.4523 0.6419
vn 0.3447 0.7065 0.6182
vn -0.5001 0.3155 0.8065
vn -0.7002 0.2433 0.6712
vn -0.7641 -0.0617 0.6422
vn 0.9194 0.3278 0.2173
vn 0.6911 0.3310 0.6425
vn -0.0724 0.3268 0.9423
vn -0.9246 0.2883 0.2489
vn -0.8288 0.3835 0.4074
vn -0.7270 0.5801 0.3673
vn -0.7546 0.3158 0.5752
vn -0.6983 0.0026 0.7158
vn 0.8080 0.1783 0.5616
vn 0.9755 0.2174 0.0342
vn 0.9425 0.3033 -0.1404
vn 0.3580 0.3757 -0.8548
vn 0.0926 0.3171 -0.9439
vn -0.6002 0.3274 -0.7298
vn -0.0777 0.8863 -0.4566
vn 0.7755 0.5658 0.2802
vn 0.7620 0.6115 -0.2131
vn 0.5720 0.1114 -0.8126
vn -0.1438 0.1352 -0.9803
vn -0.1744 0.2398 -0.9550
vn -0.3820 0.4977 -0.7787
vn -0.8003 0.5591 -0.2168
vn -0.8546 0.4081 -0.3210
vn 0.8940 0.4230 -0.1480
vn 0.8661 -0.2764 -0.4165
vn 0.4426 -0.2826 -0.8511
vn 0.3647 -0.2021 -0.9089
vn -0.4062 0.2540 -0.8778
vn -0.5415 0.3226 -0.7763
vn -0.1119 0.0458 -0.9927
vn 0.8180 -0.4611 0.3438
vn 0.6950 -0.6082 -0.3836
vn 0.6672 -0.6796 -0.3050
vn -0.0763 -0.7966 -0.5997
vn -0.2151 -0.0494 -0.9753
vn 0.0026 -0.9944 -0.1053
vn -0.1812 -0.9353 -0.3038
vn 0.0602 -0.4531 -0.8894
vn 0.2479 -0.5497 -0.7977
vn 0.2298 -0.9547 0.1889
vn 0.8447 -0.4892 -0.2172
vn 0.7384 -0.6680 -0.0921
vn 0.7860 -0.6133 0.0782
vn 0.3443 -0.5874 0.7324
vn 0.1760 -0.3405 0.9236
vn -0.6016 0.1325 0.7877
vn -0.5449 0.2903 0.7866
vn -0.8021 0.5969 -0.0182
vn -0.8123 0.5528 -0.1861
vn -0.4036 0.4654 -0.7877
vn -0.3657 0.4058 -0.8376
vn 0.6457 -0.4877 0.5875
vn 0.1373 -0.1301 0.9819
vn -0.4696 0.3205 0.8227
vn -0.7363 0.6643 0.1289
vn -0.4650 0.5960 -0.6546
vn 0.9689 -0.2283 -0.0953
vn 0.0398 0.2280 -0.9729
vn 0.0267 0.1817 -0.9830
vn 0.0945 0.0904 -0.9914
vn 0.5233 -0.2353 -0.8190
vn 0.5557 -0.3059 -0.7730
vn 0.5671 -0.3917 -0.7245
vn 0.7858 -0.6135 0.0787
vn 0.8992 -0.3040 -0.3147
vn -0.8879 0.2943 -0.3535
vn -0.9847 0.0938 -0.1467
vn -0.6311 0.0634 -0.7731
vn -0.3936 0.1404 -0.9085
vn -0.2253 0.3084 -0.9242
vn -0.8818 -0.1115 0.4582
vn -0.9068 0.3429 -0.2453
vn -0.5699 0.5105 -0.6439
vn -0.6658 0.6687 -0.3310
vn -0.3212 0.8937 0.3132
vn -0.2516 0.9616 -0.1096
vn 0.8080 0.1784 0.5616
vn 0.6417 0.7300 0.2352
vn 0.9194 0.3278 0.2172
vn 0.8939 0.4231 -0.1480
vn 0.9425 0.3032 -0.1404
vn 0.9248 -0.0594 0.3758
vn 0.6911 0.3311 0.6425
vn 0.1558 0.2763 0.9483
vn 0.1332 0.3101 0.9413
vn 0.1104 0.3434 0.9327
vn -0.2114 0.6914 0.6909
vn -0.2230 0.7161 0.6615
vn -0.2342 0.7396 0.6310
vn -0.3012 0.9461 -0.1189
vn -0.2999 0.9462 -0.1214
vn -0.3001 0.9462 -0.1210
vn -0.2988 0.9463 -0.1233
vn -0.0127 0.8183 -0.5746
vn 0.0098 0.8112 -0.5847
vn 0.0323 0.8035 -0.5944
vn 0.6844 0.2343 -0.6904
vn 0.6951 0.2240 -0.6831
vn 0.7055 0.2137 -0.6757
vt 0.927196 0.743306
vt 0.941068 0.741745
vt 0.919217 0.689123
vt 0.939660 0.686639
vt 0.914993 0.683530
vt 0.902496 0.685265
vt 0.922528 0.739723
vt 0.906499 0.741780
vt 0.887887 0.709594
vt 0.899500 0.696927
vt 0.858332 0.677808
vt 0.867798 0.667504
vt 0.819213 0.672296
vt 0.827427 0.664632
vt 0.787342 0.634847
vt 0.798134 0.625984
vt 0.816641 0.625569
vt 0.810235 0.636371
vt 0.853087 0.656382
vt 0.844214 0.670497
vt 0.144735 0.593430
vt 0.141754 0.593913
vt 0.150610 0.576614
vt 0.146428 0.575475
vt 0.154679 0.563595
vt 0.154558 0.558745
vt 0.132989 0.592943
vt 0.138827 0.573341
vt 0.144442 0.557820
vt 0.159207 0.543926
vt 0.108920 0.565240
vt 0.112824 0.548150
vt 0.150250 0.538967
vt 0.167108 0.525244
vt 0.102496 0.582890
vt 0.060997 0.576414
vt 0.068172 0.551104
vt 0.075123 0.532337
vt 0.115472 0.532548
vt 0.141233 0.525773
vt 0.158395 0.519860
vt 0.173590 0.514344
vt 0.063078 0.549071
vt 0.069135 0.529671
vt 0.077436 0.514864
vt 0.105092 0.519813
vt 0.116646 0.528529
vt 0.055004 0.573288
vt 0.070831 0.516230
vt 0.044169 0.485157
vt 0.079600 0.496552
vt 0.097466 0.503959
vt 0.103969 0.502489
vt 0.110524 0.515792
vt 0.119885 0.521543
vt 0.034505 0.490726
vt 0.069300 0.430392
vt 0.106306 0.447067
vt 0.068882 0.442505
vt 0.106566 0.454644
vt 0.095878 0.467839
vt 0.062722 0.453503
vt 0.055875 0.437724
vt 0.043479 0.455825
vt 0.120376 0.439460
vt 0.124930 0.443587
vt 0.145223 0.475648
vt 0.127497 0.475952
vt 0.112050 0.479329
vt 0.101124 0.488451
vt 0.086192 0.479771
vt 0.134855 0.424907
vt 0.140024 0.427913
vt 0.157060 0.462582
vt 0.181843 0.483821
vt 0.170310 0.503139
vt 0.153422 0.501432
vt 0.140831 0.481676
vt 0.145839 0.407295
vt 0.151991 0.409376
vt 0.168965 0.449816
vt 0.192932 0.468889
vt 0.187774 0.488194
vt 0.182927 0.502705
vt 0.181081 0.437111
vt 0.204058 0.455600
vt 0.208773 0.462173
vt 0.198727 0.473789
vt 0.192686 0.491644
vt 0.188605 0.498426
vt 0.210230 0.464560
vt 0.201048 0.476277
vt 0.632836 0.924770
vt 0.601519 0.882353
vt 0.642782 0.914373
vt 0.623394 0.875022
vt 0.656878 0.904509
vt 0.639725 0.865898
vt 0.659997 0.857738
vt 0.675454 0.897665
vt 0.673171 0.855662
vt 0.688063 0.895765
vt 0.598689 0.851306
vt 0.609467 0.843447
vt 0.625200 0.835787
vt 0.644355 0.828788
vt 0.655898 0.824725
vt 0.587023 0.859207
vt 0.672774 0.819200
vt 0.685089 0.852519
vt 0.699577 0.894026
vt 0.684541 0.815095
vt 0.699579 0.848007
vt 0.712776 0.890640
vt 0.728521 0.884454
vt 0.716301 0.831540
vt 0.701440 0.808315
vt 0.151351 0.515767
vt 0.141402 0.513654
vt 0.145233 0.502155
vt 0.136305 0.487431
vt 0.126799 0.482898
vt 0.133604 0.522531
vt 0.122818 0.503125
vt 0.114335 0.484618
vt 0.106369 0.491516
vt 0.050649 0.474640
vt 0.057525 0.463560
vt 0.035230 0.475378
vt 0.362830 0.095494
vt 0.353617 0.105995
vt 0.346825 0.088665
vt 0.336842 0.103657
vt 0.328300 0.092152
vt 0.331934 0.077503
vt 0.340974 0.069197
vt 0.354804 0.074509
vt 0.365432 0.084330
vt 0.354926 0.048851
vt 0.365738 0.052279
vt 0.374542 0.058774
s 1
g off
g Brazo_izq_Material.001
usemtl Material.001
f 140/1/1 139/2/2 141/3/2
f 139/2/2 126/4/3 141/3/2
s 2
f 124/5/4 125/6/5 123/7/5
f 125/6/5 127/8/6 123/7/5
s 3
f 135/9/7 132/10/8 138/11/9
f 132/10/8 133/12/10 138/11/9
s 4
f 136/13/11 134/14/12 128/15/12
f 134/14/12 129/16/13 128/15/12
s 5
f 137/17/14 130/18/15 131/19/16
f 130/18/15 122/20/17 131/19/16
s 6
f 85/21/18 26/22/19 21/23/20
f 26/22/19 28/24/21 21/23/20
f 21/23/20 28/24/21 87/25/22
f 28/24/21 96/26/23 87/25/22
f 26/22/19 39/27/24 28/24/21
f 39/27/24 36/28/25 28/24/21
f 36/28/25 35/29/26 28/24/21
f 35/29/26 96/26/23 28/24/21
f 96/26/23 35/29/26 1/30/27
f 36/28/25 39/27/24 37/31/28
f 36/28/25 37/31/28 35/29/26
f 37/31/28 25/32/29 35/29/26
f 35/29/26 25/32/29 66/33/30
f 35/29/26 66/33/30 1/30/27
f 1/30/27 66/33/30 94/34/31
f 39/27/24 40/35/32 37/31/28
f 40/35/32 44/36/33 37/31/28
f 44/36/33 60/37/34 37/31/28
f 37/31/28 60/37/34 25/32/29
f 60/37/34 38/38/35 25/32/29
f 25/32/29 38/38/35 51/39/36
f 25/32/29 51/39/36 66/33/30
f 66/33/30 51/39/36 65/40/37
f 66/33/30 65/40/37 63/41/38
f 66/33/30 63/41/38 94/34/31
f 94/34/31 63/41/38 34/42/39
f 58/43/40 60/37/34 44/36/33
f 38/38/35 60/37/34 58/43/40
f 59/44/41 38/38/35 58/43/40
f 95/45/42 38/38/35 59/44/41
f 38/38/35 95/45/42 51/39/36
f 95/45/42 46/46/43 51/39/36
f 46/46/43 48/47/44 51/39/36
f 51/39/36 48/47/44 65/40/37
f 41/48/45 58/43/40 44/36/33
f 7/49/46 95/45/42 59/44/41
f 15/50/47 95/45/42 7/49/46
f 50/51/48 95/45/42 15/50/47
f 95/45/42 50/51/48 93/52/49
f 46/46/43 95/45/42 93/52/49
f 46/46/43 93/52/49 77/53/50
f 71/54/51 46/46/43 77/53/50
f 46/46/43 71/54/51 79/55/52
f 48/47/44 46/46/43 79/55/52
f 6/56/53 15/50/47 7/49/46
f 81/57/54 80/58/55 78/59/56
f 80/58/55 74/60/57 78/59/56
f 74/60/57 67/61/58 78/59/56
f 67/61/58 13/62/59 78/59/56
f 78/59/56 13/62/59 14/63/54
f 13/62/59 12/64/60 14/63/54
f 74/60/57 80/58/55 61/65/61
f 43/66/62 74/60/57 61/65/61
f 74/60/57 43/66/62 68/67/63
f 74/60/57 68/67/63 70/68/64
f 74/60/57 70/68/64 75/69/65
f 75/69/65 67/61/58 74/60/57
f 67/61/58 75/69/65 47/70/66
f 45/71/67 67/61/58 47/70/66
f 67/61/58 45/71/67 13/62/59
f 61/65/61 83/72/68 43/66/62
f 83/72/68 42/73/69 43/66/62
f 29/74/70 43/66/62 42/73/69
f 43/66/62 29/74/70 68/67/63
f 68/67/63 29/74/70 30/75/71
f 53/76/72 68/67/63 30/75/71
f 68/67/63 53/76/72 52/77/73
f 54/78/74 68/67/63 52/77/73
f 68/67/63 54/78/74 70/68/64
f 83/72/68 62/79/45 42/73/69
f 62/79/45 82/80/75 42/73/69
f 92/81/76 42/73/69 82/80/75
f 92/81/76 29/74/70 42/73/69
f 30/75/71 29/74/70 92/81/76
f 84/82/77 30/75/71 92/81/76
f 90/83/78 30/75/71 84/82/77
f 30/75/71 90/83/78 33/84/79
f 53/76/72 30/75/71 33/84/79
f 34/42/39 53/76/72 33/84/79
f 63/41/38 53/76/72 34/42/39
f 52/77/73 53/76/72 63/41/38
f 91/85/32 92/81/76 82/80/75
f 84/82/77 92/81/76 91/85/32
f 88/86/24 84/82/77 91/85/32
f 84/82/77 88/86/24 89/87/80
f 32/88/81 84/82/77 89/87/80
f 32/88/81 90/83/78 84/82/77
f 18/89/82 90/83/78 32/88/81
f 18/89/82 49/90/83 90/83/78
f 49/90/83 33/84/79 90/83/78
f 32/88/81 89/87/80 22/91/84
f 10/92/85 32/88/81 22/91/84
f 10/92/85 18/89/82 32/88/81
s 7
f 100/93/86 106/94/87 99/95/88
f 106/94/87 107/96/89 99/95/88
f 99/95/88 107/96/89 97/97/90
f 107/96/89 118/98/91 97/97/90
f 97/97/90 118/98/91 119/99/92
f 101/100/93 97/97/90 119/99/92
f 101/100/93 119/99/92 109/101/94
f 103/102/95 101/100/93 109/101/94
f 106/94/87 105/103/96 107/96/89
f 105/103/96 114/104/97 107/96/89
f 107/96/89 114/104/97 118/98/91
f 114/104/97 112/105/98 118/98/91
f 112/105/98 120/106/99 118/98/91
f 120/106/99 119/99/92 118/98/91
f 119/99/92 120/106/99 117/107/100
f 109/101/94 119/99/92 117/107/100
f 105/103/96 106/94/87 121/108/101
f 117/107/100 111/109/102 109/101/94
f 111/109/102 108/110/103 109/101/94
f 109/101/94 108/110/103 103/102/95
f 108/110/103 102/111/104 103/102/95
f 111/109/102 110/112/105 108/110/103
f 110/112/105 116/113/106 108/110/103
f 102/111/104 108/110/103 116/113/106
f 98/114/107 102/111/104 116/113/106
f 98/114/107 116/113/106 104/115/86
f 116/113/106 113/116/108 104/115/86
f 113/116/108 116/113/106 110/112/105
f 115/117/109 113/116/108 110/112/105
s 6
f 64/118/110 52/77/73 63/41/38
f 65/40/37 64/118/110 63/41/38
f 55/119/111 64/118/110 65/40/37
f 64/118/110 55/119/111 76/120/112
f 52/77/73 64/118/110 76/120/112
f 54/78/74 52/77/73 76/120/112
f 69/121/113 54/78/74 76/120/112
f 54/78/74 69/121/113 57/122/114
f 70/68/64 54/78/74 57/122/114
f 75/69/65 70/68/64 57/122/114
f 73/123/115 55/119/111 65/40/37
f 55/119/111 73/123/115 27/124/116
f 76/120/112 55/119/111 27/124/116
f 69/121/113 76/120/112 27/124/116
f 27/124/116 57/122/114 69/121/113
f 56/125/117 57/122/114 27/124/116
f 56/125/117 75/69/65 57/122/114
f 75/69/65 56/125/117 72/126/118
f 47/70/66 75/69/65 72/126/118
f 73/123/115 65/40/37 48/47/44
f 79/55/52 73/123/115 48/47/44
f 73/123/115 79/55/52 27/124/116
f 79/55/52 71/54/51 27/124/116
f 71/54/51 77/53/50 27/124/116
f 27/124/116 77/53/50 72/126/118
f 56/125/117 27/124/116 72/126/118
f 72/126/118 77/53/50 47/70/66
f 77/53/50 93/52/49 47/70/66
f 93/52/49 50/51/48 47/70/66
f 50/51/48 45/71/67 47/70/66
f 45/71/67 50/51/48 31/127/119
f 4/128/120 45/71/67 31/127/119
f 45/71/67 4/128/120 13/62/59
f 13/62/59 4/128/120 12/64/60
f 12/64/60 4/128/120 31/127/119
f 9/129/121 12/64/60 31/127/119
f 15/50/47 9/129/121 31/127/119
f 31/127/119 50/51/48 15/50/47
s 8
f 19/130/41 20/131/40 86/132/122
f 20/131/40 8/133/123 86/132/122
f 8/133/123 3/134/124 86/132/122
f 3/134/124 5/135/61 86/132/122
f 23/136/125 86/132/122 5/135/61
f 23/136/125 17/137/126 86/132/122
f 17/137/126 16/138/127 86/132/122
f 86/132/122 16/138/127 19/130/41
f 17/137/126 23/136/125 24/139/54
f 2/140/60 17/137/126 24/139/54
f 2/140/60 11/141/121 17/137/126
f 11/141/121 16/138/127 17/137/126
s 9
f 150/4/128 149/2/129 148/3/129
f 149/2/129 142/1/130 148/3/129
s 10
f 143/8/131 144/6/132 145/7/132
f 144/6/132 151/5/133 145/7/132
s 11
f 146/12/134 147/10/135 161/11/136
f 147/10/135 159/9/137 161/11/136
s 12
f 157/16/138 154/14/139 153/15/139
f 154/14/139 152/13/140 153/15/139
s 13
f 158/20/141 156/18/142 160/19/142
f 156/18/142 155/17/143 160/19/142
