# Blender 3.6.0
# www.blender.org
mtllib MusloIKarma.mtl
g Muslo_Izq_Mesh
v -8.224812 -37.324097 -3.906626
v -8.581093 -28.768478 -5.164194
v -7.630468 -28.794922 0.339227
v -9.190217 -18.876263 -5.890833
v 6.463836 -15.759198 -8.671575
v -8.816837 -41.939949 1.295801
v 9.022542 -15.524921 -1.350980
v -7.783411 -36.692093 0.641407
v -7.256096 -4.341266 0.596813
v -8.520502 -12.465700 1.226813
v -3.197855 -19.646984 4.828732
v -2.746043 -13.218599 5.403042
v -1.903617 -6.360171 5.728571
v -0.352390 -14.311946 -13.540088
v 3.278690 -14.365313 5.168620
v -4.371401 -6.662518 -12.736271
v 4.738801 -7.507167 5.240466
v 4.738801 -7.507167 5.240466
v 3.797978 -30.034836 -0.783916
v 0.974124 -29.772049 3.177314
v -5.663407 -13.337070 -12.161681
v -8.541793 -12.747920 -9.217359
v 9.867404 -8.430813 -7.411986
v -0.701148 -0.755107 6.586265
v -4.463892 1.740863 1.362618
v -5.133714 1.375956 -10.047462
v -4.668223 -36.851578 3.010165
v -6.123970 2.520785 -4.757545
v -1.017876 -20.003300 -12.261140
v -0.656977 -37.377914 2.765104
v 1.343698 -38.077919 -0.758524
v -3.944698 -29.235184 3.164645
v 4.969596 -20.815586 -8.287098
v -6.774537 -19.342579 -11.499519
v -6.637527 -38.025459 -6.717456
v -1.550259 -41.862488 3.481594
v 3.278690 -14.365313 5.168620
v -3.304361 -38.567413 -7.714528
v 10.395253 -7.775745 -2.458011
v -2.095389 -29.679688 -10.474177
v 0.429055 -38.743507 -5.502261
v -5.597056 -41.669346 3.740546
v -7.787587 -5.164334 -9.656136
v 4.300505 -7.821980 -12.605407
v -2.394009 6.544323 -9.944023
v 8.560051 -3.838101 -15.078633
v 5.904932 1.911465 8.383720
v 5.376449 -2.449648 7.677294
v 9.769980 2.009159 6.625225
v 9.861948 -1.982340 5.210837
v -6.900998 -29.199768 -9.336757
v -0.656977 -37.377914 2.765104
v 0.974124 -29.772049 3.177314
v 2.436311 -20.669910 4.846294
v 4.045579 1.064402 -13.996733
v 0.660946 -5.251835 -12.988585
v -2.692819 -2.040363 -12.140491
v 8.745784 -6.487178 2.019116
v 5.904932 1.911465 8.383720
v 5.376449 -2.449648 7.677294
v 2.436311 -20.669910 4.846294
v 7.492183 -21.205189 -1.029601
v -9.393539 -12.410280 -4.924037
v 0.912691 3.789141 -12.210905
v -8.351118 -18.966885 0.905208
v -7.037218 -44.371269 -5.418226
v -4.053496 -43.710567 -7.540972
v -1.550259 -41.862488 3.481594
v 0.196841 -42.594608 0.782612
v -0.465880 -44.128551 -3.687051
v -9.201963 -43.062130 -1.999994
v 2.845344 -30.028046 -7.157623
v -8.759811 -4.457500 -4.832807
v 11.321492 -5.702625 -8.211306
v 11.326793 -6.315189 -3.001261
v 11.340981 3.156162 5.397833
v 11.320995 -4.391842 -12.836862
v 11.340946 -0.438746 4.131730
v 11.334967 -4.928684 1.183380
vn -0.0379 -0.0712 0.9967
vn 0.1669 -0.2799 0.9454
vn 0.5854 -0.2365 0.7755
vn 0.6092 -0.4094 0.6792
vn 0.7325 -0.2881 0.6168
vn 0.6997 -0.2373 0.6738
vn 0.3223 -0.2919 0.9005
vn 0.6954 -0.4067 0.5925
vn 0.6246 -0.6033 0.4959
vn 0.4435 -0.1279 0.8871
vn 0.9522 -0.2406 0.1880
vn 0.8831 -0.4334 0.1797
vn 0.8225 -0.5657 0.0590
vn 0.9478 -0.2869 0.1395
vn 0.7384 -0.2719 -0.6171
vn 0.8394 -0.4671 -0.2780
vn 0.8642 -0.4965 -0.0821
vn 0.4028 -0.1925 0.8948
vn 0.8939 -0.3075 0.3261
vn 0.8102 -0.3162 -0.4936
vn 0.7106 -0.2503 -0.6575
vn 0.1165 -0.1992 -0.9730
vn 0.1049 -0.1081 -0.9886
vn 0.3433 -0.4242 -0.8379
vn 0.5337 -0.2037 0.8208
vn 0.9575 -0.2354 0.1670
vn 0.7741 -0.2676 -0.5737
vn 0.1193 -0.2245 -0.9671
vn 0.2336 -0.2509 -0.9394
vn 0.5026 -0.0508 0.8630
vn 0.9817 -0.0312 0.1879
vn 0.8285 -0.1019 -0.5506
vn 0.1595 -0.2141 -0.9637
vn -0.6869 -0.1230 -0.7163
vn -0.5961 -0.1897 -0.7802
vn 0.4137 0.3788 0.8279
vn -0.7845 0.1854 -0.5917
vn -0.9797 0.0028 -0.2005
vn -0.9884 -0.0822 -0.1274
vn -0.9575 0.2554 -0.1343
vn -0.8375 0.1466 0.5264
vn -0.8627 -0.0381 0.5043
vn -0.8893 -0.0601 0.4534
vn -0.9803 -0.0639 -0.1867
vn -0.6341 -0.0951 -0.7674
vn -0.8078 0.4435 0.3882
vn -0.2779 0.3907 0.8775
vn -0.2080 0.1121 0.9717
vn -0.2762 -0.0648 0.9589
vn -0.3266 -0.0906 0.9408
vn -0.2935 -0.0378 0.9552
vn -0.8192 0.0577 0.5706
vn -0.9989 0.0464 0.0093
vn 0.4252 0.4495 0.7856
vn 0.5023 -0.0499 0.8633
vn 0.5336 -0.2035 0.8209
vn 0.4456 -0.1263 0.8863
vn 0.3259 -0.2967 0.8976
vn -0.3726 -0.0646 0.9257
vn -0.8658 0.2086 0.4548
vn -0.9681 0.2476 -0.0377
vn -0.8229 0.1794 -0.5392
vn -0.8599 0.0215 -0.5099
vn 0.1661 -0.2802 0.9455
vn -0.4544 -0.0060 0.8908
vn -0.8194 0.3150 0.4790
vn -0.9338 0.3568 0.0268
vn -0.6597 0.2787 -0.6979
vn -0.3709 0.1786 -0.9113
vn -0.4119 0.1047 -0.9052
vn 0.0047 -0.1191 0.9929
vn -0.4433 0.1566 -0.8826
vn -0.3892 0.2273 -0.8927
vn -0.2876 0.0565 -0.9561
vn -0.1216 -0.0239 -0.9923
vn -0.4363 -0.0348 -0.8991
vn -0.0317 -0.4162 -0.9087
vn 0.4260 -0.7679 -0.4784
vt 0.448164 0.350910
vt 0.465089 0.336143
vt 0.433052 0.335702
vt 0.445921 0.318836
vt 0.435197 0.316309
vt 0.422204 0.331412
vt 0.481642 0.316250
vt 0.463022 0.296001
vt 0.447807 0.293134
vt 0.514815 0.276535
vt 0.497796 0.248558
vt 0.456621 0.271068
vt 0.447651 0.271916
vt 0.527711 0.234363
vt 0.487362 0.213585
vt 0.448120 0.245325
vt 0.432381 0.251818
vt 0.546606 0.262922
vt 0.578650 0.212840
vt 0.566345 0.182982
vt 0.515326 0.201048
vt 0.507848 0.167011
vt 0.476936 0.173822
vt 0.437844 0.203180
vt 0.592658 0.233777
vt 0.623727 0.190053
vt 0.616678 0.165128
vt 0.613077 0.141788
vt 0.560464 0.153790
vt 0.633881 0.209408
vt 0.650448 0.184637
vt 0.647092 0.160380
vt 0.641698 0.136139
vt 0.611566 0.121747
vt 0.559279 0.128300
vt 0.655984 0.200715
vt 0.645512 0.120198
vt 0.612118 0.102140
vt 0.561751 0.103560
vt 0.646106 0.099310
vt 0.615859 0.072262
vt 0.567845 0.070369
vt 0.512605 0.074064
vt 0.508147 0.109087
vt 0.506218 0.139007
vt 0.646458 0.080671
vt 0.650080 0.058964
vt 0.622085 0.043046
vt 0.574870 0.040301
vt 0.519167 0.039217
vt 0.484899 0.041679
vt 0.479850 0.077555
vt 0.476376 0.107218
vt 0.654630 0.007247
vt 0.630599 0.007247
vt 0.582931 0.007247
vt 0.527720 0.007247
vt 0.491640 0.007247
vt 0.456195 0.007247
vt 0.449603 0.046923
vt 0.439005 0.084131
vt 0.437432 0.110709
vt 0.437449 0.133693
vt 0.475271 0.127887
vt 0.428139 0.007247
vt 0.420068 0.040440
vt 0.406688 0.073985
vt 0.401303 0.106862
vt 0.403171 0.135027
vt 0.415145 0.156382
vt 0.439811 0.156111
vt 0.403707 0.004755
vt 0.371550 0.135329
vt 0.378164 0.163069
vt 0.387341 0.187361
vt 0.427164 0.179830
vt 0.475369 0.147460
vt 0.405924 0.219778
vt 0.411319 0.237899
s 1
g off
g Muslo_Izq_Material.001
usemtl Material.001
f 47/1/1 48/2/2 49/3/3
f 48/2/2 50/4/4 49/3/3
f 49/3/3 50/4/4 78/5/5
f 76/6/6 49/3/3 78/5/5
f 48/2/2 17/7/7 50/4/4
f 17/7/7 58/8/8 50/4/4
f 58/8/8 79/9/9 50/4/4
f 79/9/9 78/5/5 50/4/4
f 58/8/8 17/7/7 15/10/10
f 7/11/11 58/8/8 15/10/10
f 39/12/12 58/8/8 7/11/11
f 79/9/9 58/8/8 39/12/12
f 75/13/13 79/9/9 39/12/12
f 62/14/14 7/11/11 15/10/10
f 5/15/15 7/11/11 62/14/14
f 23/16/16 7/11/11 5/15/15
f 23/16/16 39/12/12 7/11/11
f 75/13/13 39/12/12 23/16/16
f 74/17/17 75/13/13 23/16/16
f 61/18/18 62/14/14 15/10/10
f 19/19/19 62/14/14 61/18/18
f 19/19/19 72/20/20 62/14/14
f 72/20/20 33/21/21 62/14/14
f 33/21/21 5/15/15 62/14/14
f 5/15/15 33/21/21 29/22/22
f 14/23/23 5/15/15 29/22/22
f 5/15/15 14/23/23 44/24/24
f 44/24/24 23/16/16 5/15/15
f 20/25/25 19/19/19 61/18/18
f 31/26/26 19/19/19 20/25/25
f 72/20/20 19/19/19 31/26/26
f 41/27/27 72/20/20 31/26/26
f 72/20/20 41/27/27 38/28/28
f 40/29/29 72/20/20 38/28/28
f 33/21/21 72/20/20 40/29/29
f 29/22/22 33/21/21 40/29/29
f 30/30/30 31/26/26 20/25/25
f 30/30/30 69/31/31 31/26/26
f 69/31/31 70/32/32 31/26/26
f 70/32/32 41/27/27 31/26/26
f 70/32/32 67/33/33 41/27/27
f 41/27/27 67/33/33 38/28/28
f 38/28/28 67/33/33 35/34/34
f 35/34/34 51/35/35 38/28/28
f 51/35/35 40/29/29 38/28/28
f 29/22/22 40/29/29 51/35/35
f 68/36/36 69/31/31 30/30/30
f 66/37/37 35/34/34 67/33/33
f 1/38/38 35/34/34 66/37/37
f 35/34/34 1/38/38 2/39/39
f 51/35/35 35/34/34 2/39/39
f 71/40/40 1/38/38 66/37/37
f 1/38/38 71/40/40 8/41/41
f 1/38/38 8/41/41 3/42/42
f 2/39/39 1/38/38 3/42/42
f 3/42/42 65/43/43 2/39/39
f 65/43/43 4/44/44 2/39/39
f 2/39/39 4/44/44 51/35/35
f 4/44/44 34/45/45 51/35/35
f 34/45/45 29/22/22 51/35/35
f 71/40/40 6/46/46 8/41/41
f 6/46/46 42/47/47 8/41/41
f 42/47/47 27/48/48 8/41/41
f 8/41/41 27/48/48 32/49/49
f 3/42/42 8/41/41 32/49/49
f 32/49/49 11/50/50 3/42/42
f 11/50/50 65/43/43 3/42/42
f 11/50/50 12/51/51 65/43/43
f 12/51/51 10/52/52 65/43/43
f 10/52/52 63/53/53 65/43/43
f 63/53/53 4/44/44 65/43/43
f 42/47/47 36/54/54 27/48/48
f 27/48/48 36/54/54 52/55/55
f 32/49/49 27/48/48 52/55/55
f 53/56/56 32/49/49 52/55/55
f 53/56/56 54/57/18 32/49/49
f 54/57/18 11/50/50 32/49/49
f 54/57/18 37/58/57 11/50/50
f 37/58/57 12/51/51 11/50/50
f 37/58/57 18/59/58 12/51/51
f 18/59/58 13/60/59 12/51/51
f 12/51/51 13/60/59 10/52/52
f 13/60/59 9/61/60 10/52/52
f 63/53/53 10/52/52 9/61/60
f 73/62/61 63/53/53 9/61/60
f 63/53/53 73/62/61 43/63/62
f 22/64/63 63/53/53 43/63/62
f 22/64/63 4/44/44 63/53/53
f 13/60/59 18/59/58 60/65/64
f 24/66/65 13/60/59 60/65/64
f 13/60/59 24/66/65 9/61/60
f 24/66/65 25/67/66 9/61/60
f 25/67/66 28/68/67 9/61/60
f 28/68/67 73/62/61 9/61/60
f 73/62/61 28/68/67 26/69/68
f 43/63/62 73/62/61 26/69/68
f 43/63/62 26/69/68 57/70/69
f 16/71/70 43/63/62 57/70/69
f 22/64/63 43/63/62 16/71/70
f 24/66/65 60/65/64 59/72/71
f 45/73/72 64/74/73 26/69/68
f 64/74/73 57/70/69 26/69/68
f 57/70/69 64/74/73 55/75/74
f 56/76/75 57/70/69 55/75/74
f 56/76/75 16/71/70 57/70/69
f 56/76/75 14/23/23 16/71/70
f 14/23/23 21/77/76 16/71/70
f 21/77/76 22/64/63 16/71/70
f 22/64/63 21/77/76 34/45/45
f 22/64/63 34/45/45 4/44/44
f 55/75/74 46/78/77 56/76/75
f 46/78/77 44/24/24 56/76/75
f 56/76/75 44/24/24 14/23/23
f 77/79/78 44/24/24 46/78/77
f 44/24/24 77/79/78 23/16/16
f 77/79/78 74/17/17 23/16/16
f 29/22/22 34/45/45 21/77/76
f 14/23/23 29/22/22 21/77/76
