# Blender 3.6.0
# www.blender.org
mtllib Altar_01.mtl
g Altar_01_Mesh
v -2.009173 -1.019734 13.907855
v 2.009171 -1.019734 13.907855
v -2.009173 -0.278405 13.907855
v 2.009171 -0.278405 13.907855
v -2.009172 8.493790 6.135540
v 2.009171 8.493790 6.135540
v -2.009172 -1.019735 6.135541
v 2.009171 -1.019735 6.135541
v -11.430159 -1.019733 11.430157
v 11.430157 -1.019733 11.430159
v -11.430159 1.019735 11.430157
v 11.430157 1.019735 11.430159
v -11.430157 1.019733 -11.430159
v 11.430159 1.019733 -11.430157
v -11.430157 -1.019735 -11.430159
v 11.430159 -1.019735 -11.430157
v -9.035205 1.019735 9.035203
v 9.035203 1.019735 9.035205
v 9.035205 1.019733 -9.035203
v -9.035203 1.019733 -9.035205
v -9.035205 4.997881 9.035203
v 9.035203 4.997881 9.035204
v 9.035205 4.997880 -9.035204
v -9.035203 4.997880 -9.035205
v -6.135544 4.997881 6.135543
v 6.135543 4.997881 6.135544
v 6.135544 4.997880 -6.135544
v -6.135543 4.997880 -6.135545
v -6.135544 8.493790 6.135543
v 6.135543 8.493790 6.135544
v 6.135544 8.493790 -6.135544
v -6.135543 8.493790 -6.135545
v -3.977203 8.493790 3.977202
v 3.977203 8.493790 3.977203
v 3.977203 8.493790 -3.977203
v -3.977203 8.493790 -3.977204
v -3.977203 11.622958 3.977202
v 3.977203 11.622958 3.977202
v 3.977203 11.622958 -3.977203
v -3.977203 11.622958 -3.977204
v -2.411814 11.622958 2.411813
v 2.411814 11.622958 2.411813
v 2.411814 11.622958 -2.411815
v -2.411814 11.622958 -2.411815
v -2.411814 14.213970 2.411813
v 2.411814 14.213970 2.411813
v 2.411814 14.213970 -2.411815
v -2.411814 14.213970 -2.411815
vn -0.0000 -0.0000 1.0000
vn -0.0000 0.6632 0.7485
vn -0.0000 -0.0000 -1.0000
vn -0.0000 -1.0000 -0.0000
vn 1.0000 -0.0000 -0.0000
vn -1.0000 -0.0000 -0.0000
vn -0.0000 1.0000 -0.0000
vt 0.692136 0.171429
vt 0.307864 0.222635
vt 0.307864 0.171429
vt 0.692136 0.222635
vt 0.307864 0.828571
vt 0.692136 0.828571
vt 0.307864 0.171428
vt 0.171429 0.171428
vt 0.828571 0.222635
vt 0.828571 0.171428
vt 0.171429 0.828571
vt 0.819853 0.167639
vt 0.180147 0.224720
vt 0.180147 0.167639
vt 0.258082 0.647827
vt 0.080939 0.824970
vt 0.080939 0.647827
vt 0.180147 0.224724
vt 0.819853 0.167640
vt 0.819853 0.224720
vt 0.258082 0.824970
vt 0.180147 0.224722
vt 0.247166 0.291760
vt 0.819853 0.224722
vt 0.247166 0.291759
vt 0.247166 0.291758
vt 0.752834 0.291760
vt 0.247166 0.403149
vt 0.752834 0.291759
vt 0.752834 0.291761
vt 0.752834 0.403148
vt 0.328307 0.484369
vt 0.752834 0.403149
vt 0.671692 0.484369
vt 0.328307 0.582332
vt 0.671692 0.582332
vt 0.388705 0.642829
vt 0.611295 0.642829
vt 0.388705 0.730555
vt 0.388705 0.730554
vt 0.611295 0.730555
vt 0.432510 0.774434
vt 0.432510 0.774433
vt 0.611295 0.730554
vt 0.567490 0.774434
vt 0.432510 0.847031
vt 0.567490 0.774433
vt 0.432510 0.847030
vt 0.692136 0.171428
vt 0.180147 0.167638
vt 0.567490 0.847031
vt 0.567490 0.847030
s 0
g off
g Altar_01__hoop_from_ball_court_V1:lambert1SG.001
usemtl _hoop_from_ball_court_V1:lambert1SG.001
f 2/1/1 3/2/1 1/3/1
f 4/4/2 5/5/2 3/2/2
f 6/6/3 7/3/3 5/5/3
f 8/6/4 1/7/4 7/5/4
f 8/8/5 4/9/5 2/10/5
f 7/8/6 3/9/6 5/11/6
f 10/12/1 11/13/1 9/14/1
f 46/15/7 48/16/7 45/17/7
f 14/18/3 15/19/3 13/20/3
f 16/21/4 9/17/4 15/16/4
f 16/12/5 12/22/5 10/14/5
f 9/12/6 13/22/6 15/14/6
f 12/20/7 17/23/7 11/13/7
f 14/24/7 18/25/7 12/22/7
f 13/20/7 19/26/7 14/18/7
f 11/24/7 20/25/7 13/22/7
f 18/27/1 21/28/1 17/23/1
f 19/29/5 22/28/5 18/25/5
f 20/30/3 23/28/3 19/26/3
f 17/29/6 24/28/6 20/25/6
f 22/31/7 25/32/7 21/28/7
f 23/33/7 26/32/7 22/28/7
f 24/33/7 27/32/7 23/28/7
f 21/33/7 28/32/7 24/28/7
f 26/34/1 29/35/1 25/32/1
f 27/34/5 30/35/5 26/32/5
f 28/34/3 31/35/3 27/32/3
f 25/34/6 32/35/6 28/32/6
f 30/36/7 33/37/7 29/35/7
f 31/36/7 34/37/7 30/35/7
f 32/36/7 35/37/7 31/35/7
f 29/36/7 36/37/7 32/35/7
f 34/38/1 37/39/1 33/37/1
f 35/38/5 38/39/5 34/37/5
f 36/38/3 39/40/3 35/37/3
f 33/38/6 40/39/6 36/37/6
f 38/41/7 41/42/7 37/39/7
f 39/41/7 42/43/7 38/39/7
f 40/44/7 43/43/7 39/40/7
f 37/41/7 44/42/7 40/39/7
f 42/45/1 45/46/1 41/42/1
f 43/47/5 46/46/5 42/43/5
f 44/47/3 47/48/3 43/43/3
f 41/45/6 48/46/6 44/42/6
f 2/1/1 4/4/1 3/2/1
f 4/4/2 6/6/2 5/5/2
f 6/6/3 8/1/3 7/3/3
f 8/6/4 2/49/4 1/7/4
f 8/8/5 6/11/5 4/9/5
f 7/8/6 1/10/6 3/9/6
f 10/12/1 12/20/1 11/13/1
f 46/15/7 47/21/7 48/16/7
f 14/18/3 16/50/3 15/19/3
f 16/21/4 10/15/4 9/17/4
f 16/12/5 14/24/5 12/22/5
f 9/12/6 11/24/6 13/22/6
f 12/20/7 18/27/7 17/23/7
f 14/24/7 19/29/7 18/25/7
f 13/20/7 20/30/7 19/26/7
f 11/24/7 17/29/7 20/25/7
f 18/27/1 22/31/1 21/28/1
f 19/29/5 23/33/5 22/28/5
f 20/30/3 24/33/3 23/28/3
f 17/29/6 21/33/6 24/28/6
f 22/31/7 26/34/7 25/32/7
f 23/33/7 27/34/7 26/32/7
f 24/33/7 28/34/7 27/32/7
f 21/33/7 25/34/7 28/32/7
f 26/34/1 30/36/1 29/35/1
f 27/34/5 31/36/5 30/35/5
f 28/34/3 32/36/3 31/35/3
f 25/34/6 29/36/6 32/35/6
f 30/36/7 34/38/7 33/37/7
f 31/36/7 35/38/7 34/37/7
f 32/36/7 36/38/7 35/37/7
f 29/36/7 33/38/7 36/37/7
f 34/38/1 38/41/1 37/39/1
f 35/38/5 39/41/5 38/39/5
f 36/38/3 40/44/3 39/40/3
f 33/38/6 37/41/6 40/39/6
f 38/41/7 42/45/7 41/42/7
f 39/41/7 43/47/7 42/43/7
f 40/44/7 44/47/7 43/43/7
f 37/41/7 41/45/7 44/42/7
f 42/45/1 46/51/1 45/46/1
f 43/47/5 47/51/5 46/46/5
f 44/47/3 48/52/3 47/48/3
f 41/45/6 45/51/6 48/46/6
