# Blender 3.6.0
# www.blender.org
mtllib BDKarma.mtl
g Antebrazo_der_Mesh
v 2.990696 -2.571441 8.252814
v 1.740857 -4.056808 9.917760
v 1.937359 -1.207397 7.698531
v 0.423428 -8.967544 16.108212
v 4.847683 -9.803847 14.546754
v 0.590289 -5.220122 12.275346
v 3.055398 -8.261382 14.724572
v 9.535012 -4.032241 5.669688
v 5.066547 -0.406525 4.224522
v 9.189015 -8.900710 10.333160
v 11.922859 -2.772964 2.787530
v 14.126536 -7.508911 7.173521
v 17.811092 -4.677780 2.316739
v 10.254265 -3.925155 4.885688
v 12.689818 -8.760406 8.698510
v 6.621601 -0.091888 3.311898
v 8.813557 1.645691 -0.626176
v 8.985065 1.244705 1.153854
v 6.856868 -0.604385 2.849290
v 2.700642 -5.415236 11.561896
v 3.720046 -4.994063 9.891796
v 2.865437 -1.207291 6.719211
v 4.600372 -1.280716 5.669190
v 7.201217 -4.730651 7.228482
v 7.602328 -9.103026 12.476610
v 2.165419 -2.107483 8.701086
v 0.644970 -1.807449 9.484194
v 7.767971 0.392319 1.700286
v 17.758451 -5.836868 4.248051
v 5.995038 -4.809036 8.425769
v 12.775089 -2.013413 -1.332393
v 17.759136 -4.617645 -1.789369
v 7.221181 -6.962739 -8.439462
v 4.639371 -7.294618 -10.889763
v 1.699005 -7.438462 -13.676382
v 9.759482 -10.818223 -10.442298
v 2.108306 -2.632539 -9.371586
v 8.089728 -5.484009 -7.865202
v 7.230376 0.303558 -3.975600
v 5.033659 -0.997300 -6.371444
v 12.623079 -1.967255 1.726532
v 10.068656 -4.249161 -6.174387
v 6.430882 -0.483506 -5.258073
v 3.746177 -7.131547 -11.822809
v 0.396173 -2.809205 -10.897010
v 3.827808 -11.621369 -17.142126
v 5.659374 -11.095963 -14.660554
v 7.287420 -11.581254 -13.865030
v 2.635797 -2.358277 -8.535897
v 15.941403 -8.369477 -7.369234
v 11.048035 -3.848084 -4.996954
v 4.557234 -2.312699 -6.807407
v 8.268517 0.499099 -2.516124
v 16.595911 -7.478241 -6.059822
v 12.373177 -2.834549 -2.904798
v 11.326131 -9.623002 -9.534843
v 18.233540 -5.551575 -3.280768
v 5.836309 -1.561355 7.156885
v 8.643739 -2.643966 6.429964
v 5.003757 -2.320602 6.445712
v 2.990696 -2.571441 8.252814
v 11.498846 -2.095490 4.304550
v 5.003757 -2.320602 6.445712
v 0.669994 -2.314055 11.901450
v 3.189267 7.020111 2.456153
v -1.263087 -1.117126 11.077854
v -1.487304 0.883271 10.260548
v 7.730213 2.642853 3.856630
v 3.140882 3.163116 4.401144
v -0.543992 -0.460525 11.828266
v -0.936387 1.194153 10.855835
v 0.631275 2.291581 8.890599
v -0.106187 1.943909 8.093263
v 1.718313 2.451126 6.057976
v 2.990696 -2.571441 8.252814
v 2.045075 -0.006744 10.035777
v 5.543985 -0.955231 4.637878
v 1.740857 -4.056808 9.917760
v 3.877967 -1.861221 9.014962
v 3.140882 3.163116 4.401144
v 4.023931 3.366730 4.996893
v -1.263087 -1.117126 11.077854
v 1.718313 2.451126 6.057976
v -0.106187 1.943909 8.093263
v 2.535502 2.720368 6.741054
v 1.740857 -4.056808 9.917760
v 8.151675 -3.715255 5.550000
v 0.002007 -3.041472 11.097260
v -1.487304 0.883271 10.260548
v 2.812869 -3.152877 10.854067
v 0.002007 -3.041472 11.097260
v 8.151675 -3.715255 5.550000
v 4.360790 7.612503 2.377057
v 3.636223 7.214905 2.791503
v 10.884039 -3.180221 3.417835
v 3.189267 7.020111 2.456153
v 10.884039 -3.180221 3.417835
v 1.937359 -1.207397 7.698531
v 6.289356 0.800949 6.348937
v 3.140842 3.163131 -4.443152
v 5.543944 -0.955216 -4.679918
v -1.487392 0.883300 -10.302525
v 0.806009 2.197524 -7.117611
v 1.740771 -4.056794 -9.959776
v -0.936481 1.194182 -10.897788
v 5.003699 -2.320588 -6.487751
v 0.669890 -2.314012 -11.943449
v 12.518030 -2.002106 -0.021050
v 10.884008 -3.180207 -3.459924
v 3.134354 0.203612 -8.891236
v 3.140842 3.163131 -4.443152
v 0.806009 2.197524 -7.117611
v 1.583327 2.506011 -7.857817
v -1.263185 -1.117097 -11.119841
v -1.263185 -1.117097 -11.119841
v 4.331102 7.432419 -0.021004
v 2.990626 -2.571427 -8.294833
v 0.001911 -3.041444 -11.139257
v 0.001911 -3.041444 -11.139257
v 5.003699 -2.320588 -6.487751
v 2.990626 -2.571427 -8.294833
v 7.460873 1.278869 -0.021027
v 4.360767 7.612503 -2.419067
v 7.716620 2.640762 -3.905883
v 3.636196 7.214920 -2.833503
v 2.812776 -3.152848 -10.896089
v 1.740771 -4.056794 -9.959776
v 6.289299 0.800964 -6.390980
v 8.643682 -2.643952 -6.472034
v 4.023886 3.366744 -5.038909
v 3.877885 -1.861207 -9.056990
v 5.836245 -1.561341 -7.198926
v 13.434664 -1.107209 -0.021053
v 8.151628 -3.715241 -5.592067
v 12.518030 -2.002106 -0.021050
v 11.498808 -2.095475 -4.346643
v 3.189245 7.020111 -2.498152
v 3.189245 7.020111 -2.498152
v 10.884008 -3.180207 -3.459924
v 1.937304 -1.207368 -7.740524
v -0.544095 -0.460496 -11.870233
v -1.487392 0.883300 -10.302525
v 5.474844 8.043823 -0.021007
v 10.002747 3.222778 -0.021032
v 8.151628 -3.715241 -5.592067
v 4.331102 7.432419 -0.021004
v 4.392450 0.332856 7.608530
v 17.549404 -17.363174 -1.237250
v 15.868111 -16.002045 -0.813256
v -0.933548 -4.657379 0.167404
v -0.933548 -4.657379 0.167404
v 0.132049 -3.195481 -4.125630
v -0.933548 -4.657379 0.167404
v -0.000062 -0.682557 -7.017786
v -0.464234 -3.341004 -4.821984
v 0.132049 -3.195481 -4.125630
v 3.719448 -6.942550 4.654538
v 2.785694 -7.193345 -3.513405
v 7.162257 -4.472336 -2.849288
v 1.531027 -8.896515 -0.633441
v 10.074451 -12.452866 -4.414104
v 5.013739 -5.395691 -4.522584
v 7.714039 -14.550354 -3.297120
v 6.978064 -15.500854 -0.725715
v 11.539377 -11.226898 -2.751022
v 7.697205 -4.031555 -0.196253
v 16.861963 -17.857162 -3.174327
v 12.035162 -19.621811 -3.524351
v 7.509827 -14.827972 2.029468
v 1.531027 -8.896515 -0.633441
v 9.038311 -13.542419 3.385239
v 6.679773 -5.238830 3.266039
v 6.978064 -15.500854 -0.725715
v 4.690780 -2.019272 3.541699
v 13.158070 -20.950974 -4.158108
v 12.082026 -10.951035 -0.415266
v 14.890142 -16.860031 1.820523
v 5.892632 -1.137375 -3.107732
v -0.120415 -6.686798 -0.256125
v 12.016104 -22.147209 -1.429906
v 6.595261 -0.627655 -0.021207
v 11.556389 -11.662415 2.770483
v 11.130484 -20.390205 -1.120683
v 11.257322 -19.912872 1.387837
v 1.544132 -3.809158 4.825426
v 14.811857 -19.677505 -4.314466
v 12.016104 -22.147209 -1.429906
v 1.469901 4.345199 -2.799285
v 4.697159 2.208969 0.271460
v 3.250493 0.547333 4.318126
v 1.477076 4.900802 0.485551
v 0.806474 4.319443 3.679668
v 13.689594 -17.705109 -4.586475
v 15.178694 -16.413651 -2.706125
v 11.130484 -20.390205 -1.120683
v -0.967929 -0.632736 6.018918
v 4.302321 1.534027 -2.963088
v -0.999272 -3.603698 4.357037
v 0.325687 -1.837051 5.603548
v -0.390626 2.015091 5.543701
v 1.861866 1.015533 -6.036425
v 1.469901 4.345199 -2.799285
v 0.584555 2.657317 -6.361208
v 1.861866 1.015533 -6.036425
v -0.120415 -6.686798 -0.256125
v 13.762360 -20.445938 2.510330
v 3.158166 -2.386384 -5.618809
v 16.103094 -18.632751 1.748008
v 1.108755 -5.046631 -3.404885
v 12.541460 -18.508423 2.524401
v -0.211073 -6.197647 3.609551
v 12.481411 -21.723251 1.007923
v 1.540846 -8.537506 3.136348
v 0.590289 -5.220122 12.275346
v 2.165419 -2.107483 8.701086
v 2.700642 -5.415236 11.561896
v 0.644970 -1.807449 9.484194
v 10.254265 -3.925155 4.885688
v 12.689818 -8.760406 8.698510
v 11.922859 -2.772964 2.787530
v 5.066547 -0.406525 4.224522
v 2.865437 -1.207291 6.719211
v 6.621601 -0.091888 3.311898
v 4.600372 -1.280716 5.669190
v 4.847683 -9.803847 14.546754
v 0.423428 -8.967544 16.108212
v 7.602328 -9.103026 12.476610
v 3.055398 -8.261382 14.724572
v 3.720046 -4.994063 9.891796
v 9.535012 -4.032241 5.669688
v 5.995038 -4.809036 8.425769
v 9.189015 -8.900710 10.333160
v 7.201217 -4.730651 7.228482
v 7.767971 0.392319 1.700286
v 6.856868 -0.604385 2.849290
v 8.813557 1.645691 -0.626176
v 14.126536 -7.508911 7.173521
v 17.758451 -5.836868 4.248051
v 6.430882 -0.483506 -5.258073
v 8.089728 -5.484009 -7.865202
v 4.557234 -2.312699 -6.807407
v 10.068656 -4.249161 -6.174387
v 11.326131 -9.623002 -9.534843
v 15.941403 -8.369477 -7.369234
v 8.985065 1.244705 1.153854
v 17.811092 -4.677780 2.316739
v 17.759136 -4.617645 -1.789369
v 12.623079 -1.967255 1.726532
v 12.775089 -2.013413 -1.332393
v 18.233540 -5.551575 -3.280768
v 16.595911 -7.478241 -6.059822
v 12.373177 -2.834549 -2.904798
v 8.268517 0.499099 -2.516124
v 11.048035 -3.848084 -4.996954
v 7.230376 0.303558 -3.975600
v 2.635797 -2.358277 -8.535897
v 4.639371 -7.294618 -10.889763
v 7.287420 -11.581254 -13.865030
v 1.699005 -7.438462 -13.676382
v 0.396173 -2.809205 -10.897010
v 3.746177 -7.131547 -11.822809
v 2.108306 -2.632539 -9.371586
v 3.827808 -11.621369 -17.142126
v 5.659374 -11.095963 -14.660554
v 7.221181 -6.962739 -8.439462
v 9.759482 -10.818223 -10.442298
v 5.033659 -0.997300 -6.371444
vn -0.3800 -0.6146 -0.6912
vn -0.4515 -0.6244 -0.6374
vn -0.3472 -0.6550 -0.6712
vn -0.2545 -0.6792 -0.6884
vn -0.2278 -0.7160 -0.6598
vn -0.1760 -0.7000 -0.6921
vn -0.3940 -0.6502 -0.6497
vn -0.4107 -0.6566 -0.6326
vn -0.3763 -0.6705 -0.6394
vn -0.3421 -0.6843 -0.6440
vn -0.3242 -0.7039 -0.6320
vn -0.3083 -0.6979 -0.6465
vn -0.2880 -0.6392 -0.7131
vn -0.2886 -0.6397 -0.7124
vn -0.2876 -0.6453 -0.7077
vn -0.2804 -0.6465 -0.7095
vn -0.2874 -0.6518 -0.7018
vn -0.3006 -0.6485 -0.6993
vn -0.2913 -0.6608 -0.6917
vn -0.2705 -0.6107 -0.7442
vn -0.2717 -0.6900 -0.6709
vn -0.3022 -0.7134 -0.6322
vn -0.2516 -0.7180 -0.6489
vn -0.2084 -0.7150 -0.6674
vn -0.6728 -0.7375 -0.0592
vn -0.6846 -0.7225 -0.0968
vn -0.5727 -0.8190 -0.0340
vn -0.5651 -0.8249 -0.0156
vn -0.4631 -0.8862 -0.0079
vn -0.4636 -0.8860 -0.0071
vn -0.3242 -0.7154 0.6190
vn -0.2834 -0.7018 0.6536
vn -0.3724 -0.6935 0.6167
vn -0.4708 -0.6776 0.5650
vn -0.5218 -0.6494 0.5532
vn -0.5749 -0.6507 0.4961
vn -0.2692 -0.5551 0.7870
vn -0.2256 -0.5539 0.8014
vn -0.2939 -0.5442 0.7858
vn -0.3533 -0.5342 0.7680
vn -0.3736 -0.5233 0.7659
vn -0.4041 -0.5247 0.7493
vn -0.5515 -0.5341 0.6407
vn -0.5599 -0.5307 0.6363
vn -0.5281 -0.5976 0.6033
vn -0.5167 -0.5864 0.6238
vn -0.5016 -0.6575 0.5622
vn -0.5138 -0.6802 0.5227
vn -0.4940 -0.6306 0.5986
vn -0.5065 -0.6882 0.5195
vn -0.4800 -0.6716 0.5644
vn -0.4993 -0.5820 0.6418
vn -0.5213 -0.5447 0.6570
vn -0.5249 -0.5466 0.6525
vn -0.3493 -0.9292 -0.1211
vn -0.3323 -0.5793 -0.7443
vn 0.4930 -0.3871 -0.7792
vn 0.4515 0.6244 0.6374
vn 0.3800 0.6146 0.6912
vn 0.3472 0.6549 0.6712
vn 0.2544 0.6792 0.6884
vn 0.2278 0.7160 0.6599
vn 0.1760 0.7000 0.6921
vn 0.4107 0.6566 0.6326
vn 0.3940 0.6502 0.6496
vn 0.3763 0.6705 0.6394
vn 0.3421 0.6843 0.6440
vn 0.3242 0.7039 0.6320
vn 0.3083 0.6979 0.6465
vn 0.2886 0.6397 0.7124
vn 0.2880 0.6392 0.7131
vn 0.2875 0.6454 0.7077
vn 0.2803 0.6466 0.7094
vn 0.2874 0.6518 0.7018
vn 0.3006 0.6485 0.6993
vn 0.2705 0.6107 0.7442
vn 0.2913 0.6608 0.6917
vn 0.2717 0.6900 0.6709
vn 0.3022 0.7135 0.6321
vn 0.2516 0.7180 0.6489
vn 0.2084 0.7150 0.6674
vn 0.6846 0.7225 0.0968
vn 0.6728 0.7375 0.0592
vn 0.5727 0.8190 0.0340
vn 0.5650 0.8249 0.0156
vn 0.4631 0.8862 0.0079
vn 0.4636 0.8860 0.0071
vn 0.2834 0.7018 -0.6536
vn 0.3242 0.7154 -0.6190
vn 0.3724 0.6935 -0.6167
vn 0.4708 0.6776 -0.5650
vn 0.5218 0.6494 -0.5532
vn 0.5749 0.6507 -0.4961
vn 0.2256 0.5539 -0.8014
vn 0.2692 0.5551 -0.7870
vn 0.2939 0.5442 -0.7858
vn 0.3533 0.5342 -0.7680
vn 0.3736 0.5233 -0.7659
vn 0.4041 0.5247 -0.7493
vn 0.5599 0.5307 -0.6363
vn 0.5516 0.5341 -0.6407
vn 0.5282 0.5976 -0.6033
vn 0.5166 0.5865 -0.6238
vn 0.5016 0.6575 -0.5622
vn 0.5138 0.6802 -0.5227
vn 0.4800 0.6716 -0.5644
vn 0.5065 0.6882 -0.5195
vn 0.4940 0.6306 -0.5986
vn 0.4993 0.5820 -0.6418
vn 0.5213 0.5447 -0.6569
vn 0.5249 0.5466 -0.6525
vn -0.8701 0.4514 0.1979
vn -0.8167 0.2116 -0.5368
vn -0.9199 -0.3860 0.0689
vn -0.5947 -0.4426 -0.6711
vn -0.5366 -0.8027 0.2604
vn -0.1130 -0.8831 -0.4555
vn -0.2990 -0.9436 0.1419
vn -0.1470 -0.9843 -0.0974
vn -0.5372 -0.5547 -0.6354
vn -0.1330 -0.9637 0.2314
vn -0.7195 0.4355 -0.5410
vn -0.9385 0.3413 -0.0520
vn -0.7707 -0.6372 -0.0000
vn 0.1264 -0.9847 -0.1201
vn -0.9036 0.4159 -0.1026
vn -0.7851 0.6194 -0.0000
vn -0.9036 0.4159 0.1026
vn -0.9477 0.2343 0.2168
vn -0.5221 -0.5832 0.6223
vn 0.1264 -0.9847 0.1201
vn 0.4423 -0.8969 -0.0001
vn -0.5882 -0.4607 0.6647
vn -0.1470 -0.9843 0.0974
vn -0.1330 -0.9637 -0.2314
vn -0.7828 0.4209 0.4584
vn -0.9360 0.3520 0.0017
vn -0.8977 -0.3602 -0.2537
vn -0.5366 -0.8027 -0.2604
vn -0.1062 -0.9449 0.3097
vn 0.2519 -0.9088 0.3327
vn -0.8327 -0.5496 -0.0666
vn -0.6870 -0.7213 -0.0882
vn -0.7346 -0.5247 0.4302
vn -0.6404 -0.5294 0.5565
vn -0.7696 -0.6316 -0.0940
vn -0.1533 -0.1511 0.9765
vn -0.0868 -0.1464 0.9854
vn -0.5935 -0.5683 0.5699
vn -0.7720 -0.6029 -0.2013
vn -0.6128 -0.5996 0.5147
vn -0.8367 -0.4886 -0.2472
vn 0.4876 0.3619 0.7945
vn 0.5755 0.3045 0.7590
vn 0.0082 -0.1701 0.9854
vn 0.4447 0.6027 -0.6625
vn 0.5983 0.6023 -0.5284
vn 0.6354 0.7714 0.0360
vn 0.7435 0.6517 0.1499
vn 0.8286 0.5593 0.0267
vn 0.6062 0.3287 0.7242
vn 0.0194 0.0264 -0.9995
vn 0.0829 0.0891 -0.9926
vn 0.2179 0.1464 -0.9649
vn 0.7086 0.4718 -0.5247
vn -0.5848 -0.0560 -0.8092
vn -0.6065 -0.3428 -0.7174
vn -0.5281 -0.3982 -0.7500
vn -0.7596 -0.5934 -0.2663
vn -0.8327 -0.5498 -0.0659
vn -0.7721 -0.6029 -0.2011
vn -0.5051 -0.3495 -0.7892
vn 0.1668 -0.0479 -0.9848
vn 0.7359 0.3929 -0.5514
vn -0.8364 -0.4882 -0.2492
vn -0.5592 -0.4308 -0.7083
vn 0.2044 -0.1063 -0.9731
vn 0.7759 0.3136 -0.5475
vn 0.9022 0.4191 0.1021
vn 0.6057 0.3409 0.7190
vn 0.1880 -0.9780 -0.0900
vn 0.1021 -0.6967 -0.7101
vn 0.5770 0.1381 -0.8050
vn 0.7240 0.5109 -0.4634
vn 0.8923 0.4454 0.0733
vn 0.6456 0.2605 0.7179
vn 0.0213 -0.1195 0.9926
vn -0.6879 -0.4514 0.5684
vn 0.5128 0.7908 -0.3341
vn 0.7651 0.6195 0.1757
vn 0.5666 0.2218 0.7936
vn 0.0846 -0.1809 0.9799
vn -0.1121 -0.5593 0.8214
vn 0.1885 -0.9780 -0.0895
vn 0.4928 0.8684 0.0547
vn 0.4333 0.7291 0.5297
vn 0.2264 0.3183 0.9206
vn 0.1720 -0.1848 0.9676
vn 0.0250 -0.1326 0.9909
vn 0.6829 0.2978 -0.6671
vn 0.5769 0.1378 -0.8051
vn 0.7329 -0.2894 -0.6157
vn 0.0892 -0.6942 -0.7142
vn 0.6739 -0.6032 -0.4266
vn 0.8090 0.4953 -0.3165
vn 0.3487 -0.1537 -0.9245
vn 0.2519 -0.9088 -0.3326
vn -0.1471 -0.9843 -0.0974
vn 0.7634 -0.3187 0.5619
vn 0.3709 -0.2734 0.8875
vn 0.5340 0.4535 0.7135
vn 0.5415 0.4664 0.6995
vn 0.6142 -0.5246 0.5895
vn -0.1063 -0.9449 -0.3097
vn -0.5366 -0.8027 0.2603
vn 0.4969 -0.1775 0.8495
vn 0.4318 0.4464 0.7838
vn 0.1298 0.6753 0.7260
vn 0.1159 0.9171 0.3814
vn 0.1263 -0.9847 -0.1201
vn 0.8345 -0.0901 0.5436
vn 0.5495 0.5528 0.6264
vn -0.0293 0.9010 0.4328
vn -0.4258 0.6076 0.6705
vn 0.4423 -0.8969 -0.0000
vn 0.9942 -0.1074 -0.0000
vn 0.7570 0.6534 -0.0005
vn 0.3825 0.9240 -0.0003
vn -0.9037 0.4158 -0.1026
vn 0.8343 -0.0900 -0.5439
vn 0.5494 0.5527 -0.6266
vn -0.0291 0.9010 -0.4329
vn -0.9037 0.4158 0.1026
vn -0.4257 0.6076 -0.6705
vn 0.1263 -0.9847 0.1201
vn 0.4970 -0.1774 -0.8494
vn 0.4662 0.4475 -0.7632
vn 0.1487 0.6874 -0.7109
vn -0.1132 0.9559 -0.2711
vn -0.7828 0.4208 0.4584
vn 0.3889 -0.2844 -0.8763
vn 0.5469 0.4471 -0.7078
vn -0.1029 0.7427 -0.6616
vn -0.2841 0.2494 -0.9258
vn 0.0046 -0.1688 -0.9856
vn -0.1471 -0.9843 0.0974
vn 0.7395 -0.4632 -0.4884
vn 0.6251 -0.5190 -0.5831
vn 0.2519 -0.9088 0.3326
vn -0.1063 -0.9449 0.3097
vn -0.1413 0.9569 0.2537
vn -0.1495 0.7121 0.6860
vn -0.3047 0.2365 0.9226
vn -0.0102 -0.1898 0.9818
vn -0.8167 0.2116 -0.5369
vn -0.9199 -0.3859 0.0689
vt 0.805480 0.665205
vt 0.816120 0.674808
vt 0.790401 0.696310
vt 0.777174 0.685133
vt 0.765278 0.717147
vt 0.748406 0.707372
vt 0.788611 0.722172
vt 0.780314 0.708175
vt 0.807740 0.686010
vt 0.820686 0.704416
vt 0.833270 0.667264
vt 0.852635 0.686089
vt 0.795671 0.735763
vt 0.793626 0.725253
vt 0.821699 0.713039
vt 0.827311 0.728654
vt 0.858087 0.720841
vt 0.857082 0.690620
vt 0.821238 0.744543
vt 0.822786 0.732738
vt 0.857130 0.725789
vt 0.859099 0.743363
vt 0.902655 0.734883
vt 0.897130 0.710675
vt 0.949365 0.764526
vt 0.961206 0.767709
vt 0.967476 0.731865
vt 0.946983 0.731919
vt 0.944930 0.692613
vt 0.972346 0.694433
vt 0.351247 0.138620
vt 0.344398 0.128684
vt 0.343685 0.134675
vt 0.357688 0.119951
vt 0.348922 0.116905
vt 0.359837 0.126878
vt 0.357696 0.134259
vt 0.334662 0.135042
vt 0.328290 0.130285
vt 0.326695 0.143560
vt 0.339669 0.116122
vt 0.332191 0.114431
vt 0.309421 0.122008
vt 0.315059 0.145644
vt 0.327418 0.100150
vt 0.318153 0.097578
vt 0.309358 0.093695
vt 0.296614 0.101714
vt 0.289578 0.116448
vt 0.290079 0.136716
vt 0.301911 0.143020
vt 0.278113 0.105012
vt 0.281633 0.116097
vt 0.282400 0.127731
vt 0.285897 0.095616
vt 0.273321 0.089813
vt 0.267266 0.093831
vt 0.264256 0.100920
vt 0.266505 0.108389
vt 0.274874 0.110109
vt 0.582607 0.849262
vt 0.587023 0.859207
vt 0.598689 0.851306
vt 0.593829 0.839486
vt 0.562294 0.817206
vt 0.609467 0.843447
vt 0.604022 0.831047
vt 0.575190 0.806185
vt 0.532623 0.777448
vt 0.548512 0.763418
vt 0.525227 0.763146
vt 0.625200 0.835787
vt 0.620575 0.823759
vt 0.586845 0.798084
vt 0.655898 0.824725
vt 0.650009 0.812196
vt 0.644355 0.828788
vt 0.637852 0.817325
vt 0.622339 0.781499
vt 0.604123 0.790031
vt 0.672774 0.819200
vt 0.666098 0.806851
vt 0.651219 0.770666
vt 0.636175 0.775516
vt 0.684541 0.815095
vt 0.682727 0.803973
vt 0.670861 0.764858
vt 0.701440 0.808315
vt 0.697804 0.798066
vt 0.687130 0.760368
vt 0.671169 0.712943
vt 0.650675 0.716053
vt 0.632905 0.720614
vt 0.617707 0.729702
vt 0.667967 0.698125
vt 0.647262 0.700919
vt 0.625573 0.700787
vt 0.608577 0.711795
vt 0.602205 0.735918
vt 0.582885 0.747466
vt 0.665026 0.686703
vt 0.640549 0.691006
vt 0.615931 0.684473
vt 0.600953 0.697900
vt 0.593629 0.718189
vt 0.573272 0.728127
vt 0.563216 0.754671
vt 0.541638 0.749331
vt 0.592293 0.679495
vt 0.585563 0.703306
vt 0.565435 0.714185
vt 0.553157 0.735998
vt 0.538528 0.734588
vt 0.520777 0.751276
vt 0.575716 0.684611
vt 0.559901 0.691586
vt 0.547431 0.703025
vt 0.547269 0.723978
vt 0.541190 0.716353
vt 0.310968 0.165426
vt 0.303301 0.151126
vt 0.282045 0.161032
vt 0.266839 0.130666
vt 0.262286 0.136765
vt 0.339287 0.153123
vt 0.253061 0.095099
vt 0.150319 0.376036
vt 0.148491 0.364188
vt 0.144499 0.376752
vt 0.141529 0.363190
vt 0.132660 0.372742
vt 0.138380 0.385840
vt 0.148710 0.384176
vt 0.153775 0.384705
vt 0.150891 0.392836
vt 0.150234 0.344881
vt 0.142905 0.346898
vt 0.127807 0.361992
vt 0.111230 0.373397
vt 0.120640 0.382035
vt 0.141608 0.325813
vt 0.135557 0.330974
vt 0.113479 0.351983
vt 0.084395 0.367260
vt 0.085612 0.371838
vt 0.109100 0.379151
vt 0.126789 0.309659
vt 0.120817 0.315138
vt 0.101937 0.332457
vt 0.076092 0.356166
vt 0.069906 0.361840
vt 0.084145 0.374727
vt 0.105958 0.298835
vt 0.083232 0.319296
vt 0.065795 0.346967
vt 0.058396 0.346571
vt 0.061366 0.345369
vt 0.056222 0.321754
vt 0.111537 0.293033
vt 0.090582 0.290407
vt 0.074356 0.304270
vt 0.061824 0.319841
vt 0.049128 0.305434
vt 0.045266 0.308317
vt 0.036539 0.294028
vt 0.093083 0.283281
vt 0.074392 0.290628
vt 0.056865 0.294870
vt 0.039406 0.292996
vt 0.041266 0.286865
vt 0.037727 0.284388
vt 0.046293 0.281737
vt 0.044959 0.277542
vt 0.074021 0.283687
vt 0.061214 0.286269
vt 0.054246 0.280854
vt 0.062698 0.280479
vt 0.054268 0.275467
vt 0.117430 0.385941
vt 0.128675 0.391347
vt 0.136392 0.396919
vt 0.142189 0.395405
vt 0.147180 0.391252
vt 0.125683 0.394646
vt 0.135622 0.399723
vt 0.144300 0.398785
s 1
g off
g Antebrazo_der_Material.001
usemtl Material.001
f 27/1/1 26/2/2 20/3/3
f 6/4/4 27/1/1 20/3/3
f 6/4/4 20/3/3 7/5/5
f 4/6/6 6/4/4 7/5/5
s 2
f 22/7/7 23/8/8 30/9/9
f 21/10/10 22/7/7 30/9/9
f 21/10/10 30/9/9 25/11/11
f 5/12/12 21/10/10 25/11/11
s 3
f 9/13/13 16/14/14 8/15/15
f 24/16/16 9/13/13 8/15/15
f 10/17/17 24/16/16 8/15/15
f 15/18/18 10/17/17 8/15/15
s 4
f 19/19/19 28/20/20 11/21/21
f 14/22/22 19/19/19 11/21/21
f 12/23/23 14/22/22 11/21/21
f 29/24/24 12/23/23 11/21/21
s 5
f 18/25/25 17/26/26 31/27/27
f 41/28/28 18/25/25 31/27/27
f 13/29/29 41/28/28 31/27/27
f 32/30/30 13/29/29 31/27/27
s 6
f 54/23/31 57/24/32 55/21/33
f 51/22/34 54/23/31 55/21/33
f 51/22/34 55/21/33 53/20/35
f 39/19/36 51/22/34 53/20/35
s 7
f 56/17/37 50/18/38 42/15/39
f 38/16/40 56/17/37 42/15/39
f 38/16/40 42/15/39 43/14/41
f 40/13/42 38/16/40 43/14/41
s 8
f 52/8/43 49/7/44 34/10/45
f 33/9/46 52/8/43 34/10/45
f 36/11/47 33/9/46 34/10/45
f 48/12/48 36/11/47 34/10/45
s 9
f 35/4/49 46/6/50 47/5/51
f 44/3/52 35/4/49 47/5/51
f 45/1/53 35/4/49 44/3/52
f 37/2/54 45/1/53 44/3/52
s 10
f 2/31/55 3/32/56 1/33/57
s 11
f 215/2/58 217/1/59 216/3/60
f 217/1/59 214/4/61 216/3/60
f 216/3/60 214/4/61 228/5/62
f 214/4/61 226/6/63 228/5/62
s 12
f 224/8/64 222/7/65 231/9/66
f 222/7/65 229/10/67 231/9/66
f 231/9/66 229/10/67 227/11/68
f 229/10/67 225/12/69 227/11/68
s 13
f 223/14/70 221/13/71 230/15/72
f 221/13/71 233/16/73 230/15/72
f 230/15/72 233/16/73 232/17/74
f 219/18/75 230/15/72 232/17/74
s 14
f 234/20/76 235/19/77 220/21/78
f 235/19/77 218/22/79 220/21/78
f 220/21/78 218/22/79 237/23/80
f 238/24/81 220/21/78 237/23/80
s 15
f 236/26/82 245/25/83 249/27/84
f 245/25/83 248/28/85 249/27/84
f 249/27/84 248/28/85 246/29/86
f 247/30/87 249/27/84 246/29/86
s 16
f 250/24/88 251/23/89 252/21/90
f 251/23/89 254/22/91 252/21/90
f 252/21/90 254/22/91 253/20/92
f 254/22/91 255/19/93 253/20/92
s 17
f 244/18/94 243/17/95 242/15/96
f 243/17/95 240/16/97 242/15/96
f 242/15/96 240/16/97 239/14/98
f 240/16/97 267/13/99 239/14/98
s 18
f 256/7/100 241/8/101 257/10/102
f 241/8/101 265/9/103 257/10/102
f 257/10/102 265/9/103 266/11/104
f 258/12/105 257/10/102 266/11/104
s 19
f 264/5/106 263/6/107 259/4/108
f 261/3/109 264/5/106 259/4/108
f 261/3/109 259/4/108 260/1/110
f 262/2/111 261/3/109 260/1/110
s 20
f 89/34/112 73/35/113 66/36/114
f 73/35/113 98/32/115 66/36/114
f 66/36/114 98/32/115 91/37/116
f 98/32/115 78/31/117 91/37/116
f 75/33/118 98/32/115 60/38/119
f 77/39/120 60/38/119 98/32/115
f 77/39/120 92/40/121 60/38/119
f 74/41/122 98/32/115 73/35/113
f 98/32/115 74/41/122 77/39/120
f 74/41/122 69/42/123 77/39/120
f 69/42/123 122/43/124 77/39/120
f 122/43/124 97/44/125 77/39/120
f 97/44/125 92/40/121 77/39/120
f 65/45/126 122/43/124 69/42/123
f 65/45/126 116/46/127 122/43/124
f 116/46/127 138/47/128 122/43/124
f 100/48/129 122/43/124 138/47/128
f 101/49/130 122/43/124 100/48/129
f 122/43/124 101/49/130 109/50/131
f 122/43/124 109/50/131 108/51/132
f 108/51/132 97/44/125 122/43/124
f 101/49/130 100/48/129 140/52/133
f 106/53/134 101/49/130 140/52/133
f 106/53/134 145/54/135 101/49/130
f 101/49/130 145/54/135 109/50/131
f 100/48/129 103/55/136 140/52/133
f 140/52/133 103/55/136 142/56/137
f 114/57/138 140/52/133 142/56/137
f 119/58/139 140/52/133 114/57/138
f 104/59/140 140/52/133 119/58/139
f 117/60/141 140/52/133 104/59/140
f 106/53/134 140/52/133 117/60/141
s 21
f 183/61/142 187/62/143 212/63/144
f 184/64/145 183/61/142 212/63/144
f 183/61/142 184/64/145 173/65/146
f 184/64/145 212/63/144 206/66/147
f 210/67/148 184/64/145 206/66/147
f 184/64/145 210/67/148 169/68/149
f 184/64/145 169/68/149 173/65/146
f 173/65/146 169/68/149 170/69/150
f 169/68/149 213/70/151 170/69/150
f 170/69/150 213/70/151 205/71/152
f 210/67/148 206/66/147 208/72/153
f 177/73/154 210/67/148 208/72/153
f 210/67/148 177/73/154 171/74/155
f 210/67/148 171/74/155 169/68/149
f 169/68/149 171/74/155 213/70/151
f 167/75/156 194/76/157 148/77/158
f 194/76/157 149/78/159 148/77/158
f 208/72/153 148/77/158 149/78/159
f 177/73/154 208/72/153 149/78/159
f 177/73/154 149/78/159 176/79/160
f 182/80/161 177/73/154 176/79/160
f 177/73/154 182/80/161 171/74/155
f 186/81/162 193/82/163 167/75/156
f 193/82/163 194/76/157 167/75/156
f 193/82/163 161/83/164 194/76/157
f 161/83/164 165/84/165 194/76/157
f 194/76/157 165/84/165 176/79/160
f 149/78/159 194/76/157 176/79/160
f 175/85/166 168/86/167 186/81/162
f 168/86/167 193/82/163 186/81/162
f 168/86/167 163/87/168 193/82/163
f 163/87/168 161/83/164 193/82/163
f 168/86/167 175/85/166 180/88/169
f 195/89/170 168/86/167 180/88/169
f 168/86/167 195/89/170 164/90/146
f 163/87/168 168/86/167 164/90/146
f 163/87/168 164/90/146 160/91/171
f 158/92/172 163/87/168 160/91/171
f 163/87/168 158/92/172 161/83/164
f 158/92/172 162/93/173 161/83/164
f 161/83/164 162/93/173 159/94/174
f 165/84/165 161/83/164 159/94/174
f 165/84/165 159/94/174 176/79/160
f 158/92/172 160/91/171 179/95/175
f 209/96/176 158/92/172 179/95/175
f 158/92/172 209/96/176 162/93/173
f 209/96/176 207/97/177 162/93/173
f 162/93/173 207/97/177 178/98/178
f 159/94/174 162/93/173 178/98/178
f 159/94/174 178/98/178 166/99/179
f 159/94/174 166/99/179 176/79/160
f 176/79/160 166/99/179 172/100/180
f 182/80/161 176/79/160 172/100/180
f 182/80/161 172/100/180 171/74/155
f 209/96/176 179/95/175 151/101/181
f 152/102/182 209/96/176 151/101/181
f 207/97/177 209/96/176 152/102/182
f 204/103/183 207/97/177 152/102/182
f 207/97/177 204/103/183 197/104/184
f 178/98/178 207/97/177 197/104/184
f 178/98/178 197/104/184 181/105/185
f 178/98/178 181/105/185 166/99/179
f 166/99/179 181/105/185 174/106/186
f 172/100/180 166/99/179 174/106/186
f 172/100/180 174/106/186 157/107/187
f 172/100/180 157/107/187 171/74/155
f 171/74/155 157/107/187 213/70/151
f 213/70/151 157/107/187 211/108/188
f 213/70/151 211/108/188 205/71/152
f 197/104/184 204/103/183 202/109/189
f 197/104/184 202/109/189 189/110/190
f 197/104/184 189/110/190 181/105/185
f 174/106/186 181/105/185 189/110/190
f 190/111/191 174/106/186 189/110/190
f 174/106/186 190/111/191 185/112/192
f 174/106/186 185/112/192 157/107/187
f 157/107/187 185/112/192 211/108/188
f 211/108/188 185/112/192 198/113/193
f 211/108/188 198/113/193 150/114/194
f 205/71/152 211/108/188 150/114/194
f 202/109/189 191/115/195 189/110/190
f 191/115/195 192/116/196 189/110/190
f 192/116/196 190/111/191 189/110/190
f 200/117/197 190/111/191 192/116/196
f 190/111/191 200/117/197 199/118/198
f 190/111/191 199/118/198 185/112/192
f 185/112/192 199/118/198 198/113/193
f 196/119/199 198/113/193 199/118/198
f 200/117/197 196/119/199 199/118/198
s 22
f 203/120/200 201/121/201 154/122/202
f 154/122/202 201/121/201 156/123/203
f 155/124/204 154/122/202 156/123/203
f 203/120/200 188/125/205 201/121/201
f 153/126/206 155/124/204 156/123/203
s 23
f 61/127/207 63/128/208 79/129/209
f 63/128/208 58/130/210 79/129/209
f 79/129/209 58/130/210 147/131/211
f 79/129/209 147/131/211 76/132/212
f 90/133/213 79/129/209 76/132/212
f 61/127/207 79/129/209 90/133/213
f 86/134/214 61/127/207 90/133/213
f 88/135/215 86/134/214 90/133/213
f 63/128/208 87/136/121 58/130/210
f 87/136/121 59/137/216 58/130/210
f 59/137/216 99/138/217 58/130/210
f 99/138/217 147/131/211 58/130/210
f 99/138/217 81/139/218 147/131/211
f 81/139/218 85/140/219 147/131/211
f 76/132/212 147/131/211 85/140/219
f 87/136/121 95/141/220 59/137/216
f 95/141/220 62/142/221 59/137/216
f 59/137/216 62/142/221 68/143/222
f 68/143/222 99/138/217 59/137/216
f 99/138/217 68/143/222 81/139/218
f 81/139/218 68/143/222 93/144/223
f 94/145/224 81/139/218 93/144/223
f 81/139/218 94/145/224 80/146/123
f 81/139/218 80/146/123 85/140/219
f 95/141/220 135/147/225 62/142/221
f 135/147/225 133/148/226 62/142/221
f 133/148/226 144/149/227 62/142/221
f 144/149/227 68/143/222 62/142/221
f 68/143/222 144/149/227 143/150/228
f 93/144/223 68/143/222 143/150/228
f 143/150/228 146/151/127 93/144/223
f 93/144/223 146/151/127 96/152/229
f 94/145/224 93/144/223 96/152/229
f 94/145/224 96/152/229 80/146/123
f 136/153/230 133/148/226 135/147/225
f 133/148/226 136/153/230 144/149/227
f 136/153/230 124/154/231 144/149/227
f 143/150/228 144/149/227 124/154/231
f 123/155/232 143/150/228 124/154/231
f 123/155/232 146/151/127 143/150/228
f 137/156/233 146/151/127 123/155/232
f 125/157/234 137/156/233 123/155/232
f 111/158/129 137/156/233 125/157/234
f 139/159/235 136/153/230 135/147/225
f 129/160/236 136/153/230 139/159/235
f 129/160/236 124/154/231 136/153/230
f 128/161/237 124/154/231 129/160/236
f 130/162/238 124/154/231 128/161/237
f 123/155/232 124/154/231 130/162/238
f 125/157/234 123/155/232 130/162/238
f 130/162/238 111/158/129 125/157/234
f 130/162/238 113/163/239 111/158/129
f 113/163/239 112/164/240 111/158/129
f 112/164/240 113/163/239 102/165/137
f 134/166/135 129/160/236 139/159/235
f 132/167/241 129/160/236 134/166/135
f 129/160/236 132/167/241 128/161/237
f 132/167/241 110/168/242 128/161/237
f 130/162/238 128/161/237 110/168/242
f 113/163/239 130/162/238 110/168/242
f 113/163/239 110/168/242 105/169/243
f 113/163/239 105/169/243 102/165/137
f 105/169/243 141/170/244 102/165/137
f 141/170/244 115/171/138 102/165/137
f 141/170/244 107/172/245 115/171/138
f 107/172/245 118/173/139 115/171/138
f 120/174/246 132/167/241 134/166/135
f 132/167/241 120/174/246 131/175/247
f 110/168/242 132/167/241 131/175/247
f 126/176/248 110/168/242 131/175/247
f 110/168/242 126/176/248 107/172/245
f 110/168/242 107/172/245 141/170/244
f 110/168/242 141/170/244 105/169/243
f 120/174/246 121/177/249 131/175/247
f 126/176/248 131/175/247 121/177/249
f 127/178/250 126/176/248 121/177/249
f 126/176/248 127/178/250 118/173/139
f 107/172/245 126/176/248 118/173/139
f 80/146/123 83/179/122 85/140/219
f 85/140/219 83/179/122 72/180/251
f 72/180/251 76/132/212 85/140/219
f 76/132/212 72/180/251 71/181/252
f 70/182/253 76/132/212 71/181/252
f 64/183/254 76/132/212 70/182/253
f 64/183/254 90/133/213 76/132/212
f 64/183/254 88/135/215 90/133/213
f 83/179/122 84/184/255 72/180/251
f 84/184/255 67/185/112 72/180/251
f 67/185/112 71/181/252 72/180/251
f 71/181/252 67/185/112 70/182/253
f 67/185/112 82/186/256 70/182/253
f 70/182/253 82/186/256 64/183/254
f 82/186/256 88/135/215 64/183/254
