# Blender 3.6.0
# www.blender.org
mtllib BIKarma.mtl
g Antebrazo_izq_Mesh
v -3.401917 -5.020782 9.970276
v -0.326841 -1.834152 9.562682
v -1.847290 -2.134201 8.779573
v -7.284205 -9.129745 12.555079
v -12.371688 -8.787108 8.776970
v -9.216876 -4.058944 5.748162
v -6.883084 -4.757354 7.306958
v -8.870887 -8.927413 10.411627
v -4.748408 -0.433228 4.303009
v -2.547301 -1.233993 6.797698
v -5.676909 -4.835739 8.504246
v -2.737278 -8.288100 14.803045
v -0.272167 -5.246840 12.353827
v -2.382519 -5.441939 11.640377
v -0.105314 -8.994262 16.186691
v -4.529569 -9.830565 14.625223
v -4.282235 -1.307419 5.747674
v -6.303462 -0.118592 3.390384
v -7.449829 0.365615 1.778770
v -11.007972 -9.649690 -9.456375
v -4.239082 -2.339387 -6.728918
v -9.750506 -4.275849 -6.095911
v -7.771577 -5.510697 -7.786723
v -3.428016 -7.158219 -11.744328
v -6.969258 -11.607926 -13.786558
v -0.078014 -2.835878 -10.818516
v -9.441325 -10.844895 -10.363831
v -4.321210 -7.321305 -10.811281
v -1.380846 -7.465135 -13.597895
v -3.509642 -11.648042 -17.063648
v -15.623254 -8.396165 -7.290774
v -6.912227 0.276869 -3.897115
v -2.317640 -2.384965 -8.457405
v -7.950371 0.472411 -2.437641
v -1.790148 -2.659227 -9.293093
v -4.715507 -1.023988 -6.292954
v -10.729885 -3.874772 -4.918479
v -12.055031 -2.861237 -2.826325
v -5.341210 -11.122651 -14.582077
v -6.903029 -6.989411 -8.360985
v -6.112733 -0.510194 -5.179586
v -16.277763 -7.504929 -5.981360
v -12.456942 -2.040116 -1.253918
v -11.604715 -2.799668 2.866004
v -17.440992 -4.644348 -1.710907
v -17.440315 -5.863571 4.326510
v -6.538727 -0.631089 2.927771
v -8.666920 1.217986 1.232336
v -17.492950 -4.704483 2.395200
v -8.495411 1.618972 -0.547689
v -9.936127 -3.951858 4.964161
v -13.808404 -7.535614 7.251980
v -17.915394 -5.578263 -3.202308
v -12.304935 -1.993958 1.805006
v -4.042620 7.585800 -2.340566
v -3.705732 3.340041 -4.960413
v -3.318048 7.188202 -2.755003
v -5.518093 -1.588029 -7.120439
v -13.116518 -1.133897 0.057422
v -4.685548 -2.347276 -6.409263
v -12.199884 -2.028809 0.057424
v -11.180660 -2.122163 -4.268167
v -1.265168 2.479308 -7.779316
v -2.871095 6.993408 -2.419649
v -0.487851 2.170821 -7.039109
v -4.012955 7.405701 0.057496
v -7.833478 -3.741929 -5.513589
v -2.822690 3.136412 -4.364656
v -2.871095 6.993408 -2.419649
v -7.398471 2.614058 -3.827394
v -2.672470 -2.598115 -8.216343
v -2.494616 -3.179521 -10.817600
v -1.422614 -4.083467 -9.881285
v -4.012955 7.405701 0.057496
v -2.822690 3.136412 -4.364656
v 1.581343 -1.143785 -11.041340
v -5.225793 -0.981904 -4.601431
v 1.805550 0.856612 -10.224022
v -1.422614 -4.083467 -9.881285
v 0.316247 -3.068117 -11.060764
v -9.684601 3.196074 0.057453
v -5.156698 8.017105 0.057492
v -7.833478 -3.741929 -5.513589
v -3.559732 -1.887879 -8.978498
v -8.325530 -2.670640 -6.393551
v -5.971220 0.774246 6.427423
v -0.487851 2.170821 -7.039109
v -5.518174 -1.588058 7.235364
v -8.325604 -2.670670 6.508440
v 1.254640 1.167479 -10.819284
v 1.805550 0.856612 -10.224022
v 1.581343 -1.143785 -11.041340
v -4.685548 -2.347276 -6.409263
v -2.672470 -2.598115 -8.216343
v 0.862254 -0.487184 -11.791733
v -1.619148 -1.234056 -7.662030
v -10.565861 -3.206895 -3.381449
v -12.199884 -2.028809 0.057424
v -7.142729 1.252151 0.057461
v 0.316247 -3.068117 -11.060764
v -0.351729 -2.340700 -11.864956
v -2.816196 0.176924 -8.812740
v -5.971147 0.774275 -6.312490
v -10.565861 -3.206895 -3.381449
v 1.805430 0.856567 10.339043
v 1.581213 -1.143845 11.156347
v 0.316117 -3.068176 11.175745
v -1.726948 -0.033463 10.114265
v -0.351869 -2.340759 11.979935
v -2.672567 -2.598160 8.331299
v -1.422730 -4.083526 9.996244
v -1.619228 -1.234100 7.777019
v -2.494745 -3.179580 10.932549
v -3.318079 7.188187 2.870002
v 1.581213 -1.143845 11.156347
v -0.313145 2.264847 8.969094
v 1.254516 1.167419 10.934330
v -2.871124 6.993393 2.534652
v -2.871124 6.993393 2.534652
v -3.559832 -1.887939 9.093447
v -4.685622 -2.347305 6.524195
v -5.225848 -0.981934 4.716363
v -2.822742 3.136398 4.479638
v 0.862117 -0.487244 11.906757
v -4.042646 7.585785 2.455556
v -3.705790 3.340011 5.075386
v -7.833540 -3.741958 5.628475
v -10.565899 -3.206909 3.496309
v 0.424319 1.917175 8.171759
v -1.400176 2.424392 6.136471
v -4.074315 0.306152 7.687016
v -11.180710 -2.122193 4.383024
v -7.833540 -3.741958 5.628475
v -10.565899 -3.206909 3.496309
v 1.805430 0.856567 10.339043
v -1.422730 -4.083526 9.996244
v 0.316117 -3.068176 11.175745
v -2.672567 -2.598160 8.331299
v -4.685622 -2.347305 6.524195
v -1.400176 2.424392 6.136471
v -7.412072 2.616134 3.935119
v -2.217365 2.693634 6.819546
v -2.822742 3.136398 4.479638
v 0.424319 1.917175 8.171759
v -3.401312 -6.969238 4.733010
v -13.371452 -17.731796 -4.508025
v -14.860556 -16.440338 -2.627675
v -11.717024 -19.648499 -3.445900
v 1.286019 -0.659378 6.097179
v -10.812349 -20.416908 -1.042233
v -0.007602 -1.863678 5.681787
v 0.708724 1.988433 5.622005
v 0.318193 -0.709230 -6.939379
v 0.186085 -3.222169 -4.047215
v 0.186085 -3.222169 -4.047215
v 1.251658 -4.684052 0.245752
v -4.379030 2.182296 0.349869
v 1.251658 -4.684052 0.245752
v -1.543725 0.988875 -5.957991
v -0.266424 2.630644 -6.282800
v -2.932382 0.520644 4.396473
v 1.317370 -3.630371 4.435338
v -0.488366 4.292755 3.758001
v -7.191692 -14.854675 2.107929
v -8.720179 -13.569122 3.463699
v -1.222712 -8.564178 3.214822
v -11.238253 -11.689102 2.848943
v -6.361636 -5.265518 3.344514
v -6.659927 -15.527542 -0.647252
v -12.163280 -21.749954 1.086367
v -14.572006 -16.886734 1.898973
v 0.438555 -6.713501 -0.177639
v 0.438555 -6.713501 -0.177639
v -0.790610 -5.073319 -3.326399
v -12.839930 -20.977669 -4.079663
v -14.493715 -19.704193 -4.236021
v -2.840019 -2.413041 -5.540342
v -5.574491 -1.164048 -3.029268
v -4.372651 -2.045960 3.620144
v -15.784956 -18.659454 1.826451
v -1.226005 -3.835830 4.903871
v -12.223324 -18.535126 2.602851
v -13.444225 -20.472649 2.588772
v 0.529203 -6.224319 3.688003
v -11.697973 -22.173897 -1.351460
v -1.212887 -8.923203 -0.554961
v -6.844112 -4.498993 -2.770816
v -11.221237 -11.253586 -2.672560
v -16.543825 -17.883850 -3.095884
v -6.277124 -0.654359 0.057249
v -4.695594 -5.422379 -4.444103
v -2.467551 -7.220032 -3.434922
v -7.379063 -4.058243 -0.117777
v -11.763885 -10.977722 -0.336806
v -6.659927 -15.527542 -0.647252
v -10.939188 -19.939575 1.466286
v -17.231266 -17.389862 -1.158805
v -15.549973 -16.028748 -0.734804
v -7.395898 -14.577042 -3.218658
v -1.212887 -8.923203 -0.554961
v -9.756311 -12.479553 -4.335642
v -1.158961 4.874130 0.563923
v -3.984184 1.507338 -2.884655
v -1.543725 0.988875 -5.957991
v -1.151777 4.318526 -2.720880
v -10.812349 -20.416908 -1.042233
v -11.697973 -22.173897 -1.351460
v -1.151777 4.318526 -2.720880
v -4.282235 -1.307419 5.747674
v -2.547301 -1.233993 6.797698
v -2.737278 -8.288100 14.803045
v -1.847290 -2.134201 8.779573
v -0.326841 -1.834152 9.562682
v -6.303462 -0.118592 3.390384
v -12.371688 -8.787108 8.776970
v -4.529569 -9.830565 14.625223
v -0.105314 -8.994262 16.186691
v -2.382519 -5.441939 11.640377
v -0.272167 -5.246840 12.353827
v -4.748408 -0.433228 4.303009
v -5.676909 -4.835739 8.504246
v -7.284205 -9.129745 12.555079
v -16.277763 -7.504929 -5.981360
v -17.915394 -5.578263 -3.202308
v -9.936127 -3.951858 4.964161
v -8.666920 1.217986 1.232336
v -12.456942 -2.040116 -1.253918
v -12.304935 -1.993958 1.805006
v -3.401917 -5.020782 9.970276
v -6.883084 -4.757354 7.306958
v -9.216876 -4.058944 5.748162
v -10.729885 -3.874772 -4.918479
v -6.538727 -0.631089 2.927771
v -8.870887 -8.927413 10.411627
v -11.604715 -2.799668 2.866004
v -13.808404 -7.535614 7.251980
v -17.440992 -4.644348 -1.710907
v -17.492950 -4.704483 2.395200
v -6.912227 0.276869 -3.897115
v -8.495411 1.618972 -0.547689
v -7.950371 0.472411 -2.437641
v -7.449829 0.365615 1.778770
v -17.440315 -5.863571 4.326510
v -6.969258 -11.607926 -13.786558
v -9.441325 -10.844895 -10.363831
v -3.428016 -7.158219 -11.744328
v -4.715507 -1.023988 -6.292954
v -2.317640 -2.384965 -8.457405
v -15.623254 -8.396165 -7.290774
v -4.239082 -2.339387 -6.728918
v -11.007972 -9.649690 -9.456375
v -9.750506 -4.275849 -6.095911
v -12.055031 -2.861237 -2.826325
v -6.112733 -0.510194 -5.179586
v -4.321210 -7.321305 -10.811281
v -7.771577 -5.510697 -7.786723
v -6.903029 -6.989411 -8.360985
v -5.341210 -11.122651 -14.582077
v -3.509642 -11.648042 -17.063648
v -1.790148 -2.659227 -9.293093
v -1.380846 -7.465135 -13.597895
v -0.078014 -2.835878 -10.818516
vn 0.4515 -0.6244 -0.6374
vn 0.3800 -0.6146 -0.6912
vn 0.3472 -0.6549 -0.6712
vn 0.2544 -0.6792 -0.6884
vn 0.2278 -0.7160 -0.6598
vn 0.1760 -0.7000 -0.6921
vn 0.4107 -0.6566 -0.6326
vn 0.3940 -0.6502 -0.6497
vn 0.3763 -0.6705 -0.6394
vn 0.3422 -0.6843 -0.6440
vn 0.3242 -0.7039 -0.6320
vn 0.3083 -0.6979 -0.6465
vn 0.2887 -0.6397 -0.7124
vn 0.2880 -0.6392 -0.7131
vn 0.2876 -0.6453 -0.7077
vn 0.2804 -0.6465 -0.7095
vn 0.2875 -0.6518 -0.7018
vn 0.3006 -0.6485 -0.6993
vn 0.2705 -0.6107 -0.7442
vn 0.2913 -0.6608 -0.6917
vn 0.2717 -0.6900 -0.6709
vn 0.3023 -0.7134 -0.6322
vn 0.2516 -0.7180 -0.6489
vn 0.2084 -0.7150 -0.6674
vn 0.6846 -0.7225 -0.0968
vn 0.6728 -0.7375 -0.0592
vn 0.5727 -0.8190 -0.0340
vn 0.5651 -0.8249 -0.0156
vn 0.4631 -0.8862 -0.0079
vn 0.4636 -0.8860 -0.0071
vn 0.2834 -0.7018 0.6536
vn 0.3242 -0.7154 0.6190
vn 0.3724 -0.6935 0.6167
vn 0.4708 -0.6776 0.5650
vn 0.5218 -0.6494 0.5532
vn 0.5749 -0.6507 0.4961
vn 0.2256 -0.5539 0.8014
vn 0.2692 -0.5551 0.7870
vn 0.2939 -0.5442 0.7858
vn 0.3533 -0.5342 0.7680
vn 0.3736 -0.5233 0.7659
vn 0.4041 -0.5247 0.7493
vn 0.5599 -0.5307 0.6363
vn 0.5515 -0.5341 0.6407
vn 0.5281 -0.5976 0.6033
vn 0.5166 -0.5865 0.6238
vn 0.5016 -0.6575 0.5622
vn 0.5138 -0.6802 0.5227
vn 0.4800 -0.6716 0.5643
vn 0.5065 -0.6882 0.5195
vn 0.4940 -0.6306 0.5986
vn 0.4993 -0.5820 0.6418
vn 0.5213 -0.5447 0.6569
vn 0.5249 -0.5466 0.6525
vn -0.3800 0.6146 0.6912
vn -0.4515 0.6244 0.6374
vn -0.3472 0.6549 0.6712
vn -0.2544 0.6792 0.6884
vn -0.2278 0.7160 0.6599
vn -0.1760 0.7000 0.6921
vn -0.3940 0.6502 0.6497
vn -0.4107 0.6566 0.6326
vn -0.3763 0.6705 0.6394
vn -0.3421 0.6843 0.6440
vn -0.3242 0.7039 0.6320
vn -0.3083 0.6979 0.6465
vn -0.2880 0.6392 0.7131
vn -0.2887 0.6397 0.7124
vn -0.2875 0.6453 0.7077
vn -0.2804 0.6466 0.7094
vn -0.2874 0.6518 0.7018
vn -0.3006 0.6485 0.6993
vn -0.2913 0.6608 0.6917
vn -0.2705 0.6107 0.7442
vn -0.2717 0.6900 0.6709
vn -0.3023 0.7134 0.6322
vn -0.2516 0.7180 0.6489
vn -0.2084 0.7150 0.6674
vn -0.6728 0.7375 0.0592
vn -0.6846 0.7225 0.0968
vn -0.5727 0.8190 0.0340
vn -0.5651 0.8249 0.0156
vn -0.4631 0.8862 0.0079
vn -0.4636 0.8860 0.0071
vn -0.3242 0.7154 -0.6190
vn -0.2834 0.7018 -0.6536
vn -0.3724 0.6935 -0.6167
vn -0.4708 0.6776 -0.5650
vn -0.5218 0.6494 -0.5532
vn -0.5749 0.6507 -0.4961
vn -0.2692 0.5551 -0.7870
vn -0.2256 0.5539 -0.8014
vn -0.2939 0.5442 -0.7858
vn -0.3533 0.5342 -0.7680
vn -0.3736 0.5233 -0.7659
vn -0.4041 0.5247 -0.7493
vn -0.5515 0.5341 -0.6407
vn -0.5599 0.5307 -0.6363
vn -0.5282 0.5976 -0.6033
vn -0.5166 0.5865 -0.6238
vn -0.5016 0.6575 -0.5622
vn -0.5138 0.6802 -0.5227
vn -0.4940 0.6306 -0.5986
vn -0.5065 0.6882 -0.5195
vn -0.4800 0.6716 -0.5644
vn -0.4992 0.5821 -0.6418
vn -0.5212 0.5447 -0.6570
vn -0.5249 0.5466 -0.6525
vn 0.8167 0.2116 -0.5369
vn 0.8701 0.4514 0.1979
vn 0.9199 -0.3860 0.0689
vn 0.5761 -0.4749 -0.6653
vn 0.7195 0.4355 -0.5410
vn 0.5372 -0.5547 -0.6354
vn 0.9385 0.3413 -0.0520
vn 0.7707 -0.6372 -0.0000
vn 0.9036 0.4159 -0.1026
vn 0.7851 0.6194 -0.0000
vn 0.5366 -0.8027 0.2604
vn 0.1062 -0.9449 -0.3097
vn -0.2520 -0.9088 -0.3327
vn 0.1470 -0.9843 -0.0974
vn 0.1330 -0.9637 0.2314
vn -0.1264 -0.9847 -0.1201
vn -0.4423 -0.8969 -0.0001
vn -0.1264 -0.9847 0.1201
vn 0.5221 -0.5833 0.6223
vn 0.9477 0.2343 0.2168
vn 0.9036 0.4159 0.1026
vn 0.1330 -0.9637 -0.2314
vn 0.1470 -0.9843 0.0974
vn 0.5882 -0.4607 0.6646
vn 0.7828 0.4209 0.4584
vn 0.9360 0.3520 0.0016
vn 0.8977 -0.3602 -0.2537
vn 0.5366 -0.8027 -0.2603
vn 0.1062 -0.9449 0.3097
vn -0.2519 -0.9088 0.3327
vn -0.5769 0.1378 -0.8051
vn -0.8090 0.4953 -0.3165
vn -0.7082 0.3036 -0.6374
vn -0.6950 -0.4354 -0.5721
vn -0.7072 -0.0066 -0.7070
vn 0.7376 -0.5118 0.4404
vn 0.6870 -0.7213 -0.0882
vn 0.8327 -0.5497 -0.0666
vn 0.6404 -0.5294 0.5565
vn 0.1534 -0.1511 0.9765
vn 0.0868 -0.1464 0.9854
vn -0.4877 0.3619 0.7945
vn -0.5755 0.3045 0.7590
vn -0.7435 0.6517 0.1499
vn -0.6354 0.7714 0.0360
vn -0.5983 0.6023 -0.5284
vn -0.4447 0.6028 -0.6625
vn 0.7696 -0.6316 -0.0940
vn 0.5935 -0.5683 0.5699
vn -0.0082 -0.1701 0.9854
vn -0.6063 0.3287 0.7241
vn -0.8286 0.5593 0.0267
vn 0.7720 -0.6029 -0.2013
vn 0.6128 -0.5995 0.5148
vn -0.0213 -0.1195 0.9926
vn -0.6057 0.3409 0.7190
vn -0.9022 0.4191 0.1021
vn -0.7359 0.3929 -0.5514
vn -0.7086 0.4717 -0.5248
vn 0.8367 -0.4886 -0.2472
vn 0.6880 -0.4511 0.5684
vn -0.0845 -0.1810 0.9799
vn -0.6457 0.2604 0.7178
vn -0.8924 0.4452 0.0733
vn -0.7759 0.3136 -0.5474
vn -0.1884 -0.9780 -0.0894
vn 0.1122 -0.5592 0.8214
vn -0.1717 -0.1846 0.9677
vn -0.5664 0.2221 0.7936
vn -0.7650 0.6196 0.1757
vn -0.7240 0.5109 -0.4634
vn -0.2044 -0.1063 -0.9731
vn -0.1669 -0.0479 -0.9848
vn -0.0250 -0.1326 0.9909
vn -0.2264 0.3183 0.9206
vn -0.4333 0.7291 0.5297
vn -0.4928 0.8684 0.0547
vn -0.5128 0.7908 -0.3341
vn -0.5770 0.1381 -0.8050
vn -0.1021 -0.6967 -0.7101
vn 0.5594 -0.4307 -0.7082
vn 0.5051 -0.3495 -0.7892
vn -0.2179 0.1464 -0.9649
vn -0.0829 0.0891 -0.9926
vn -0.1880 -0.9780 -0.0899
vn 0.8364 -0.4882 -0.2492
vn 0.7721 -0.6029 -0.2011
vn 0.5282 -0.3982 -0.7500
vn 0.6065 -0.3428 -0.7174
vn -0.0557 0.0240 -0.9982
vn 0.8327 -0.5498 -0.0659
vn 0.7596 -0.5935 -0.2662
vn 0.5486 -0.0199 -0.8359
vn 0.1471 -0.9843 -0.0974
vn -0.2519 -0.9088 -0.3326
vn -0.7634 -0.3187 0.5619
vn -0.6142 -0.5246 0.5895
vn -0.5414 0.4664 0.6995
vn -0.5339 0.4536 0.7135
vn -0.3709 -0.2734 0.8875
vn -0.4968 -0.1776 0.8495
vn -0.1263 -0.9847 -0.1201
vn 0.1063 -0.9449 -0.3097
vn 0.5366 -0.8027 0.2603
vn 0.0102 -0.1898 0.9818
vn 0.3047 0.2365 0.9226
vn 0.1495 0.7121 0.6860
vn 0.1413 0.9569 0.2538
vn -0.1159 0.9171 0.3814
vn 0.9199 -0.3859 0.0689
vn 0.8701 0.4515 0.1979
vn 0.8167 0.2115 -0.5368
vn -0.1298 0.6753 0.7260
vn -0.4318 0.4464 0.7838
vn -0.5495 0.5528 0.6265
vn -0.8345 -0.0901 0.5436
vn 0.4257 0.6076 0.6705
vn 0.0293 0.9010 0.4328
vn 0.9037 0.4158 -0.1026
vn -0.3825 0.9240 -0.0003
vn -0.7570 0.6534 -0.0005
vn -0.9942 -0.1074 -0.0000
vn -0.4423 -0.8969 -0.0000
vn 0.0291 0.9010 -0.4329
vn -0.5494 0.5527 -0.6266
vn -0.8343 -0.0900 -0.5439
vn -0.1263 -0.9847 0.1201
vn -0.4970 -0.1774 -0.8494
vn 0.4257 0.6076 -0.6705
vn -0.1487 0.6874 -0.7109
vn -0.4662 0.4475 -0.7632
vn 0.1132 0.9559 -0.2711
vn -0.5469 0.4471 -0.7078
vn -0.3889 -0.2844 -0.8763
vn 0.1471 -0.9843 0.0974
vn -0.7395 -0.4632 -0.4884
vn -0.2519 -0.9088 0.3326
vn 0.9360 0.3520 0.0017
vn 0.1029 0.7427 -0.6616
vn 0.2841 0.2494 -0.9258
vn -0.0046 -0.1688 -0.9856
vn -0.6251 -0.5189 -0.5831
vn 0.1063 -0.9449 0.3097
vt 0.816120 0.674808
vt 0.805480 0.665205
vt 0.790401 0.696310
vt 0.777174 0.685133
vt 0.765278 0.717147
vt 0.748406 0.707372
vt 0.780314 0.708175
vt 0.788611 0.722172
vt 0.807740 0.686010
vt 0.820686 0.704416
vt 0.833270 0.667264
vt 0.852635 0.686089
vt 0.793626 0.725253
vt 0.795671 0.735763
vt 0.821699 0.713039
vt 0.827311 0.728654
vt 0.858087 0.720841
vt 0.857082 0.690620
vt 0.822786 0.732738
vt 0.821238 0.744543
vt 0.857130 0.725789
vt 0.859099 0.743363
vt 0.902655 0.734883
vt 0.897130 0.710675
vt 0.961206 0.767709
vt 0.949365 0.764526
vt 0.967476 0.731865
vt 0.946983 0.731919
vt 0.944930 0.692613
vt 0.972346 0.694433
vt 0.348922 0.116905
vt 0.357688 0.119951
vt 0.359837 0.126878
vt 0.344398 0.128684
vt 0.339669 0.116122
vt 0.328290 0.130285
vt 0.332191 0.114431
vt 0.309421 0.122008
vt 0.327418 0.100150
vt 0.318153 0.097578
vt 0.357696 0.134259
vt 0.351247 0.138620
vt 0.343685 0.134675
vt 0.334662 0.135042
vt 0.326695 0.143560
vt 0.315059 0.145644
vt 0.301911 0.143020
vt 0.290079 0.136716
vt 0.289578 0.116448
vt 0.296614 0.101714
vt 0.309358 0.093695
vt 0.282400 0.127731
vt 0.281633 0.116097
vt 0.278113 0.105012
vt 0.285897 0.095616
vt 0.273321 0.089813
vt 0.267266 0.093831
vt 0.264256 0.100920
vt 0.266505 0.108389
vt 0.274874 0.110109
vt 0.303301 0.151126
vt 0.339287 0.153123
vt 0.310968 0.165426
vt 0.282045 0.161032
vt 0.266839 0.130666
vt 0.598689 0.851306
vt 0.587023 0.859207
vt 0.582607 0.849262
vt 0.593829 0.839486
vt 0.609467 0.843447
vt 0.604022 0.831047
vt 0.625200 0.835787
vt 0.620575 0.823759
vt 0.637852 0.817325
vt 0.644355 0.828788
vt 0.650009 0.812196
vt 0.655898 0.824725
vt 0.562294 0.817206
vt 0.575190 0.806185
vt 0.586845 0.798084
vt 0.604123 0.790031
vt 0.622339 0.781499
vt 0.532623 0.777448
vt 0.548512 0.763418
vt 0.563216 0.754671
vt 0.582885 0.747466
vt 0.602205 0.735918
vt 0.617707 0.729702
vt 0.636175 0.775516
vt 0.525227 0.763146
vt 0.541638 0.749331
vt 0.553157 0.735998
vt 0.573272 0.728127
vt 0.593629 0.718189
vt 0.608577 0.711795
vt 0.520777 0.751276
vt 0.538528 0.734588
vt 0.547269 0.723978
vt 0.565435 0.714185
vt 0.585563 0.703306
vt 0.600953 0.697900
vt 0.625573 0.700787
vt 0.632905 0.720614
vt 0.541190 0.716353
vt 0.547431 0.703025
vt 0.559901 0.691586
vt 0.575716 0.684611
vt 0.592293 0.679495
vt 0.615931 0.684473
vt 0.640549 0.691006
vt 0.647262 0.700919
vt 0.650675 0.716053
vt 0.651219 0.770666
vt 0.666098 0.806851
vt 0.665026 0.686703
vt 0.667967 0.698125
vt 0.671169 0.712943
vt 0.670861 0.764858
vt 0.682727 0.803973
vt 0.672774 0.819200
vt 0.687130 0.760368
vt 0.697804 0.798066
vt 0.701440 0.808315
vt 0.684541 0.815095
vt 0.148491 0.364188
vt 0.150319 0.376036
vt 0.144499 0.376752
vt 0.148710 0.384176
vt 0.138380 0.385840
vt 0.132660 0.372742
vt 0.141529 0.363190
vt 0.150234 0.344881
vt 0.142905 0.346898
vt 0.141608 0.325813
vt 0.153775 0.384705
vt 0.150891 0.392836
vt 0.147180 0.391252
vt 0.142189 0.395405
vt 0.136392 0.396919
vt 0.128675 0.391347
vt 0.120640 0.382035
vt 0.144300 0.398785
vt 0.135622 0.399723
vt 0.125683 0.394646
vt 0.117430 0.385941
vt 0.109100 0.379151
vt 0.111230 0.373397
vt 0.127807 0.361992
vt 0.113479 0.351983
vt 0.135557 0.330974
vt 0.085612 0.371838
vt 0.084395 0.367260
vt 0.084145 0.374727
vt 0.069906 0.361840
vt 0.076092 0.356166
vt 0.101937 0.332457
vt 0.120817 0.315138
vt 0.126789 0.309659
vt 0.065795 0.346967
vt 0.083232 0.319296
vt 0.105958 0.298835
vt 0.111537 0.293033
vt 0.090582 0.290407
vt 0.093083 0.283281
vt 0.058396 0.346571
vt 0.061366 0.345369
vt 0.061824 0.319841
vt 0.074356 0.304270
vt 0.056222 0.321754
vt 0.049128 0.305434
vt 0.056865 0.294870
vt 0.074392 0.290628
vt 0.074021 0.283687
vt 0.061214 0.286269
vt 0.062698 0.280479
vt 0.045266 0.308317
vt 0.036539 0.294028
vt 0.039406 0.292996
vt 0.041266 0.286865
vt 0.046293 0.281737
vt 0.054246 0.280854
vt 0.037727 0.284388
vt 0.044959 0.277542
vt 0.054268 0.275467
s 1
g off
g Antebrazo_izq_Material.001
usemtl Material.001
f 3/1/1 2/2/2 14/3/3
f 2/2/2 13/4/4 14/3/3
f 14/3/3 13/4/4 12/5/5
f 13/4/4 15/6/6 12/5/5
s 2
f 17/7/7 10/8/8 11/9/9
f 10/8/8 1/10/10 11/9/9
f 11/9/9 1/10/10 4/11/11
f 1/10/10 16/12/12 4/11/11
s 3
f 18/13/13 9/14/14 6/15/15
f 9/14/14 7/16/16 6/15/15
f 6/15/15 7/16/16 8/17/17
f 5/18/18 6/15/15 8/17/17
s 4
f 19/19/19 47/20/20 44/21/21
f 47/20/20 51/22/22 44/21/21
f 44/21/21 51/22/22 52/23/23
f 46/24/24 44/21/21 52/23/23
s 5
f 50/25/25 48/26/26 43/27/27
f 48/26/26 54/28/28 43/27/27
f 43/27/27 54/28/28 49/29/29
f 45/30/30 43/27/27 49/29/29
s 6
f 53/24/31 42/23/32 38/21/33
f 42/23/32 37/22/34 38/21/33
f 38/21/33 37/22/34 34/19/35
f 37/22/34 32/20/36 34/19/35
s 7
f 31/18/37 20/17/38 22/15/39
f 20/17/38 23/16/40 22/15/39
f 22/15/39 23/16/40 41/13/41
f 23/16/40 36/14/42 41/13/41
s 8
f 33/8/43 21/7/44 28/10/45
f 21/7/44 40/9/46 28/10/45
f 28/10/45 40/9/46 27/11/47
f 25/12/48 28/10/45 27/11/47
s 9
f 39/5/49 30/6/50 29/4/51
f 24/3/52 39/5/49 29/4/51
f 24/3/52 29/4/51 26/2/53
f 35/1/54 24/3/52 26/2/53
s 10
f 213/2/55 212/1/56 218/3/57
f 219/4/58 213/2/55 218/3/57
f 219/4/58 218/3/57 211/5/59
f 217/6/60 219/4/58 211/5/59
s 11
f 210/8/61 209/7/62 221/9/63
f 229/10/64 210/8/61 221/9/63
f 229/10/64 221/9/63 222/11/65
f 216/12/66 229/10/64 222/11/65
s 12
f 220/14/67 214/13/68 231/15/69
f 230/16/70 220/14/67 231/15/69
f 234/17/71 230/16/70 231/15/69
f 215/18/72 234/17/71 231/15/69
s 13
f 233/20/73 242/19/74 235/21/75
f 225/22/76 233/20/73 235/21/75
f 236/23/77 225/22/76 235/21/75
f 243/24/78 236/23/77 235/21/75
s 14
f 226/26/79 240/25/80 227/27/81
f 228/28/82 226/26/79 227/27/81
f 238/29/83 228/28/82 227/27/81
f 237/30/84 238/29/83 227/27/81
s 15
f 223/23/85 224/24/86 253/21/87
f 232/22/88 223/23/85 253/21/87
f 232/22/88 253/21/87 241/19/89
f 239/20/90 232/22/88 241/19/89
s 16
f 251/17/91 249/18/92 252/15/93
f 256/16/94 251/17/91 252/15/93
f 256/16/94 252/15/93 254/13/95
f 247/14/96 256/16/94 254/13/95
s 17
f 250/7/97 248/8/98 255/10/99
f 257/9/100 250/7/97 255/10/99
f 245/11/101 257/9/100 255/10/99
f 244/12/102 245/11/101 255/10/99
s 18
f 261/4/103 259/6/104 258/5/105
f 246/3/106 261/4/103 258/5/105
f 262/2/107 261/4/103 246/3/106
f 260/1/108 262/2/107 246/3/106
s 19
f 129/31/109 105/32/110 106/33/111
f 112/34/112 129/31/109 106/33/111
f 129/31/109 112/34/112 130/35/113
f 112/34/112 122/36/114 130/35/113
f 122/36/114 123/37/115 130/35/113
f 122/36/114 99/38/116 123/37/115
f 123/37/115 99/38/116 118/39/117
f 99/38/116 66/40/118 118/39/117
f 112/34/112 106/33/111 107/41/119
f 111/42/120 112/34/112 107/41/119
f 110/43/121 112/34/112 111/42/120
f 121/44/122 112/34/112 110/43/121
f 112/34/112 121/44/122 122/36/114
f 121/44/122 127/45/123 122/36/114
f 122/36/114 127/45/123 128/46/124
f 99/38/116 122/36/114 128/46/124
f 99/38/116 128/46/124 98/47/125
f 98/47/125 97/48/126 99/38/116
f 99/38/116 97/48/126 77/49/127
f 75/50/128 99/38/116 77/49/127
f 64/51/129 99/38/116 75/50/128
f 99/38/116 64/51/129 66/40/118
f 97/48/126 83/52/130 77/49/127
f 77/49/127 83/52/130 93/53/131
f 96/54/132 77/49/127 93/53/131
f 75/50/128 77/49/127 96/54/132
f 87/55/133 75/50/128 96/54/132
f 78/56/134 87/55/133 96/54/132
f 92/57/135 78/56/134 96/54/132
f 92/57/135 96/54/132 80/58/136
f 80/58/136 96/54/132 79/59/137
f 79/59/137 96/54/132 94/60/138
f 94/60/138 96/54/132 93/53/131
s 20
f 159/61/139 208/62/140 160/63/141
f 153/64/142 159/61/139 160/63/141
f 154/65/143 159/61/139 153/64/142
s 21
f 170/66/144 207/67/145 206/68/146
f 196/69/147 170/66/144 206/68/146
f 170/66/144 196/69/147 183/70/148
f 196/69/147 182/71/149 183/70/148
f 183/70/148 182/71/149 180/72/150
f 182/71/149 171/73/151 180/72/150
f 180/72/150 171/73/151 198/74/152
f 197/75/153 180/72/150 198/74/152
f 197/75/153 198/74/152 147/76/154
f 189/77/155 197/75/153 147/76/154
f 196/69/147 206/68/146 169/78/156
f 164/79/157 196/69/147 169/78/156
f 196/69/147 164/79/157 182/71/149
f 164/79/157 165/80/158 182/71/149
f 182/71/149 165/80/158 171/73/151
f 165/80/158 167/81/159 171/73/151
f 167/81/159 194/82/160 171/73/151
f 194/82/160 198/74/152 171/73/151
f 198/74/152 194/82/160 147/76/154
f 164/79/157 169/78/156 200/83/161
f 166/84/162 164/79/157 200/83/161
f 164/79/157 166/84/162 165/80/158
f 166/84/162 145/85/163 165/80/158
f 145/85/163 168/86/164 165/80/158
f 168/86/164 167/81/159 165/80/158
f 194/82/160 167/81/159 168/86/164
f 193/87/165 194/82/160 168/86/164
f 193/87/165 187/88/166 194/82/160
f 187/88/166 188/89/167 194/82/160
f 194/82/160 188/89/167 147/76/154
f 166/84/162 200/83/161 173/90/168
f 184/91/169 166/84/162 173/90/168
f 166/84/162 184/91/169 145/85/163
f 184/91/169 181/92/170 145/85/163
f 181/92/170 179/93/171 145/85/163
f 179/93/171 168/86/164 145/85/163
f 193/87/165 168/86/164 179/93/171
f 190/94/172 193/87/165 179/93/171
f 190/94/172 178/95/173 193/87/165
f 178/95/173 187/88/166 193/87/165
f 184/91/169 173/90/168 158/96/174
f 162/97/175 184/91/169 158/96/174
f 184/91/169 162/97/175 181/92/170
f 162/97/175 151/98/176 181/92/170
f 151/98/176 161/99/177 181/92/170
f 161/99/177 179/93/171 181/92/170
f 179/93/171 161/99/177 157/100/178
f 190/94/172 179/93/171 157/100/178
f 190/94/172 157/100/178 203/101/179
f 178/95/173 190/94/172 203/101/179
f 177/102/180 178/95/173 203/101/179
f 178/95/173 177/102/180 191/103/181
f 187/88/166 178/95/173 191/103/181
f 151/98/176 162/97/175 149/104/182
f 151/98/176 149/104/182 152/105/183
f 161/99/177 151/98/176 152/105/183
f 163/106/184 161/99/177 152/105/183
f 157/100/178 161/99/177 163/106/184
f 202/107/185 157/100/178 163/106/184
f 157/100/178 202/107/185 205/108/186
f 203/101/179 157/100/178 205/108/186
f 205/108/186 204/109/187 203/101/179
f 204/109/187 177/102/180 203/101/179
f 177/102/180 204/109/187 155/110/188
f 174/111/189 177/102/180 155/110/188
f 177/102/180 174/111/189 191/103/181
f 174/111/189 192/112/190 191/103/181
f 191/103/181 192/112/190 201/113/191
f 187/88/166 191/103/181 201/113/191
f 188/89/167 187/88/166 201/113/191
f 188/89/167 201/113/191 147/76/154
f 201/113/191 146/114/192 147/76/154
f 189/77/155 147/76/154 146/114/192
f 155/110/188 156/115/193 174/111/189
f 156/115/193 172/116/194 174/111/189
f 174/111/189 172/116/194 192/112/190
f 172/116/194 186/117/195 192/112/190
f 192/112/190 186/117/195 199/118/196
f 192/112/190 199/118/196 201/113/191
f 201/113/191 199/118/196 146/114/192
f 199/118/196 148/119/197 146/114/192
f 176/120/198 146/114/192 148/119/197
f 176/120/198 189/77/155 146/114/192
f 186/117/195 195/121/156 199/118/196
f 199/118/196 195/121/156 148/119/197
f 195/121/156 150/122/199 148/119/197
f 150/122/199 185/123/200 148/119/197
f 185/123/200 175/124/201 148/119/197
f 175/124/201 176/120/198 148/119/197
s 22
f 139/125/202 138/126/203 120/127/204
f 120/127/204 138/126/203 113/128/205
f 113/128/205 108/129/206 120/127/204
f 108/129/206 131/130/207 120/127/204
f 131/130/207 88/131/208 120/127/204
f 88/131/208 139/125/202 120/127/204
f 133/132/123 139/125/202 88/131/208
f 89/133/209 133/132/123 88/131/208
f 134/134/210 133/132/123 89/133/209
f 138/126/203 136/135/211 113/128/205
f 113/128/205 136/135/211 137/136/212
f 109/137/213 113/128/205 137/136/212
f 108/129/206 113/128/205 109/137/213
f 124/138/214 108/129/206 109/137/213
f 108/129/206 124/138/214 117/139/215
f 116/140/216 108/129/206 117/139/215
f 108/129/206 116/140/216 142/141/217
f 131/130/207 108/129/206 142/141/217
f 109/137/213 137/136/212 115/142/218
f 124/138/214 109/137/213 115/142/218
f 124/138/214 115/142/218 135/143/219
f 117/139/215 124/138/214 135/143/219
f 117/139/215 135/143/219 116/140/216
f 135/143/219 144/144/220 116/140/216
f 116/140/216 144/144/220 140/145/113
f 142/141/217 116/140/216 140/145/113
f 142/141/217 140/145/113 143/146/115
f 126/147/221 142/141/217 143/146/115
f 142/141/217 126/147/221 131/130/207
f 126/147/221 86/148/222 131/130/207
f 131/130/207 86/148/222 88/131/208
f 86/148/222 89/133/209 88/131/208
f 89/133/209 86/148/222 141/149/223
f 141/149/223 132/150/224 89/133/209
f 132/150/224 134/134/210 89/133/209
f 126/147/221 143/146/115 114/151/225
f 114/151/225 125/152/226 126/147/221
f 125/152/226 141/149/223 126/147/221
f 126/147/221 141/149/223 86/148/222
f 143/146/115 119/153/227 114/151/225
f 114/151/225 119/153/227 125/152/226
f 119/153/227 74/154/118 125/152/226
f 125/152/226 74/154/118 82/155/228
f 125/152/226 82/155/228 141/149/223
f 82/155/228 81/156/229 141/149/223
f 141/149/223 81/156/229 132/150/224
f 81/156/229 59/157/230 132/150/224
f 132/150/224 59/157/230 61/158/231
f 134/134/210 132/150/224 61/158/231
f 82/155/228 74/154/118 55/159/232
f 55/159/232 70/160/233 82/155/228
f 70/160/233 81/156/229 82/155/228
f 81/156/229 70/160/233 62/161/234
f 59/157/230 81/156/229 62/161/234
f 61/158/231 59/157/230 62/161/234
f 104/162/235 61/158/231 62/161/234
f 104/162/235 62/161/234 85/163/236
f 67/164/130 104/162/235 85/163/236
f 55/159/232 74/154/118 69/165/129
f 57/166/237 55/159/232 69/165/129
f 55/159/232 57/166/237 56/167/238
f 70/160/233 55/159/232 56/167/238
f 103/168/239 70/160/233 56/167/238
f 85/163/236 70/160/233 103/168/239
f 62/161/234 70/160/233 85/163/236
f 57/166/237 69/165/129 68/169/128
f 56/167/238 57/166/237 68/169/128
f 63/170/240 56/167/238 68/169/128
f 56/167/238 63/170/240 102/171/241
f 103/168/239 56/167/238 102/171/241
f 103/168/239 102/171/241 58/172/242
f 85/163/236 103/168/239 58/172/242
f 67/164/130 85/163/236 58/172/242
f 60/173/243 67/164/130 58/172/242
f 60/173/243 58/172/242 84/174/244
f 71/175/245 60/173/243 84/174/244
f 65/176/133 63/170/240 68/169/128
f 65/176/133 91/177/246 63/170/240
f 91/177/246 90/178/247 63/170/240
f 102/171/241 63/170/240 90/178/247
f 95/179/248 102/171/241 90/178/247
f 95/179/248 101/180/249 102/171/241
f 101/180/249 72/181/250 102/171/241
f 84/174/244 102/171/241 72/181/250
f 84/174/244 58/172/242 102/171/241
f 95/179/248 90/178/247 91/177/246
f 76/182/135 95/179/248 91/177/246
f 101/180/249 95/179/248 76/182/135
f 100/183/136 101/180/249 76/182/135
f 72/181/250 101/180/249 100/183/136
f 73/184/251 72/181/250 100/183/136
f 73/184/251 71/175/245 72/181/250
f 71/175/245 84/174/244 72/181/250
