# Blender 3.6.0
# www.blender.org
mtllib cartel.mtl
g cartel_Mesh
v -38.920986 77.033508 -1.000010
v -38.920986 92.966476 0.999989
v -38.920986 77.033508 0.999990
v -38.920986 92.966476 -1.000011
v 38.921001 77.033508 0.999997
v 38.921001 92.966476 0.999995
v 38.921001 77.033508 -1.000003
v 38.921001 92.966476 -1.000005
vn -0.0000 -0.0000 -1.0000
vn -1.0000 -0.0000 -0.0000
vn 1.0000 -0.0000 -0.0000
vn -0.0000 -0.0000 1.0000
vn -0.0000 -1.0000 -0.0000
vn -0.0000 1.0000 -0.0000
vt 0.959862 0.731457
vt 0.022895 0.271462
vt 0.953119 0.281409
vt 0.281063 0.003428
vt 0.031063 0.253428
vt 0.031063 0.003428
vt 0.808543 0.001019
vt 0.558543 0.251019
vt 0.558543 0.001019
vt 0.625000 0.750000
vt 0.375000 1.000000
vt 0.375000 0.750000
vt 0.285709 0.734900
vt 0.035709 0.984900
vt 0.035709 0.734900
vt 0.944449 0.743654
vt 0.694449 0.993654
vt 0.694449 0.743654
vt 0.029638 0.721509
vt 0.281063 0.253428
vt 0.808543 0.251019
vt 0.625000 1.000000
vt 0.285709 0.984900
vt 0.944449 0.993654
s 0
g off
g cartel_Material
usemtl Material
f 4/1/1 7/2/1 1/3/1
f 2/4/2 1/5/2 3/6/2
f 8/7/3 5/8/3 7/9/3
f 6/10/4 3/11/4 5/12/4
f 7/13/5 3/14/5 1/15/5
f 4/16/6 6/17/6 8/18/6
f 4/1/1 8/19/1 7/2/1
f 2/4/2 4/20/2 1/5/2
f 8/7/3 6/21/3 5/8/3
f 6/10/4 2/22/4 3/11/4
f 7/13/5 5/23/5 3/14/5
f 4/16/6 2/24/6 6/17/6
