# Blender 3.6.0
# www.blender.org
mtllib Cuadro_05.mtl
g Cuadro_01.004_Mesh
v 7.857130 21.456335 1.948359
v 7.857130 21.339716 0.615388
v 7.615352 21.215494 1.969430
v 7.468443 21.056055 1.832807
v 6.768410 20.340532 1.686332
v 6.518813 20.055981 1.424161
v 6.270895 19.819487 1.439082
v 5.259363 18.811335 1.521878
v 5.023130 18.576000 1.542468
v 5.023130 18.553335 1.283393
v 6.220896 19.756968 1.298181
v 5.309365 18.848906 1.377625
v 7.091608 20.680655 1.865649
v -7.948484 21.456335 1.948358
v -7.706707 21.215494 1.969429
v -7.559797 21.056055 1.832806
v -6.610168 20.055981 1.424160
v -6.362249 19.819487 1.439081
v -5.350717 18.811335 1.521877
v -5.400719 18.848906 1.377624
v -5.114483 18.576000 1.542467
v -7.948484 21.339716 0.615387
v -6.312250 19.756968 1.298180
v -6.859764 20.340532 1.686331
v -5.114483 18.553335 1.283392
v -7.182962 20.680655 1.865648
v 7.857130 0.116619 3.815344
v 7.615351 0.357460 3.794273
v 7.468442 0.490752 3.632038
v 6.518812 1.404674 3.055939
v 6.270895 1.640164 3.029567
v 5.259362 2.647378 2.936042
v 5.309364 2.585329 2.800505
v 5.023129 2.882713 2.915452
v 7.857130 0.000000 2.482373
v 6.220895 1.677266 2.879951
v 6.768409 1.169969 3.363539
v 5.023130 2.860048 2.656378
v 7.091608 0.866153 3.599195
v -7.948485 0.116619 3.815342
v -7.706707 0.357460 3.794271
v -7.559798 0.490752 3.632036
v -6.610168 1.404674 3.055938
v -6.362250 1.640164 3.029566
v -5.350718 2.647378 2.936041
v -5.400720 2.585329 2.800504
v -5.114484 2.882713 2.915451
v -7.948484 0.000000 2.482371
v -6.312251 1.677266 2.879950
v -6.859765 1.169969 3.363538
v -5.114483 2.860048 2.656377
v -7.182963 0.866153 3.599193
v 5.072170 18.639141 1.389806
v -5.163524 18.639141 1.389805
v -5.163525 2.794022 2.776074
v 5.072169 2.794022 2.776075
v -1.244633 13.595544 1.294926
v -2.809044 -0.000000 -3.653448
v -1.508190 13.373802 1.214217
v -1.446396 13.549406 1.278132
v -3.130335 0.203985 -3.579203
v -3.087051 0.029180 -3.642827
v -1.372019 13.580958 1.289617
v -1.487436 13.471233 1.249680
v -3.125629 0.091187 -3.620258
v -2.990507 0.007645 -3.650666
v 1.153279 13.595544 1.294926
v 3.038981 0.203985 -3.579203
v 1.416836 13.373802 1.214217
v 1.355042 13.549406 1.278132
v 1.280665 13.580958 1.289617
v 1.396082 13.471233 1.249680
v 2.995697 0.029180 -3.642827
v 3.034275 0.091187 -3.620258
v 2.717690 -0.000000 -3.653448
v 2.899153 0.007645 -3.650666
v -3.130335 0.262910 -3.741097
v -1.508190 13.432727 1.052322
v -1.446396 13.608331 1.116238
v -1.372019 13.639884 1.127722
v -1.487436 13.530159 1.087785
v -3.087051 0.088103 -3.804723
v -3.125629 0.150112 -3.782153
v -2.809044 0.058926 -3.815343
v -2.990507 0.066568 -3.812560
v -1.244633 13.654469 1.133030
v 1.153279 13.654469 1.133030
v 3.038981 0.262910 -3.741097
v 1.416836 13.432727 1.052322
v 1.355042 13.608331 1.116238
v 1.280665 13.639884 1.127722
v 1.396082 13.530159 1.087785
v 2.995697 0.088103 -3.804723
v 3.034275 0.150112 -3.782153
v 2.717690 0.058926 -3.815343
v 2.899153 0.066568 -3.812560
vn -0.5106 0.0749 0.8565
vn -0.5106 0.0750 0.8565
vn -0.4490 0.0778 0.8902
vn -0.5106 0.0749 0.8566
vn -0.4490 0.0779 0.8902
vn 0.1370 0.0863 0.9868
vn 0.1370 0.0864 0.9868
vn 0.4457 0.0780 0.8918
vn 0.4457 0.0781 0.8918
vn -0.5106 0.0750 0.8566
vn -0.6516 0.0662 0.7556
vn -0.6517 0.0661 0.7556
vn -0.7352 0.0591 0.6753
vn -0.7352 0.0592 0.6753
vn -1.0000 -0.0000 -0.0000
vn -0.0000 -0.1934 0.9811
vn -0.0000 -0.5749 0.8182
vn -0.0000 0.0872 0.9962
vn -0.0000 -0.2724 0.9622
vn -0.0000 -0.1970 0.9804
vn -0.0000 -0.6703 0.7421
vn -0.0000 -0.9962 0.0872
vn 1.0000 -0.0000 -0.0000
vn -0.2802 0.0837 0.9563
vn -0.2802 0.0836 0.9563
vn -0.6516 0.0661 0.7556
vn 0.5106 0.0750 0.8565
vn 0.5106 0.0749 0.8565
vn 0.4490 0.0778 0.8902
vn 0.5106 0.0749 0.8566
vn 0.4490 0.0779 0.8902
vn -0.1370 0.0864 0.9868
vn -0.1370 0.0863 0.9868
vn -0.4457 0.0780 0.8918
vn -0.0000 0.5247 0.8513
vn -0.0001 -0.6703 0.7421
vn -0.0000 0.9962 -0.0872
vn -0.0000 -0.0747 0.9972
vn -0.0000 0.2192 0.9757
vn -0.0000 0.2191 0.9757
vn 0.1576 0.0860 0.9837
vn 0.1576 0.0861 0.9837
vn -0.4456 0.0780 0.8918
vn 0.7352 0.0591 0.6753
vn 0.6516 0.0662 0.7556
vn 0.6517 0.0661 0.7556
vn 0.5106 0.0750 0.8566
vn -0.0000 -0.3813 0.9245
vn -0.0000 -0.0748 0.9972
vn 0.0001 -0.3813 0.9245
vn -0.0000 -0.4355 0.9002
vn -0.0000 -0.4354 0.9002
vn 0.2800 0.0838 0.9563
vn 0.2802 0.0837 0.9563
vn 0.2800 0.0837 0.9563
vn 0.4489 0.0778 0.8902
vn 0.4489 0.0779 0.8902
vn -0.3565 0.0814 0.9308
vn -0.3564 0.0814 0.9308
vn -0.3564 0.0815 0.9308
vn -0.2800 0.0837 0.9563
vn -0.1576 0.0860 0.9837
vn -0.1576 0.0861 0.9837
vn 0.4456 0.0780 0.8918
vn -0.0000 0.3609 0.9326
vn -0.0000 0.7083 0.7059
vn -0.0000 0.4352 0.9003
vn -0.0000 0.3643 0.9313
vn -0.0000 0.7890 0.6144
vn -0.2800 0.0838 0.9563
vn -0.4489 0.0778 0.8902
vn -0.1576 0.0859 0.9837
vn 0.3565 0.0814 0.9308
vn 0.3564 0.0814 0.9308
vn 0.2800 0.0837 0.9564
vn 0.3564 0.0815 0.9308
vn -0.0000 -0.3688 0.9295
vn -0.0001 0.7890 0.6144
vn -0.0000 0.2468 0.9691
vn -0.0000 -0.0465 0.9989
vn -0.0000 -0.0464 0.9989
vn 0.7352 0.0592 0.6753
vn -0.0000 0.5360 0.8442
vn 0.0001 0.5360 0.8442
vn -0.0000 0.5852 0.8109
vn 0.2802 0.0836 0.9563
vn 0.6516 0.0661 0.7556
vn -0.0000 -0.0872 -0.9962
vn -0.9740 -0.2130 -0.0775
vn -0.5496 -0.7850 -0.2858
vn -0.5496 -0.7850 -0.2857
vn -0.0061 0.9397 0.3420
vn -0.2364 0.9131 0.3323
vn -0.0062 0.9397 0.3420
vn -0.2364 0.9130 0.3323
vn -0.9935 0.1068 0.0389
vn -0.9740 -0.2129 -0.0775
vn -0.9740 -0.2130 -0.0774
vn 0.0061 0.9397 0.3420
vn 0.9935 0.1068 0.0389
vn 0.9933 0.1086 0.0395
vn 0.5496 -0.7850 -0.2858
vn 0.9740 -0.2130 -0.0775
vn 0.9740 -0.2129 -0.0775
vn 0.5496 -0.7850 -0.2857
vn 0.2364 0.9131 0.3323
vn 0.2364 0.9130 0.3323
vn 0.5497 -0.7850 -0.2858
vn 0.1110 -0.9339 -0.3399
vn 0.5497 -0.7850 -0.2857
vn -0.0014 -0.9397 -0.3420
vn 0.0014 -0.9397 -0.3420
vn -0.0000 -0.3420 0.9397
vn -0.9933 0.1085 0.0395
vn -0.9935 0.1069 0.0389
vn -0.9933 0.1086 0.0395
vn -0.7112 0.6606 0.2405
vn -0.7112 0.6606 0.2404
vn -0.2365 0.9130 0.3323
vn -0.7112 0.6606 0.2403
vn -0.9494 0.2951 0.1074
vn -0.1110 -0.9339 -0.3399
vn -0.0015 -0.9397 -0.3420
vn -0.9494 0.2950 0.1074
vn -0.5497 -0.7850 -0.2857
vn -0.5497 -0.7850 -0.2858
vn 0.7112 0.6606 0.2404
vn 0.7112 0.6606 0.2405
vn 0.2365 0.9130 0.3323
vn 0.9494 0.2951 0.1074
vn 0.0015 -0.9397 -0.3420
vn 0.9494 0.2950 0.1074
vn -0.0000 0.3420 -0.9397
vt 0.809029 0.523841
vt 0.204390 0.523841
vt 0.212056 0.516069
vt 0.801395 0.516069
vt 0.770754 0.485926
vt 0.243521 0.485926
vt 0.244739 0.484359
vt 0.768743 0.484359
vt 0.195165 0.531666
vt 0.816637 0.531666
vt 0.761114 0.476953
vt 0.252368 0.476953
vt 0.761848 0.476953
vt 0.253102 0.476953
vt 0.184139 0.541798
vt 0.184139 0.094304
vt 0.195165 0.104436
vt 0.158993 0.565796
vt 0.158993 0.070305
vt 0.166801 0.558217
vt 0.166801 0.077885
vt 0.171969 0.553611
vt 0.171969 0.082490
vt 0.252368 0.159149
vt 0.253102 0.159149
vt 0.854566 0.596565
vt 0.162774 0.596565
vt 0.850785 0.565796
vt 0.826487 0.541798
vt 0.261699 0.450622
vt 0.261699 0.177338
vt 0.751859 0.450622
vt 0.751859 0.177338
vt 0.204390 0.112260
vt 0.809029 0.112260
vt 0.212056 0.120032
vt 0.801395 0.120032
vt 0.243521 0.150175
vt 0.770754 0.150175
vt 0.244739 0.151743
vt 0.768743 0.151743
vt 0.127171 0.564735
vt 0.127171 0.071367
vt 0.214083 0.514502
vt 0.214083 0.121600
vt 0.800192 0.121600
vt 0.761114 0.159149
vt 0.816637 0.104436
vt 0.850785 0.070305
vt 0.854566 0.039536
vt 0.162774 0.039536
vt 0.826487 0.094304
vt 0.838656 0.082490
vt 0.842977 0.558217
vt 0.838656 0.553611
vt 0.800192 0.514502
vt 0.842977 0.077885
vt 0.761848 0.159149
vt 0.890559 0.071367
vt 0.890559 0.564735
vt 0.189228 0.070140
vt 0.189228 0.539552
vt 0.828503 0.539552
vt 0.828503 0.070140
vt 0.937055 0.780324
vt 0.799210 0.780324
vt 0.937055 0.658789
vt 0.799210 0.658789
vt 0.885189 0.193318
vt 0.889515 0.195192
vt 0.887297 0.193318
vt 0.887407 0.195192
vt 0.402096 0.284664
vt 0.402618 0.278478
vt 0.404726 0.278478
vt 0.404204 0.284664
vt 0.883262 0.193090
vt 0.881154 0.193090
vt 0.402096 0.401113
vt 0.404204 0.401113
vt 0.883262 0.492687
vt 0.410029 0.413911
vt 0.412137 0.413911
vt 0.881154 0.492687
vt 0.889515 0.490585
vt 0.885189 0.492458
vt 0.887297 0.492458
vt 0.887407 0.490585
vt 0.404726 0.407299
vt 0.402618 0.407299
vt 0.890285 0.485896
vt 0.888178 0.485896
vt 0.888451 0.208692
vt 0.888451 0.477084
vt 0.890559 0.208692
vt 0.890559 0.477084
vt 0.412137 0.271865
vt 0.890285 0.199880
vt 0.408651 0.272873
vt 0.405855 0.274866
vt 0.408651 0.412904
vt 0.405855 0.410911
vt 0.410029 0.271865
vt 0.403747 0.274866
vt 0.406543 0.272873
vt 0.888178 0.199880
vt 0.403747 0.410911
vt 0.406543 0.412904
s 0
g off
g Cuadro_01.004_Material.004
usemtl Material.004
f 30/1/1 6/2/2 7/3/3
f 30/1/4 7/3/3 31/4/5
f 33/5/6 12/6/7 8/7/8
f 33/5/6 8/7/9 32/8/8
f 30/1/10 5/9/11 6/2/10
f 37/10/12 5/9/11 30/1/4
f 34/11/13 9/12/14 38/13/15
f 10/14/15 38/13/15 9/12/13
f 13/15/16 26/16/16 5/9/17
f 5/9/17 26/16/16 24/17/17
f 1/18/18 14/19/18 3/20/19
f 3/20/19 14/19/18 15/21/19
f 3/20/19 15/21/19 4/22/20
f 4/22/20 15/21/19 16/23/20
f 4/22/20 16/23/20 13/15/16
f 13/15/16 16/23/20 26/16/16
f 21/24/21 10/14/22 9/12/21
f 10/14/22 21/24/21 25/25/22
f 35/26/23 2/27/23 1/18/23
f 1/18/23 27/28/23 35/26/23
f 39/29/24 13/15/24 5/9/11
f 39/29/25 5/9/11 37/10/26
f 10/30/18 25/31/18 38/32/18
f 25/31/18 51/33/18 38/32/18
f 17/34/27 43/35/28 18/36/29
f 18/36/29 43/35/30 44/37/31
f 20/38/32 46/39/33 19/40/34
f 19/40/34 46/39/33 45/41/34
f 8/7/35 19/40/35 21/24/21
f 8/7/35 21/24/36 9/12/21
f 2/42/37 22/43/37 14/19/37
f 2/42/37 14/19/37 1/18/37
f 11/44/38 23/45/38 20/38/39
f 11/44/38 20/38/39 12/6/39
f 12/6/40 20/38/39 19/40/35
f 12/6/39 19/40/35 8/7/35
f 23/45/41 46/39/33 20/38/32
f 46/39/33 23/45/41 49/46/42
f 19/40/43 47/47/44 21/24/44
f 47/47/44 19/40/43 45/41/43
f 24/17/45 50/48/46 43/35/30
f 24/17/45 43/35/47 17/34/47
f 18/36/48 11/44/38 7/3/48
f 11/44/49 18/36/50 23/45/49
f 18/36/48 6/2/51 17/34/51
f 6/2/51 18/36/48 7/3/48
f 5/9/17 24/17/17 17/34/52
f 5/9/17 17/34/51 6/2/51
f 40/49/15 14/19/15 48/50/15
f 22/51/15 48/50/15 14/19/15
f 16/23/53 52/52/54 26/16/54
f 16/23/55 42/53/55 52/52/54
f 18/36/56 44/37/57 23/45/41
f 23/45/41 44/37/56 49/46/42
f 28/54/58 1/18/18 3/20/59
f 27/28/18 1/18/18 28/54/59
f 28/54/59 3/20/60 4/22/61
f 28/54/59 4/22/61 29/55/61
f 11/44/62 33/5/6 36/56/63
f 33/5/6 11/44/62 12/6/7
f 34/11/13 8/7/64 9/12/13
f 32/8/64 8/7/64 34/11/13
f 52/52/65 39/29/65 37/10/66
f 52/52/65 37/10/66 50/48/66
f 40/49/18 27/28/18 28/54/67
f 40/49/18 28/54/67 41/57/67
f 41/57/67 28/54/67 29/55/68
f 41/57/67 29/55/68 42/53/68
f 42/53/68 29/55/68 39/29/65
f 42/53/68 39/29/65 52/52/65
f 38/13/37 51/58/37 47/47/69
f 38/13/37 47/47/69 34/11/69
f 39/29/24 4/22/70 13/15/24
f 29/55/61 4/22/61 39/29/24
f 31/4/71 7/3/71 11/44/62
f 11/44/72 36/56/63 31/4/71
f 14/19/18 41/57/73 15/21/74
f 14/19/18 40/49/18 41/57/74
f 16/23/53 41/57/74 42/53/75
f 41/57/76 16/23/55 15/21/76
f 45/41/77 32/8/77 47/47/69
f 47/47/78 32/8/77 34/11/69
f 48/59/22 35/60/22 40/49/22
f 27/28/22 40/49/22 35/60/22
f 49/46/79 36/56/79 46/39/80
f 46/39/80 36/56/79 33/5/80
f 46/39/81 33/5/81 45/41/77
f 45/41/77 33/5/81 32/8/77
f 21/24/44 51/58/23 25/25/23
f 51/58/23 21/24/82 47/47/44
f 44/37/83 31/4/83 36/56/79
f 44/37/84 36/56/79 49/46/79
f 43/35/85 30/1/85 44/37/83
f 44/37/83 30/1/85 31/4/83
f 50/48/66 37/10/66 43/35/85
f 43/35/85 37/10/66 30/1/85
f 26/16/54 52/52/54 24/17/45
f 24/17/45 52/52/86 50/48/87
f 22/61/88 2/62/88 35/63/88
f 22/61/88 35/63/88 48/64/88
f 53/65/18 54/66/18 56/67/18
f 54/66/18 55/68/18 56/67/18
f 83/69/89 62/70/90 65/71/89
f 62/70/91 83/69/89 82/72/91
f 86/73/92 80/74/93 63/75/93
f 86/73/94 63/75/95 57/76/92
f 61/77/96 77/78/96 83/69/97
f 61/77/96 83/69/97 65/71/98
f 87/79/99 86/73/92 57/76/92
f 87/79/99 57/76/92 67/80/99
f 68/81/100 89/82/101 69/83/101
f 89/82/101 68/81/100 88/84/100
f 73/85/102 94/86/103 74/87/103
f 94/86/104 73/85/105 93/88/105
f 87/79/99 71/89/106 91/90/106
f 71/89/107 87/79/99 67/80/99
f 94/86/104 68/81/100 74/87/104
f 68/81/100 94/86/104 88/84/100
f 73/85/108 76/91/109 93/88/110
f 76/91/109 96/92/109 93/88/110
f 84/93/111 95/94/112 58/95/111
f 75/96/112 58/95/111 95/94/112
f 68/81/113 59/97/113 61/77/113
f 68/81/113 61/77/113 58/95/113
f 66/98/113 61/77/113 65/71/113
f 65/71/113 62/70/113 66/98/113
f 61/77/113 66/98/113 58/95/113
f 74/87/113 76/91/113 73/85/113
f 68/81/113 76/91/113 74/87/113
f 68/81/113 58/95/113 75/96/113
f 75/96/113 76/91/113 68/81/113
f 64/99/113 63/75/113 60/100/113
f 59/97/113 63/75/113 64/99/113
f 59/97/113 57/76/113 63/75/113
f 69/83/113 71/89/113 67/80/113
f 59/97/113 68/81/113 69/83/113
f 71/89/113 69/83/113 72/101/113
f 71/89/113 72/101/113 70/102/113
f 59/97/113 69/83/113 57/76/113
f 57/76/113 69/83/113 67/80/113
f 78/103/114 61/77/115 59/97/114
f 61/77/96 78/103/116 77/78/96
f 79/104/117 60/100/118 80/74/93
f 80/74/119 60/100/120 63/75/119
f 81/105/121 59/97/116 64/99/121
f 59/97/116 81/105/121 78/103/116
f 66/98/122 85/106/122 58/95/111
f 58/95/123 85/106/122 84/93/123
f 79/104/118 64/99/124 60/100/118
f 64/99/124 79/104/118 81/105/124
f 62/70/125 82/72/125 66/98/122
f 66/98/122 82/72/126 85/106/122
f 70/102/127 90/107/128 91/90/106
f 91/90/129 71/89/129 70/102/127
f 69/83/101 92/108/130 72/101/130
f 92/108/130 69/83/101 89/82/101
f 75/96/112 96/92/109 76/91/109
f 96/92/109 75/96/131 95/94/131
f 72/101/132 90/107/127 70/102/127
f 90/107/127 72/101/132 92/108/132
f 88/84/133 77/78/133 78/103/133
f 77/78/133 88/84/133 84/93/133
f 83/69/133 85/106/133 82/72/133
f 77/78/133 85/106/133 83/69/133
f 77/78/133 84/93/133 85/106/133
f 96/92/133 88/84/133 94/86/133
f 96/92/133 94/86/133 93/88/133
f 88/84/133 95/94/133 84/93/133
f 95/94/133 88/84/133 96/92/133
f 80/74/133 78/103/133 81/105/133
f 80/74/133 81/105/133 79/104/133
f 78/103/133 80/74/133 86/73/133
f 89/82/133 87/79/133 91/90/133
f 78/103/133 89/82/133 88/84/133
f 92/108/133 91/90/133 90/107/133
f 89/82/133 91/90/133 92/108/133
f 89/82/133 78/103/133 86/73/133
f 89/82/133 86/73/133 87/79/133
