# Blender 3.6.0
# www.blender.org
mtllib honguitoTeemo.mtl
g teemo_Mesh
v 2.240436 9.581158 -2.133426
v 3.099135 7.092594 -2.719970
v 2.775143 9.595802 -0.660930
v 3.820198 7.108013 -0.738346
v 3.842122 4.433720 -3.244545
v 2.503526 9.611145 0.882210
v 4.723964 4.445036 -0.820762
v 4.071109 2.831793 -3.422100
v 5.002889 2.837107 -0.861866
v 4.011426 1.300849 -3.390930
v 4.929808 1.302704 -0.867218
v 3.512041 -0.132780 -3.046192
v 4.323237 -0.132202 -0.818451
v 4.463309 1.304647 1.778297
v 3.911549 -0.131597 1.516479
v 4.530300 2.842674 1.821385
v 4.275735 4.456894 1.718731
v 3.453576 7.124184 1.339493
v 1.496230 9.623077 2.081887
v 2.097928 7.136753 2.954510
v 0.024870 9.628405 2.617783
v 2.618020 4.466118 3.694298
v 2.778797 2.847004 3.907818
v 2.737385 1.306160 3.835510
v 2.387815 -0.131127 3.331314
v 0.212444 1.306836 4.755108
v 0.160070 -0.130916 4.142509
v 0.219752 2.848938 4.839588
v 0.195392 4.470242 4.577332
v 0.116221 7.142372 3.676758
v -1.518352 9.625704 2.346180
v -1.961709 7.139521 3.310154
v -2.718095 9.615688 1.338940
v -2.345383 4.468147 4.129116
v -2.463530 2.847954 4.365788
v -2.431862 1.306493 4.288609
v -2.174861 -0.131023 3.730824
v -4.490303 1.305223 2.561474
v -3.990918 -0.131418 2.207088
v -4.549986 2.844322 2.615521
v -4.320999 4.460407 2.471443
v -3.578012 7.128971 1.954563
v -3.254021 9.601046 -0.133560
v -4.299075 7.113541 -0.028278
v -2.982404 9.585701 -1.676696
v -5.202841 4.449089 0.047661
v -5.481766 2.839008 0.055287
v -5.408685 1.303369 0.037762
v -4.800897 -0.131996 -0.020653
v -4.942186 1.301424 -2.607750
v -4.389208 -0.132601 -2.354362
v -5.009177 2.833443 -2.626747
v -4.754612 4.437233 -2.491832
v -3.932453 7.097378 -2.104900
v -1.975107 9.573771 -2.876373
v -2.576805 7.084801 -3.721134
v -0.503747 9.568441 -3.412269
v -3.096897 4.428009 -4.467396
v -3.257674 2.829111 -4.714397
v -3.216262 1.299913 -4.664967
v -2.865474 -0.133072 -4.170414
v -0.691321 1.299237 -5.584560
v -0.638947 -0.133281 -4.981609
v -0.698629 2.827179 -5.646164
v -0.673051 4.423891 -5.349216
v -0.595098 7.079189 -4.442165
v 1.039475 9.571156 -3.139450
v 1.482832 7.082035 -4.076778
v 1.866506 4.425980 -4.902218
v 1.984653 2.828161 -5.172363
v 1.954203 1.299580 -5.118065
v 1.695984 -0.133175 -4.569923
v -1.046981 10.831921 -9.568470
v -4.815513 9.440620 -6.956790
v -0.939796 9.416853 -8.367073
v -5.504908 10.859436 -7.946277
v -7.467127 9.483013 -3.796329
v -1.039673 13.109863 -9.451884
v -8.553595 10.909904 -4.313289
v -8.183317 9.533146 0.265423
v -5.430610 13.138691 -7.854068
v -0.975118 15.241940 -8.687789
v -4.984817 15.268356 -7.228813
v -0.855753 17.081409 -7.295188
v -4.177274 17.104160 -6.087096
v -0.681577 18.506458 -5.286639
v -3.015290 18.521770 -4.436584
v -0.494003 19.413628 -3.143229
v -1.777789 19.421158 -2.675570
v -0.265017 19.746761 -0.517017
v -4.612104 18.548508 -2.534229
v -2.655976 19.437428 -1.629413
v -5.043282 18.581139 -0.088668
v -2.893489 19.454514 -0.284835
v -4.193109 18.608910 2.246094
v -2.425772 19.469719 0.998860
v -2.290572 18.626236 3.842812
v -1.379498 19.479286 1.876996
v -0.033594 19.479439 2.114522
v 1.250191 19.471909 1.646859
v 0.156415 18.627262 4.274003
v -3.144399 17.250519 5.694055
v -5.853261 17.227242 3.422360
v -7.061528 17.187832 0.101079
v -6.448868 17.141834 -3.379707
v -7.726563 15.313931 -3.961192
v -8.467115 15.368183 0.240605
v -7.007935 15.415527 4.250016
v -3.738790 15.443363 6.992836
v 0.335464 17.252228 6.307946
v 2.490128 18.611961 3.425168
v 2.127160 19.456856 0.600690
v 2.364673 19.438553 -0.743877
v 4.086943 18.583996 1.521607
v 3.656985 17.230747 5.099843
v 5.928578 17.191975 2.392464
v 4.518120 18.552582 -0.923965
v 1.896956 19.423347 -2.027572
v 0.850683 19.413780 -2.905707
v 1.765411 18.507496 -4.854232
v 2.625328 17.083145 -6.681293
v 3.227026 15.243706 -7.945999
v 3.563197 13.111019 -8.639438
v 3.625316 10.833694 -8.743900
v 3.122277 9.417896 -7.649642
v 7.259867 10.863449 -5.695373
v 6.283020 9.443047 -4.998165
v 7.694697 9.486467 -1.121490
v 8.882260 10.913624 -1.236530
v 6.978505 9.535385 2.940278
v 8.058883 10.972042 3.434178
v 5.180718 9.565214 5.082558
v 5.855497 11.017029 6.063534
v 4.536389 11.022892 6.400879
v 4.228232 9.576359 5.958237
v 3.078428 9.585934 6.553776
v 3.777568 11.037907 7.518918
v 0.552270 11.049797 8.689363
v 0.451175 9.602749 7.509793
v -3.612116 9.601719 6.793580
v -4.120028 11.048740 7.865956
v 0.536436 13.328861 8.534417
v 4.093033 13.293640 7.137696
v 4.441384 13.254044 6.252568
v 5.398743 13.224510 6.223637
v 7.930991 13.250793 3.358410
v 8.742188 13.193291 -1.244098
v 7.142938 13.141098 -5.635978
v 6.496172 15.271542 -5.203182
v 7.955352 15.318886 -1.193771
v 7.214801 15.373280 3.006947
v 4.242848 15.415264 5.944645
v 0.463355 15.445068 7.733548
v -4.066435 13.327751 7.723191
v 6.542457 17.147354 -1.087116
v 3.667947 18.523605 -3.257499
v 5.332970 17.106396 -4.408603
v -8.434229 13.188168 -4.274662
v -9.245424 13.247089 0.327828
v -7.647393 13.297710 4.718464
v -7.754578 11.018972 4.816212
v -6.771641 9.576557 4.140881
v -9.376970 10.967590 0.358597
v -0.244311 9.509193 -0.428634
v -0.239439 9.845673 -0.399093
v -0.239439 -0.131493 -0.420010
vn -0.8700 -0.3755 0.3196
vn -0.8700 -0.3754 0.3195
vn -0.8915 -0.3136 0.3268
vn -0.9123 -0.3783 -0.1568
vn -0.8921 -0.3129 0.3260
vn -0.9258 -0.1698 0.3376
vn -0.9260 -0.1693 0.3374
vn -0.9388 0.0436 0.3416
vn -0.9388 0.0435 0.3416
vn -0.8697 0.3790 0.3162
vn -0.8698 0.3784 0.3166
vn -0.9110 0.3796 -0.1609
vn -0.9112 0.3794 -0.1608
vn -0.9837 0.0477 -0.1735
vn -0.9837 0.0475 -0.1734
vn -0.9716 -0.1641 -0.1708
vn -0.9715 -0.1642 -0.1707
vn -0.9359 -0.3118 -0.1637
vn -0.9359 -0.3126 -0.1627
vn -0.9124 -0.3776 -0.1580
vn -0.7102 -0.3802 -0.5925
vn -0.7100 -0.3799 -0.5930
vn -0.7290 -0.3114 -0.6095
vn -0.3176 -0.3815 -0.8681
vn -0.7288 -0.3109 -0.6101
vn -0.7566 -0.1596 -0.6341
vn -0.7563 -0.1588 -0.6346
vn -0.7648 0.0513 -0.6422
vn -0.7651 0.0507 -0.6419
vn -0.7083 0.3805 -0.5945
vn -0.7081 0.3808 -0.5946
vn -0.3162 0.3816 -0.8686
vn -0.3417 0.0530 -0.9383
vn -0.3416 0.0532 -0.9383
vn -0.3381 -0.1552 -0.9282
vn -0.3385 -0.1560 -0.9279
vn -0.3260 -0.3106 -0.8929
vn -0.3262 -0.3108 -0.8927
vn -0.3175 -0.3815 -0.8681
vn 0.1609 -0.3818 -0.9101
vn 0.1611 -0.3816 -0.9102
vn 0.1656 -0.3106 -0.9360
vn 0.5965 -0.3804 -0.7067
vn 0.1654 -0.3107 -0.9360
vn 0.1718 -0.1548 -0.9729
vn 0.1718 -0.1547 -0.9729
vn 0.1736 0.0530 -0.9834
vn 0.1735 0.0528 -0.9834
vn 0.1605 0.3819 -0.9101
vn 0.1605 0.3819 -0.9102
vn 0.5941 0.3811 -0.7084
vn 0.5942 0.3812 -0.7083
vn 0.6419 0.0518 -0.7651
vn 0.6418 0.0515 -0.7652
vn 0.6348 -0.1574 -0.7564
vn 0.6352 -0.1568 -0.7563
vn 0.6116 -0.3112 -0.7274
vn 0.6120 -0.3108 -0.7272
vn 0.5956 -0.3810 -0.7072
vn 0.8709 -0.3787 -0.3132
vn 0.8706 -0.3790 -0.3136
vn 0.8938 -0.3114 -0.3226
vn 0.9119 -0.3762 0.1642
vn 0.8932 -0.3122 -0.3235
vn 0.9276 -0.1615 -0.3368
vn 0.9274 -0.1622 -0.3372
vn 0.9386 0.0484 -0.3417
vn 0.9386 0.0486 -0.3416
vn 0.8691 0.3802 -0.3165
vn 0.8690 0.3808 -0.3160
vn 0.9113 0.3793 0.1604
vn 0.9111 0.3797 0.1606
vn 0.9838 0.0452 0.1734
vn 0.9839 0.0448 0.1733
vn 0.9707 -0.1685 0.1714
vn 0.9708 -0.1674 0.1721
vn 0.9350 -0.3132 0.1665
vn 0.9351 -0.3124 0.1675
vn 0.9119 -0.3764 0.1639
vn 0.7086 -0.3736 0.5987
vn 0.7091 -0.3743 0.5976
vn 0.7264 -0.3135 0.6117
vn 0.3164 -0.3726 0.8724
vn 0.7266 -0.3139 0.6112
vn 0.7541 -0.1730 0.6336
vn 0.7543 -0.1737 0.6332
vn 0.7655 0.0414 0.6421
vn 0.7655 0.0415 0.6422
vn 0.7092 0.3786 0.5947
vn 0.7090 0.3788 0.5948
vn 0.3169 0.3778 0.8699
vn 0.3170 0.3778 0.8700
vn 0.3420 0.0395 0.9389
vn 0.3419 0.0396 0.9389
vn 0.3366 -0.1774 0.9248
vn 0.3362 -0.1767 0.9250
vn 0.3241 -0.3143 0.8923
vn 0.3238 -0.3141 0.8925
vn -0.1609 -0.3723 0.9141
vn -0.1602 -0.3727 0.9140
vn -0.1640 -0.3146 0.9350
vn -0.5937 -0.3740 0.7125
vn -0.5951 -0.3731 0.7118
vn -0.6092 -0.3143 0.7281
vn -0.1643 -0.3143 0.9350
vn -0.1705 -0.1775 0.9692
vn -0.1711 -0.1765 0.9693
vn -0.1738 0.0388 0.9840
vn -0.1735 0.0384 0.9841
vn -0.1608 0.3779 0.9118
vn -0.1608 0.3778 0.9118
vn -0.5953 0.3785 0.7088
vn -0.5952 0.3779 0.7092
vn -0.6425 0.0406 0.7652
vn -0.6422 0.0400 0.7655
vn -0.6327 -0.1741 0.7546
vn -0.6325 -0.1744 0.7547
vn -0.6096 -0.3139 0.7279
vn 0.2675 0.6353 0.7244
vn 0.2676 0.6353 0.7245
vn 0.5970 0.6334 0.4924
vn 0.3413 -0.0491 0.9387
vn 0.5972 0.6331 0.4924
vn 0.7664 0.6297 0.1274
vn 0.7647 -0.0509 0.6424
vn 0.3211 -0.3281 0.8884
vn 0.3211 -0.3280 0.8884
vn 0.2721 -0.5920 0.7586
vn 0.2720 -0.5916 0.7589
vn 0.1967 -0.8076 0.5559
vn 0.1970 -0.8080 0.5553
vn 0.1312 -0.9170 0.3766
vn 0.1316 -0.9172 0.3760
vn 0.0388 -0.9917 0.1224
vn 0.2959 -0.9188 0.2613
vn 0.2959 -0.9184 0.2626
vn 0.0872 -0.9922 0.0886
vn 0.3817 -0.9209 0.0796
vn 0.3814 -0.9210 0.0791
vn 0.1133 -0.9930 0.0326
vn 0.3641 -0.9234 -0.1216
vn 0.3639 -0.9234 -0.1217
vn 0.1081 -0.9938 -0.0276
vn 0.2487 -0.9253 -0.2863
vn 0.0736 -0.9943 -0.0768
vn 0.0657 -0.9261 -0.3715
vn 0.0182 -0.9946 -0.1026
vn -0.0413 -0.9944 -0.0974
vn -0.1342 -0.9258 -0.3535
vn 0.0658 -0.9262 -0.3713
vn 0.0996 -0.8201 -0.5635
vn 0.3735 -0.8187 -0.4361
vn 0.3727 -0.8191 -0.4361
vn 0.5456 -0.8165 -0.1890
vn 0.5458 -0.8163 -0.1889
vn 0.5717 -0.8129 0.1116
vn 0.5714 -0.8131 0.1113
vn 0.4436 -0.8099 0.3837
vn 0.4436 -0.8101 0.3835
vn 0.6122 -0.5940 0.5219
vn 0.6122 -0.5939 0.5220
vn 0.7882 -0.5976 0.1466
vn 0.7527 -0.6019 -0.2668
vn 0.7529 -0.6017 -0.2668
vn 0.5146 -0.6054 -0.6072
vn 0.5144 -0.6056 -0.6072
vn 0.1383 -0.6076 -0.7821
vn 0.0998 -0.8202 -0.5633
vn -0.2005 -0.8197 -0.5365
vn -0.1347 -0.9256 -0.3537
vn -0.2996 -0.9239 -0.2379
vn -0.0913 -0.9939 -0.0623
vn -0.1170 -0.9931 -0.0072
vn -0.3844 -0.9215 -0.0554
vn -0.2997 -0.9239 -0.2379
vn -0.4470 -0.8176 -0.3629
vn -0.2004 -0.8198 -0.5365
vn -0.4465 -0.8178 -0.3630
vn -0.5729 -0.8146 -0.0905
vn -0.3839 -0.9217 -0.0558
vn -0.3662 -0.9193 0.1443
vn -0.1118 -0.9923 0.0525
vn -0.0768 -0.9918 0.1024
vn -0.0225 -0.9916 0.1277
vn -0.0695 -0.9165 0.3940
vn -0.0692 -0.9166 0.3938
vn -0.2509 -0.9174 0.3089
vn -0.1024 -0.8071 0.5815
vn -0.1021 -0.8073 0.5813
vn -0.1397 -0.5919 0.7938
vn -0.1399 -0.5917 0.7940
vn -0.1641 -0.3284 0.9302
vn -0.1641 -0.3283 0.9302
vn -0.1736 -0.0498 0.9836
vn -0.1736 -0.0499 0.9836
vn -0.1344 0.6354 0.7604
vn -0.1345 0.6354 0.7604
vn -0.5001 0.6338 0.5901
vn -0.5001 0.6337 0.5902
vn -0.7316 0.6305 0.2594
vn -0.7320 0.6300 0.2593
vn -0.7664 0.6263 -0.1427
vn -0.7668 0.6258 -0.1430
vn -0.5953 0.6224 -0.5082
vn -0.5954 0.6211 -0.5096
vn -0.1939 0.6095 -0.7687
vn -0.6326 0.3467 -0.6925
vn -0.4291 0.3466 -0.8341
vn -0.6505 0.6121 -0.4497
vn -0.2659 0.6192 -0.7389
vn -0.2647 0.6203 -0.7383
vn 0.1360 0.6202 -0.7725
vn 0.1732 -0.0656 -0.9827
vn -0.3406 -0.0661 -0.9379
vn -0.3644 -0.1054 -0.9253
vn -0.8271 0.0208 -0.5616
vn -0.9296 -0.0637 -0.3630
vn -0.0322 -0.0677 -0.9972
vn -0.2476 0.0190 -0.9687
vn -0.7446 -0.1063 -0.6590
vn -0.7654 -0.0642 -0.6403
vn -0.9831 -0.0609 -0.1725
vn -0.9831 -0.0610 -0.1725
vn -0.9379 -0.0565 0.3422
vn -0.9380 -0.0571 0.3419
vn -0.6415 -0.0529 0.7653
vn -0.6416 -0.0526 0.7652
vn -0.6049 -0.3308 0.7243
vn -0.8842 -0.3346 0.3259
vn -0.6049 -0.3309 0.7243
vn -0.8841 -0.3350 0.3257
vn -0.9271 -0.3394 -0.1592
vn -0.9272 -0.3392 -0.1591
vn -0.7030 -0.3406 -0.6244
vn -0.6410 -0.4200 -0.6424
vn -0.0343 -0.1441 -0.9890
vn -0.9240 -0.1358 -0.3576
vn -0.3889 -0.4305 -0.8145
vn -0.3464 -0.3425 -0.8733
vn 0.1630 -0.3443 -0.9246
vn 0.1631 -0.3444 -0.9245
vn 0.1381 -0.6074 -0.7823
vn -0.3474 -0.5958 -0.7241
vn -0.3025 -0.4806 -0.8231
vn -0.6759 -0.4788 -0.5603
vn -0.5695 -0.5945 -0.5676
vn -0.7879 -0.6016 -0.1313
vn -0.7881 -0.6014 -0.1312
vn -0.5728 -0.8147 -0.0906
vn -0.5462 -0.8111 0.2091
vn -0.3663 -0.9191 0.1449
vn -0.2515 -0.9172 0.3089
vn -0.3743 -0.8085 0.4541
vn -0.3742 -0.8085 0.4541
vn -0.5461 -0.8113 0.2089
vn -0.7514 -0.5970 0.2810
vn -0.7511 -0.5976 0.2804
vn -0.5141 -0.5939 0.6188
vn -0.5143 -0.5937 0.6188
vn 0.7647 -0.0510 0.6424
vn 0.7209 -0.3298 0.6095
vn 0.7209 -0.3299 0.6095
vn 0.9277 -0.3336 0.1678
vn 0.9277 -0.3335 0.1678
vn 0.8856 -0.3381 -0.3184
vn 0.8857 -0.3379 -0.3184
vn 0.6057 -0.3418 -0.7185
vn 0.6418 -0.0630 -0.7643
vn 0.9383 -0.0588 -0.3408
vn 0.5003 0.6220 -0.6023
vn 0.5003 0.6226 -0.6017
vn 0.7306 0.6258 -0.2731
vn 0.9383 -0.0587 -0.3408
vn 0.9832 -0.0544 0.1740
vn 0.9832 -0.0545 0.1740
vn 0.7665 0.6295 0.1273
vn 0.7306 0.6257 -0.2732
vn 0.0012 0.9999 -0.0114
vn 0.0021 0.9999 -0.0120
vn 0.0020 0.9999 -0.0120
vn 0.0019 0.9999 -0.0119
vn 0.0020 0.9999 -0.0119
vn 0.0019 0.9999 -0.0118
vn 0.0018 0.9999 -0.0118
vn 0.0018 0.9999 -0.0119
vn 0.0018 0.9999 -0.0117
vn 0.0021 0.9999 -0.0122
vn -0.0792 -0.9961 0.0387
vn -0.0541 -0.9958 0.0745
vn -0.0830 -0.9965 -0.0047
vn -0.0147 -0.9956 0.0929
vn -0.0646 -0.9969 -0.0443
vn 0.0288 -0.9956 0.0891
vn -0.0288 -0.9972 -0.0693
vn 0.0146 -0.9972 -0.0731
vn 0.0542 -0.9970 -0.0546
vn 0.0792 -0.9967 -0.0189
vn 0.0830 -0.9962 0.0245
vn 0.0645 -0.9959 0.0641
vn 0.0001 1.0000 -0.0003
vn 0.0001 1.0000 -0.0002
vn 0.0001 1.0000 -0.0004
vn -0.0000 1.0000 -0.0004
vn -0.0000 1.0000 -0.0001
vn -0.0001 1.0000 -0.0003
vn -0.0001 1.0000 -0.0002
vt 0.480276 0.158660
vt 0.477677 0.167995
vt 0.476262 0.156643
vt 0.469363 0.163488
vt 0.473275 0.183317
vt 0.473713 0.152926
vt 0.457935 0.174546
vt 0.469656 0.196165
vt 0.448404 0.183875
vt 0.464919 0.212726
vt 0.436054 0.195883
vt 0.457935 0.238473
vt 0.417171 0.214703
vt 0.419459 0.166930
vt 0.393705 0.173830
vt 0.436151 0.162686
vt 0.449050 0.159365
vt 0.464394 0.155470
vt 0.473278 0.148504
vt 0.464040 0.146115
vt 0.475070 0.144550
vt 0.448883 0.141861
vt 0.436073 0.138285
vt 0.419497 0.133619
vt 0.393718 0.126744
vt 0.436128 0.104758
vt 0.417220 0.085908
vt 0.448121 0.117124
vt 0.457400 0.126645
vt 0.468364 0.137881
vt 0.478649 0.142118
vt 0.476229 0.132929
vt 0.483041 0.141865
vt 0.472360 0.117674
vt 0.469123 0.104762
vt 0.464935 0.088031
vt 0.458018 0.062204
vt 0.498342 0.087913
vt 0.505291 0.062060
vt 0.493546 0.104504
vt 0.489856 0.117326
vt 0.485563 0.132565
vt 0.487085 0.143841
vt 0.493922 0.136919
vt 0.489691 0.147540
vt 0.505299 0.125780
vt 0.514935 0.116512
vt 0.527402 0.104539
vt 0.546397 0.085625
vt 0.544286 0.133549
vt 0.570202 0.126679
vt 0.527501 0.137667
vt 0.514513 0.140889
vt 0.499052 0.144878
vt 0.490183 0.151953
vt 0.499530 0.154341
vt 0.488360 0.155936
vt 0.514906 0.158638
vt 0.527760 0.162336
vt 0.544346 0.167139
vt 0.570202 0.174189
vt 0.527516 0.196222
vt 0.546357 0.215218
vt 0.515575 0.183780
vt 0.506280 0.174175
vt 0.495162 0.162726
vt 0.484716 0.158386
vt 0.487143 0.167731
vt 0.490999 0.183214
vt 0.494257 0.196166
vt 0.498404 0.212890
vt 0.505210 0.238722
vt 0.724614 0.845586
vt 0.846480 0.746745
vt 0.772977 0.886098
vt 0.782606 0.733999
vt 0.843225 0.584593
vt 0.683198 0.807557
vt 0.779237 0.605249
vt 0.758753 0.440319
vt 0.726661 0.720150
vt 0.649893 0.777725
vt 0.682402 0.709793
vt 0.620452 0.752103
vt 0.643880 0.701495
vt 0.591645 0.727853
vt 0.606772 0.694312
vt 0.565489 0.706418
vt 0.573473 0.688518
vt 0.535919 0.682477
vt 0.603429 0.657521
vt 0.571525 0.668993
vt 0.582117 0.627053
vt 0.560093 0.652993
vt 0.548169 0.611275
vt 0.542141 0.644866
vt 0.510889 0.614984
vt 0.522581 0.646894
vt 0.506309 0.658149
vt 0.497965 0.676324
vt 0.479384 0.636106
vt 0.497899 0.578402
vt 0.555791 0.573217
vt 0.607661 0.598302
vt 0.639554 0.645428
vt 0.677713 0.633630
vt 0.635344 0.568587
vt 0.564725 0.532890
vt 0.484544 0.538876
vt 0.447744 0.610570
vt 0.463488 0.671116
vt 0.500012 0.696249
vt 0.511809 0.712370
vt 0.467761 0.709274
vt 0.424015 0.666133
vt 0.431423 0.725022
vt 0.490571 0.739650
vt 0.530039 0.720348
vt 0.549674 0.718037
vt 0.561995 0.749729
vt 0.575602 0.785021
vt 0.589339 0.821461
vt 0.604622 0.862918
vt 0.623121 0.914557
vt 0.645917 0.970678
vt 0.505013 0.930246
vt 0.500370 0.985345
vt 0.354979 0.945450
vt 0.388984 0.891211
vt 0.234256 0.831852
vt 0.297387 0.796119
vt 0.181979 0.706693
vt 0.266238 0.695510
vt 0.260036 0.645782
vt 0.188158 0.637869
vt 0.198521 0.569684
vt 0.277552 0.599369
vt 0.329962 0.507877
vt 0.277839 0.461273
vt 0.422948 0.350163
vt 0.448646 0.428575
vt 0.377773 0.549842
vt 0.335376 0.630832
vt 0.332185 0.654394
vt 0.328100 0.677929
vt 0.351051 0.765428
vt 0.418986 0.842109
vt 0.510297 0.875949
vt 0.515201 0.831961
vt 0.444306 0.803772
vt 0.394090 0.742942
vt 0.382945 0.660615
vt 0.415332 0.582730
vt 0.468935 0.491384
vt 0.467436 0.770785
vt 0.525124 0.754464
vt 0.520029 0.792697
vt 0.722239 0.620783
vt 0.668344 0.534542
vt 0.576140 0.485549
vt 0.592209 0.424395
vt 0.608635 0.352631
vt 0.711494 0.491555
vt 0.826108 0.156252
vt 0.907602 0.086964
vt 0.917211 0.101888
vt 0.894403 0.075075
vt 0.862842 0.053282
vt 0.806426 0.048712
vt 0.755297 0.072979
vt 0.723133 0.119534
vt 0.718567 0.175933
vt 0.742814 0.227074
vt 0.789373 0.259222
vt 0.845777 0.263772
vt 0.896918 0.239525
vt 0.929087 0.192955
vt 0.933652 0.136555
vt 0.000000 0.000000
vt 0.827677 0.136607
vt 0.754313 0.212709
vt 0.726181 0.165831
vt 0.802181 0.239331
vt 0.725161 0.111251
vt 0.857017 0.238436
vt 0.751460 0.063449
vt 0.904108 0.210145
vt 0.798110 0.035155
vt 0.852780 0.033899
vt 0.900858 0.060156
vt 0.929416 0.107038
vt 0.930632 0.161988
s 0
g off
g teemo_Material.001
usemtl Material.001
f 1/1/1 2/2/1 3/3/1
f 3/3/2 2/2/2 4/4/2
f 4/4/3 2/2/3 5/5/3
f 3/3/4 4/4/4 6/6/4
f 4/4/5 5/5/5 7/7/5
f 7/7/6 5/5/6 8/8/6
f 7/7/7 8/8/7 9/9/7
f 9/9/8 8/8/8 10/10/8
f 9/9/9 10/10/9 11/11/9
f 11/11/10 10/10/10 12/12/10
f 11/11/11 12/12/11 13/13/11
f 11/11/12 13/13/12 14/14/12
f 14/14/13 13/13/13 15/15/13
f 11/11/14 14/14/14 16/16/14
f 11/11/15 16/16/15 9/9/15
f 9/9/16 16/16/16 17/17/16
f 9/9/17 17/17/17 7/7/17
f 7/7/18 17/17/18 18/18/18
f 7/7/19 18/18/19 4/4/19
f 4/4/20 18/18/20 6/6/20
f 6/6/21 18/18/21 19/19/21
f 19/19/22 18/18/22 20/20/22
f 20/20/23 18/18/23 17/17/23
f 19/19/24 20/20/24 21/21/24
f 20/20/25 17/17/25 22/22/25
f 22/22/26 17/17/26 16/16/26
f 22/22/27 16/16/27 23/23/27
f 23/23/28 16/16/28 14/14/28
f 23/23/29 14/14/29 24/24/29
f 24/24/30 14/14/30 15/15/30
f 24/24/31 15/15/31 25/25/31
f 24/24/32 25/25/32 26/26/32
f 26/26/32 25/25/32 27/27/32
f 24/24/33 26/26/33 28/28/33
f 24/24/34 28/28/34 23/23/34
f 23/23/35 28/28/35 29/29/35
f 23/23/36 29/29/36 22/22/36
f 22/22/37 29/29/37 30/30/37
f 22/22/38 30/30/38 20/20/38
f 20/20/39 30/30/39 21/21/39
f 21/21/40 30/30/40 31/31/40
f 31/31/41 30/30/41 32/32/41
f 32/32/42 30/30/42 29/29/42
f 31/31/43 32/32/43 33/33/43
f 32/32/44 29/29/44 34/34/44
f 34/34/45 29/29/45 28/28/45
f 34/34/46 28/28/46 35/35/46
f 35/35/47 28/28/47 26/26/47
f 35/35/48 26/26/48 36/36/48
f 36/36/49 26/26/49 27/27/49
f 36/36/50 27/27/50 37/37/50
f 36/36/51 37/37/51 38/38/51
f 38/38/52 37/37/52 39/39/52
f 36/36/53 38/38/53 40/40/53
f 36/36/54 40/40/54 35/35/54
f 35/35/55 40/40/55 41/41/55
f 35/35/56 41/41/56 34/34/56
f 34/34/57 41/41/57 42/42/57
f 34/34/58 42/42/58 32/32/58
f 32/32/59 42/42/59 33/33/59
f 33/33/60 42/42/60 43/43/60
f 43/43/61 42/42/61 44/44/61
f 44/44/62 42/42/62 41/41/62
f 43/43/63 44/44/63 45/45/63
f 44/44/64 41/41/64 46/46/64
f 46/46/65 41/41/65 40/40/65
f 46/46/66 40/40/66 47/47/66
f 47/47/67 40/40/67 38/38/67
f 47/47/68 38/38/68 48/48/68
f 48/48/69 38/38/69 39/39/69
f 48/48/70 39/39/70 49/49/70
f 48/48/71 49/49/71 50/50/71
f 50/50/72 49/49/72 51/51/72
f 48/48/73 50/50/73 52/52/73
f 48/48/74 52/52/74 47/47/74
f 47/47/75 52/52/75 53/53/75
f 47/47/76 53/53/76 46/46/76
f 46/46/77 53/53/77 54/54/77
f 46/46/78 54/54/78 44/44/78
f 44/44/79 54/54/79 45/45/79
f 45/45/80 54/54/80 55/55/80
f 55/55/81 54/54/81 56/56/81
f 56/56/82 54/54/82 53/53/82
f 55/55/83 56/56/83 57/57/83
f 56/56/84 53/53/84 58/58/84
f 58/58/85 53/53/85 52/52/85
f 58/58/86 52/52/86 59/59/86
f 59/59/87 52/52/87 50/50/87
f 59/59/88 50/50/88 60/60/88
f 60/60/89 50/50/89 51/51/89
f 60/60/90 51/51/90 61/61/90
f 60/60/91 61/61/91 62/62/91
f 62/62/92 61/61/92 63/63/92
f 60/60/93 62/62/93 64/64/93
f 60/60/94 64/64/94 59/59/94
f 59/59/95 64/64/95 65/65/95
f 59/59/96 65/65/96 58/58/96
f 58/58/97 65/65/97 66/66/97
f 58/58/98 66/66/98 56/56/98
f 56/56/83 66/66/83 57/57/83
f 57/57/99 66/66/99 67/67/99
f 67/67/100 66/66/100 68/68/100
f 68/68/101 66/66/101 65/65/101
f 67/67/102 68/68/102 1/1/102
f 1/1/103 68/68/103 2/2/103
f 2/2/104 68/68/104 69/69/104
f 69/69/105 68/68/105 65/65/105
f 69/69/106 65/65/106 64/64/106
f 69/69/107 64/64/107 70/70/107
f 70/70/108 64/64/108 62/62/108
f 70/70/109 62/62/109 71/71/109
f 71/71/110 62/62/110 63/63/110
f 71/71/111 63/63/111 72/72/111
f 71/71/112 72/72/112 10/10/112
f 10/10/113 72/72/113 12/12/113
f 71/71/114 10/10/114 8/8/114
f 71/71/115 8/8/115 70/70/115
f 70/70/116 8/8/116 5/5/116
f 70/70/117 5/5/117 69/69/117
f 69/69/118 5/5/118 2/2/118
f 73/73/119 74/74/119 75/75/119
f 74/74/120 73/73/120 76/76/120
f 74/74/121 76/76/121 77/77/121
f 76/76/122 73/73/122 78/78/122
f 77/77/123 76/76/123 79/79/123
f 77/77/124 79/79/124 80/80/124
f 79/79/125 76/76/125 81/81/125
f 81/81/122 76/76/122 78/78/122
f 81/81/126 78/78/126 82/82/126
f 81/81/127 82/82/127 83/83/127
f 83/83/128 82/82/128 84/84/128
f 83/83/129 84/84/129 85/85/129
f 85/85/130 84/84/130 86/86/130
f 85/85/131 86/86/131 87/87/131
f 87/87/132 86/86/132 88/88/132
f 87/87/133 88/88/133 89/89/133
f 89/89/134 88/88/134 90/90/134
f 87/87/135 89/89/135 91/91/135
f 91/91/136 89/89/136 92/92/136
f 92/92/137 89/89/137 90/90/137
f 91/91/138 92/92/138 93/93/138
f 93/93/139 92/92/139 94/94/139
f 94/94/140 92/92/140 90/90/140
f 93/93/141 94/94/141 95/95/141
f 95/95/142 94/94/142 96/96/142
f 96/96/143 94/94/143 90/90/143
f 95/95/144 96/96/144 97/97/144
f 97/97/144 96/96/144 98/98/144
f 98/98/145 96/96/145 90/90/145
f 97/97/146 98/98/146 99/99/146
f 99/99/147 98/98/147 90/90/147
f 99/99/148 90/90/148 100/100/148
f 99/99/149 100/100/149 101/101/149
f 99/99/150 101/101/150 97/97/150
f 97/97/151 101/101/151 102/102/151
f 97/97/152 102/102/152 95/95/152
f 95/95/153 102/102/153 103/103/153
f 95/95/154 103/103/154 93/93/154
f 93/93/155 103/103/155 104/104/155
f 93/93/156 104/104/156 91/91/156
f 91/91/157 104/104/157 105/105/157
f 91/91/158 105/105/158 87/87/158
f 87/87/159 105/105/159 85/85/159
f 85/85/160 105/105/160 106/106/160
f 85/85/161 106/106/161 83/83/161
f 106/106/162 105/105/162 107/107/162
f 107/107/162 105/105/162 104/104/162
f 107/107/163 104/104/163 108/108/163
f 108/108/164 104/104/164 103/103/164
f 108/108/165 103/103/165 109/109/165
f 109/109/166 103/103/166 102/102/166
f 109/109/167 102/102/167 110/110/167
f 110/110/168 102/102/168 101/101/168
f 110/110/169 101/101/169 111/111/169
f 111/111/170 101/101/170 100/100/170
f 111/111/171 100/100/171 112/112/171
f 112/112/172 100/100/172 90/90/172
f 112/112/173 90/90/173 113/113/173
f 112/112/174 113/113/174 114/114/174
f 112/112/175 114/114/175 111/111/175
f 111/111/176 114/114/176 115/115/176
f 111/111/177 115/115/177 110/110/177
f 115/115/178 114/114/178 116/116/178
f 116/116/179 114/114/179 117/117/179
f 117/117/180 114/114/180 113/113/180
f 117/117/181 113/113/181 118/118/181
f 118/118/182 113/113/182 90/90/182
f 118/118/183 90/90/183 119/119/183
f 119/119/184 90/90/184 88/88/184
f 119/119/185 88/88/185 86/86/185
f 119/119/186 86/86/186 120/120/186
f 119/119/187 120/120/187 118/118/187
f 120/120/188 86/86/188 84/84/188
f 120/120/189 84/84/189 121/121/189
f 121/121/190 84/84/190 82/82/190
f 121/121/191 82/82/191 122/122/191
f 122/122/192 82/82/192 78/78/192
f 122/122/193 78/78/193 123/123/193
f 123/123/194 78/78/194 73/73/194
f 123/123/195 73/73/195 124/124/195
f 124/124/196 73/73/196 75/75/196
f 124/124/197 75/75/197 125/125/197
f 124/124/198 125/125/198 126/126/198
f 126/126/199 125/125/199 127/127/199
f 126/126/200 127/127/200 128/128/200
f 126/126/201 128/128/201 129/129/201
f 129/129/202 128/128/202 130/130/202
f 129/129/203 130/130/203 131/131/203
f 131/131/204 130/130/204 132/132/204
f 131/131/205 132/132/205 133/133/205
f 133/133/206 132/132/206 134/134/206
f 134/134/207 132/132/207 135/135/207
f 134/134/208 135/135/208 136/136/208
f 134/134/209 136/136/209 137/137/209
f 137/137/210 136/136/210 138/138/210
f 138/138/211 136/136/211 139/139/211
f 138/138/212 139/139/212 140/140/212
f 138/138/212 140/140/212 141/141/212
f 138/138/213 141/141/213 142/142/213
f 138/138/214 142/142/214 137/137/214
f 137/137/215 142/142/215 143/143/215
f 137/137/216 143/143/216 134/134/216
f 134/134/217 143/143/217 144/144/217
f 134/134/218 144/144/218 145/145/218
f 134/134/219 145/145/219 133/133/219
f 133/133/220 145/145/220 146/146/220
f 133/133/221 146/146/221 131/131/221
f 131/131/222 146/146/222 147/147/222
f 131/131/223 147/147/223 129/129/223
f 129/129/224 147/147/224 148/148/224
f 129/129/225 148/148/225 126/126/225
f 126/126/226 148/148/226 124/124/226
f 124/124/227 148/148/227 123/123/227
f 123/123/228 148/148/228 149/149/228
f 149/149/229 148/148/229 147/147/229
f 123/123/230 149/149/230 122/122/230
f 149/149/231 147/147/231 150/150/231
f 150/150/232 147/147/232 146/146/232
f 150/150/233 146/146/233 151/151/233
f 151/151/234 146/146/234 145/145/234
f 151/151/235 145/145/235 152/152/235
f 152/152/236 145/145/236 144/144/236
f 152/152/237 144/144/237 143/143/237
f 152/152/238 143/143/238 153/153/238
f 153/153/239 143/143/239 142/142/239
f 153/153/240 142/142/240 154/154/240
f 154/154/213 142/142/213 141/141/213
f 153/153/241 154/154/241 109/109/241
f 153/153/242 109/109/242 110/110/242
f 153/153/243 110/110/243 152/152/243
f 152/152/244 110/110/244 115/115/244
f 152/152/245 115/115/245 116/116/245
f 152/152/246 116/116/246 151/151/246
f 151/151/247 116/116/247 155/155/247
f 151/151/248 155/155/248 150/150/248
f 155/155/249 116/116/249 117/117/249
f 155/155/250 117/117/250 156/156/250
f 156/156/251 117/117/251 118/118/251
f 156/156/252 118/118/252 120/120/252
f 156/156/253 120/120/253 121/121/253
f 156/156/254 121/121/254 157/157/254
f 156/156/255 157/157/255 155/155/255
f 155/155/256 157/157/256 150/150/256
f 150/150/257 157/157/257 149/149/257
f 149/149/258 157/157/258 122/122/258
f 122/122/259 157/157/259 121/121/259
f 158/158/260 79/79/260 81/81/260
f 158/158/261 81/81/261 83/83/261
f 158/158/262 83/83/262 106/106/262
f 158/158/263 106/106/263 159/159/263
f 159/159/264 106/106/264 107/107/264
f 159/159/265 107/107/265 160/160/265
f 160/160/266 107/107/266 108/108/266
f 160/160/267 108/108/267 154/154/267
f 154/154/267 108/108/267 109/109/267
f 160/160/268 154/154/268 141/141/268
f 160/160/268 141/141/268 161/161/268
f 160/160/269 161/161/269 159/159/269
f 161/161/270 141/141/270 140/140/270
f 161/161/271 140/140/271 162/162/271
f 161/161/272 162/162/272 163/163/272
f 161/161/273 163/163/273 159/159/273
f 159/159/274 163/163/274 158/158/274
f 158/158/275 163/163/275 79/79/275
f 79/79/276 163/163/276 80/80/276
f 80/80/277 163/163/277 162/162/277
f 164/164/278 135/165/278 132/166/278
f 135/165/279 164/164/279 136/167/279
f 136/167/280 164/164/280 139/168/280
f 139/168/281 164/164/281 140/169/281
f 140/169/282 164/164/282 162/170/282
f 162/170/282 164/164/282 80/171/282
f 80/171/280 164/164/280 77/172/280
f 77/172/283 164/164/283 74/173/283
f 74/173/284 164/164/284 75/174/284
f 75/174/284 164/164/284 125/175/284
f 125/175/283 164/164/283 127/176/283
f 127/176/285 164/164/285 128/177/285
f 128/177/286 164/164/286 130/178/286
f 130/178/287 164/164/287 132/166/287
f 165/179/288 1/179/288 3/179/288
f 1/179/289 165/179/289 67/179/289
f 165/179/290 3/179/290 6/179/290
f 67/179/291 165/179/291 57/179/291
f 165/179/292 6/179/292 19/179/292
f 57/179/293 165/179/293 55/179/293
f 165/179/294 19/179/294 21/179/294
f 165/179/295 21/179/295 31/179/295
f 165/179/296 31/179/296 33/179/296
f 165/179/297 33/179/297 43/179/297
f 165/179/298 43/179/298 45/179/298
f 165/179/299 45/179/299 55/179/299
f 166/180/300 13/181/300 12/182/300
f 13/181/301 166/180/301 15/183/301
f 166/180/302 12/182/302 72/184/302
f 15/183/301 166/180/301 25/185/301
f 166/180/303 72/184/303 63/186/303
f 25/185/304 166/180/304 27/187/304
f 166/180/303 63/186/303 61/188/303
f 166/180/305 61/188/305 51/189/305
f 166/180/305 51/189/305 49/190/305
f 166/180/306 49/190/306 39/191/306
f 166/180/306 39/191/306 37/192/306
f 166/180/304 37/192/304 27/187/304
