# Blender 3.6.0
# www.blender.org
mtllib ManoDKarma.mtl
g Mano_der_Mesh
v 7.227437 -13.682926 -10.338419
v 7.484952 -13.928898 -9.709915
v 7.159192 -13.841625 -10.026924
v 7.227437 -13.682926 -10.338419
v 9.287434 -16.117495 -4.730753
v 10.079144 -16.270174 -4.228976
v 9.769558 -16.110529 -4.944083
v 10.141155 -16.252115 -4.679126
v 3.785061 -3.545763 -4.691705
v 2.535080 -3.601794 -5.675983
v 2.068867 -4.136477 -4.739067
v 5.059021 -4.526827 0.692588
v 2.042034 -1.923136 2.346395
v 3.076813 -0.862795 1.191890
v 0.962220 -0.832873 -3.722498
v 2.328453 -0.104334 -2.697069
v 5.830502 -7.498003 1.254975
v 4.532910 -6.125857 -5.328336
v 5.113792 -3.783923 -2.280615
v 3.082245 -0.019457 -1.273093
v 0.423557 -2.733698 1.677331
v 0.585148 -1.243502 -3.002763
v 1.636379 -2.042085 1.906962
v 9.287434 -16.117495 -4.730753
v 1.345604 -2.721613 -3.845730
v 4.230274 -5.302111 1.879309
v 9.568851 -16.258966 -4.112082
v 9.287434 -16.117495 -4.730753
v 9.313633 -16.208071 -4.302783
v 9.568851 -16.258966 -4.112082
v 1.345604 -2.721613 -3.845730
v 4.906838 -5.735354 -5.715031
v 7.737615 -13.647831 -10.554123
v 7.970883 -13.941982 -9.941681
v 7.227437 -13.682926 -10.338419
v 8.051045 -13.815434 -10.303438
v 7.159192 -13.841625 -10.026924
v 7.484952 -13.928898 -9.709915
v 3.104221 -4.752444 1.533561
v 0.585148 -1.243502 -3.002763
v 9.750501 -16.436464 -6.802743
v 9.099439 -16.251650 -7.451221
v 9.568851 -16.258966 -4.112082
v 9.313633 -16.208071 -4.302783
v 1.636379 -2.042085 1.906962
v 9.276402 -16.409105 -6.730027
v 9.826840 -16.295809 -7.303097
v 9.039067 -16.356066 -7.193997
v 3.083622 -6.284778 -6.199921
v 6.558254 -6.988055 0.086643
v 9.583673 -16.224779 -7.566127
v 9.099439 -16.251650 -7.451221
v 9.276402 -16.409105 -6.730027
v 9.099439 -16.251650 -7.451221
v 6.470006 -6.212359 -3.229736
v 9.276402 -16.409105 -6.730027
v 9.039067 -16.356066 -7.193997
v 3.541600 -5.774013 -6.940738
v 5.907524 -7.293078 -0.270918
v 5.309162 -7.831088 0.805512
v 5.920491 -6.532443 -3.354443
v 4.372425 -6.514361 1.127742
v 7.484952 -13.928898 -9.709915
v 1.521832 -6.996509 -3.462593
v -2.762244 -9.400600 -9.244242
v 6.036602 -10.968723 -6.994140
v 7.133626 -11.926647 -9.871477
v 7.853665 -11.992809 -9.280714
v 7.793233 -12.401791 -8.722158
v 7.009125 -9.640408 -7.762601
v 2.721676 -8.202357 -3.911871
v -1.791206 -6.724948 -5.208989
v 2.882355 -8.207004 -1.333185
v 2.382020 -7.898463 -5.514959
v -1.791206 -6.724948 -5.208989
v 0.878017 -6.562182 -0.481885
v 3.965081 -8.601406 -7.198591
v 7.022740 -12.922550 -8.499243
v 6.928387 -10.191044 -7.111629
v 6.136006 -9.652210 -8.484780
v 6.966744 -12.053576 -5.942889
v 4.963719 -7.839000 -7.200046
v 3.083622 -6.284778 -6.199921
v 8.106858 -14.977345 -6.512654
v 8.119355 -14.669788 -6.996834
v 4.532910 -6.125857 -5.328336
v 9.456982 -14.804469 -2.336719
v -1.780063 -9.198002 -9.213578
v 0.581803 -7.226039 -5.045543
v 0.015446 -6.633265 -2.848125
v -1.386947 -8.158260 -6.661441
v -3.222423 -9.047253 -8.725382
v -0.775562 -7.317920 -5.173515
v -1.380485 -5.510836 -2.887556
v -2.279964 -7.800975 -6.577808
v -1.380485 -5.510836 -2.887556
v 1.324539 -6.281222 1.487458
v -1.170681 -2.750071 -1.409792
v -0.781169 -7.981746 -7.108026
v -1.512272 -4.712306 -4.538498
v 2.870739 -7.978091 0.878534
v -1.052864 -3.101862 0.363537
v 0.726299 -4.762278 1.524380
v -0.441032 -4.893656 -0.005222
v -3.222423 -9.047253 -8.725382
v 0.502434 -2.980593 -3.712037
v -0.421722 -3.960688 -5.094304
v 0.006444 -5.559459 -6.356460
v 5.920491 -6.532443 -3.354443
v 2.068867 -4.136477 -4.739067
v 1.491284 -5.731357 -5.692677
v 0.402070 -6.947383 -5.763434
v 0.868699 -4.512179 -5.291570
v 3.926388 -6.884615 1.534654
v 4.372425 -6.514361 1.127742
v -0.878810 -7.156817 -7.904757
v -1.928683 -8.647991 -9.576165
v -0.781169 -7.981746 -7.108026
v 5.907524 -7.293078 -0.270918
v -1.780063 -9.198002 -9.213578
v 3.083622 -6.284778 -6.199921
v -0.915947 -3.666338 -3.289505
v 2.540459 -7.252559 -6.176056
v -0.097980 -1.688128 -2.833442
v -2.480369 -6.999103 -7.258262
v 2.540459 -7.252559 -6.176056
v 3.965081 -8.601406 -7.198591
v -1.958416 -5.576297 -5.748986
v -1.081947 -4.888019 -6.293735
v -2.513614 -9.397366 -8.327264
v -1.761585 -6.741298 -7.928649
v -3.479896 -8.382839 -9.032110
v -3.059134 -8.658176 -9.878689
v 6.036602 -10.968723 -6.994140
v 5.508713 -11.113895 -7.783163
v 8.132389 -13.633342 -1.857674
v 8.978565 -14.914020 -2.248077
v 7.456315 -12.313632 -3.802205
v 8.915302 -14.944438 -3.441164
v 7.818356 -12.497592 -2.681237
v 8.558308 -14.971660 -3.817685
v 7.460152 -12.605151 -3.088927
v 8.535259 -14.747378 -4.493784
v 7.031956 -12.090961 -0.707559
v 8.978565 -14.914020 -2.248077
v 6.956101 -12.429477 -5.462742
v 8.444169 -14.905124 -5.820641
v 7.831398 -11.999644 -4.726599
v 9.137363 -15.024936 -1.691558
v 7.112717 -11.767550 -1.264174
v 8.097904 -13.912623 -1.367391
v 8.978565 -14.914020 -2.248077
v 2.659561 -5.014102 1.735755
v 3.104221 -4.752444 1.533561
v 5.309162 -7.831088 0.805512
v 0.402070 -6.947383 -5.763434
v 2.540459 -7.252559 -6.176056
v -2.762244 -9.400600 -9.244242
v 6.468442 -12.465717 -9.755215
v 5.420896 -10.486546 -8.395686
v -2.279964 -7.800975 -6.577808
v -1.170681 -2.750071 -1.409792
v 7.707405 -9.156146 -2.459828
v 7.128452 -7.954646 -1.980664
v 6.959519 -7.584094 -2.924073
v 7.281781 -9.122645 -3.713403
v 5.309162 -7.831088 0.805512
v 7.164994 -9.342525 -3.237139
v 8.832943 -11.519214 -3.344802
v 7.846741 -11.282237 -6.122187
v 9.022454 -14.281300 -7.198349
v 6.966744 -12.053576 -5.942889
v 5.819600 -9.521998 -5.516907
v 8.346104 -11.644931 -4.788695
v 8.517250 -10.900401 -0.897061
v 6.318794 -10.232951 0.463114
v 5.819600 -9.521998 -5.516907
v 6.507424 -9.842296 -3.325163
v 7.181492 -9.868457 -1.580110
v 5.186623 -6.625918 -5.676769
v 4.696030 -9.935870 -3.300320
v 5.750946 -10.639659 -0.094833
v 5.435329 -10.451129 -1.162681
v 6.260018 -7.515132 -4.946335
v 7.364995 -8.676570 -4.475914
v 4.217560 -10.054431 -1.404768
v 9.186337 -13.339198 -1.060436
v 8.425854 -13.812892 -0.980732
v 6.882164 -7.494021 -4.053286
v 6.516370 -12.965359 -9.145601
v 7.130489 -10.127711 -1.004342
v 7.087318 -9.419444 0.341778
v 6.349247 -8.902713 -5.755670
v 7.818356 -12.497592 -2.681237
v 6.468442 -12.465717 -9.755215
v 7.087318 -9.419444 0.341778
v 7.930996 -11.091556 -1.461248
v 7.022740 -12.922550 -8.499243
v 8.119355 -14.669788 -6.996834
v 9.492093 -14.280704 -6.651141
v 8.291668 -11.305903 -0.294170
v 7.831398 -11.999644 -4.726599
v 9.367131 -14.626208 -5.953886
v 7.456315 -12.313632 -3.802205
v 9.283291 -14.461734 -4.716269
v 8.867710 -13.168651 -2.019752
v 7.112717 -11.767550 -1.264174
v 9.696491 -14.696086 -3.506939
v 8.535259 -14.747378 -4.493784
v 5.141098 -8.666568 1.088899
v 8.291668 -11.305903 -0.294170
v 8.132389 -13.633342 -1.857674
v 7.428276 -11.969249 -0.299834
v 8.625591 -11.888629 -2.631402
v 8.915302 -14.944438 -3.441164
v 6.209251 -10.749774 -2.143180
v 4.141793 -9.594729 -6.243399
v 5.594010 -10.208522 -4.367208
v 7.130489 -10.127711 -1.004342
v 8.231373 -11.674396 -3.897017
v 6.507424 -9.842296 -3.325163
v 7.181492 -9.868457 -1.580110
v 9.137363 -15.024936 -1.691558
v 9.611782 -14.907344 -1.780200
v 8.970478 -15.006480 -1.942648
v 8.970478 -15.006480 -1.942648
v 9.611782 -14.907344 -1.780200
v 9.186337 -13.339198 -1.060436
v 9.770313 -14.935763 -2.071648
v 9.325222 -13.099315 -1.569868
v 8.437249 -11.154620 -5.536107
v 9.836117 -14.514384 -4.194211
v 5.420896 -10.486546 -8.395686
v 8.444169 -14.905124 -5.820641
v 4.507462 -9.548327 0.481761
v 7.387714 -9.102412 -0.285820
v 7.118637 -9.320910 -1.001239
v 6.870274 -8.213634 -0.859986
v 7.554573 -9.618731 -1.742946
v 5.988396 -7.904857 -6.565762
v 6.792179 -8.241878 -0.002796
vn -0.2279 -0.2036 0.9522
vn 0.2585 -0.6317 0.7308
vn -0.0490 -0.1818 0.9821
vn 0.1400 -0.1255 0.9822
vn 0.8583 0.3758 0.3494
vn -0.0373 -0.2658 0.9633
vn 0.4462 -0.5511 0.7051
vn 0.8022 0.3825 0.4585
vn 0.8444 0.5196 -0.1308
vn 0.8754 0.4744 -0.0924
vn 0.5199 0.0537 0.8526
vn 0.9914 -0.0119 0.1307
vn 0.9806 -0.1305 0.1459
vn 0.8727 -0.3720 -0.3162
vn 0.7539 -0.0141 -0.6568
vn 0.5637 0.5972 -0.5706
vn 0.5718 0.5417 -0.6161
vn 0.9082 0.2397 -0.3431
vn 0.6568 -0.2983 -0.6926
vn 0.1930 -0.4904 -0.8499
vn -0.4267 0.3122 -0.8488
vn -0.3192 0.3642 -0.8749
vn -0.2707 0.2377 -0.9329
vn -0.3479 0.3785 -0.8577
vn -0.6828 0.0864 -0.7255
vn 0.0290 -0.2457 -0.9689
vn -0.0708 -0.7155 0.6950
vn -0.3654 -0.4941 0.7889
vn -0.3917 -0.9174 0.0700
vn -0.8295 -0.5213 0.2004
vn -0.6459 -0.4966 -0.5798
vn -0.7979 -0.2618 -0.5429
vn -0.8115 -0.5211 0.2646
vn -0.6835 -0.1374 -0.7169
vn -0.4493 -0.8845 0.1259
vn -0.0000 -0.9879 -0.1554
vn -0.1356 -0.4199 0.8974
vn 0.6231 -0.4427 0.6447
vn 0.0361 -0.9988 -0.0322
vn -0.5560 -0.8310 0.0158
vn -0.4225 -0.9005 -0.1030
vn -0.4772 -0.8748 0.0840
vn -0.0699 -0.4627 0.8838
vn -0.8413 -0.4904 0.2273
vn -0.3305 -0.5148 0.7910
vn -0.2320 -0.4627 -0.8556
vn -0.4071 -0.8828 0.2343
vn -0.4820 -0.6701 0.5645
vn -0.6602 -0.7506 0.0268
vn -0.6870 -0.7261 0.0292
vn -0.5931 -0.8021 -0.0700
vn -0.8786 -0.4742 0.0559
vn -0.1200 -0.4527 0.8835
vn 0.0095 -0.3963 0.9181
vn 0.1262 -0.1938 0.9729
vn -0.4738 -0.6566 0.5869
vn -0.6563 0.0120 -0.7544
vn -0.7223 -0.2245 -0.6541
vn -0.7793 -0.6099 0.1437
vn -0.1468 -0.4921 0.8581
vn 0.5938 -0.1035 0.7979
vn 0.6513 0.0647 0.7560
vn 0.5451 0.1727 0.8204
vn -0.4337 -0.5605 -0.7055
vn -0.3847 -0.9206 -0.0665
vn -0.1255 -0.8718 0.4735
vn 0.6443 -0.3477 0.6812
vn 0.5169 0.0555 0.8543
vn 0.2588 -0.0327 0.9654
vn -0.4661 -0.4412 0.7668
vn -0.6453 -0.7264 0.2365
vn -0.0372 -0.2658 0.9633
vn -0.0487 -0.1816 0.9822
vn 0.0519 -0.0335 0.9981
vn -0.5017 -0.2121 0.8387
vn -0.8279 -0.4197 0.3720
vn -0.9209 -0.2805 0.2706
vn -0.3993 -0.8853 0.2382
vn -0.4577 -0.8873 0.0564
vn 0.2289 -0.6947 0.6819
vn 0.1719 -0.8257 0.5373
vn -0.2314 -0.9547 0.1870
vn -0.8599 -0.4760 -0.1844
vn -0.7946 -0.4065 0.4509
vn 0.0208 -0.9614 0.2745
vn -0.1393 -0.9897 0.0324
vn -0.5939 -0.7626 -0.2563
vn 0.0102 -0.8369 0.5472
vn 0.6762 -0.7338 0.0661
vn 0.3208 -0.6643 -0.6751
vn -0.3704 -0.0339 -0.9283
vn -0.6389 -0.0567 -0.7672
vn -0.6755 -0.4328 0.5970
vn -0.0273 -0.9293 0.3683
vn 0.6631 -0.6530 -0.3659
vn -0.1788 -0.8709 -0.4577
vn -0.8617 -0.4660 0.2011
vn -0.7508 -0.0638 -0.6574
vn -0.7824 -0.6101 0.1251
vn 0.0536 -0.6772 0.7339
vn -0.0766 -0.9594 -0.2715
vn -0.6862 -0.1021 -0.7202
vn -0.8117 -0.1223 -0.5711
vn -0.7950 -0.6008 0.0836
vn -0.1417 -0.7140 0.6856
vn -0.6454 -0.2801 -0.7106
vn -0.3545 -0.8953 -0.2698
vn -0.0618 -0.8680 0.4927
vn -0.7629 -0.1669 -0.6246
vn -0.8522 -0.5216 0.0400
vn -0.2334 -0.8641 0.4460
vn -0.3548 -0.9120 -0.2057
vn -0.5557 -0.3807 -0.7391
vn 0.2060 -0.4190 -0.8843
vn 0.6148 -0.6784 -0.4023
vn 0.6522 -0.6770 0.3411
vn -0.0709 -0.7155 0.6950
vn 0.9142 0.3141 -0.2559
vn 0.5122 -0.1624 0.8434
vn -0.0708 -0.7156 0.6949
vn -0.1357 -0.4199 0.8974
vn 0.6807 0.0046 0.7326
vn 0.6262 -0.4517 0.6355
vn 0.0060 0.2002 -0.9797
vn 0.2245 0.3335 -0.9156
vn 0.8882 0.4240 -0.1771
vn -0.6459 -0.4965 -0.5798
vn -0.6852 -0.1376 -0.7153
vn 0.0109 -0.9884 -0.1513
vn 0.8109 0.2213 -0.5417
vn 0.8779 0.4649 -0.1144
vn 0.8216 0.1319 0.5545
vn 0.9610 0.0388 0.2738
vn 0.8804 0.4673 0.0808
vn 0.8818 0.4645 0.0819
vn 0.9062 0.3860 0.1724
vn 0.7917 0.3265 -0.5164
vn -0.2443 -0.4481 -0.8600
vn 0.7551 -0.0072 0.6556
vn 0.8794 0.4233 -0.2177
vn 0.8617 0.4359 -0.2598
vn 0.8352 0.5317 -0.1402
vn 0.8980 0.2779 -0.3411
vn 0.9890 0.0170 0.1470
vn -0.0688 -0.4632 0.8836
vn 0.5467 -0.2053 0.8118
vn 0.9254 0.3105 -0.2173
vn 0.1753 0.3059 -0.9358
vn 0.8668 0.3646 -0.3402
vn 0.6777 0.5576 -0.4794
vn 0.5865 0.6921 -0.4207
vn 0.6552 -0.3019 -0.6925
vn -0.3306 -0.5148 0.7910
vn 0.7867 -0.4604 0.4113
vn 0.5308 -0.7709 -0.3520
vn 0.3681 -0.3413 -0.8649
vn 0.0445 0.2802 -0.9589
vn -0.6815 -0.1012 -0.7248
vn -0.0567 -0.9604 -0.2729
vn -0.3548 -0.9120 -0.2058
vn -0.5558 -0.3807 -0.7391
vn -0.5557 -0.3808 -0.7391
vn -0.2645 0.2183 -0.9394
vn 0.0291 0.5611 -0.8272
vn -0.3723 -0.0379 -0.9273
vn -0.6422 -0.0732 -0.7631
vn 0.1266 0.5755 -0.8079
vn -0.7550 -0.0606 -0.6529
vn -0.0950 0.4137 -0.9054
vn 0.6843 0.6510 -0.3286
vn 0.8757 0.4666 -0.1244
vn 0.9041 0.3548 -0.2383
vn 0.1972 -0.2065 -0.9584
vn 0.8430 -0.1432 0.5185
vn 0.7096 -0.3102 0.6326
vn 0.6433 -0.7453 0.1751
vn 0.6243 -0.6025 -0.4973
vn -0.1416 -0.7140 0.6857
vn 0.0506 -0.6770 0.7343
vn 0.7089 0.5480 0.4441
vn 0.8836 0.4412 0.1566
vn 0.8499 0.4780 -0.2216
vn 0.1097 0.3107 -0.9442
vn -0.6483 0.0185 -0.7611
vn 0.5133 0.0664 0.8557
vn 0.5495 0.1670 0.8186
vn 0.6512 0.0641 0.7562
vn 0.9252 0.3377 -0.1729
vn 0.0203 0.2376 -0.9712
vn 0.3900 -0.0089 -0.9208
vn 0.6442 -0.3477 0.6812
vn 0.5141 -0.8294 -0.2186
vn -0.2374 0.5864 -0.7744
vn -0.1868 -0.3707 -0.9098
vn -0.6839 0.0850 -0.7246
vn -0.3468 0.3772 -0.8588
vn 0.2321 0.6069 -0.7601
vn -0.1903 0.8148 -0.5477
vn -0.7886 0.5252 -0.3199
vn -0.0667 -0.4499 -0.8906
vn 0.0916 0.2645 -0.9600
vn 0.4260 0.4198 -0.8014
vn -0.3393 0.7622 -0.5513
vn -0.8844 0.4660 -0.0264
vn -0.9486 -0.2325 0.2149
vn -0.8626 -0.4567 -0.2178
vn -0.2622 0.2308 -0.9370
vn -0.3825 -0.0260 -0.9236
vn 0.3113 -0.6578 -0.6859
vn 0.7756 0.1082 -0.6219
vn -0.1739 0.7391 -0.6507
vn -0.8869 0.4549 -0.0799
vn -0.7985 -0.3898 0.4588
vn 0.6768 -0.7341 0.0552
vn 0.4328 0.0140 -0.9014
vn -0.5371 -0.0656 -0.8410
vn -0.9212 0.3490 -0.1719
vn -0.9438 0.2889 0.1606
vn -0.6754 -0.4328 0.5970
vn -0.8617 -0.4659 0.2010
vn -0.1788 -0.8710 -0.4577
vt 0.154558 0.558745
vt 0.154679 0.563595
vt 0.174792 0.569091
vt 0.183296 0.566670
vt 0.159207 0.543926
vt 0.189568 0.573435
vt 0.199308 0.570090
vt 0.187219 0.556968
vt 0.195539 0.539966
vt 0.167108 0.525244
vt 0.201232 0.573444
vt 0.207243 0.564889
vt 0.202836 0.563515
vt 0.211268 0.545719
vt 0.215369 0.529362
vt 0.201863 0.524687
vt 0.173590 0.514344
vt 0.214981 0.545735
vt 0.218958 0.530338
vt 0.216912 0.521931
vt 0.205204 0.516311
vt 0.182927 0.502705
vt 0.219896 0.519757
vt 0.207084 0.509716
vt 0.195434 0.504883
vt 0.188605 0.498426
vt 0.544530 0.929670
vt 0.541170 0.922991
vt 0.545664 0.928713
vt 0.543398 0.922139
vt 0.547641 0.928305
vt 0.546490 0.921081
vt 0.539490 0.909896
vt 0.542975 0.908700
vt 0.533992 0.897562
vt 0.543460 0.898254
vt 0.536928 0.910594
vt 0.529712 0.901679
vt 0.528089 0.890438
vt 0.531808 0.883743
vt 0.544447 0.887178
vt 0.552809 0.892854
vt 0.558250 0.908737
vt 0.563524 0.905766
vt 0.570106 0.918776
vt 0.523289 0.900300
vt 0.519350 0.889277
vt 0.521195 0.878884
vt 0.534783 0.870425
vt 0.549343 0.871909
vt 0.563160 0.882228
vt 0.513855 0.900876
vt 0.511216 0.899692
vt 0.513818 0.887374
vt 0.514836 0.875837
vt 0.523862 0.866370
vt 0.516682 0.902161
vt 0.512230 0.911003
vt 0.509956 0.910141
vt 0.508097 0.909125
vt 0.504672 0.907956
vt 0.506167 0.897853
vt 0.507192 0.885323
vt 0.508272 0.916721
vt 0.507201 0.915802
vt 0.505993 0.915224
vt 0.503812 0.915275
vt 0.509713 0.872697
vt 0.515744 0.864128
vt 0.524445 0.855073
vt 0.533315 0.856261
vt 0.512357 0.863936
vt 0.514305 0.852894
vt 0.516739 0.853074
vt 0.523721 0.848271
vt 0.531824 0.846302
vt 0.545563 0.846780
vt 0.545483 0.855103
vt 0.547547 0.862609
vt 0.514758 0.839604
vt 0.520872 0.839889
vt 0.529371 0.838159
vt 0.536883 0.835681
vt 0.557156 0.847698
vt 0.557788 0.853001
vt 0.556413 0.859499
vt 0.558401 0.869385
vt 0.565972 0.850350
vt 0.567320 0.853445
vt 0.560126 0.858738
vt 0.563154 0.868199
vt 0.567575 0.876738
vt 0.564901 0.846241
vt 0.571087 0.846916
vt 0.574545 0.850139
vt 0.574740 0.845708
vt 0.572082 0.843466
vt 0.575430 0.885158
vt 0.573598 0.888779
vt 0.570084 0.891437
vt 0.560788 0.890436
vt 0.565452 0.903350
vt 0.584784 0.892433
vt 0.582872 0.895394
vt 0.580215 0.897923
vt 0.589514 0.897575
vt 0.588223 0.898532
vt 0.587222 0.900389
vt 0.575165 0.914828
vt 0.573329 0.916917
vt 0.577417 0.925090
vt 0.579262 0.923281
vt 0.580463 0.922598
vt 0.740060 0.974642
vt 0.737673 0.971318
vt 0.743338 0.973726
vt 0.739762 0.969287
vt 0.741849 0.967859
vt 0.744300 0.971161
vt 0.733490 0.961273
vt 0.736753 0.958411
vt 0.744439 0.965614
vt 0.741094 0.955604
vt 0.731547 0.940477
vt 0.725405 0.942779
vt 0.719370 0.924482
vt 0.729756 0.963937
vt 0.717188 0.949582
vt 0.720990 0.945758
vt 0.734716 0.973221
vt 0.725969 0.967633
vt 0.713576 0.954986
vt 0.701655 0.942294
vt 0.702618 0.936005
vt 0.708657 0.929045
vt 0.715498 0.925939
vt 0.692173 0.938068
vt 0.692774 0.921311
vt 0.701498 0.918115
vt 0.709426 0.910596
vt 0.718578 0.916425
vt 0.724038 0.920651
vt 0.688510 0.960687
vt 0.682662 0.959154
vt 0.684266 0.937013
vt 0.683665 0.925507
vt 0.682347 0.916503
vt 0.699030 0.906467
vt 0.692533 0.961997
vt 0.686253 0.982020
vt 0.681503 0.981202
vt 0.677075 0.959734
vt 0.669099 0.938542
vt 0.675064 0.926768
vt 0.665964 0.919827
vt 0.665496 0.914048
vt 0.692430 0.982813
vt 0.686961 0.994430
vt 0.683771 0.994550
vt 0.680540 0.993842
vt 0.678233 0.994081
vt 0.677096 0.981355
vt 0.669384 0.961827
vt 0.669158 0.943335
vt 0.683449 0.998295
vt 0.679251 0.998946
vt 0.677560 0.997703
vt 0.670749 0.981896
vt 0.674980 0.993739
vt 0.654978 0.909955
vt 0.654487 0.926787
vt 0.648618 0.912061
vt 0.647162 0.924295
vt 0.647282 0.940121
vt 0.640874 0.938419
vt 0.638530 0.953900
vt 0.633736 0.952533
vt 0.661284 0.930916
vt 0.653101 0.943618
vt 0.642865 0.956560
vt 0.633821 0.963858
vt 0.631357 0.961585
vt 0.656936 0.947148
vt 0.645609 0.959147
vt 0.637455 0.966554
vt 0.636075 0.964791
vt 0.632443 0.969046
vt 0.631525 0.966751
vt 0.635531 0.969674
vt 0.640206 0.968142
vt 0.648812 0.963528
vt 0.661066 0.953254
vt 0.712719 0.903948
vt 0.720106 0.909348
vt 0.734326 0.916691
vt 0.732417 0.921552
vt 0.731333 0.928126
vt 0.709720 0.893119
vt 0.723075 0.903879
vt 0.737239 0.912815
vt 0.746505 0.923438
vt 0.745202 0.926827
vt 0.744099 0.931873
vt 0.753721 0.932911
vt 0.755055 0.930161
vt 0.748247 0.920809
vt 0.756360 0.926337
vt 0.755575 0.927806
vt 0.760085 0.927240
vt 0.760152 0.930070
vt 0.758103 0.932211
vt 0.787741 0.978577
vt 0.798978 0.977687
vt 0.789190 0.973395
vt 0.780191 0.967495
vt 0.774758 0.973149
vt 0.776638 0.981428
vt 0.785730 0.988417
vt 0.797174 0.982079
vt 0.768235 0.967466
vt 0.765033 0.976310
vt 0.767630 0.983117
vt 0.775615 0.989377
vt 0.780518 0.998637
vt 0.797214 0.993050
vt 0.766918 0.956868
vt 0.761038 0.958759
vt 0.759091 0.969966
vt 0.752709 0.981572
vt 0.754357 0.986406
vt 0.767142 0.989794
vt 0.766278 0.996608
vt 0.749994 0.976187
vt 0.740233 0.985643
vt 0.743155 0.987307
vt 0.743645 0.990472
vt 0.745312 0.992385
vt 0.755682 0.991644
vt 0.756595 0.997269
vt 0.742805 0.995805
vt 0.739337 0.991569
s 1
g off
g Mano_der_Material.001
usemtl Material.001
f 13/1/1 45/2/2 39/3/3
f 26/4/4 13/1/1 39/3/3
f 26/4/4 14/5/5 13/1/1
f 39/3/3 62/6/6 26/4/4
f 17/7/7 26/4/4 62/6/6
f 26/4/4 17/7/7 12/8/8
f 12/8/8 14/5/5 26/4/4
f 12/8/8 19/9/9 14/5/5
f 19/9/9 20/10/10 14/5/5
f 60/11/11 17/7/7 62/6/6
f 60/11/11 59/12/12 17/7/7
f 59/12/12 50/13/13 17/7/7
f 17/7/7 50/13/13 12/8/8
f 12/8/8 50/13/13 19/9/9
f 50/13/13 55/14/14 19/9/9
f 19/9/9 55/14/14 32/15/15
f 9/16/16 19/9/9 32/15/15
f 9/16/16 16/17/17 19/9/9
f 16/17/17 20/10/10 19/9/9
f 55/14/14 50/13/13 59/12/12
f 61/18/18 55/14/14 59/12/12
f 32/15/15 55/14/14 61/18/18
f 18/19/19 32/15/15 61/18/18
f 58/20/20 32/15/15 18/19/19
f 32/15/15 58/20/20 10/21/21
f 9/16/16 32/15/15 10/21/21
f 9/16/16 10/21/21 15/22/22
f 16/17/17 9/16/16 15/22/22
f 49/23/23 58/20/20 18/19/19
f 10/21/21 58/20/20 49/23/23
f 11/24/24 10/21/21 49/23/23
f 10/21/21 11/24/24 31/25/25
f 10/21/21 31/25/25 15/22/22
f 31/25/25 40/26/26 15/22/22
s 2
f 27/27/27 139/28/28 29/29/29
f 139/28/28 141/30/30 29/29/29
f 29/29/29 141/30/30 24/31/31
f 141/30/30 143/32/32 24/31/31
f 141/30/30 142/33/33 143/32/32
f 142/33/33 138/34/34 143/32/32
f 142/33/33 216/35/35 138/34/34
f 216/35/35 178/36/36 138/34/34
f 142/33/33 141/30/30 139/28/28
f 140/37/37 142/33/33 139/28/28
f 216/35/35 142/33/33 140/37/37
f 179/38/38 216/35/35 140/37/37
f 179/38/38 183/39/39 216/35/35
f 186/40/40 216/35/35 183/39/39
f 216/35/35 186/40/40 181/41/41
f 178/36/36 216/35/35 181/41/41
f 218/42/42 178/36/36 181/41/41
f 148/43/43 178/36/36 218/42/42
f 146/44/44 148/43/43 218/42/42
f 147/45/45 148/43/43 146/44/44
f 219/46/46 183/39/39 179/38/38
f 219/46/46 182/47/47 183/39/39
f 186/40/40 183/39/39 182/47/47
f 235/48/48 186/40/40 182/47/47
f 73/49/49 186/40/40 235/48/48
f 186/40/40 73/49/49 181/41/41
f 71/50/50 181/41/41 73/49/49
f 181/41/41 71/50/50 217/51/51
f 181/41/41 217/51/51 218/42/42
f 182/47/47 219/46/46 144/52/52
f 182/47/47 144/52/52 213/53/53
f 176/54/54 182/47/47 213/53/53
f 182/47/47 176/54/54 235/48/48
f 176/54/54 210/55/55 235/48/48
f 101/56/56 235/48/48 210/55/55
f 101/56/56 73/49/49 235/48/48
f 219/46/46 150/57/57 144/52/52
f 144/52/52 150/57/57 136/58/58
f 151/59/59 144/52/52 136/58/58
f 144/52/52 151/59/59 188/60/60
f 213/53/53 144/52/52 188/60/60
f 213/53/53 188/60/60 187/61/61
f 211/62/62 213/53/53 187/61/61
f 176/54/54 213/53/53 211/62/62
f 196/63/63 176/54/54 211/62/62
f 210/55/55 176/54/54 196/63/63
f 136/58/58 137/64/64 151/59/59
f 137/64/64 226/65/65 151/59/59
f 226/65/65 149/66/66 151/59/59
f 149/66/66 188/60/60 151/59/59
f 149/66/66 227/67/67 188/60/60
f 227/67/67 187/61/61 188/60/60
f 155/68/68 210/55/55 196/63/63
f 114/69/69 210/55/55 155/68/68
f 114/69/69 101/56/56 210/55/55
f 101/56/56 114/69/69 97/70/70
f 97/70/70 76/71/71 101/56/56
f 76/71/71 73/49/49 101/56/56
f 115/72/72 114/69/69 155/68/68
f 115/72/72 154/73/73 114/69/69
f 154/73/73 153/74/74 114/69/69
f 114/69/69 153/74/74 97/70/70
f 153/74/74 103/75/75 97/70/70
f 97/70/70 103/75/75 104/76/76
f 76/71/71 97/70/70 104/76/76
f 76/71/71 104/76/76 96/77/77
f 90/78/78 76/71/71 96/77/77
f 90/78/78 73/49/49 76/71/71
f 64/79/79 73/49/49 90/78/78
f 71/50/50 73/49/49 64/79/79
f 153/74/74 154/73/73 23/80/80
f 21/81/81 153/74/74 23/80/80
f 103/75/75 153/74/74 21/81/81
f 103/75/75 21/81/81 102/82/82
f 104/76/76 103/75/75 102/82/82
f 104/76/76 102/82/82 162/83/83
f 96/77/77 104/76/76 162/83/83
f 96/77/77 75/84/84 90/78/78
f 75/84/84 93/85/85 90/78/78
f 93/85/85 89/86/86 90/78/78
f 89/86/86 64/79/79 90/78/78
f 64/79/79 89/86/86 74/87/87
f 71/50/50 64/79/79 74/87/87
f 74/87/87 217/51/51 71/50/50
f 91/88/88 93/85/85 75/84/84
f 91/88/88 99/89/89 93/85/85
f 99/89/89 156/90/90 93/85/85
f 93/85/85 156/90/90 89/86/86
f 89/86/86 156/90/90 74/87/87
f 156/90/90 157/91/91 74/87/87
f 157/91/91 77/92/92 74/87/87
f 217/51/51 74/87/87 77/92/92
f 161/93/93 91/88/88 75/84/84
f 91/88/88 161/93/93 130/94/94
f 91/88/88 130/94/94 99/89/89
f 130/94/94 88/95/95 99/89/89
f 88/95/95 130/94/94 65/96/96
f 130/94/94 105/97/97 65/96/96
f 130/94/94 161/93/93 105/97/97
f 217/51/51 77/92/92 233/98/98
f 135/99/99 217/51/51 233/98/98
f 217/51/51 135/99/99 134/100/100
f 177/101/101 217/51/51 134/100/100
f 217/51/51 177/101/101 218/42/42
f 218/42/42 177/101/101 81/102/102
f 146/44/44 218/42/42 81/102/102
f 135/99/99 233/98/98 195/103/103
f 190/104/104 135/99/99 195/103/103
f 135/99/99 190/104/104 198/105/105
f 134/100/100 135/99/99 198/105/105
f 190/104/104 195/103/103 1/106/106
f 37/107/107 190/104/104 1/106/106
f 190/104/104 37/107/107 38/108/108
f 198/105/105 190/104/104 38/108/108
f 146/44/44 81/102/102 85/109/109
f 84/110/110 146/44/44 85/109/109
f 84/110/110 147/45/45 146/44/44
f 56/111/111 147/45/45 84/110/110
f 57/112/112 56/111/111 84/110/110
f 57/112/112 84/110/110 42/113/113
f 84/110/110 85/109/109 42/113/113
s 3
f 5/114/31 7/115/114 44/116/29
f 7/115/114 8/117/115 44/116/29
f 8/117/115 6/118/116 44/116/29
f 6/118/116 43/119/117 44/116/29
f 8/117/115 7/115/114 232/120/118
f 8/117/115 232/120/118 6/118/116
f 232/120/118 208/121/119 6/118/116
f 6/118/116 208/121/119 30/122/120
f 208/121/119 215/123/28 30/122/120
f 194/124/121 215/123/28 208/121/119
f 214/125/122 194/124/121 208/121/119
f 222/126/123 194/124/121 214/125/122
f 7/115/114 205/127/124 232/120/118
f 205/127/124 220/128/125 232/120/118
f 220/128/125 169/129/126 232/120/118
f 232/120/118 169/129/126 214/125/122
f 208/121/119 232/120/118 214/125/122
f 7/115/114 28/130/127 205/127/124
f 28/130/127 209/131/32 205/127/124
f 205/127/124 209/131/32 204/132/128
f 220/128/125 205/127/124 204/132/128
f 220/128/125 204/132/128 221/133/129
f 168/134/130 220/128/125 221/133/129
f 169/129/126 220/128/125 168/134/130
f 163/135/131 169/129/126 168/134/130
f 163/135/131 239/136/132 169/129/126
f 239/136/132 214/125/122 169/129/126
f 239/136/132 222/126/123 214/125/122
f 166/137/133 168/134/130 221/133/129
f 168/134/130 166/137/133 165/138/134
f 165/138/134 164/139/135 168/134/130
f 168/134/130 164/139/135 163/135/131
f 164/139/135 239/136/132 163/135/131
f 164/139/135 238/140/136 239/136/132
f 238/140/136 222/126/123 239/136/132
f 238/140/136 237/141/137 222/126/123
f 222/126/123 237/141/137 191/142/138
f 166/137/133 221/133/129 174/143/139
f 174/143/139 231/144/140 166/137/133
f 231/144/140 185/145/141 166/137/133
f 185/145/141 189/146/142 166/137/133
f 189/146/142 165/138/134 166/137/133
f 189/146/142 109/147/143 165/138/134
f 109/147/143 119/148/144 165/138/134
f 119/148/144 164/139/135 165/138/134
f 119/148/144 238/140/136 164/139/135
f 221/133/129 202/149/145 174/143/139
f 174/143/139 202/149/145 203/150/146
f 203/150/146 200/151/147 174/143/139
f 200/151/147 231/144/140 174/143/139
f 170/152/148 231/144/140 200/151/147
f 170/152/148 193/153/149 231/144/140
f 193/153/149 185/145/141 231/144/140
f 185/145/141 193/153/149 184/154/150
f 189/146/142 185/145/141 184/154/150
f 109/147/143 189/146/142 184/154/150
f 180/155/151 109/147/143 184/154/150
f 86/156/152 109/147/143 180/155/151
f 202/149/145 234/157/153 203/150/146
f 203/150/146 234/157/153 53/158/111
f 41/159/154 203/150/146 53/158/111
f 200/151/147 203/150/146 41/159/154
f 47/160/155 200/151/147 41/159/154
f 47/160/155 51/161/156 200/151/147
f 51/161/156 171/162/157 200/151/147
f 171/162/157 170/152/148 200/151/147
f 170/152/148 171/162/157 172/163/158
f 170/152/148 172/163/158 173/164/159
f 193/153/149 170/152/148 173/164/159
f 47/160/155 41/159/154 46/165/111
f 48/166/160 47/160/155 46/165/111
f 51/161/156 47/160/155 48/166/160
f 52/167/161 51/161/156 48/166/160
f 171/162/157 199/168/109 172/163/158
f 54/169/162 199/168/109 171/162/157
f 51/161/156 54/169/162 171/162/157
f 86/156/152 180/155/151 83/170/163
f 180/155/151 82/171/164 83/170/163
f 83/170/163 82/171/164 123/172/165
f 82/171/164 127/173/166 123/172/165
f 82/171/164 80/174/167 127/173/166
f 80/174/167 160/175/168 127/173/166
f 80/174/167 67/176/169 160/175/168
f 67/176/169 159/177/103 160/175/168
f 82/171/164 180/155/151 240/178/170
f 82/171/164 240/178/170 80/174/167
f 240/178/170 70/179/171 80/174/167
f 80/174/167 70/179/171 68/180/172
f 67/176/169 80/174/167 68/180/172
f 67/176/169 68/180/172 33/181/173
f 67/176/169 33/181/173 35/182/106
f 159/177/103 67/176/169 35/182/106
f 180/155/151 193/153/149 240/178/170
f 70/179/171 240/178/170 193/153/149
f 79/183/174 70/179/171 193/153/149
f 68/180/172 70/179/171 79/183/174
f 69/184/175 68/180/172 79/183/174
f 68/180/172 69/184/175 34/185/176
f 36/186/177 68/180/172 34/185/176
f 68/180/172 36/186/177 33/181/173
f 33/181/173 36/186/177 3/187/107
f 4/188/106 33/181/173 3/187/107
f 184/154/150 193/153/149 180/155/151
f 36/186/177 34/185/176 3/187/107
f 34/185/176 2/189/108 3/187/107
f 34/185/176 69/184/175 63/190/108
f 69/184/175 78/191/178 63/190/108
f 66/192/179 78/191/178 69/184/175
f 79/183/174 66/192/179 69/184/175
f 173/164/159 66/192/179 79/183/174
f 193/153/149 173/164/159 79/183/174
f 119/148/144 241/193/180 238/140/136
f 241/193/180 236/194/181 238/140/136
f 236/194/181 237/141/137 238/140/136
f 236/194/181 175/195/182 237/141/137
f 175/195/182 197/196/183 237/141/137
f 237/141/137 197/196/183 191/142/138
f 197/196/183 207/197/184 191/142/138
f 119/148/144 167/198/185 241/193/180
f 241/193/180 167/198/185 192/199/186
f 236/194/181 241/193/180 192/199/186
f 192/199/186 201/200/187 236/194/181
f 201/200/187 175/195/182 236/194/181
f 230/201/188 175/195/182 201/200/187
f 197/196/183 175/195/182 230/201/188
f 206/202/189 197/196/183 230/201/188
f 197/196/183 206/202/189 207/197/184
f 206/202/189 212/203/58 207/197/184
f 152/204/64 212/203/58 206/202/189
f 87/205/190 152/204/64 206/202/189
f 228/206/61 230/201/188 201/200/187
f 230/201/188 228/206/61 224/207/191
f 229/208/192 230/201/188 224/207/191
f 229/208/192 87/205/190 230/201/188
f 87/205/190 206/202/189 230/201/188
f 223/209/66 229/208/192 224/207/191
f 229/208/192 223/209/66 225/210/65
f 229/208/192 225/210/65 145/211/64
f 229/208/192 145/211/64 87/205/190
s 4
f 106/212/193 22/213/194 25/214/195
f 25/214/195 110/215/196 106/212/193
f 110/215/196 113/216/197 106/212/193
f 113/216/197 107/217/198 106/212/193
f 106/212/193 107/217/198 122/218/199
f 122/218/199 124/219/200 106/212/193
f 106/212/193 124/219/200 22/213/194
f 113/216/197 110/215/196 111/220/201
f 111/220/201 108/221/202 113/216/197
f 107/217/198 113/216/197 108/221/202
f 129/222/203 107/217/198 108/221/202
f 107/217/198 129/222/203 100/223/204
f 107/217/198 100/223/204 122/218/199
f 122/218/199 100/223/204 94/224/205
f 122/218/199 94/224/205 98/225/206
f 124/219/200 122/218/199 98/225/206
f 121/226/207 111/220/201 110/215/196
f 111/220/201 121/226/207 126/227/208
f 112/228/209 111/220/201 126/227/208
f 112/228/209 108/221/202 111/220/201
f 116/229/210 108/221/202 112/228/209
f 116/229/210 131/230/211 108/221/202
f 131/230/211 129/222/203 108/221/202
f 129/222/203 131/230/211 128/231/212
f 129/222/203 128/231/212 100/223/204
f 100/223/204 128/231/212 72/232/213
f 94/224/205 100/223/204 72/232/213
f 118/233/214 116/229/210 112/228/209
f 118/233/214 120/234/95 116/229/210
f 120/234/95 117/235/215 116/229/210
f 116/229/210 117/235/215 131/230/211
f 117/235/215 133/236/216 131/230/211
f 131/230/211 133/236/216 132/237/217
f 125/238/218 131/230/211 132/237/217
f 131/230/211 125/238/218 128/231/212
f 128/231/212 125/238/218 72/232/213
f 125/238/218 95/239/219 72/232/213
f 92/240/220 95/239/219 125/238/218
f 117/235/215 120/234/95 158/241/221
f 133/236/216 117/235/215 158/241/221
f 133/236/216 158/241/221 92/240/220
f 132/237/217 133/236/216 92/240/220
f 132/237/217 92/240/220 125/238/218
