# Blender 3.6.0
# www.blender.org
mtllib ManoIKarma.mtl
g Mano_izq_Mesh
v -8.945728 -16.658890 -4.782423
v -4.717319 -5.068223 0.640924
v -0.243438 -1.784914 -3.054384
v -3.888573 -5.843507 1.827645
v -8.945728 -16.658890 -4.782423
v -9.427860 -16.651917 -4.995752
v -8.757747 -16.793030 -7.502892
v -9.227146 -16.800354 -4.163754
v -8.934714 -16.950470 -6.781700
v -8.945728 -16.658890 -4.782423
v -2.735104 -1.404206 1.140478
v -2.778766 -6.850183 -6.308869
v -9.227146 -16.800354 -4.163754
v -8.697383 -16.897446 -7.245669
v -9.799458 -16.793518 -4.730795
v -8.757747 -16.793030 -7.502892
v -8.934714 -16.950470 -6.781700
v -6.817512 -14.382991 -10.078618
v -6.885756 -14.224284 -10.390116
v -8.697383 -16.897446 -7.245669
v -8.757747 -16.793030 -7.502892
v -9.227146 -16.800354 -4.163754
v -8.971935 -16.749466 -4.354454
v -9.485152 -16.837204 -7.354769
v -9.408813 -16.977829 -6.854414
v -7.143275 -14.470256 -9.761610
v -6.586723 -10.732394 -7.163305
v -5.167041 -11.655246 -7.834839
v -7.451556 -12.943149 -8.773848
v -5.694938 -11.510074 -7.045815
v -2.317860 -5.555497 1.684091
v -7.143275 -14.470256 -9.761610
v -2.762516 -5.293839 1.481897
v -5.079223 -11.027896 -8.447361
v -6.174693 -13.506717 -9.197289
v -6.681067 -13.463908 -8.550932
v -5.079223 -11.027896 -8.447361
v -6.126773 -13.007068 -9.806906
v -6.667461 -10.181766 -7.814277
v -7.629210 -14.483340 -9.993376
v -6.885756 -14.224284 -10.390116
v -7.395946 -14.189189 -10.605818
v -6.817512 -14.382991 -10.078618
v -7.143275 -14.470256 -9.761610
v -6.885756 -14.224284 -10.390116
v -9.241988 -16.766159 -7.617800
v -9.737446 -16.811569 -4.280647
v -8.971935 -16.749466 -4.354454
v -5.565823 -7.834474 -0.322587
v -5.488796 -8.039400 1.203308
v -0.620510 -1.374284 -3.774096
v -3.443351 -4.087160 -4.743367
v -2.197834 -4.145914 -5.734127
v -4.967457 -8.372484 0.753843
v -1.294674 -2.583489 1.855455
v -1.986736 -0.645738 -2.748479
v -0.081844 -3.275109 1.625910
v -1.008678 -3.265672 -3.903699
v -3.236079 -6.339662 -7.050267
v -5.578788 -7.073839 -3.406106
v -4.565128 -6.276750 -5.766690
v -4.191200 -6.667253 -5.380000
v -4.030724 -7.055757 1.076077
v -6.128299 -6.753755 -3.281401
v -6.216553 -7.529450 0.034975
v -2.762516 -5.293839 1.481897
v -1.008678 -3.265672 -3.903699
v -0.243438 -1.784914 -3.054384
v -1.731723 -4.680559 -4.797141
v -7.511989 -12.534160 -9.332403
v -6.791949 -12.467998 -9.923166
v -6.681067 -13.463908 -8.550932
v -5.794345 -10.193561 -8.536457
v -1.294674 -2.583489 1.855455
v -4.772087 -4.325318 -2.332277
v -2.740528 -0.560869 -1.324504
v -1.700329 -2.464539 2.294888
v -8.934714 -16.950470 -6.781700
v -7.709369 -14.356791 -10.355131
v -6.126773 -13.007068 -9.806906
v -5.694938 -11.510074 -7.045815
v 0.186489 -7.251458 -3.083064
v 1.489159 -3.302751 -1.488250
v 1.580544 -6.126496 -3.116479
v -0.982838 -6.822633 1.435796
v -2.235118 -7.817674 -6.284319
v 1.394577 -3.643266 0.312105
v -3.623386 -9.142779 -7.250257
v 2.478425 -8.428042 -6.833877
v 2.478425 -8.428042 -6.833877
v 3.434464 -9.672313 -8.976609
v 1.586613 -8.787234 -6.922048
v 3.434464 -9.672313 -8.976609
v 1.994939 -9.826152 -9.472138
v 0.965878 -7.948198 -5.437263
v 0.782738 -5.435060 -0.056827
v 1.489159 -3.302751 -1.488250
v -2.529034 -8.519487 0.826869
v -7.756222 -14.454004 -1.419068
v -6.771027 -12.308977 -1.315848
v -7.118476 -13.146563 -3.140610
v -8.795673 -15.566317 -1.743237
v -8.628788 -15.547869 -1.994328
v -7.476684 -13.039011 -2.732920
v -8.628788 -15.547869 -1.994328
v -5.565823 -7.834474 -0.322587
v -2.235118 -7.817674 -6.284319
v -2.235118 -7.817674 -6.284319
v -2.778766 -6.850183 -6.308869
v 1.793938 -5.286279 -4.667931
v 0.703850 -4.535532 -5.225816
v 3.276219 -9.283587 -10.130736
v 1.218121 -4.228364 -3.390423
v 2.147923 -6.204050 -6.006732
v 0.982743 -8.612025 -7.371713
v 1.964665 -7.369485 -8.187354
v -5.578788 -7.073839 -3.406106
v 1.082673 -7.786890 -8.167949
v -0.168979 -7.555215 -5.973610
v 3.692071 -9.007350 -9.282033
v 2.724393 -10.023944 -8.582099
v 1.272759 -5.517656 -6.555946
v 0.439686 -2.229524 -2.885062
v -8.636883 -15.455400 -2.299754
v -9.115292 -15.345850 -2.388397
v -7.765171 -15.518725 -6.564323
v -7.777668 -15.211169 -7.048505
v -3.584683 -7.426011 1.482989
v -7.489727 -12.541002 -4.778264
v -6.614433 -12.970858 -5.514406
v -8.102481 -15.446497 -5.872313
v -8.636883 -15.455400 -2.299754
v -6.690266 -12.632380 -0.759235
v -8.573605 -15.485842 -3.492834
v -8.216610 -15.513048 -3.869356
v -8.193569 -15.288774 -4.545454
v -6.625068 -12.594957 -5.994551
v -7.114639 -12.855036 -3.853886
v -4.967457 -8.372484 0.753843
v 0.982743 -8.612025 -7.371713
v -2.778766 -6.850183 -6.308869
v -4.622028 -8.380374 -7.251713
v -0.168979 -7.555215 -5.973610
v -4.030724 -7.055757 1.076077
v -4.191200 -6.667253 -5.380000
v -0.609542 -5.102067 -5.458971
v -1.187366 -6.295907 -5.799617
v -1.731723 -4.680559 -4.797141
v 0.186143 -6.191423 -6.624199
v 2.144227 -9.275821 -9.833972
v 1.994939 -9.826152 -9.472138
v -1.216987 -7.559297 -3.565304
v -2.068660 -8.458025 -5.609965
v -5.477935 -10.063349 -5.568584
v -7.777668 -15.211169 -7.048505
v -9.150409 -14.822078 -6.702811
v -8.095576 -11.695986 -5.587771
v -8.491268 -12.060640 -3.396483
v -9.494419 -15.055773 -4.245880
v -8.844646 -13.880579 -1.112113
v -9.428623 -15.477144 -2.123327
v -7.949978 -11.847315 -0.345844
v -8.175560 -11.441805 -0.948736
v -9.270084 -15.448725 -1.831879
v -9.270084 -15.448725 -1.831879
v -8.795673 -15.566317 -1.743237
v -8.004429 -12.186281 -4.840358
v -8.983532 -13.640696 -1.621545
v -7.505069 -11.823618 -6.173850
v -8.636883 -15.455400 -2.299754
v 2.977692 -10.026652 -9.497798
v 2.977692 -10.026652 -9.497798
v -7.790699 -14.174723 -1.909352
v -0.165508 -3.524591 -3.769884
v -0.350933 -7.834154 -5.256386
v 1.580544 -6.126496 -3.116479
v -0.536312 -7.103578 -0.533546
v -0.384598 -5.303689 1.472737
v -3.623386 -9.142779 -7.250257
v 2.680573 -7.625749 -7.513315
v -7.889701 -12.215822 -3.948698
v -8.526020 -13.710032 -2.071429
v -6.771027 -12.308977 -1.315848
v -7.589325 -11.632975 -1.512930
v -7.790699 -14.174723 -1.909352
v -8.084164 -14.354273 -1.032409
v -7.476684 -13.039011 -2.732920
v -6.007576 -9.444063 -5.807347
v -6.450485 -8.783289 -0.054468
v -7.046024 -9.643824 -0.337494
v -6.617851 -8.125505 -2.975749
v -6.528584 -8.755045 -0.911655
v -6.776947 -9.862314 -1.052911
v -6.786781 -8.496058 -2.032341
v -7.212898 -10.160151 -1.794627
v -6.823322 -9.883936 -3.288814
v -5.093632 -10.992533 -1.214352
v -5.646717 -8.446231 -6.617433
v -2.415714 -8.765726 -4.015979
v -6.839821 -10.409868 -1.631790
v -2.540649 -8.748400 -1.384848
v -4.844917 -7.167299 -5.728432
v -5.867577 -11.291193 -2.194863
v 1.980416 -7.353052 -5.467577
v -8.844646 -13.880579 -1.112113
v -8.193569 -15.288774 -4.545454
v -8.283916 -12.430048 -2.683083
v -6.745625 -9.960855 0.290106
v -7.949978 -11.847315 -0.345844
v -5.252342 -10.749880 -4.418875
v -5.977100 -10.774363 0.411443
v -4.165756 -10.089724 0.430092
v -5.409252 -11.181063 -0.146504
v -5.477935 -10.063349 -5.568584
v -3.800086 -10.136126 -6.295063
v -6.788803 -10.669115 -1.056014
v -6.540496 -8.035433 -4.104961
v -3.875854 -10.595827 -1.456434
v -5.918346 -8.056505 -4.998005
v -6.165756 -10.383661 -3.376827
v -4.354354 -10.477243 -3.351978
v -6.940105 -9.664072 -3.765078
v -4.967457 -8.372484 0.753843
v -6.745625 -9.960855 0.290106
v -7.023315 -9.217981 -4.527591
v -4.799393 -9.207964 1.037230
v -6.788803 -10.669115 -1.056014
v -7.489727 -12.541002 -4.778264
v -8.102481 -15.446497 -5.872313
v -8.680766 -14.822680 -7.250019
v -6.625068 -12.594957 -5.994551
v -9.025447 -15.167582 -6.005555
v -9.354801 -15.237474 -3.558609
v -6.165756 -10.383661 -3.376827
v -8.573605 -15.485842 -3.492834
v -8.941593 -15.003115 -4.767937
v -7.114639 -12.855036 -3.853886
v 1.980416 -7.353052 -5.467577
v -7.086586 -12.510660 -0.351510
v -7.365734 -9.697565 -2.511506
v -6.839821 -10.409868 -1.631790
vn -0.2585 -0.6317 0.7308
vn -0.2045 0.0306 0.9784
vn 0.0490 -0.1818 0.9821
vn -0.1400 -0.1255 0.9822
vn 0.0373 -0.2658 0.9633
vn -0.8583 0.3758 0.3495
vn -0.8022 0.3825 0.4585
vn -0.4462 -0.5511 0.7051
vn -0.5199 0.0537 0.8526
vn -0.9914 -0.0119 0.1307
vn -0.8754 0.4745 -0.0925
vn -0.8444 0.5196 -0.1308
vn -0.9806 -0.1305 0.1459
vn -0.6222 0.5629 -0.5441
vn -0.0292 -0.2448 -0.9691
vn 0.6832 0.0865 -0.7251
vn 0.3732 0.2574 -0.8913
vn 0.4258 0.3137 -0.8487
vn -0.5646 0.5973 -0.5696
vn 0.3494 0.3817 -0.8557
vn 0.2607 0.2300 -0.9376
vn -0.2095 -0.4911 -0.8455
vn -0.7645 -0.0107 -0.6446
vn -0.8727 -0.3720 -0.3162
vn -0.9082 0.2397 -0.3431
vn -0.6702 -0.3025 -0.6777
vn 0.3654 -0.4941 0.7889
vn 0.0708 -0.7155 0.6950
vn 0.3917 -0.9174 0.0700
vn 0.8295 -0.5213 0.2004
vn 0.8115 -0.5211 0.2646
vn 0.1356 -0.4199 0.8974
vn 0.4494 -0.8844 0.1259
vn -0.6231 -0.4427 0.6448
vn -0.0368 -0.9989 -0.0283
vn 0.2320 -0.4627 -0.8556
vn 0.6459 -0.4966 -0.5798
vn 0.7979 -0.2618 -0.5429
vn 0.6835 -0.1374 -0.7169
vn -0.0000 -0.9879 -0.1554
vn 0.4246 -0.8992 -0.1054
vn 0.5569 -0.8301 0.0295
vn 0.4087 -0.8819 0.2352
vn 0.8785 -0.4744 0.0557
vn 0.6563 0.0120 -0.7544
vn 0.7223 -0.2245 -0.6542
vn 0.4772 -0.8749 0.0831
vn 0.5920 -0.8026 -0.0738
vn 0.6882 -0.7249 0.0284
vn 0.6607 -0.7502 0.0262
vn 0.4828 -0.6694 0.5646
vn 0.0699 -0.4627 0.8838
vn 0.8415 -0.4900 0.2275
vn 0.6862 -0.1021 -0.7202
vn 0.0766 -0.9594 -0.2715
vn 0.3305 -0.5148 0.7910
vn 0.8522 -0.5216 0.0400
vn 0.7629 -0.1669 -0.6246
vn 0.2333 -0.8641 0.4460
vn 0.3547 -0.9120 -0.2057
vn 0.5557 -0.3808 -0.7390
vn -0.0537 -0.6772 0.7339
vn 0.7823 -0.6102 0.1252
vn 0.7508 -0.0638 -0.6575
vn 0.6349 -0.0604 -0.7702
vn 0.5846 -0.7723 -0.2486
vn 0.4497 -0.8919 0.0483
vn 0.1417 -0.7140 0.6857
vn 0.7950 -0.6008 0.0836
vn 0.8117 -0.1223 -0.5711
vn 0.0618 -0.8680 0.4927
vn 0.3545 -0.8953 -0.2698
vn 0.6454 -0.2801 -0.7106
vn 0.3528 -0.0596 -0.9338
vn -0.3608 -0.6493 -0.6695
vn 0.1285 -0.9913 0.0295
vn 0.3931 -0.8917 0.2244
vn 0.6511 -0.7250 0.2247
vn 0.4738 -0.6566 0.5869
vn -0.0358 -0.9605 0.2761
vn 0.7942 -0.4080 0.4503
vn 0.9225 -0.2991 0.2439
vn 0.8352 -0.4217 0.3529
vn 0.4661 -0.4412 0.7668
vn -0.6804 -0.7299 0.0650
vn -0.0112 -0.8369 0.5472
vn 0.6733 -0.4314 0.6005
vn 0.0274 -0.9292 0.3685
vn 0.8616 -0.4641 0.2055
vn 0.1830 -0.8706 -0.4568
vn -0.6598 -0.6544 -0.3693
vn 0.8482 -0.4799 -0.2241
vn 0.2294 -0.9547 0.1897
vn 0.5016 -0.2121 0.8387
vn -0.0519 -0.0335 0.9981
vn -0.2588 -0.0327 0.9654
vn -0.1719 -0.8257 0.5372
vn -0.2289 -0.6948 0.6818
vn 0.0487 -0.1816 0.9822
vn 0.0372 -0.2658 0.9633
vn -0.5169 0.0555 0.8543
vn -0.1255 -0.1936 0.9730
vn -0.0096 -0.3964 0.9180
vn 0.1201 -0.4526 0.8836
vn -0.5451 0.1727 0.8204
vn -0.6513 0.0647 0.7560
vn -0.5938 -0.1035 0.7979
vn 0.1469 -0.4921 0.8581
vn 0.7793 -0.6099 0.1437
vn 0.4337 -0.5605 -0.7055
vn 0.3847 -0.9206 -0.0665
vn 0.1255 -0.8718 0.4735
vn -0.6443 -0.3477 0.6812
vn -0.2060 -0.4190 -0.8843
vn -0.6148 -0.6784 -0.4023
vn -0.9142 0.3141 -0.2559
vn -0.0060 0.2002 -0.9797
vn 0.6852 -0.1376 -0.7153
vn -0.6522 -0.6770 0.3411
vn -0.5122 -0.1624 0.8434
vn -0.6807 0.0046 0.7326
vn -0.8882 0.4239 -0.1771
vn -0.2245 0.3335 -0.9156
vn -0.0109 -0.9884 -0.1513
vn 0.0709 -0.7155 0.6950
vn 0.0709 -0.7156 0.6949
vn -0.6262 -0.4517 0.6355
vn -0.8218 0.1316 0.5544
vn -0.8779 0.4649 -0.1144
vn -0.8120 0.2216 -0.5399
vn -0.9610 0.0387 0.2738
vn -0.7551 -0.0072 0.6556
vn 0.0687 -0.4632 0.8836
vn -0.9070 0.3862 0.1682
vn -0.8824 0.4629 0.0839
vn -0.8803 0.4674 0.0809
vn -0.8351 0.5320 -0.1399
vn -0.8615 0.4363 -0.2597
vn -0.8794 0.4233 -0.2177
vn -0.7947 0.3166 -0.5178
vn -0.8837 0.4412 0.1566
vn -0.7090 0.5476 0.4444
vn -0.9890 0.0170 0.1470
vn -0.8980 0.2779 -0.3411
vn -0.6773 0.5571 -0.4804
vn 0.2443 -0.4481 -0.8600
vn -0.1095 0.3109 -0.9441
vn -0.8511 0.4754 -0.2227
vn -0.6512 0.0641 0.7562
vn -0.5495 0.1670 0.8186
vn -0.5133 0.0664 0.8557
vn 0.6483 0.0185 -0.7611
vn -0.0203 0.2375 -0.9712
vn -0.9252 0.3378 -0.1729
vn -0.6442 -0.3477 0.6813
vn -0.5141 -0.8294 -0.2186
vn 0.1254 -0.8718 0.4735
vn 0.7223 -0.2245 -0.6541
vn -0.3900 -0.0089 -0.9208
vn -0.3681 -0.3413 -0.8649
vn 0.5557 -0.3808 -0.7391
vn 0.3547 -0.9121 -0.2057
vn -0.5308 -0.7709 -0.3520
vn -0.9254 0.3105 -0.2174
vn -0.0445 0.2802 -0.9589
vn 0.6815 -0.1012 -0.7248
vn -0.7867 -0.4604 0.4113
vn -0.5467 -0.2053 0.8118
vn -0.1752 0.3060 -0.9358
vn 0.0567 -0.9604 -0.2729
vn 0.2334 -0.8641 0.4460
vn 0.3306 -0.5148 0.7910
vn -0.1972 -0.2065 -0.9584
vn 0.6455 -0.2801 -0.7106
vn -0.6243 -0.6024 -0.4973
vn -0.9041 0.3548 -0.2383
vn 0.0950 0.4137 -0.9054
vn 0.8117 -0.1222 -0.5711
vn 0.7550 -0.0606 -0.6529
vn -0.6433 -0.7453 0.1751
vn -0.7096 -0.3102 0.6326
vn -0.8430 -0.1432 0.5185
vn -0.8760 0.4660 -0.1247
vn -0.1278 0.5738 -0.8090
vn 0.6383 -0.0759 -0.7661
vn 0.1417 -0.7140 0.6856
vn -0.0506 -0.6770 0.7343
vn -0.8670 0.3648 -0.3394
vn -0.6821 0.6545 -0.3262
vn -0.0305 0.5612 -0.8271
vn 0.3624 -0.0445 -0.9309
vn 0.2475 0.2189 -0.9438
vn -0.5903 0.6927 -0.4145
vn -0.6728 -0.2957 -0.6782
vn 0.6841 0.0852 -0.7244
vn 0.1867 -0.3692 -0.9104
vn 0.2401 0.5884 -0.7721
vn 0.0643 -0.4468 -0.8923
vn 0.8031 0.5036 -0.3183
vn 0.1990 0.8175 -0.5405
vn -0.2710 0.6130 -0.7422
vn 0.3184 0.4020 -0.8585
vn 0.8458 -0.4759 -0.2410
vn 0.9258 -0.2934 0.2383
vn 0.9025 0.4295 -0.0308
vn 0.3206 0.7681 -0.5543
vn -0.4681 0.4140 -0.7807
vn -0.1565 0.2773 -0.9479
vn 0.2619 0.2344 -0.9362
vn 0.3625 -0.0131 -0.9319
vn -0.3506 -0.6583 -0.6661
vn 0.7944 -0.4079 0.4500
vn 0.8904 0.4416 -0.1105
vn 0.1756 0.7395 -0.6499
vn -0.7784 0.1078 -0.6184
vn 0.9423 0.2909 0.1654
vn 0.9213 0.3510 -0.1672
vn 0.5415 -0.0644 -0.8382
vn -0.4283 0.0131 -0.9035
vn -0.6598 -0.6545 -0.3692
vn -0.6804 -0.7303 0.0616
vn 0.8616 -0.4641 0.2054
vn 0.1829 -0.8706 -0.4568
vt 0.154679 0.563595
vt 0.154558 0.558745
vt 0.174792 0.569091
vt 0.183296 0.566670
vt 0.189568 0.573435
vt 0.159207 0.543926
vt 0.187219 0.556968
vt 0.199308 0.570090
vt 0.201232 0.573444
vt 0.207243 0.564889
vt 0.167108 0.525244
vt 0.195539 0.539966
vt 0.202836 0.563515
vt 0.173590 0.514344
vt 0.188605 0.498426
vt 0.195434 0.504883
vt 0.182927 0.502705
vt 0.205204 0.516311
vt 0.201863 0.524687
vt 0.207084 0.509716
vt 0.219896 0.519757
vt 0.216912 0.521931
vt 0.215369 0.529362
vt 0.211268 0.545719
vt 0.214981 0.545735
vt 0.218958 0.530338
vt 0.541170 0.922991
vt 0.544530 0.929670
vt 0.545664 0.928713
vt 0.543398 0.922139
vt 0.539490 0.909896
vt 0.536928 0.910594
vt 0.533992 0.897562
vt 0.529712 0.901679
vt 0.528089 0.890438
vt 0.523289 0.900300
vt 0.547641 0.928305
vt 0.546490 0.921081
vt 0.542975 0.908700
vt 0.543460 0.898254
vt 0.544447 0.887178
vt 0.531808 0.883743
vt 0.519350 0.889277
vt 0.513855 0.900876
vt 0.516682 0.902161
vt 0.512230 0.911003
vt 0.552809 0.892854
vt 0.563160 0.882228
vt 0.549343 0.871909
vt 0.534783 0.870425
vt 0.521195 0.878884
vt 0.558250 0.908737
vt 0.563524 0.905766
vt 0.565452 0.903350
vt 0.560788 0.890436
vt 0.570106 0.918776
vt 0.573329 0.916917
vt 0.575165 0.914828
vt 0.577417 0.925090
vt 0.579262 0.923281
vt 0.580463 0.922598
vt 0.570084 0.891437
vt 0.573598 0.888779
vt 0.575430 0.885158
vt 0.567575 0.876738
vt 0.558401 0.869385
vt 0.547547 0.862609
vt 0.580215 0.897923
vt 0.582872 0.895394
vt 0.584784 0.892433
vt 0.587222 0.900389
vt 0.588223 0.898532
vt 0.589514 0.897575
vt 0.563154 0.868199
vt 0.560126 0.858738
vt 0.556413 0.859499
vt 0.545483 0.855103
vt 0.533315 0.856261
vt 0.523862 0.866370
vt 0.557788 0.853001
vt 0.557156 0.847698
vt 0.545563 0.846780
vt 0.531824 0.846302
vt 0.524445 0.855073
vt 0.567320 0.853445
vt 0.565972 0.850350
vt 0.564901 0.846241
vt 0.571087 0.846916
vt 0.572082 0.843466
vt 0.574740 0.845708
vt 0.574545 0.850139
vt 0.536883 0.835681
vt 0.529371 0.838159
vt 0.523721 0.848271
vt 0.516739 0.853074
vt 0.515744 0.864128
vt 0.520872 0.839889
vt 0.514758 0.839604
vt 0.514305 0.852894
vt 0.512357 0.863936
vt 0.509713 0.872697
vt 0.514836 0.875837
vt 0.513818 0.887374
vt 0.511216 0.899692
vt 0.507192 0.885323
vt 0.506167 0.897853
vt 0.504672 0.907956
vt 0.508097 0.909125
vt 0.509956 0.910141
vt 0.508272 0.916721
vt 0.507201 0.915802
vt 0.505993 0.915224
vt 0.503812 0.915275
vt 0.737673 0.971318
vt 0.740060 0.974642
vt 0.743338 0.973726
vt 0.739762 0.969287
vt 0.733490 0.961273
vt 0.729756 0.963937
vt 0.734716 0.973221
vt 0.725969 0.967633
vt 0.713576 0.954986
vt 0.741849 0.967859
vt 0.736753 0.958411
vt 0.725405 0.942779
vt 0.720990 0.945758
vt 0.717188 0.949582
vt 0.701655 0.942294
vt 0.744300 0.971161
vt 0.744439 0.965614
vt 0.741094 0.955604
vt 0.731547 0.940477
vt 0.719370 0.924482
vt 0.715498 0.925939
vt 0.708657 0.929045
vt 0.702618 0.936005
vt 0.692173 0.938068
vt 0.688510 0.960687
vt 0.692533 0.961997
vt 0.709426 0.910596
vt 0.701498 0.918115
vt 0.692774 0.921311
vt 0.683665 0.925507
vt 0.684266 0.937013
vt 0.682662 0.959154
vt 0.718578 0.916425
vt 0.720106 0.909348
vt 0.712719 0.903948
vt 0.699030 0.906467
vt 0.682347 0.916503
vt 0.675064 0.926768
vt 0.724038 0.920651
vt 0.732417 0.921552
vt 0.734326 0.916691
vt 0.737239 0.912815
vt 0.723075 0.903879
vt 0.709720 0.893119
vt 0.731333 0.928126
vt 0.745202 0.926827
vt 0.746505 0.923438
vt 0.748247 0.920809
vt 0.756360 0.926337
vt 0.755575 0.927806
vt 0.760085 0.927240
vt 0.760152 0.930070
vt 0.744099 0.931873
vt 0.753721 0.932911
vt 0.755055 0.930161
vt 0.758103 0.932211
vt 0.678233 0.994081
vt 0.677560 0.997703
vt 0.679251 0.998946
vt 0.680540 0.993842
vt 0.681503 0.981202
vt 0.677096 0.981355
vt 0.674980 0.993739
vt 0.670749 0.981896
vt 0.669384 0.961827
vt 0.683449 0.998295
vt 0.683771 0.994550
vt 0.686253 0.982020
vt 0.677075 0.959734
vt 0.669158 0.943335
vt 0.686961 0.994430
vt 0.692430 0.982813
vt 0.633821 0.963858
vt 0.631525 0.966751
vt 0.632443 0.969046
vt 0.636075 0.964791
vt 0.642865 0.956560
vt 0.638530 0.953900
vt 0.631357 0.961585
vt 0.633736 0.952533
vt 0.640874 0.938419
vt 0.637455 0.966554
vt 0.645609 0.959147
vt 0.656936 0.947148
vt 0.653101 0.943618
vt 0.647282 0.940121
vt 0.647162 0.924295
vt 0.635531 0.969674
vt 0.640206 0.968142
vt 0.648812 0.963528
vt 0.661066 0.953254
vt 0.669099 0.938542
vt 0.661284 0.930916
vt 0.654487 0.926787
vt 0.648618 0.912061
vt 0.654978 0.909955
vt 0.665964 0.919827
vt 0.665496 0.914048
vt 0.789190 0.973395
vt 0.798978 0.977687
vt 0.787741 0.978577
vt 0.797174 0.982079
vt 0.785730 0.988417
vt 0.776638 0.981428
vt 0.774758 0.973149
vt 0.780191 0.967495
vt 0.797214 0.993050
vt 0.780518 0.998637
vt 0.775615 0.989377
vt 0.767630 0.983117
vt 0.765033 0.976310
vt 0.768235 0.967466
vt 0.766918 0.956868
vt 0.761038 0.958759
vt 0.759091 0.969966
vt 0.766278 0.996608
vt 0.767142 0.989794
vt 0.754357 0.986406
vt 0.752709 0.981572
vt 0.755682 0.991644
vt 0.745312 0.992385
vt 0.743645 0.990472
vt 0.743155 0.987307
vt 0.740233 0.985643
vt 0.749994 0.976187
vt 0.756595 0.997269
vt 0.742805 0.995805
vt 0.739337 0.991569
s 1
g off
g Mano_izq_Material.001
usemtl Material.001
f 74/1/1 77/2/2 66/3/3
f 77/2/2 4/4/4 66/3/3
f 4/4/4 63/5/5 66/3/3
f 77/2/2 11/6/6 4/4/4
f 4/4/4 11/6/6 2/7/7
f 4/4/4 2/7/7 50/8/8
f 63/5/5 4/4/4 50/8/8
f 54/9/9 63/5/5 50/8/8
f 54/9/9 50/8/8 49/10/10
f 11/6/6 76/11/11 75/12/12
f 2/7/7 11/6/6 75/12/12
f 2/7/7 75/12/12 65/13/13
f 2/7/7 65/13/13 50/8/8
f 50/8/8 65/13/13 49/10/10
f 76/11/11 56/14/14 75/12/12
f 68/15/15 67/16/16 51/17/17
f 67/16/16 53/18/18 51/17/17
f 53/18/18 52/19/19 51/17/17
f 52/19/19 56/14/14 51/17/17
f 56/14/14 52/19/19 75/12/12
f 67/16/16 69/20/20 53/18/18
f 69/20/20 12/21/21 53/18/18
f 12/21/21 59/22/22 53/18/18
f 59/22/22 61/23/23 53/18/18
f 61/23/23 52/19/19 53/18/18
f 52/19/19 61/23/23 75/12/12
f 61/23/23 64/24/24 75/12/12
f 75/12/12 64/24/24 65/13/13
f 65/13/13 64/24/24 49/10/10
f 64/24/24 60/25/25 49/10/10
f 59/22/22 12/21/21 62/26/26
f 61/23/23 59/22/22 62/26/26
f 62/26/26 60/25/25 61/23/23
f 60/25/25 64/24/24 61/23/23
s 2
f 134/27/27 13/28/28 23/29/29
f 135/30/30 134/27/27 23/29/29
f 134/27/27 135/30/30 101/31/31
f 104/32/32 134/27/27 101/31/31
f 104/32/32 101/31/31 203/33/33
f 200/34/34 104/32/32 203/33/33
f 203/33/33 197/35/35 200/34/34
f 200/34/34 197/35/35 227/36/36
f 135/30/30 23/29/29 1/37/37
f 136/38/38 135/30/30 1/37/37
f 135/30/30 136/38/38 101/31/31
f 136/38/38 138/39/39 101/31/31
f 101/31/31 138/39/39 203/33/33
f 138/39/39 220/40/40 203/33/33
f 203/33/33 220/40/40 221/41/41
f 218/42/42 203/33/33 221/41/41
f 197/35/35 203/33/33 218/42/42
f 213/43/43 197/35/35 218/42/42
f 197/35/35 213/43/43 227/36/36
f 227/36/36 213/43/43 133/44/44
f 100/45/45 227/36/36 133/44/44
f 173/46/46 100/45/45 133/44/44
f 221/41/41 220/40/40 210/47/47
f 221/41/41 210/47/47 215/48/48
f 215/48/48 199/49/49 221/41/41
f 201/50/50 221/41/41 199/49/49
f 221/41/41 201/50/50 218/42/42
f 212/51/51 218/42/42 201/50/50
f 212/51/51 213/43/43 218/42/42
f 220/40/40 129/52/52 210/47/47
f 129/52/52 130/53/53 210/47/47
f 130/53/53 137/54/54 210/47/47
f 137/54/54 214/55/55 210/47/47
f 210/47/47 214/55/55 215/48/48
f 129/52/52 131/56/56 130/53/53
f 131/56/56 126/57/57 130/53/53
f 126/57/57 127/58/58 130/53/53
f 127/58/58 137/54/54 130/53/53
f 131/56/56 9/59/59 126/57/57
f 9/59/59 20/60/60 126/57/57
f 126/57/57 20/60/60 7/61/61
f 127/58/58 126/57/57 7/61/61
f 214/55/55 30/62/62 215/48/48
f 30/62/62 28/63/63 215/48/48
f 28/63/63 37/64/64 215/48/48
f 37/64/64 88/65/65 215/48/48
f 88/65/65 153/66/66 215/48/48
f 199/49/49 215/48/48 153/66/66
f 199/49/49 153/66/66 152/67/67
f 152/67/67 201/50/50 199/49/49
f 30/62/62 36/68/68 28/63/63
f 36/68/68 35/69/69 28/63/63
f 35/69/69 80/70/70 28/63/63
f 80/70/70 37/64/64 28/63/63
f 35/69/69 36/68/68 26/71/71
f 18/72/72 35/69/69 26/71/71
f 18/72/72 19/73/73 35/69/69
f 19/73/73 80/70/70 35/69/69
f 153/66/66 88/65/65 86/74/74
f 86/74/74 119/75/75 153/66/66
f 119/75/75 175/76/76 153/66/66
f 153/66/66 175/76/76 152/67/67
f 82/77/77 152/67/67 175/76/76
f 82/77/77 201/50/50 152/67/67
f 177/78/78 201/50/50 82/77/77
f 98/79/79 201/50/50 177/78/78
f 98/79/79 212/51/51 201/50/50
f 175/76/76 119/75/75 95/80/80
f 82/77/77 175/76/76 95/80/80
f 95/80/80 204/81/81 82/77/77
f 204/81/81 84/82/82 82/77/77
f 82/77/77 84/82/82 177/78/78
f 84/82/82 96/83/83 177/78/78
f 177/78/78 96/83/83 85/84/84
f 85/84/84 98/79/79 177/78/78
f 95/80/80 119/75/75 115/85/85
f 92/86/86 95/80/80 115/85/85
f 95/80/80 92/86/86 204/81/81
f 92/86/86 89/87/87 204/81/81
f 121/88/88 89/87/87 92/86/86
f 93/89/89 89/87/87 121/88/88
f 172/90/90 93/89/89 121/88/88
f 172/90/90 121/88/88 94/91/91
f 115/85/85 94/91/91 121/88/88
f 115/85/85 121/88/88 92/86/86
f 96/83/83 84/82/82 97/92/92
f 87/93/93 96/83/83 97/92/92
f 178/94/94 96/83/83 87/93/93
f 96/83/83 178/94/94 85/84/84
f 85/84/84 178/94/94 31/95/95
f 31/95/95 128/96/96 85/84/84
f 128/96/96 98/79/79 85/84/84
f 57/97/97 178/94/94 87/93/93
f 57/97/97 31/95/95 178/94/94
f 31/95/95 57/97/97 55/98/98
f 33/99/99 31/95/95 55/98/98
f 31/95/95 33/99/99 128/96/96
f 33/99/99 144/100/100 128/96/96
f 144/100/100 139/101/101 128/96/96
f 139/101/101 226/102/102 128/96/96
f 128/96/96 226/102/102 98/79/79
f 226/102/102 212/51/51 98/79/79
f 226/102/102 211/103/103 212/51/51
f 211/103/103 213/43/43 212/51/51
f 211/103/103 239/104/104 213/43/43
f 239/104/104 133/44/44 213/43/43
f 226/102/102 139/101/101 208/105/105
f 211/103/103 226/102/102 208/105/105
f 208/105/105 209/106/106 211/103/103
f 209/106/106 239/104/104 211/103/103
f 209/106/106 205/107/107 239/104/104
f 205/107/107 186/108/108 239/104/104
f 239/104/104 186/108/108 133/44/44
f 186/108/108 99/109/109 133/44/44
f 99/109/109 173/46/46 133/44/44
f 173/46/46 99/109/109 170/110/110
f 99/109/109 103/111/111 170/110/110
f 103/111/111 99/109/109 102/112/112
f 186/108/108 205/107/107 165/113/113
f 102/112/112 186/108/108 165/113/113
f 99/109/109 186/108/108 102/112/112
s 3
f 6/114/114 5/115/37 48/116/29
f 15/117/115 6/114/114 48/116/29
f 6/114/114 15/117/115 159/118/116
f 236/119/117 6/114/114 159/118/116
f 10/120/37 6/114/114 236/119/117
f 206/121/38 10/120/37 236/119/117
f 206/121/38 236/119/117 237/122/118
f 47/123/119 15/117/115 48/116/29
f 159/118/116 15/117/115 47/123/119
f 233/124/120 159/118/116 47/123/119
f 233/124/120 207/125/121 159/118/116
f 207/125/121 158/126/122 159/118/116
f 158/126/122 181/127/123 159/118/116
f 181/127/123 236/119/117 159/118/116
f 236/119/117 181/127/123 237/122/118
f 234/128/124 237/122/118 181/127/123
f 22/129/125 47/123/119 48/116/29
f 233/124/120 47/123/119 8/130/126
f 235/131/27 233/124/120 8/130/126
f 233/124/120 235/131/27 187/132/32
f 207/125/121 233/124/120 187/132/32
f 207/125/121 187/132/32 241/133/127
f 195/134/128 207/125/121 241/133/127
f 158/126/122 207/125/121 195/134/128
f 240/135/129 158/126/122 195/134/128
f 240/135/129 196/136/130 158/126/122
f 196/136/130 181/127/123 158/126/122
f 196/136/130 234/128/124 181/127/123
f 234/128/124 196/136/130 222/137/131
f 234/128/124 222/137/131 167/138/132
f 228/139/133 234/128/124 167/138/132
f 195/134/128 241/133/127 192/140/134
f 194/141/135 195/134/128 192/140/134
f 240/135/129 195/134/128 194/141/135
f 240/135/129 194/141/135 196/136/130
f 196/136/130 194/141/135 191/142/136
f 191/142/136 222/137/131 196/136/130
f 191/142/136 217/143/137 222/137/131
f 217/143/137 225/144/138 222/137/131
f 222/137/131 225/144/138 157/145/139
f 167/138/132 222/137/131 157/145/139
f 241/133/127 193/146/140 192/140/134
f 192/140/134 193/146/140 190/147/141
f 189/148/142 192/140/134 190/147/141
f 192/140/134 189/148/142 106/149/143
f 194/141/135 192/140/134 106/149/143
f 191/142/136 194/141/135 106/149/143
f 191/142/136 106/149/143 117/150/144
f 191/142/136 117/150/144 217/143/137
f 219/151/145 217/143/137 117/150/144
f 217/143/137 219/151/145 225/144/138
f 216/152/146 193/146/140 241/133/127
f 193/146/140 216/152/146 184/153/147
f 193/146/140 184/153/147 163/154/148
f 190/147/141 193/146/140 163/154/148
f 163/154/148 162/155/149 190/147/141
f 162/155/149 224/156/150 190/147/141
f 189/148/142 190/147/141 224/156/150
f 223/157/151 189/148/142 224/156/150
f 189/148/142 223/157/151 106/149/143
f 216/152/146 183/158/152 184/153/147
f 182/159/153 184/153/147 183/158/152
f 184/153/147 182/159/153 168/160/154
f 163/154/148 184/153/147 168/160/154
f 162/155/149 163/154/148 168/160/154
f 160/161/107 162/155/149 168/160/154
f 160/161/107 168/160/154 164/162/155
f 168/160/154 161/163/156 164/162/155
f 164/162/155 161/163/156 166/164/157
f 105/165/111 166/164/157 161/163/156
f 185/166/158 182/159/153 183/158/152
f 185/166/158 124/167/110 182/159/153
f 124/167/110 125/168/159 182/159/153
f 182/159/153 125/168/159 168/160/154
f 125/168/159 161/163/156 168/160/154
f 125/168/159 132/169/110 161/163/156
f 132/169/110 105/165/111 161/163/156
f 46/170/160 16/171/161 14/172/162
f 24/173/163 46/170/160 14/172/162
f 46/170/160 24/173/163 156/174/164
f 230/175/165 46/170/160 156/174/164
f 21/176/161 46/170/160 230/175/165
f 155/177/58 21/176/161 230/175/165
f 155/177/58 230/175/165 231/178/166
f 14/172/162 17/179/59 24/173/163
f 17/179/59 25/180/167 24/173/163
f 156/174/164 24/173/163 25/180/167
f 232/181/168 156/174/164 25/180/167
f 232/181/168 167/138/132 156/174/164
f 167/138/132 157/145/139 156/174/164
f 157/145/139 169/182/169 156/174/164
f 169/182/169 230/175/165 156/174/164
f 230/175/165 169/182/169 231/178/166
f 154/183/170 231/178/166 169/182/169
f 232/181/168 25/180/167 78/184/171
f 229/185/172 232/181/168 78/184/171
f 232/181/168 229/185/172 228/139/133
f 167/138/132 232/181/168 228/139/133
f 42/186/173 45/187/174 43/188/72
f 79/189/175 42/186/173 43/188/72
f 79/189/175 70/190/176 42/186/173
f 70/190/176 71/191/177 42/186/173
f 42/186/173 71/191/177 41/192/73
f 71/191/177 38/193/178 41/192/73
f 38/193/178 71/191/177 34/194/179
f 40/195/180 79/189/175 43/188/72
f 79/189/175 40/195/180 70/190/176
f 40/195/180 29/196/181 70/190/176
f 29/196/181 27/197/182 70/190/176
f 27/197/182 39/198/183 70/190/176
f 39/198/183 73/199/184 70/190/176
f 73/199/184 71/191/177 70/190/176
f 71/191/177 73/199/184 34/194/179
f 179/200/185 34/194/179 73/199/184
f 44/201/71 40/195/180 43/188/72
f 40/195/180 32/202/71 29/196/181
f 32/202/71 72/203/186 29/196/181
f 29/196/181 72/203/186 81/204/187
f 27/197/182 29/196/181 81/204/187
f 27/197/182 81/204/187 154/183/170
f 188/205/188 27/197/182 154/183/170
f 27/197/182 188/205/188 39/198/183
f 188/205/188 198/206/189 39/198/183
f 39/198/183 198/206/189 73/199/184
f 198/206/189 142/207/190 73/199/184
f 142/207/190 179/200/185 73/199/184
f 179/200/185 142/207/190 108/208/191
f 142/207/190 141/209/192 108/208/191
f 142/207/190 202/210/193 141/209/192
f 202/210/193 145/211/194 141/209/192
f 188/205/188 154/183/170 169/182/169
f 169/182/169 157/145/139 188/205/188
f 157/145/139 225/144/138 188/205/188
f 219/151/145 188/205/188 225/144/138
f 202/210/193 188/205/188 219/151/145
f 198/206/189 188/205/188 202/210/193
f 198/206/189 202/210/193 142/207/190
f 219/151/145 117/150/144 202/210/193
f 202/210/193 117/150/144 145/211/194
s 4
f 58/212/195 3/213/196 174/214/197
f 3/213/196 123/215/198 174/214/197
f 174/214/197 123/215/198 113/216/199
f 111/217/200 174/214/197 113/216/199
f 111/217/200 146/218/201 174/214/197
f 146/218/201 148/219/202 174/214/197
f 174/214/197 148/219/202 58/212/195
f 123/215/198 83/220/203 113/216/199
f 83/220/203 176/221/204 113/216/199
f 176/221/204 110/222/205 113/216/199
f 110/222/205 111/217/200 113/216/199
f 122/223/206 111/217/200 110/222/205
f 122/223/206 149/224/207 111/217/200
f 149/224/207 146/218/201 111/217/200
f 146/218/201 149/224/207 147/225/208
f 147/225/208 148/219/202 146/218/201
f 148/219/202 147/225/208 109/226/209
f 107/227/210 109/226/209 147/225/208
f 143/228/211 107/227/210 147/225/208
f 176/221/204 238/229/212 110/222/205
f 238/229/212 114/230/213 110/222/205
f 114/230/213 122/223/206 110/222/205
f 122/223/206 114/230/213 116/231/214
f 149/224/207 122/223/206 116/231/214
f 118/232/215 149/224/207 116/231/214
f 143/228/211 149/224/207 118/232/215
f 147/225/208 149/224/207 143/228/211
f 114/230/213 238/229/212 180/233/216
f 114/230/213 180/233/216 116/231/214
f 180/233/216 120/234/217 116/231/214
f 120/234/217 112/235/218 116/231/214
f 116/231/214 112/235/218 150/236/219
f 118/232/215 116/231/214 150/236/219
f 150/236/219 151/237/220 118/232/215
f 151/237/220 140/238/221 118/232/215
f 140/238/221 143/228/211 118/232/215
f 238/229/212 90/239/87 180/233/216
f 180/233/216 90/239/87 91/240/222
f 120/234/217 180/233/216 91/240/222
f 120/234/217 91/240/222 112/235/218
f 91/240/222 171/241/223 112/235/218
f 150/236/219 112/235/218 171/241/223
f 151/237/220 150/236/219 171/241/223
