# Blender 3.6.0
# www.blender.org
mtllib Rakan_PI.mtl
g Rakan_PI_Mesh
v -11.878998 13.813163 -24.236710
v -14.308420 13.332526 -20.995956
v -14.892641 14.220122 -22.862484
v -14.080622 7.081024 -16.776484
v -17.456240 11.020401 -13.663982
v -2.493705 12.212401 -22.794449
v -11.958297 2.000626 -16.314156
v -7.989460 6.801041 -20.100466
v -15.912333 17.700796 -13.636680
v -15.912333 17.700796 -13.636680
v -13.397857 20.412779 -14.501831
v -9.075880 21.079252 -16.503960
v -4.868955 18.891066 -20.493153
v -17.456240 11.020401 -13.663982
v -14.080622 7.081024 -16.776484
v -19.978230 10.164460 -6.016035
v -15.937114 4.071778 -9.420802
v -17.853130 16.431160 -5.057835
v 9.205229 -7.475433 -9.921161
v -2.493705 12.212401 -22.794449
v -7.989460 6.801041 -20.100466
v -2.493705 12.212401 -22.794449
v -6.381565 6.283371 -22.088120
v 3.408594 4.998428 -16.421675
v -3.431173 5.755449 5.792457
v 1.843294 7.733324 3.343650
v -6.136497 14.512404 -24.446777
v -6.381565 6.283371 -22.088120
v -8.534359 20.301207 -24.322021
v 13.001021 -2.704215 -8.690769
v 3.381052 10.563690 -15.078506
v 3.408594 4.998428 -16.421675
v 9.205229 -7.475433 -9.921161
v 15.631768 -2.897956 -5.968935
v 8.327523 3.632165 -0.989788
v -6.136497 14.512404 -24.446777
v -11.253273 15.993743 -26.066002
v -2.493705 12.212401 -22.794449
v -4.868955 18.891066 -20.493153
v -11.253273 15.993743 -26.066002
v -27.377554 -5.679394 -66.331627
v -36.900940 -4.460460 -62.916424
v -12.536341 19.247297 -26.681404
v -12.789859 23.086922 -9.651299
v -12.902922 22.282316 -21.760033
v -8.860713 22.815458 -16.126450
v -9.075880 21.079252 -16.503960
v -13.397857 20.412779 -14.501831
v -12.922641 4.773163 -13.351960
v -13.773493 2.998245 -17.041834
v -8.281479 10.067000 -23.021233
v 6.886433 6.900575 -3.441572
v -21.638546 12.201965 -9.053453
v -11.956066 16.564405 -26.693424
v -17.752169 5.325173 -12.890074
v -13.596826 17.741606 -28.517067
v -11.507641 14.039824 -25.201294
v -16.516645 7.246140 -17.870029
v -33.024296 0.376942 -67.039543
v -31.307264 -3.461193 -68.041603
v -34.055252 -4.177295 -64.943024
v -31.307264 -3.461193 -68.041603
v -34.560566 -2.725872 -66.240768
v -34.560566 -2.725872 -66.240768
v -33.631695 -5.477757 -67.640541
v -21.008600 12.628647 -14.301908
v -35.746124 -1.667263 -64.145233
v -36.460068 -4.365558 -63.303585
v -36.460068 -4.365558 -63.303585
v -2.426737 0.905771 7.638505
v -3.461363 -1.391477 10.913605
v -5.635029 -3.183981 9.653515
v 9.716441 -7.825629 9.394609
v -4.018174 0.155787 8.434380
v -7.969509 2.551874 6.886152
v -9.092511 -2.307783 6.512054
v -25.469297 -7.055499 -55.106590
v -25.494589 -5.548610 -62.984657
v -26.861555 -5.041469 -63.482677
v -24.055006 -6.004512 -60.942986
v -25.469297 -7.055499 -55.106590
v -25.469297 -7.055499 -55.106590
v -26.861555 -5.041469 -63.482677
v -23.572607 -6.463634 -57.440414
v -34.242867 -6.931468 -57.255901
v -34.984283 -5.193843 -61.428524
v -33.617889 -4.200496 -65.160751
v -19.862961 -14.836618 -39.301140
v -34.984283 -5.193843 -61.428524
v -18.247932 -14.972757 -35.687729
v -23.517616 -3.851213 -46.317764
v -30.972517 -3.712085 -65.757843
v -29.678740 -2.719875 -64.645065
v -23.572607 -6.463634 -57.440414
v -29.110046 -7.565211 -53.221828
v -29.678740 -2.719875 -64.645065
v -14.502213 -11.906374 -36.071182
v -17.841675 -12.148355 -34.475937
v -29.110046 -7.565211 -53.221828
v -32.561195 -7.274058 -53.629467
v -29.678740 -2.719875 -64.645065
v -22.253410 -10.242159 -36.455940
v -22.632690 -11.618319 -39.118156
v -13.180447 -9.768641 -40.106277
v -26.308294 -6.429881 -59.451736
v -31.473707 -5.413639 -62.229359
v -32.784187 -3.922763 -63.773777
v -34.991234 -5.922557 -60.738194
v -1.166376 -5.880186 6.273727
v 1.005075 -3.501012 14.114561
v 7.254564 -5.753263 12.786685
v 9.271545 -10.542776 7.013256
v -3.911024 -5.899687 2.438604
v 6.868379 -9.216834 -1.491320
v -28.102896 -6.825069 -65.429649
v -27.792364 -5.382366 -63.342297
v -25.494589 -5.548610 -62.984657
v -27.075949 -6.044582 -63.680843
v -28.787603 -5.586254 -63.638340
v -27.075949 -6.044582 -63.680843
v -18.731705 -7.460466 -42.800797
v -36.714706 -2.751445 -62.832935
v -35.728455 -2.716930 -60.589878
v -25.658567 -2.617237 -64.783134
v -26.513342 -2.632549 -67.759766
v -20.470665 -6.955370 -41.684151
v -22.632690 -11.618319 -39.118156
v -27.377554 -5.679394 -66.331627
v -28.102896 -6.825069 -65.429649
v -26.086386 -4.512065 -64.097908
v -21.980110 -8.565638 -40.311127
v -24.660423 -11.688547 -37.319443
v -17.523056 -14.286554 -40.810623
v -16.974983 -10.212328 -43.216042
v -23.184570 -7.521318 -42.155319
v -34.984283 -5.193843 -61.428524
v -20.470665 -6.955370 -41.684151
v -21.980110 -8.565638 -40.311127
v -21.622688 -5.501207 -43.854858
v -32.656731 -5.967494 -63.065289
v -35.212105 -6.315807 -61.802128
v -29.921354 -4.864734 -63.207134
v -24.055006 -6.004512 -60.942986
v -27.779669 -4.285549 -63.367825
v -26.861555 -5.041469 -63.482677
v -30.280050 -6.889659 -57.872074
v -27.075949 -6.044582 -63.680843
v -25.929596 -9.158694 -45.931633
v -23.773825 -3.288554 -58.414932
v -24.834076 -9.339541 -52.540024
v -21.972351 -6.105616 -52.522316
v -21.529305 -13.750010 -42.713028
v -19.092316 -12.690432 -43.833389
v -23.719084 -2.436458 -60.564156
v -23.560820 -5.290385 -57.832642
v -23.893332 -4.636737 -61.090843
v -25.424599 -1.931063 -51.089779
v -28.723135 0.860539 -58.047039
v -31.260977 -0.924205 -57.273251
v -25.658567 -2.617237 -64.783134
v -26.086386 -4.512065 -64.097908
v -34.746559 -1.165393 -61.241756
v -35.728455 -2.716930 -60.589878
v -17.523056 -14.286554 -40.810623
v -18.731705 -7.460466 -42.800797
v -14.936860 -14.696558 -37.664528
v -19.862961 -14.836618 -39.301140
v -17.523056 -14.286554 -40.810623
v -13.289326 -11.906672 -43.165924
v -35.212105 -6.315807 -61.802128
v -16.974983 -10.212328 -43.216042
v -29.921354 -4.864734 -63.207134
v -33.517246 -6.273860 -65.516159
v -31.345716 -5.691738 -65.259964
v -29.914549 -1.953579 -66.698128
v -36.900940 -4.460460 -62.916424
v -27.824041 -1.067036 -69.109032
v -35.134144 -2.675419 -65.587524
v -31.544630 -6.344662 -68.534309
v -32.100670 -1.528141 -63.147457
v -29.854429 -5.902202 -65.041351
v -34.712872 -0.851353 -65.554031
v -29.892645 -3.210109 -65.177155
v -30.848310 -3.594006 -68.172340
v -32.945415 0.868031 -66.983101
v -30.778257 0.257550 -63.650059
v -32.271996 -5.653011 -63.342594
v -34.424099 -6.102154 -66.786079
v -32.772141 -3.672054 -63.538517
v -35.749634 -6.546291 -63.914494
v -35.212105 -6.315807 -61.802128
v -32.561195 -7.274058 -53.629467
v -32.451111 -6.896472 -53.272976
v -29.616928 -7.121729 -50.660587
v -23.398399 -10.905008 -41.297165
v -27.804909 -2.935740 -49.678982
v -25.487427 -5.152712 -45.418518
v -24.648857 -11.588367 -47.273140
v -32.784187 -3.922763 -63.773777
v -19.092316 -12.690432 -43.833389
v -30.848310 -3.594006 -68.172340
v -32.775055 -0.766788 -55.625950
v -33.390816 -2.409556 -54.964191
v -16.974983 -10.212328 -43.216042
v -25.745146 -7.106799 -54.841415
v -24.467581 -0.140254 -58.955418
v -23.063538 -2.666026 -52.219879
v -29.224709 -8.278361 -53.708645
v -36.076927 -4.444934 -60.742115
v -34.991234 -5.922557 -60.738194
v -26.778204 -0.095424 -59.131191
v -33.617889 -4.200496 -65.160751
v -32.656731 -5.967494 -63.065289
v -35.841293 -1.157177 -64.106415
v -29.892645 -3.210109 -65.177155
v -35.134144 -2.675419 -65.587524
v -32.772141 -3.672054 -63.538517
v -31.445387 -4.813205 -62.977612
v -29.678740 -2.719875 -64.645065
v -34.242867 -6.931468 -57.255901
v -35.226189 -4.973933 -56.718166
v -22.022232 -10.507983 -48.321190
v -22.022232 -10.507983 -48.321190
v -19.766251 -6.261499 -44.718300
v -20.000404 -8.160419 -48.817635
v -18.083336 -9.098178 -45.432098
v -35.749634 -6.546291 -63.914494
v -34.021210 -2.701198 -64.630753
v -34.746559 -1.165393 -61.241756
v -30.972517 -3.712085 -65.757843
v -32.784187 -3.922763 -63.773777
v -21.284790 -4.593401 -47.898567
v -33.127174 -1.931629 -62.623180
v -29.187994 -3.986934 -63.249439
v -28.787603 -5.586254 -63.638340
v -23.783392 -3.525798 -57.006363
v -29.308912 -0.649746 -64.530838
v -23.137810 -8.322496 -38.336945
v -25.745146 -7.106799 -54.841415
v -25.835745 -0.108150 -65.099251
v -24.834076 -9.339541 -52.540024
v -33.127174 -1.931629 -62.623180
v -25.835745 -0.108150 -65.099251
v -14.173378 -6.090403 -46.261063
v -21.601524 -2.591814 -45.624725
v -13.180447 -9.768641 -40.106277
v -36.076927 -4.444934 -60.742115
v -30.630583 -1.183773 -67.437523
v -26.215576 -6.506097 -40.228081
v -13.289326 -11.906672 -43.165924
v -28.270620 -1.201122 -64.187088
v -27.942795 -10.012225 -52.200806
v -32.784187 -3.922763 -63.773777
v -28.270620 -1.201122 -64.187088
v -20.023994 -5.580614 -41.545433
v -13.190213 -5.821062 -36.174095
v -14.583584 -6.241243 -42.557457
v -30.028242 -6.465862 -65.879829
v -27.998198 -5.394154 -66.581161
v -29.863050 -6.324841 -68.652428
v -21.525591 7.541885 -28.060272
v 0.151445 1.571976 -16.523180
v -18.983454 9.043715 -32.074780
v -11.694448 1.726416 -31.060295
v -13.190213 -5.821062 -36.174095
v -10.667169 10.694922 -29.245712
v -10.667169 10.694922 -29.245712
v -10.385343 5.745208 -29.957294
v -12.232393 14.246123 -26.963791
v -15.229422 4.913841 -21.308674
v -9.705254 4.885765 -24.651527
v -21.671923 5.924881 -23.874882
v -14.526430 9.271720 -20.641640
v -17.365587 -6.990571 -31.233139
v -30.446348 -5.174824 -69.244331
v -28.019781 -1.509686 -68.880379
v -19.086176 14.212554 -29.814613
v -27.998198 -5.394154 -66.581161
v -18.608271 15.925490 -22.626762
v -33.796146 -3.763515 -70.018135
v -35.944759 -5.732525 -70.886711
v -29.877752 -5.963924 -66.192993
v -35.048580 -2.158672 -69.754326
v -18.603380 13.793106 -18.498461
v -34.661861 -5.374363 -69.009392
v -36.347515 -6.721706 -66.585991
v -35.264965 -5.036426 -66.295349
v -17.958231 19.551725 -29.181826
v -36.463726 -4.083156 -66.090378
v -34.055252 -4.177295 -64.943024
v -36.347515 -6.721706 -66.585991
v -36.751343 -5.333026 -65.190491
v -36.751343 -5.333026 -65.190491
v -2.839827 -4.376662 -8.196489
v -12.232393 14.246123 -26.963791
v -16.178049 21.517179 -19.823555
v 4.413133 10.638794 -7.321634
v -20.647257 14.052489 -26.403116
v -18.615633 19.341322 -17.776949
v -15.074900 11.843993 -22.947796
v -12.160558 -2.292290 -29.835852
v 5.393558 -10.518517 -6.741362
v -19.912956 4.715194 -33.644535
v -10.546917 6.967470 3.852766
v -12.154459 15.266311 -25.279240
v -1.673453 17.694983 -14.008816
v -11.878983 13.813163 -24.236717
v -13.464040 -6.780465 -33.386177
v -11.471832 1.248519 -26.842751
v -21.598337 3.279571 -30.159946
v -15.969276 5.460435 -2.119226
v -14.002689 12.033151 -0.879037
v -14.286199 13.020598 -29.649918
v -10.385343 5.745208 -29.957294
v -20.992159 1.538284 -26.135895
v -14.288121 7.503623 -31.259583
v -20.442308 -2.216607 -28.787167
v -12.534951 -1.662355 -32.720062
v -6.860843 -4.470488 -1.318762
v -11.694448 1.726416 -31.060295
v -10.358346 -0.944236 -6.506844
v -20.509005 10.973449 -22.722305
v -10.498283 9.640525 -23.781338
v -16.630426 -2.658265 -26.982048
v -16.136271 1.661819 -23.669647
v -12.534951 -1.662355 -32.720062
v -14.812104 0.161513 -34.732475
v -30.383917 -4.094776 -66.242661
v -29.863050 -6.324841 -68.652428
v -31.214491 -5.660015 -68.213234
v -35.659084 -3.880825 -68.824669
v -35.077057 -5.885440 -64.437347
v -31.214491 -5.660015 -68.213234
v -35.659084 -3.880825 -68.824669
v -30.383917 -4.094776 -66.242661
v -33.796146 -3.763515 -70.018135
v -35.944759 -5.732525 -70.886711
v -31.525129 -7.435970 -68.731087
v -30.730955 -6.738049 -67.678337
v -31.525129 -7.435970 -68.731087
v -35.264965 -5.036426 -66.295349
v -35.681419 -6.275035 -65.394043
v -11.956066 16.564405 -26.693424
v -15.510508 9.865165 -20.625011
v -17.806303 14.563293 -20.970066
v -3.151368 16.282921 -4.156118
v -17.877222 20.373365 -23.902090
v -14.757247 22.999586 -14.632490
v -19.558405 18.300947 -26.018583
v -16.118898 21.381239 -25.512159
v -14.807652 -3.659891 -38.630478
v -21.792381 -4.887582 -35.448265
v -20.605606 -6.598664 -32.748291
v -19.896011 -3.034151 -38.851158
v -19.232172 19.980375 -13.713112
v -18.581959 19.166328 -8.636757
v -18.892435 19.504271 -21.769522
v -14.348559 23.081215 -11.236551
v -19.419176 14.770896 -23.010120
v -6.860901 20.130798 -12.174599
v -14.308405 13.332526 -20.995964
v -14.892626 14.220122 -22.862492
v -7.871872 4.761826 -16.890337
v -5.570433 10.418588 3.092099
v -0.171619 11.817231 0.608145
v -9.003178 15.717080 -1.977879
v -12.540894 1.039308 2.449738
v -12.673762 19.570320 -9.607780
v -16.292217 16.456841 -8.470942
v -18.310352 9.573181 -9.117872
v -21.458590 -0.147721 -32.429832
v -19.556686 1.154204 -35.819435
v -14.337819 3.282134 -32.742226
v -18.608278 15.925490 -22.626755
v -15.074907 11.843993 -22.947788
v -12.154467 15.266311 -25.279240
v -11.878994 13.813163 -24.236713
v -14.308413 13.332526 -20.995960
v -14.892633 14.220122 -22.862488
vn 0.3920 0.8180 0.4210
vn 0.3303 0.9074 0.2599
vn 0.2048 0.9008 0.3829
vn 0.6825 0.6691 -0.2940
vn 0.5914 -0.0550 -0.8045
vn 0.4415 -0.0604 -0.8952
vn 0.4931 0.5860 -0.6430
vn 0.0819 0.9596 -0.2690
vn 0.5614 0.7148 0.4171
vn 0.4616 0.7253 0.5108
vn 0.3772 0.4141 0.8284
vn 0.5837 0.2520 0.7719
vn 0.2630 0.2984 0.9175
vn 0.4416 -0.1731 -0.8804
vn 0.4360 0.5524 -0.7104
vn -0.1902 0.9309 -0.3119
vn -0.5020 0.8647 0.0136
vn -0.3608 0.9259 -0.1120
vn -0.3299 0.9344 0.1347
vn 0.8129 -0.1448 -0.5641
vn 0.4749 0.3202 -0.8197
vn -0.3768 0.6297 -0.6793
vn -0.8890 0.4514 -0.0770
vn -0.6363 0.7659 -0.0926
vn -0.8959 0.4282 0.1181
vn -0.9083 0.3907 -0.1496
vn 0.8877 0.2427 -0.3913
vn 0.3524 0.3214 -0.8789
vn -0.5414 0.2810 -0.7924
vn -0.9724 0.2294 -0.0429
vn -0.7446 0.2202 0.6301
vn -0.8570 -0.1035 0.5048
vn 0.7283 0.3535 -0.5870
vn 0.3020 0.2662 -0.9154
vn -0.2647 0.3614 -0.8941
vn -0.9722 0.1425 -0.1860
vn -0.7025 0.1063 0.7037
vn 0.0602 0.2042 0.9771
vn 0.8680 0.0175 -0.4963
vn 0.4110 0.3440 -0.8442
vn -0.5147 0.3707 -0.7731
vn -0.9974 -0.0003 -0.0722
vn -0.8031 -0.3743 0.4636
vn -0.7632 -0.2332 0.6027
vn 0.8876 -0.0080 -0.4606
vn 0.5687 0.4419 -0.6938
vn -0.3905 0.5051 -0.7697
vn -0.9955 0.0428 -0.0841
vn -0.7712 -0.4247 0.4742
vn 0.0266 -0.6584 0.7522
vn 0.0161 -0.5968 0.8023
vn 0.9456 -0.0018 -0.3254
vn 0.9839 0.0699 -0.1643
vn 0.5645 0.6363 -0.5257
vn -0.4181 0.6533 -0.6311
vn -0.9831 0.1791 0.0381
vn -0.7596 -0.3277 0.5619
vn 0.0105 -0.6400 0.7683
vn 0.9991 0.0397 -0.0167
vn 0.7875 0.6053 -0.1163
vn -0.0236 0.9993 0.0273
vn -0.6323 0.5346 0.5607
vn -0.6310 -0.0672 0.7729
vn -0.0099 -0.5524 0.8335
vn 0.7050 -0.4207 -0.5710
vn 0.2726 0.3300 -0.9038
vn -0.4950 0.1050 -0.8625
vn -0.9513 0.2322 -0.2029
vn -0.8838 -0.3937 0.2528
vn -0.1903 -0.7703 0.6086
vn 0.2918 -0.4068 -0.8657
vn 0.0357 0.3897 -0.9203
vn -0.7157 0.1225 -0.6876
vn -0.8784 -0.0413 -0.4761
vn -0.8299 -0.5278 -0.1809
vn -0.2487 -0.9667 0.0607
vn 0.6001 -0.7928 0.1066
vn 0.7671 -0.3795 0.5172
vn 0.8102 -0.4245 0.4042
vn 0.8322 -0.4685 0.2964
vn 0.2810 -0.8757 -0.3926
vn 0.7059 -0.4336 -0.5601
vn 0.9992 0.0212 -0.0331
vn 0.9840 0.0634 -0.1664
vn 0.9455 -0.0019 -0.3255
vn 0.8875 -0.0081 -0.4607
vn 0.8029 -0.4992 0.3259
vn 0.3572 -0.3225 -0.8766
vn 0.8002 -0.3584 0.4809
vn 0.0799 -0.3018 0.9500
vn 0.1664 -0.0512 0.9847
vn 0.9027 0.1399 0.4069
vn 0.9468 0.1984 0.2534
vn -0.9056 -0.3455 -0.2458
vn -0.5513 -0.5165 -0.6552
vn 0.8992 0.2141 -0.3815
vn 0.7667 -0.2650 -0.5847
vn -0.0079 -0.0767 -0.9970
vn -0.1945 -0.4544 -0.8693
vn -0.4440 -0.0611 -0.8939
vn -0.0233 -0.4867 -0.8733
vn -0.5574 -0.4979 -0.6644
vn -0.8621 -0.1919 -0.4689
vn 0.1311 -0.3219 -0.9377
vn 0.3951 0.0126 -0.9186
vn 0.5636 -0.0082 -0.8260
vn -0.0691 -0.6633 -0.7451
vn -0.6663 -0.4527 -0.5926
vn -0.9651 -0.0331 -0.2596
vn -0.7879 0.6158 0.0052
vn -0.7439 0.5843 0.3243
vn -0.4793 -0.7042 -0.5238
vn -0.7622 -0.6400 -0.0972
vn -0.9796 -0.0020 0.2011
vn 0.3936 -0.7857 0.4773
vn 0.6977 -0.1948 0.6894
vn -0.3356 -0.5100 0.7920
vn 0.2967 0.0402 0.9541
vn 0.0837 -0.5588 0.8251
vn 0.1985 -0.8663 0.4584
vn 0.5050 -0.7780 0.3738
vn -0.9632 -0.2291 -0.1407
vn -0.9120 -0.0176 -0.4097
vn -0.5800 -0.6475 -0.4943
vn -0.3841 -0.5837 -0.7154
vn -0.0159 -0.3971 -0.9176
vn 0.6901 -0.7232 -0.0271
vn -0.1797 -0.7694 0.6129
vn -0.8297 -0.4561 0.3219
vn 0.2711 -0.9402 0.2061
vn 0.7108 -0.1960 -0.6755
vn 0.1038 0.1977 -0.9748
vn 0.2703 0.1612 -0.9492
vn 0.2940 0.0497 -0.9545
vn -0.4192 -0.6259 -0.6577
vn -0.2069 0.9574 0.2014
vn 0.2807 -0.9561 -0.0844
vn 0.5479 -0.8076 -0.2182
vn 0.5499 0.6033 -0.5776
vn 0.2934 0.9554 0.0344
vn 0.5522 0.8337 -0.0023
vn 0.6979 0.7089 0.1026
vn 0.9684 0.2009 -0.1480
vn 0.9545 -0.1239 -0.2711
vn 0.6036 0.4299 -0.6715
vn -0.0592 0.9977 0.0329
vn -0.0293 0.9988 0.0396
vn 0.6933 0.7193 0.0441
vn 0.9965 0.0387 -0.0745
vn 0.9794 0.1867 0.0766
vn 0.6175 0.0742 -0.7831
vn 0.0843 0.1913 -0.9779
vn -0.2256 0.6351 -0.7388
vn -0.8847 0.4504 0.1203
vn -0.7660 0.6403 0.0579
vn -0.2258 0.9460 0.2327
vn -0.4639 0.6542 0.5974
vn 0.1750 0.9414 0.2882
vn -0.5386 0.3752 -0.7544
vn -0.9403 0.1589 -0.3010
vn -0.9987 0.0195 0.0476
vn -0.2195 -0.9628 -0.1573
vn 0.9146 0.3489 0.2044
vn 0.2306 0.8993 -0.3715
vn -0.4406 0.6640 -0.6042
vn -0.9049 -0.1952 0.3781
vn -0.5894 -0.4401 -0.6774
vn 0.5998 -0.2828 -0.7485
vn -0.1443 0.9513 0.2724
vn -0.3334 0.8738 0.3541
vn -0.8148 0.4424 0.3747
vn -0.7516 0.3391 0.5658
vn -0.7419 -0.2593 0.6183
vn -0.8559 -0.2016 0.4762
vn -0.5346 0.5501 0.6415
vn 0.1299 0.9056 0.4037
vn -0.9286 -0.1005 0.3571
vn -0.6541 -0.2773 0.7037
vn -0.3243 -0.9012 -0.2876
vn -0.3806 -0.9205 -0.0888
vn -0.8995 -0.2740 0.3404
vn -0.4663 -0.8398 -0.2781
vn -0.5057 -0.8626 0.0139
vn -0.4359 -0.8262 0.3571
vn -0.1259 0.7051 -0.6979
vn -0.2850 -0.2332 -0.9297
vn -0.0780 -0.9675 0.2407
vn 0.2653 -0.8830 -0.3872
vn 0.2799 -0.9198 -0.2750
vn 0.4614 -0.6536 -0.5999
vn 0.4529 -0.7003 -0.5517
vn -0.3936 -0.9020 -0.1776
vn -0.9127 -0.1255 0.3890
vn -0.5791 0.4867 0.6541
vn 0.1244 0.8616 0.4922
vn 0.5174 -0.6155 -0.5945
vn 0.1053 -0.7842 -0.6115
vn -0.3458 -0.9213 -0.1778
vn -0.8606 -0.5091 -0.0150
vn -0.9821 0.1799 -0.0559
vn -0.5950 0.7633 -0.2517
vn 0.4135 0.6384 -0.6492
vn 0.6994 0.7137 0.0385
vn 0.7315 0.6818 -0.0111
vn 0.8738 -0.1245 -0.4700
vn 0.8853 0.0259 -0.4643
vn 0.8815 -0.0040 -0.4722
vn 0.4098 -0.7320 -0.5442
vn 0.2983 -0.7631 -0.5733
vn 0.3172 -0.6372 -0.7024
vn 0.9816 0.0205 0.1897
vn 0.2322 -0.3813 -0.8948
vn 0.4676 -0.6612 -0.5866
vn 0.0716 -0.8093 -0.5830
vn 0.9295 -0.1093 -0.3522
vn 0.7509 -0.5270 -0.3981
vn 0.3519 -0.7421 -0.5705
vn 0.1009 -0.9504 0.2942
vn 0.9144 -0.3511 0.2017
vn 0.3820 -0.8709 -0.3092
vn 0.8000 -0.1473 0.5816
vn 0.7575 -0.5775 -0.3044
vn -0.1537 -0.8364 0.5261
vn 0.5571 -0.6861 0.4680
vn 0.5828 -0.5947 -0.5538
vn 0.8424 -0.2624 -0.4706
vn 0.6511 -0.3027 -0.6960
vn 0.3577 0.6969 -0.6216
vn -0.0427 0.3096 -0.9499
vn -0.7630 0.6307 -0.1413
vn -0.4121 0.7454 -0.5240
vn 0.0884 -0.9717 -0.2191
vn -0.9039 0.3817 0.1931
vn -0.9338 0.1820 -0.3080
vn -0.3768 -0.1710 -0.9104
vn -0.9096 0.0954 -0.4044
vn -0.2080 0.2503 -0.9456
vn -0.9624 0.1400 0.2329
vn -0.5853 -0.6676 -0.4602
vn 0.6062 -0.7380 -0.2963
vn 0.4184 -0.5572 -0.7173
vn 0.0525 -0.9809 0.1872
vn -0.9099 -0.2747 0.3107
vn -0.1819 -0.7558 0.6291
vn -0.9614 -0.2333 -0.1459
vn -0.5825 -0.6499 -0.4883
vn -0.9607 0.2578 -0.1034
vn -0.9119 -0.0178 -0.4100
vn -0.5391 0.1996 -0.8183
vn -0.5544 0.4644 -0.6907
vn -0.8282 -0.4575 0.3237
vn -0.4191 -0.6260 -0.6576
vn 0.7067 -0.1922 -0.6809
vn -0.9347 0.3365 0.1147
vn -0.4275 0.8856 -0.1814
vn -0.3044 0.7175 -0.6265
vn 0.2358 0.4015 -0.8850
vn 0.1049 0.2084 -0.9724
vn 0.0966 0.8300 -0.5493
vn 0.2943 0.0497 -0.9544
vn 0.2709 0.1697 -0.9475
vn -0.1662 -0.7502 0.6400
vn 0.8256 -0.5390 0.1670
vn -0.0355 -0.9897 0.1387
vn 0.2853 -0.9568 0.0558
vn -0.0682 -0.8084 -0.5847
vn -0.5078 -0.8037 -0.3102
vn -0.0001 -0.9781 -0.2083
vn -0.5078 -0.8614 0.0086
vn -0.4367 -0.8468 0.3038
vn 0.0719 -0.9370 0.3418
vn 0.1160 0.9266 -0.3577
vn -0.3214 -0.4977 0.8056
vn -0.1950 -0.6473 0.7369
vn 0.4007 -0.2983 0.8663
vn -0.1061 -0.6160 -0.7806
vn 0.0322 -0.9761 -0.2150
vn 0.4193 -0.8922 0.1677
vn -0.7709 -0.6224 -0.1350
vn 0.7383 -0.6718 -0.0598
vn 0.9025 0.4301 0.0225
vn -0.3269 0.2989 -0.8965
vn -0.3033 0.1951 0.9327
vn -0.2318 -0.9724 -0.0280
vn -0.9999 0.0157 0.0054
vn -0.4785 -0.6375 -0.6038
vn -0.0471 -0.3807 -0.9235
vn 0.6274 0.1086 -0.7711
vn -0.9049 -0.1951 0.3782
vn -0.0258 -0.9968 0.0759
vn 0.0811 0.1876 -0.9789
vn -0.5895 -0.4401 -0.6774
vn -0.1233 -0.6022 0.7888
vn -0.0185 -0.6525 -0.7576
vn 0.3816 -0.5803 -0.7194
vn 0.5007 -0.7896 -0.3547
vn 0.7650 -0.6439 -0.0145
vn 0.5694 -0.6729 0.4722
vn 0.1144 -0.9693 -0.2176
vn 0.5816 -0.6735 0.4563
vn -0.1612 -0.6422 0.7494
vn -0.5570 -0.6611 -0.5027
vn -0.2943 -0.8794 -0.3743
vn 0.5870 -0.5978 -0.5460
vn 0.4179 -0.5569 -0.7178
vn 0.6081 -0.7350 -0.3000
vn -0.2268 -0.7670 0.6003
vn -0.5852 -0.6674 -0.4605
vn -0.7632 -0.5975 0.2461
vn -0.9095 0.0954 -0.4045
vn -0.9621 0.1406 0.2335
vn -0.5927 -0.1939 0.7817
vn -0.4123 -0.9108 0.0211
vn -0.4157 -0.7907 -0.4495
vn -0.5169 -0.8150 -0.2619
vn 0.0608 -0.6273 -0.7764
vn 0.9840 -0.0744 0.1622
vn 0.5940 -0.1764 -0.7849
vn 0.4703 -0.0518 -0.8810
vn -0.1809 -0.5429 -0.8201
vn -0.3936 -0.8103 0.4342
vn -0.3433 -0.9354 0.0849
vn -0.5099 -0.8568 -0.0772
vn -0.3530 -0.6946 0.6268
vn -0.3525 -0.8614 0.3658
vn -0.6606 -0.6153 0.4301
vn -0.8532 -0.3598 0.3776
vn -0.6497 -0.7305 -0.2104
vn -0.2795 -0.9035 0.3250
vn -0.4413 -0.8403 0.3149
vn -0.6223 -0.2595 0.7385
vn -0.1229 0.8232 0.5544
vn -0.2192 0.6150 0.7575
vn 0.6650 0.6190 0.4178
vn 0.7097 0.6508 0.2697
vn 0.4324 0.7165 0.5474
vn 0.4591 0.6366 0.6197
vn -0.0341 0.5958 0.8024
vn -0.0425 0.4953 0.8677
vn -0.4923 0.3229 0.8083
vn -0.4949 0.2280 0.8385
vn -0.4372 -0.3156 0.8422
vn 0.5467 0.6371 -0.5433
vn 0.7583 0.6502 0.0482
vn 0.4111 0.8311 0.3745
vn -0.1361 0.7736 0.6189
vn -0.6310 0.4371 0.6409
vn -0.9156 -0.3011 0.2666
vn 0.2945 0.7516 -0.5902
vn 0.8338 0.3825 -0.3981
vn 0.6078 0.7938 -0.0217
vn 0.2091 0.9560 0.2058
vn -0.2947 0.8924 0.3416
vn -0.7866 0.5475 0.2855
vn -0.9925 -0.1079 0.0578
vn -0.2273 0.8048 -0.5484
vn 0.7134 -0.0631 -0.6980
vn 0.5520 0.0370 -0.8330
vn 0.7203 0.6655 -0.1956
vn 0.5206 0.6533 0.5497
vn 0.3862 0.4047 0.8289
vn 0.2545 0.3026 0.9185
vn 0.0779 -0.5592 0.8254
vn -0.6256 -0.7044 -0.3354
vn 0.4771 -0.8068 0.3483
vn -0.3965 -0.7930 -0.4626
vn 0.1469 -0.9077 0.3931
vn 0.3837 0.9022 0.1971
vn 0.1007 0.7455 -0.6589
vn 0.3274 0.6924 -0.6430
vn -0.0504 0.0878 -0.9949
vn 0.3779 0.5435 0.7495
vn 0.5348 0.5790 0.6155
vn 0.3600 0.6469 0.6722
vt 0.685200 0.195500
vt 0.682400 0.182200
vt 0.702700 0.177700
vt 0.560400 0.235200
vt 0.536400 0.215300
vt 0.551500 0.207700
vt 0.573000 0.219300
vt 0.598100 0.225900
vt 0.584100 0.252000
vt 0.578300 0.259000
vt 0.595900 0.287900
vt 0.609000 0.271700
vt 0.626900 0.308500
vt 0.572900 0.196600
vt 0.586400 0.202200
vt 0.609400 0.208400
vt 0.617200 0.226900
vt 0.610400 0.247700
vt 0.610900 0.262600
vt 0.578800 0.190000
vt 0.591300 0.191500
vt 0.613400 0.193400
vt 0.631900 0.195400
vt 0.624300 0.210900
vt 0.638200 0.214800
vt 0.636500 0.229900
vt 0.579300 0.181900
vt 0.593100 0.172700
vt 0.616600 0.175900
vt 0.635200 0.179900
vt 0.654600 0.186800
vt 0.659800 0.198300
vt 0.574800 0.164300
vt 0.589500 0.147200
vt 0.611500 0.149200
vt 0.632200 0.147200
vt 0.652300 0.168800
vt 0.569300 0.144600
vt 0.585800 0.127100
vt 0.611900 0.125600
vt 0.629800 0.124100
vt 0.649100 0.124000
vt 0.649100 0.145700
vt 0.570200 0.127600
vt 0.584300 0.110300
vt 0.607400 0.105100
vt 0.627300 0.104300
vt 0.648100 0.103200
vt 0.668500 0.104800
vt 0.672600 0.128400
vt 0.568400 0.113700
vt 0.561000 0.093600
vt 0.577100 0.086500
vt 0.602700 0.080400
vt 0.625800 0.077400
vt 0.644400 0.075900
vt 0.663400 0.077300
vt 0.547500 0.072100
vt 0.568700 0.064500
vt 0.596300 0.059400
vt 0.622400 0.053200
vt 0.636500 0.050200
vt 0.662000 0.050400
vt 0.536000 0.051700
vt 0.562500 0.045000
vt 0.586000 0.033800
vt 0.609800 0.031200
vt 0.632000 0.031900
vt 0.662800 0.040800
vt 0.544000 0.031400
vt 0.563200 0.021300
vt 0.584200 0.012700
vt 0.611500 0.011300
vt 0.637900 0.019500
vt 0.660400 0.024500
vt 0.677700 0.037600
vt 0.679600 0.046100
vt 0.684900 0.071300
vt 0.692400 0.097200
vt 0.675500 0.021800
vt 0.701800 0.024000
vt 0.701900 0.041600
vt 0.697600 0.065300
vt 0.703600 0.089000
vt 0.712400 0.106800
vt 0.696500 0.118200
vt 0.692900 0.008300
vt 0.722500 0.129500
vt 0.701400 0.137400
vt 0.676900 0.145000
vt 0.680300 0.163700
vt 0.701700 0.158200
vt 0.663500 0.213700
vt 0.689500 0.208200
vt 0.726300 0.156600
vt 0.715700 0.175400
vt 0.715700 0.181600
vt 0.704700 0.188700
vt 0.711300 0.198300
vt 0.729600 0.217300
vt 0.692800 0.223100
vt 0.665000 0.226500
vt 0.717600 0.188600
vt 0.739500 0.196500
vt 0.755900 0.201400
vt 0.744400 0.234100
vt 0.696500 0.240400
vt 0.664300 0.247100
vt 0.632600 0.245600
vt 0.633500 0.266100
vt 0.714100 0.256600
vt 0.692400 0.262200
vt 0.660200 0.266400
vt 0.719500 0.263700
vt 0.692800 0.275500
vt 0.665000 0.278400
vt 0.643600 0.279100
vt 0.677300 0.307600
vt 0.741700 0.252000
vt 0.722100 0.289300
vt 0.297300 0.654900
vt 0.296600 0.657700
vt 0.287900 0.660100
vt 0.285800 0.663000
vt 0.278400 0.657100
vt 0.277700 0.646800
vt 0.292900 0.649200
vt 0.294200 0.667600
vt 0.287400 0.668700
vt 0.280500 0.671800
vt 0.275000 0.664100
vt 0.272000 0.661400
vt 0.267700 0.652900
vt 0.289200 0.675400
vt 0.250200 0.620500
vt 0.260100 0.620700
vt 0.261100 0.621900
vt 0.248600 0.621300
vt 0.254800 0.602100
vt 0.258700 0.616200
vt 0.266100 0.599800
vt 0.278300 0.612100
vt 0.263900 0.624700
vt 0.253900 0.631200
vt 0.240900 0.619500
vt 0.242500 0.599800
vt 0.261000 0.571200
vt 0.286500 0.595100
vt 0.285200 0.603600
vt 0.264400 0.634200
vt 0.262400 0.638600
vt 0.243000 0.636100
vt 0.232500 0.638100
vt 0.230900 0.622400
vt 0.228500 0.600600
vt 0.232300 0.566000
vt 0.246800 0.570600
vt 0.231500 0.647300
vt 0.226300 0.643000
vt 0.221100 0.627200
vt 0.220300 0.625800
vt 0.227500 0.619200
vt 0.247700 0.652700
vt 0.241700 0.659600
vt 0.252100 0.668900
vt 0.256600 0.654400
vt 0.221200 0.614100
vt 0.219500 0.596200
vt 0.214700 0.617900
vt 0.210300 0.594100
vt 0.206200 0.561400
vt 0.218300 0.534700
vt 0.236400 0.542900
vt 0.247800 0.546800
vt 0.197800 0.609000
vt 0.185300 0.584600
vt 0.190600 0.554700
vt 0.205600 0.529100
vt 0.210200 0.624500
vt 0.202800 0.630100
vt 0.190200 0.614700
vt 0.180200 0.596600
vt 0.167900 0.584200
vt 0.175500 0.572300
vt 0.208200 0.630900
vt 0.151400 0.574100
vt 0.162200 0.562300
vt 0.182500 0.542200
vt 0.194000 0.521400
vt 0.215600 0.505200
vt 0.230200 0.514100
vt 0.240700 0.526200
vt 0.251500 0.533300
vt 0.203700 0.499800
vt 0.210800 0.487600
vt 0.222800 0.490900
vt 0.234600 0.504000
vt 0.245300 0.515300
vt 0.253000 0.521100
vt 0.260300 0.521700
vt 0.260700 0.533800
vt 0.260500 0.549500
vt 0.279300 0.565900
vt 0.275100 0.529200
vt 0.277400 0.546300
vt 0.293100 0.543800
vt 0.300000 0.565800
vt 0.309700 0.590300
vt 0.295600 0.608500
vt 0.275300 0.517800
vt 0.290700 0.519800
vt 0.292800 0.505500
vt 0.283700 0.622200
vt 0.268600 0.632500
vt 0.278200 0.635000
vt 0.270900 0.637300
vt 0.300300 0.613500
vt 0.288500 0.626500
vt 0.311600 0.605200
vt 0.424700 0.533700
vt 0.426100 0.528700
vt 0.430600 0.528100
vt 0.436600 0.539100
vt 0.417800 0.542100
vt 0.427100 0.550800
vt 0.411500 0.555300
vt 0.427900 0.559000
vt 0.427100 0.571200
vt 0.413500 0.571000
vt 0.439300 0.532500
vt 0.421400 0.577600
vt 0.431300 0.579900
vt 0.436700 0.575800
vt 0.445400 0.561900
vt 0.448300 0.567600
vt 0.456400 0.563500
vt 0.449500 0.556800
vt 0.440600 0.544000
vt 0.159900 0.602200
vt 0.165000 0.606300
vt 0.155000 0.604500
vt 0.159800 0.615900
vt 0.148900 0.612100
vt 0.167100 0.617900
vt 0.159400 0.620400
vt 0.172000 0.625000
vt 0.161400 0.633600
vt 0.155200 0.630600
vt 0.151900 0.640300
vt 0.162000 0.640300
vt 0.173200 0.609200
vt 0.180900 0.616400
vt 0.176600 0.633300
vt 0.172600 0.639500
vt 0.184900 0.627000
vt 0.183300 0.637800
vt 0.175800 0.640600
vt 0.345100 0.582800
vt 0.344800 0.569500
vt 0.349800 0.581400
vt 0.349700 0.560900
vt 0.355600 0.562600
vt 0.354700 0.582800
vt 0.382000 0.570000
vt 0.375200 0.588200
vt 0.396900 0.590100
vt 0.407900 0.576800
vt 0.339800 0.561700
vt 0.342900 0.561700
vt 0.348900 0.557800
vt 0.351300 0.543100
vt 0.362300 0.542800
vt 0.384700 0.549900
vt 0.408200 0.557000
vt 0.335700 0.556500
vt 0.345900 0.544400
vt 0.338800 0.535600
vt 0.342500 0.531800
vt 0.352700 0.535300
vt 0.359000 0.536200
vt 0.338800 0.563000
vt 0.329500 0.557600
vt 0.331900 0.549100
vt 0.325400 0.542800
vt 0.328700 0.571700
vt 0.323000 0.565200
vt 0.314800 0.558700
vt 0.323200 0.545200
vt 0.315400 0.574100
vt 0.355500 0.532100
vt 0.363100 0.532000
vt 0.370300 0.532800
vt 0.383900 0.536100
vt 0.401600 0.543200
vt 0.361900 0.527600
vt 0.323000 0.591900
vt 0.325200 0.582100
vt 0.332000 0.586400
vt 0.328000 0.598900
vt 0.327100 0.602200
vt 0.316600 0.595000
vt 0.318300 0.597700
vt 0.317900 0.610400
vt 0.324100 0.611200
vt 0.322100 0.618000
vt 0.333600 0.598300
vt 0.340200 0.603400
vt 0.336200 0.605100
vt 0.329300 0.614000
vt 0.339200 0.588900
vt 0.348200 0.597700
vt 0.859600 0.433100
vt 0.888500 0.460800
vt 0.887900 0.428000
vt 0.918100 0.430300
vt 0.915300 0.396000
vt 0.930700 0.402800
vt 0.955700 0.414500
vt 0.942500 0.446400
vt 0.831300 0.442700
vt 0.842300 0.494000
vt 0.865200 0.493400
vt 0.813200 0.450300
vt 0.819600 0.498300
vt 0.846100 0.534100
vt 0.871200 0.534300
vt 0.889800 0.494800
vt 0.788100 0.470500
vt 0.782000 0.506500
vt 0.799900 0.543800
vt 0.800600 0.570600
vt 0.820900 0.566800
vt 0.855200 0.640600
vt 0.882100 0.642600
vt 0.878600 0.617500
vt 0.852900 0.616400
vt 0.874500 0.592200
vt 0.849400 0.589600
vt 0.873100 0.564000
vt 0.849500 0.563700
vt 0.820200 0.536900
vt 0.882900 0.663900
vt 0.910600 0.642500
vt 0.909600 0.615100
vt 0.907500 0.589600
vt 0.902800 0.563000
vt 0.897000 0.535200
vt 0.915900 0.666300
vt 0.950900 0.652100
vt 0.949700 0.633200
vt 0.950500 0.609700
vt 0.946100 0.581000
vt 0.939600 0.559900
vt 0.928300 0.529700
vt 0.948000 0.682400
vt 0.964300 0.675000
vt 0.990500 0.663600
vt 0.980100 0.633600
vt 0.972600 0.605700
vt 0.968800 0.580000
vt 0.962900 0.558000
vt 0.947700 0.523000
vt 0.922000 0.492300
vt 0.941500 0.490400
vt 0.924900 0.463300
vt 0.939100 0.456800
s 1
g off
g Rakan_PI_Rakan_Base_Mat.004
usemtl Rakan_Base_Mat.004
f 3/1/1 2/2/2 1/3/3
s 2
f 39/4/4 6/5/5 27/6/6
f 29/7/7 39/4/4 27/6/6
f 29/7/7 45/8/8 39/4/4
f 45/8/8 46/9/9 39/4/4
f 39/4/4 46/9/9 47/10/10
f 47/10/10 46/9/9 48/11/11
f 46/9/9 44/12/12 48/11/11
f 10/13/13 48/11/11 44/12/12
f 29/7/7 27/6/6 40/14/14
f 43/15/15 29/7/7 40/14/14
f 29/7/7 43/15/15 45/8/8
f 43/15/15 350/16/16 45/8/8
f 45/8/8 350/16/16 296/17/17
f 296/17/17 348/18/18 45/8/8
f 348/18/18 46/9/9 45/8/8
f 358/19/19 46/9/9 348/18/18
f 44/12/12 46/9/9 358/19/19
f 40/14/14 54/20/20 43/15/15
f 54/20/20 56/21/21 43/15/15
f 43/15/15 56/21/21 350/16/16
f 56/21/21 288/22/22 350/16/16
f 350/16/16 288/22/22 349/23/23
f 347/24/24 350/16/16 349/23/23
f 350/16/16 347/24/24 296/17/17
f 347/24/24 357/25/25 296/17/17
f 357/25/25 299/26/26 296/17/17
f 348/18/18 296/17/17 299/26/26
f 56/21/21 54/20/20 269/27/27
f 313/28/28 56/21/21 269/27/27
f 56/21/21 313/28/28 277/29/29
f 288/22/22 56/21/21 277/29/29
f 288/22/22 277/29/29 349/23/23
f 277/29/29 298/30/30 349/23/23
f 298/30/30 359/31/31 349/23/23
f 359/31/31 279/32/32 349/23/23
f 357/25/25 349/23/23 279/32/32
f 357/25/25 347/24/24 349/23/23
f 267/33/33 313/28/28 269/27/27
f 313/28/28 267/33/33 316/34/34
f 313/28/28 316/34/34 263/35/35
f 277/29/29 313/28/28 263/35/35
f 277/29/29 263/35/35 261/36/36
f 298/30/30 277/29/29 261/36/36
f 298/30/30 261/36/36 322/37/37
f 322/37/37 359/31/31 298/30/30
f 359/31/31 322/37/37 361/2/38
f 359/31/31 361/2/38 279/32/32
f 267/33/33 268/38/39 316/34/34
f 373/39/40 316/34/34 268/38/39
f 373/39/40 303/40/41 316/34/34
f 303/40/41 263/35/35 316/34/34
f 261/36/36 263/35/35 303/40/41
f 310/41/42 261/36/36 303/40/41
f 261/36/36 310/41/42 315/42/43
f 272/43/44 261/36/36 315/42/43
f 261/36/36 272/43/44 322/37/37
f 320/44/45 373/39/40 268/38/39
f 327/45/46 373/39/40 320/44/45
f 327/45/46 372/46/47 373/39/40
f 372/46/47 303/40/41 373/39/40
f 372/46/47 371/47/48 303/40/41
f 371/47/48 310/41/42 303/40/41
f 310/41/42 371/47/48 317/48/49
f 315/42/43 310/41/42 317/48/49
f 315/42/43 317/48/49 324/49/50
f 325/50/51 315/42/43 324/49/50
f 272/43/44 315/42/43 325/50/51
f 318/51/52 327/45/46 320/44/45
f 318/51/52 256/52/53 327/45/46
f 256/52/53 351/53/54 327/45/46
f 351/53/54 354/54/55 327/45/46
f 354/54/55 372/46/47 327/45/46
f 372/46/47 354/54/55 352/55/56
f 371/47/48 372/46/47 352/55/56
f 352/55/56 353/56/57 371/47/48
f 353/56/57 317/48/49 371/47/48
f 353/56/57 274/57/58 317/48/49
f 274/57/58 324/49/50 317/48/49
f 256/52/53 246/58/59 351/53/54
f 246/58/59 257/59/60 351/53/54
f 351/53/54 257/59/60 255/60/61
f 354/54/55 351/53/54 255/60/61
f 354/54/55 255/60/61 238/61/62
f 352/55/56 354/54/55 238/61/62
f 238/61/62 102/62/63 352/55/56
f 102/62/63 353/56/57 352/55/56
f 102/62/63 98/63/64 353/56/57
f 98/63/64 274/57/58 353/56/57
f 257/59/60 246/58/59 250/64/65
f 244/65/66 257/59/60 250/64/65
f 257/59/60 244/65/66 255/60/61
f 244/65/66 245/66/67 255/60/61
f 255/60/61 245/66/67 249/67/68
f 238/61/62 255/60/61 249/67/68
f 238/61/62 249/67/68 132/68/69
f 102/62/63 238/61/62 132/68/69
f 132/68/69 90/69/70 102/62/63
f 90/69/70 98/63/64 102/62/63
f 244/65/66 250/64/65 204/70/71
f 165/71/72 244/65/66 204/70/71
f 245/66/67 244/65/66 165/71/72
f 126/72/73 245/66/67 165/71/72
f 249/67/68 245/66/67 126/72/73
f 131/73/74 249/67/68 126/72/73
f 249/67/68 131/73/74 132/68/69
f 131/73/74 127/74/75 132/68/69
f 132/68/69 127/74/75 90/69/70
f 127/74/75 88/75/76 90/69/70
f 90/69/70 88/75/76 166/76/77
f 90/69/70 166/76/77 97/77/78
f 98/63/64 90/69/70 97/77/78
f 98/63/64 97/77/78 308/78/79
f 274/57/58 98/63/64 308/78/79
f 274/57/58 308/78/79 301/79/80
f 324/49/50 274/57/58 301/79/80
f 88/75/76 168/80/81 166/76/77
f 169/81/82 166/76/77 168/80/81
f 169/81/82 104/82/83 166/76/77
f 104/82/83 97/77/78 166/76/77
f 97/77/78 104/82/83 265/83/84
f 308/78/79 97/77/78 265/83/84
f 265/83/84 326/84/85 308/78/79
f 326/84/85 301/79/80 308/78/79
f 326/84/85 264/85/86 301/79/80
f 264/85/86 309/86/87 301/79/80
f 301/79/80 309/86/87 324/49/50
f 309/86/87 325/50/51 324/49/50
f 171/87/88 169/81/82 168/80/81
f 309/86/87 264/85/86 314/88/39
f 271/89/89 309/86/87 314/88/39
f 309/86/87 271/89/89 325/50/51
f 271/89/89 270/90/90 325/50/51
f 270/90/90 272/43/44 325/50/51
f 322/37/37 272/43/44 270/90/90
f 273/91/91 322/37/37 270/90/90
f 322/37/37 273/91/91 361/2/38
f 271/89/89 314/88/39 323/92/92
f 271/89/89 323/92/92 270/90/90
f 323/92/92 273/91/91 270/90/90
f 273/91/91 323/92/92 361/2/38
f 323/92/92 307/3/93 361/2/38
f 345/93/94 279/32/32 300/94/95
f 357/25/25 279/32/32 345/93/94
f 314/88/39 266/95/33 323/92/92
f 323/92/92 266/95/33 295/96/96
f 307/3/93 323/92/92 295/96/96
f 307/3/93 295/96/96 343/97/97
f 305/98/98 307/3/93 343/97/97
f 305/98/98 57/99/99 362/1/100
f 57/99/99 300/94/95 362/1/100
f 57/99/99 51/100/101 300/94/95
f 51/100/101 344/101/102 300/94/95
f 300/94/95 344/101/102 345/93/94
f 344/101/102 284/102/103 345/93/94
f 284/102/103 299/26/26 345/93/94
f 299/26/26 357/25/25 345/93/94
f 343/97/97 37/103/104 305/98/98
f 37/103/104 57/99/99 305/98/98
f 57/99/99 37/103/104 36/104/105
f 51/100/101 57/99/99 36/104/105
f 51/100/101 36/104/105 38/105/106
f 28/106/107 51/100/101 38/105/106
f 344/101/102 51/100/101 28/106/107
f 58/107/108 344/101/102 28/106/107
f 284/102/103 344/101/102 58/107/108
f 66/108/109 284/102/103 58/107/108
f 299/26/26 284/102/103 66/108/109
f 355/109/110 299/26/26 66/108/109
f 355/109/110 348/18/18 299/26/26
f 358/19/19 348/18/18 355/109/110
f 356/110/111 358/19/19 355/109/110
f 358/19/19 356/110/111 44/12/12
f 50/111/112 58/107/108 28/106/107
f 58/107/108 50/111/112 55/112/113
f 58/107/108 55/112/113 66/108/109
f 55/112/113 53/113/114 66/108/109
f 53/113/114 356/110/111 66/108/109
f 356/110/111 355/109/110 66/108/109
f 7/114/115 50/111/112 28/106/107
f 55/112/113 50/111/112 7/114/115
f 17/115/116 55/112/113 7/114/115
f 55/112/113 17/115/116 16/116/117
f 53/113/114 55/112/113 16/116/117
f 16/116/117 18/117/118 53/113/114
f 18/117/118 356/110/111 53/113/114
f 356/110/111 18/117/118 44/12/12
f 18/117/118 10/13/13 44/12/12
f 5/118/119 10/13/13 18/117/118
f 28/106/107 8/119/120 7/114/115
f 8/119/120 4/120/121 7/114/115
f 7/114/115 4/120/121 17/115/116
f 4/120/121 5/118/119 17/115/116
f 5/118/119 16/116/117 17/115/116
f 16/116/117 5/118/119 18/117/118
s 3
f 42/121/122 69/122/123 227/123/124
f 69/122/123 332/124/125 227/123/124
f 227/123/124 332/124/125 173/125/126
f 173/125/126 213/126/127 227/123/124
f 213/126/127 170/127/128 227/123/124
f 332/124/125 69/122/123 293/128/129
f 342/129/130 332/124/125 293/128/129
f 332/124/125 342/129/130 341/130/131
f 290/131/132 332/124/125 341/130/131
f 290/131/132 87/132/133 332/124/125
f 332/124/125 87/132/133 173/125/126
f 173/125/126 87/132/133 213/126/127
f 87/132/133 107/133/134 213/126/127
f 342/129/130 293/128/129 291/134/135
f 341/130/131 342/129/130 291/134/135
s 4
f 251/135/136 96/136/137 183/137/138
f 237/138/139 251/135/136 183/137/138
f 237/138/139 211/139/140 251/135/136
f 251/135/136 211/139/140 240/140/141
f 211/139/140 206/141/142 240/140/141
f 240/140/141 206/141/142 154/142/143
f 160/143/144 240/140/141 154/142/143
f 237/138/139 183/137/138 248/144/145
f 186/145/146 237/138/139 248/144/145
f 211/139/140 237/138/139 186/145/146
f 158/146/147 211/139/140 186/145/146
f 211/139/140 158/146/147 207/147/148
f 206/141/142 211/139/140 207/147/148
f 206/141/142 207/147/148 236/148/149
f 206/141/142 236/148/149 149/149/150
f 154/142/143 206/141/142 149/149/150
f 183/137/138 184/150/151 248/144/145
f 184/150/151 60/151/152 248/144/145
f 60/151/152 185/152/153 248/144/145
f 185/152/153 186/145/146 248/144/145
f 186/145/146 185/152/153 182/153/154
f 180/154/155 186/145/146 182/153/154
f 186/145/146 180/154/155 159/155/156
f 158/146/147 186/145/146 159/155/156
f 159/155/156 196/156/157 158/146/147
f 196/156/157 157/157/158 158/146/147
f 158/146/147 157/157/158 207/147/148
f 185/152/153 60/151/152 59/152/159
f 182/153/154 185/152/153 59/152/159
f 63/158/160 182/153/154 59/152/159
f 216/159/161 182/153/154 63/158/160
f 216/159/161 217/160/162 182/153/154
f 217/160/162 180/154/155 182/153/154
f 217/160/162 231/161/163 180/154/155
f 231/161/163 233/162/164 180/154/155
f 233/162/164 159/155/156 180/154/155
f 59/152/159 60/151/152 283/163/165
f 63/158/160 59/152/159 283/163/165
f 334/164/166 63/158/160 283/163/165
f 334/164/166 283/163/165 281/165/167
f 283/163/165 280/166/168 281/165/167
f 60/151/152 280/166/168 283/163/165
f 233/162/164 162/167/169 159/155/156
f 162/167/169 202/168/170 159/155/156
f 196/156/157 159/155/156 202/168/170
f 162/167/169 163/169/171 202/168/170
f 163/169/171 203/170/172 202/168/170
f 196/156/157 202/168/170 203/170/172
f 194/171/173 196/156/157 203/170/172
f 194/171/173 148/172/174 196/156/157
f 148/172/174 197/173/175 196/156/157
f 196/156/157 197/173/175 91/174/176
f 157/157/158 196/156/157 91/174/176
f 203/170/172 163/169/171 221/175/177
f 203/170/172 221/175/177 193/176/178
f 194/171/173 203/170/172 193/176/178
f 194/171/173 193/176/178 252/177/179
f 194/171/173 252/177/179 198/178/180
f 148/172/174 194/171/173 198/178/180
f 163/169/171 209/179/181 221/175/177
f 221/175/177 209/179/181 210/180/182
f 220/181/183 221/175/177 210/180/182
f 221/175/177 220/181/183 192/182/184
f 193/176/178 221/175/177 192/182/184
f 192/182/184 95/183/185 193/176/178
f 95/183/185 208/184/186 193/176/178
f 193/176/178 208/184/186 252/177/179
f 210/180/182 209/179/181 86/185/187
f 95/183/185 81/186/188 205/187/189
f 208/184/186 95/183/185 205/187/189
f 208/184/186 205/187/189 252/177/179
f 205/187/189 241/188/190 252/177/179
f 252/177/179 241/188/190 198/178/180
f 241/188/190 223/189/191 198/178/180
f 198/178/180 223/189/191 152/190/192
f 198/178/180 152/190/192 148/172/174
f 152/190/192 195/191/193 148/172/174
f 195/191/193 135/192/194 148/172/174
f 135/192/194 197/173/175 148/172/174
f 197/173/175 135/192/194 139/193/195
f 91/174/176 197/173/175 139/193/195
f 223/189/191 153/194/196 152/190/192
f 152/190/192 153/194/196 164/195/197
f 167/196/198 152/190/192 164/195/197
f 167/196/198 103/197/199 152/190/192
f 103/197/199 195/191/193 152/190/192
f 195/191/193 103/197/199 138/198/200
f 135/192/194 195/191/193 138/198/200
f 135/192/194 138/198/200 137/199/201
f 139/193/195 135/192/194 137/199/201
f 139/193/195 137/199/201 121/200/202
f 224/201/203 139/193/195 121/200/202
f 139/193/195 224/201/203 91/174/176
f 224/201/203 232/202/204 91/174/176
f 91/174/176 232/202/204 157/157/158
f 232/202/204 207/147/148 157/157/158
f 151/203/205 207/147/148 232/202/204
f 207/147/148 151/203/205 236/148/149
f 224/201/203 121/200/202 226/204/206
f 226/204/206 225/205/207 224/201/203
f 225/205/207 232/202/204 224/201/203
f 225/205/207 151/203/205 232/202/204
f 225/205/207 222/206/208 151/203/205
f 222/206/208 150/207/209 151/203/205
f 151/203/205 150/207/209 236/148/149
f 150/207/209 239/208/210 236/148/149
f 239/208/210 155/209/211 236/148/149
f 155/209/211 149/149/150 236/148/149
f 121/200/202 134/210/212 226/204/206
f 200/211/213 226/204/206 134/210/212
f 200/211/213 222/206/208 226/204/206
f 222/206/208 225/205/207 226/204/206
f 133/212/214 200/211/213 134/210/212
f 154/142/143 149/149/150 155/209/211
f 156/213/215 154/142/143 155/209/211
f 160/143/144 154/142/143 156/213/215
f 161/214/216 160/143/144 156/213/215
f 161/214/216 156/213/215 78/215/217
f 161/214/216 78/215/217 79/216/218
f 156/213/215 155/209/211 94/217/219
f 80/218/220 156/213/215 94/217/219
f 156/213/215 80/218/220 78/215/217
f 94/217/219 155/209/211 82/219/221
f 155/209/211 239/208/210 82/219/221
s 5
f 130/220/222 83/221/223 118/222/224
f 128/223/225 130/220/222 118/222/224
f 130/220/222 128/223/225 124/224/226
f 128/223/225 125/225/227 124/224/226
f 243/226/228 124/224/226 125/225/227
f 177/227/229 243/226/228 125/225/227
f 243/226/228 177/227/229 175/228/230
f 254/229/231 243/226/228 175/228/230
f 115/230/232 128/223/225 118/222/224
f 254/229/231 175/228/230 93/231/233
f 175/228/230 92/232/234 93/231/233
f 276/227/235 92/232/234 175/228/230
f 328/233/236 92/232/234 276/227/235
f 276/227/235 275/234/237 328/233/236
f 275/234/237 333/235/238 328/233/236
f 333/235/238 275/234/237 340/236/239
f 275/234/237 260/237/240 340/236/239
f 259/238/241 260/237/240 275/234/237
f 177/227/229 276/227/235 175/228/230
f 177/227/229 125/225/227 276/227/235
f 259/238/241 276/227/235 125/225/227
f 276/227/235 259/238/241 275/234/237
f 128/223/225 259/238/241 125/225/227
s 6
f 89/239/242 247/240/243 191/241/244
f 191/241/244 247/240/243 176/242/245
f 190/243/246 191/241/244 176/242/245
f 176/242/245 247/240/243 122/244/247
f 176/242/245 122/244/247 68/245/248
f 67/246/249 68/245/248 122/244/247
f 68/245/248 67/246/249 289/247/250
f 292/248/251 68/245/248 289/247/250
f 292/248/251 289/247/250 286/249/252
f 289/247/250 287/250/253 286/249/252
f 247/240/243 123/251/254 122/244/247
f 123/251/254 229/252/255 122/244/247
f 229/252/255 214/246/256 122/244/247
f 214/246/256 67/246/249 122/244/247
f 228/253/257 67/246/249 214/246/256
f 67/246/249 228/253/257 61/254/258
f 67/246/249 61/254/258 289/247/250
f 61/254/258 287/250/253 289/247/250
f 214/246/256 229/252/255 242/255/259
f 228/253/257 214/246/256 242/255/259
f 228/253/257 242/255/259 253/256/260
f 212/257/261 228/253/257 253/256/260
f 228/253/257 212/257/261 61/254/258
s 7
f 141/258/262 140/259/263 136/260/264
f 140/259/263 218/261/265 136/260/264
f 218/261/265 106/262/266 136/260/264
f 106/262/266 108/263/267 136/260/264
f 108/263/267 106/262/266 146/264/268
f 85/265/269 108/263/267 146/264/268
f 85/265/269 146/264/268 100/266/270
f 146/264/268 99/267/271 100/266/270
f 199/268/272 218/261/265 140/259/263
f 218/261/265 199/268/272 189/269/273
f 218/261/265 189/269/273 187/270/274
f 234/271/275 218/261/265 187/270/274
f 218/261/265 234/271/275 106/262/266
f 234/271/275 116/272/276 106/262/266
f 116/272/276 105/273/277 106/262/266
f 105/273/277 146/264/268 106/262/266
f 105/273/277 77/274/278 146/264/268
f 77/274/278 99/267/271 146/264/268
f 187/270/274 189/269/273 188/275/279
f 181/276/280 187/270/274 188/275/279
f 181/276/280 234/271/275 187/270/274
f 215/277/281 234/271/275 181/276/280
f 234/271/275 215/277/281 101/278/282
f 234/271/275 101/278/282 142/279/283
f 234/271/275 142/279/283 144/280/284
f 234/271/275 144/280/284 116/272/276
f 189/269/273 178/281/285 188/275/279
f 178/281/285 64/281/160 188/275/279
f 64/281/160 65/282/286 188/275/279
f 179/283/287 188/275/279 65/282/286
f 179/283/287 181/276/280 188/275/279
f 179/283/287 201/284/288 181/276/280
f 201/284/288 215/277/281 181/276/280
f 64/281/160 331/285/289 65/282/286
f 331/285/289 285/286/290 65/282/286
f 285/286/290 336/287/168 65/282/286
f 336/287/168 62/288/291 65/282/286
f 62/288/291 179/283/287 65/282/286
f 201/284/288 179/283/287 62/288/291
f 285/286/290 331/285/289 337/289/292
f 336/287/168 285/286/290 337/289/292
f 142/279/283 119/290/293 144/280/284
f 144/280/284 119/290/293 145/291/294
f 116/272/276 144/280/284 145/291/294
f 117/292/295 116/272/276 145/291/294
f 116/272/276 117/292/295 143/293/296
f 105/273/277 116/272/276 143/293/296
f 143/293/296 84/294/297 105/273/277
f 84/294/297 77/274/278 105/273/277
f 119/290/293 120/295/298 145/291/294
s 8
f 129/296/299 147/297/300 235/298/301
f 258/299/302 129/296/299 235/298/301
f 258/299/302 282/300/303 129/296/299
f 282/300/303 41/301/304 129/296/299
f 278/302/305 41/301/304 282/300/303
f 278/302/305 282/300/303 329/303/306
f 282/300/303 339/304/307 329/303/306
f 329/303/306 339/304/307 338/305/308
f 174/306/309 258/299/302 235/298/301
f 174/306/309 230/307/234 258/299/302
f 258/299/302 230/307/234 335/308/310
f 282/300/303 258/299/302 335/308/310
f 282/300/303 335/308/310 330/309/311
f 339/304/307 282/300/303 330/309/311
f 339/304/307 330/309/311 338/305/308
f 172/310/312 174/306/309 235/298/301
f 230/307/234 174/306/309 172/310/312
f 219/311/233 230/307/234 172/310/312
s 9
f 114/312/313 294/313/314 302/314/315
f 262/315/316 302/314/315 294/313/314
f 302/314/315 262/315/316 33/316/317
f 262/315/316 32/317/318 33/316/317
f 32/317/318 262/315/316 20/318/319
f 262/315/316 23/319/320 20/318/319
f 114/312/313 112/320/321 113/321/322
f 319/322/323 114/312/313 113/321/322
f 114/312/313 319/322/323 294/313/314
f 112/320/321 73/323/324 109/324/325
f 113/321/322 112/320/321 109/324/325
f 76/325/326 113/321/322 109/324/325
f 319/322/323 113/321/322 76/325/326
f 367/326/327 319/322/323 76/325/326
f 319/322/323 367/326/327 321/327/328
f 319/322/323 321/327/328 294/313/314
f 111/328/329 109/324/325 73/323/324
f 109/324/325 111/328/329 110/329/330
f 71/330/331 70/331/332 74/332/333
f 35/333/334 52/334/335 365/335/336
f 26/336/337 35/333/334 365/335/336
f 26/336/337 365/335/336 364/337/338
f 25/338/339 26/336/337 364/337/338
f 364/337/338 304/339/340 25/338/339
f 304/339/340 75/340/341 25/338/339
f 75/340/341 74/332/333 25/338/339
f 72/341/342 74/332/333 75/340/341
f 72/341/342 71/330/331 74/332/333
f 52/334/335 34/342/343 297/343/344
f 52/334/335 297/343/344 346/344/345
f 365/335/336 52/334/335 346/344/345
f 365/335/336 346/344/345 366/345/346
f 364/337/338 365/335/336 366/345/346
f 366/345/346 312/346/347 364/337/338
f 312/346/347 304/339/340 364/337/338
f 304/339/340 312/346/347 311/347/348
f 367/326/327 304/339/340 311/347/348
f 75/340/341 304/339/340 367/326/327
f 34/342/343 30/348/349 297/343/344
f 30/348/349 31/349/350 297/343/344
f 31/349/350 306/350/351 297/343/344
f 297/343/344 306/350/351 346/344/345
f 306/350/351 360/351/352 346/344/345
f 346/344/345 360/351/352 368/352/353
f 366/345/346 346/344/345 368/352/353
f 366/345/346 368/352/353 369/353/354
f 312/346/347 366/345/346 369/353/354
f 369/353/354 370/354/355 312/346/347
f 370/354/355 311/347/348 312/346/347
f 31/349/350 30/348/349 19/355/356
f 24/356/357 31/349/350 19/355/356
f 24/356/357 22/357/358 31/349/350
f 22/357/358 13/358/359 31/349/350
f 306/350/351 31/349/350 13/358/359
f 306/350/351 13/358/359 12/359/360
f 360/351/352 306/350/351 12/359/360
f 12/359/360 11/360/361 360/351/352
f 11/360/361 368/352/353 360/351/352
f 11/360/361 9/361/362 368/352/353
f 9/361/362 369/353/354 368/352/353
f 369/353/354 9/361/362 14/362/363
f 370/354/355 369/353/354 14/362/363
f 370/354/355 14/362/363 49/363/364
f 311/347/348 370/354/355 49/363/364
f 321/327/328 311/347/348 49/363/364
f 367/326/327 311/347/348 321/327/328
f 14/362/363 15/364/365 49/363/364
f 49/363/364 15/364/365 363/365/366
f 363/365/366 294/313/314 49/363/364
f 294/313/314 321/327/328 49/363/364
f 15/364/365 21/366/367 363/365/366
f 363/365/366 21/366/367 23/319/320
f 262/315/316 363/365/366 23/319/320
f 363/365/366 262/315/316 294/313/314
f 76/325/326 75/340/341 367/326/327
f 76/325/326 72/341/342 75/340/341
f 72/341/342 76/325/326 109/324/325
f 71/330/331 72/341/342 109/324/325
f 110/329/330 71/330/331 109/324/325
s 10
f 378/2/368 379/1/369 374/32/370
f 374/32/370 379/1/369 375/94/371
s 11
f 376/98/372 379/1/373 377/3/374
