# Blender v2.93.18 OBJ File: ''
# www.blender.org
mtllib rehiletesup.mtl
o Cube_0
v -0.196640 0.151076 -0.057067
v -0.006890 0.149646 -0.057067
v -0.010680 0.242356 -0.054117
v -0.133210 0.239266 -0.053077
v -0.196320 0.153296 -0.057637
v -0.133210 0.239266 -0.074737
v -0.010680 0.242356 -0.075777
v -0.006890 0.149646 -0.078727
v -0.196640 0.151076 -0.078727
v -0.196320 0.153296 -0.079297
v -0.147730 0.324886 -0.048697
v -0.147730 0.324886 -0.070347
v 0.034800 -0.026814 0.014323
v -0.001660 -0.042884 0.006733
v -0.052460 0.025256 -0.000647
v -0.016500 0.051176 -0.002357
v 0.035070 0.019896 -0.002357
v 0.035040 0.021676 0.004233
v -0.016530 0.052956 0.004233
v -0.052440 0.028866 0.012933
v -0.001720 -0.039034 0.020223
v 0.034730 -0.024814 0.020843
v -0.203900 0.028116 -0.009827
v -0.104890 0.073086 -0.010827
v -0.206000 -0.041614 0.007423
v -0.104740 0.076766 0.002763
v -0.203810 0.031966 0.003673
v -0.206070 -0.037764 0.020923
v 0.160410 0.191186 -0.027477
v 0.157440 0.002756 -0.005317
v 0.248070 0.008106 0.017383
v 0.246070 0.129706 0.003233
v 0.162700 0.190846 -0.027517
v 0.250800 0.127166 -0.017747
v 0.252800 0.005566 -0.003597
v 0.162170 0.000216 -0.026297
v 0.165130 0.188646 -0.048457
v 0.167420 0.188306 -0.048497
v 0.329740 0.145656 0.024533
v 0.334470 0.143116 0.003553
v -0.028380 -0.034634 0.014513
v -0.043630 0.001206 -0.003847
v 0.024900 0.051996 -0.002177
v 0.051790 0.015736 0.009253
v 0.020840 -0.036034 0.008553
v 0.021140 -0.035194 0.031513
v 0.052090 0.016576 0.032213
v 0.026980 0.052816 0.031153
v -0.041290 0.002106 0.029443
v -0.027850 -0.033764 0.037463
v 0.030950 0.201336 -0.012187
v 0.074230 0.103706 0.008363
v -0.040850 0.204206 -0.010897
v 0.076380 0.104406 0.025523
v 0.033280 0.202076 0.004923
v -0.038510 0.205106 0.006183
v -0.025030 -0.208064 0.009593
v -0.075560 -0.112764 -0.004327
v -0.030780 -0.056834 -0.001617
v 0.034360 -0.001744 -0.001637
v 0.044700 -0.203894 0.026433
v 0.030520 -0.000224 0.011773
v -0.034390 -0.055194 0.011853
v -0.079240 -0.111004 0.009153
v -0.028880 -0.206374 0.022973
v 0.040860 -0.202364 0.039843
v 0.016240 0.034436 0.001133
v -0.058700 -0.022954 -0.007937
v -0.030410 0.029836 -0.015077
v -0.032180 0.030596 -0.008537
v -0.060480 -0.022194 -0.001387
v 0.014250 0.035136 0.007613
v -0.239860 -0.157904 -0.062647
v -0.249910 -0.036864 -0.080077
v -0.157560 -0.027814 -0.084247
v -0.148210 -0.215624 -0.058817
v -0.150440 -0.215514 -0.059407
v -0.324520 -0.174194 -0.034207
v -0.150440 -0.212604 -0.037947
v -0.239860 -0.155004 -0.041187
v -0.324520 -0.177104 -0.055657
v -0.148210 -0.212714 -0.037357
v -0.157560 -0.024914 -0.062787
v -0.249910 -0.033954 -0.058617
v 0.200880 -0.042074 0.014163
v 0.095480 -0.091354 0.000373
v 0.042660 -0.043444 -0.007047
v -0.017370 0.022106 0.012963
v 0.193860 0.030256 0.011873
v 0.011690 0.023866 0.019263
v 0.053400 -0.052374 0.028063
v 0.093450 -0.089824 0.035023
v 0.197710 -0.042934 0.044733
v 0.192940 0.030526 0.044083
v -0.045270 0.008976 -0.007017
v 0.006990 -0.069794 -0.007907
v -0.043800 -0.040214 -0.013127
v -0.031720 -0.036414 0.013313
v 0.014200 -0.071954 0.023453
v -0.023300 0.012126 0.014463
v 0.129550 -0.265544 -0.013707
v 0.008100 -0.270854 -0.030367
v 0.005240 -0.180274 -0.053817
v 0.193250 -0.178114 -0.028277
v 0.192990 -0.180414 -0.028397
v 0.140150 -0.344224 0.032013
v 0.190090 -0.175754 -0.007447
v 0.126650 -0.260884 0.007243
v 0.143050 -0.348874 0.011063
v 0.190360 -0.173464 -0.007327
v 0.002340 -0.175614 -0.032867
v 0.005210 -0.266204 -0.009417
v -0.006890 0.149646 -0.078727
v -0.006890 0.149646 -0.057067
v -0.008470 -0.037944 0.006093
v -0.008470 -0.043184 -0.016117
v -0.010680 0.242356 -0.075777
v -0.010680 0.242356 -0.054117
v 0.004500 0.496526 0.002973
v -0.147730 0.324886 -0.070347
v -0.147730 0.324886 -0.048697
v 0.004500 0.496526 0.002973
v 0.004500 0.496526 -0.018677
v 0.004500 0.496526 -0.018677
v -0.008470 -0.043184 -0.016117
v -0.008470 -0.037944 0.006093
v -0.198220 -0.037644 0.006713
v -0.198220 -0.042894 -0.015497
v 0.004500 0.496526 -0.018677
v 0.004500 0.496526 0.002973
v -0.196320 0.153296 -0.079297
v -0.196320 0.153296 -0.057637
v -0.196640 0.151076 -0.057067
v -0.196640 0.151076 -0.078727
v -0.198220 -0.042894 -0.015497
v -0.198220 -0.037644 0.006713
v -0.090340 0.114986 -0.013157
v -0.196210 0.233266 -0.049267
v -0.008470 -0.043184 -0.016117
v -0.198220 -0.042894 -0.015497
v -0.198220 -0.037644 0.006713
v -0.008470 -0.037944 0.006093
v -0.203810 0.031966 0.003673
v -0.203900 0.028116 -0.009827
v -0.206000 -0.041614 0.007423
v -0.206070 -0.037764 0.020923
v -0.016500 0.051176 -0.002357
v -0.016530 0.052956 0.004233
v 0.035040 0.021676 0.004233
v 0.035070 0.019896 -0.002357
v -0.001720 -0.039034 0.020223
v -0.001660 -0.042884 0.006733
v 0.034800 -0.026814 0.014323
v 0.034730 -0.024814 0.020843
v -0.196110 0.237116 -0.042747
v -0.196210 0.233266 -0.049267
v -0.206070 -0.037764 0.020923
v -0.206000 -0.041614 0.007423
v 0.034730 -0.024814 0.020843
v 0.034800 -0.026814 0.014323
v 0.035070 0.019896 -0.002357
v 0.035040 0.021676 0.004233
v 0.162170 0.000216 -0.026297
v 0.157440 0.002756 -0.005317
v -0.039390 0.008406 0.014863
v -0.039660 0.005706 -0.007797
v -0.090170 0.118626 -0.006527
v -0.090340 0.114986 -0.013157
v -0.196210 0.233266 -0.049267
v -0.196110 0.237116 -0.042747
v -0.090170 0.118626 -0.006527
v -0.090340 0.114986 -0.013157
v -0.090170 0.118626 -0.006527
v -0.196110 0.237116 -0.042747
v 0.252800 0.005566 -0.003597
v 0.248070 0.008106 0.017383
v 0.493190 0.000366 0.130973
v 0.334470 0.143116 0.003553
v 0.329740 0.145656 0.024533
v 0.493190 0.000366 0.130973
v 0.497910 -0.002174 0.109993
v 0.497910 -0.002174 0.109993
v -0.039660 0.005706 -0.007797
v -0.039390 0.008406 0.014863
v -0.037660 0.196886 -0.006947
v -0.037930 0.194186 -0.029607
v 0.497910 -0.002174 0.109993
v 0.493190 0.000366 0.130973
v 0.167420 0.188306 -0.048497
v 0.162700 0.190846 -0.027517
v 0.160410 0.191186 -0.027477
v 0.165130 0.188646 -0.048457
v -0.037930 0.194186 -0.029607
v -0.037660 0.196886 -0.006947
v 0.117030 0.088926 0.020133
v 0.241220 0.191906 -0.001657
v -0.039660 0.005706 -0.007797
v -0.037930 0.194186 -0.029607
v -0.037660 0.196886 -0.006947
v -0.039390 0.008406 0.014863
v 0.033280 0.202076 0.004923
v 0.030950 0.201336 -0.012187
v -0.040850 0.204206 -0.010897
v -0.038510 0.205106 0.006183
v 0.051790 0.015736 0.009253
v 0.052090 0.016576 0.032213
v 0.021140 -0.035194 0.031513
v 0.020840 -0.036034 0.008553
v -0.041290 0.002106 0.029443
v -0.043630 0.001206 -0.003847
v -0.028380 -0.034634 0.014513
v -0.027850 -0.033764 0.037463
v 0.243550 0.192646 0.005513
v 0.241220 0.191906 -0.001657
v -0.038510 0.205106 0.006183
v -0.040850 0.204206 -0.010897
v -0.027850 -0.033764 0.037463
v -0.028380 -0.034634 0.014513
v 0.020840 -0.036034 0.008553
v 0.021140 -0.035194 0.031513
v 0.119130 0.089586 0.027363
v 0.117030 0.088926 0.020133
v 0.241220 0.191906 -0.001657
v 0.243550 0.192646 0.005513
v 0.119130 0.089586 0.027363
v 0.117030 0.088926 0.020133
v 0.119130 0.089586 0.027363
v 0.243550 0.192646 0.005513
v -0.121860 -0.100184 -0.001687
v -0.118220 -0.101044 -0.008257
v -0.121860 -0.100184 -0.001687
v -0.060480 -0.022194 -0.001387
v -0.058700 -0.022954 -0.007937
v -0.118220 -0.101044 -0.008257
v -0.032180 0.030596 -0.008537
v -0.030410 0.029836 -0.015077
v 0.030520 -0.000224 0.011773
v 0.034360 -0.001744 -0.001637
v 0.016240 0.034436 0.001133
v 0.014250 0.035136 0.007613
v -0.028880 -0.206374 0.022973
v -0.025030 -0.208064 0.009593
v 0.044700 -0.203894 0.026433
v 0.040860 -0.202364 0.039843
v -0.234150 -0.216534 -0.022487
v -0.230300 -0.217284 -0.028967
v 0.040300 -0.195104 0.024613
v 0.029810 -0.007444 -0.001417
v 0.040860 -0.202364 0.039843
v 0.044700 -0.203894 0.026433
v 0.014250 0.035136 0.007613
v 0.016240 0.034436 0.001133
v -0.030410 0.029836 -0.015077
v -0.032180 0.030596 -0.008537
v -0.501670 -0.033124 -0.023097
v -0.121860 -0.100184 -0.001687
v -0.118220 -0.101044 -0.008257
v -0.230300 -0.217284 -0.028967
v -0.234150 -0.216534 -0.022487
v 0.035050 -0.010124 -0.023457
v 0.029810 -0.007444 -0.001417
v 0.040300 -0.195104 0.024613
v 0.045530 -0.197784 0.002573
v -0.249910 -0.033954 -0.058617
v -0.249910 -0.036864 -0.080077
v -0.501670 -0.033124 -0.023097
v -0.501670 -0.030214 -0.001637
v -0.234150 -0.216534 -0.022487
v -0.324520 -0.174194 -0.034207
v -0.324520 -0.177104 -0.055657
v -0.150440 -0.215514 -0.059407
v -0.150440 -0.212604 -0.037947
v -0.501670 -0.030214 -0.001637
v -0.230300 -0.217284 -0.028967
v -0.501670 -0.030214 -0.001637
v -0.501670 -0.033124 -0.023097
v -0.148210 -0.212714 -0.037357
v -0.148210 -0.215624 -0.058817
v 0.045530 -0.197784 0.002573
v 0.040300 -0.195104 0.024613
v -0.157560 -0.027814 -0.084247
v -0.157560 -0.024914 -0.062787
v 0.029810 -0.007444 -0.001417
v 0.035050 -0.010124 -0.023457
v 0.035050 -0.010124 -0.023457
v 0.045530 -0.197784 0.002573
v 0.080140 -0.133064 0.034883
v 0.080930 -0.133044 0.005213
v 0.080140 -0.133064 0.034883
v 0.014200 -0.071954 0.023453
v 0.006990 -0.069794 -0.007907
v 0.080930 -0.133044 0.005213
v -0.031720 -0.036414 0.013313
v -0.043800 -0.040214 -0.013127
v -0.017370 0.022106 0.012963
v -0.045270 0.008976 -0.007017
v 0.197710 -0.042934 0.044733
v 0.200880 -0.042074 0.014163
v 0.193860 0.030256 0.011873
v 0.192940 0.030526 0.044083
v 0.188430 -0.256684 0.025333
v 0.189440 -0.254324 0.018213
v 0.185360 0.024546 0.013923
v -0.002580 0.021156 -0.011967
v 0.192940 0.030526 0.044083
v 0.193860 0.030256 0.011873
v -0.017370 0.022106 0.012963
v 0.011690 0.023866 0.019263
v -0.023300 0.012126 0.014463
v -0.045270 0.008976 -0.007017
v -0.043800 -0.040214 -0.013127
v -0.031720 -0.036414 0.013313
v -0.009570 -0.513664 0.078853
v 0.080140 -0.133064 0.034883
v 0.080930 -0.133044 0.005213
v 0.189440 -0.254324 0.018213
v 0.188430 -0.256684 0.025333
v 0.000450 0.021506 -0.034587
v -0.002580 0.021156 -0.011967
v 0.185360 0.024546 0.013923
v 0.188390 0.024906 -0.008687
v 0.005210 -0.266204 -0.009417
v 0.008100 -0.270854 -0.030367
v -0.009570 -0.513664 0.078853
v -0.012470 -0.509014 0.099803
v 0.188430 -0.256684 0.025333
v 0.140150 -0.344224 0.032013
v 0.143050 -0.348874 0.011063
v 0.192990 -0.180414 -0.028397
v 0.190090 -0.175754 -0.007447
v -0.012470 -0.509014 0.099803
v 0.189440 -0.254324 0.018213
v -0.012470 -0.509014 0.099803
v -0.009570 -0.513664 0.078853
v 0.190360 -0.173464 -0.007327
v 0.193250 -0.178114 -0.028277
v 0.188390 0.024906 -0.008687
v 0.185360 0.024546 0.013923
v 0.005240 -0.180274 -0.053817
v 0.002340 -0.175614 -0.032867
v -0.002580 0.021156 -0.011967
v 0.000450 0.021506 -0.034587
v 0.000450 0.021506 -0.034587
v 0.188390 0.024906 -0.008687
vt -0.129300 1.110000
vt 0.080180 1.103870
vt 0.073710 0.991390
vt -0.061460 1.000220
vt -0.129070 1.107200
vt -0.280800 1.035900
vt -0.145630 1.044320
vt -0.139180 0.931490
vt -0.348650 0.926030
vt -0.348420 0.928810
vt -0.079550 0.896880
vt -0.298880 1.139610
vt 0.854050 0.906630
vt 0.834700 0.947630
vt 0.917640 1.004940
vt 0.950060 0.965580
vt 0.912900 0.908450
vt 1.060290 0.642730
vt 1.023570 0.699950
vt 1.055000 0.738430
vt 1.137320 0.681050
vt 1.119250 0.640850
vt 0.919450 1.173200
vt 0.976140 1.064240
vt 0.832460 1.173200
vt 0.996580 0.797710
vt 1.053540 0.906630
vt 1.140850 0.906630
vt 0.303810 1.109980
vt 0.514330 1.104690
vt 0.507110 0.992180
vt 0.371300 1.000470
vt 0.304090 1.107180
vt 0.157450 1.029020
vt 0.293240 1.036870
vt 0.300490 0.924340
vt 0.090010 0.919740
vt 0.090300 0.922530
vt 0.352390 0.897050
vt 0.138510 1.132500
vt 0.170710 0.906630
vt 0.148610 0.947460
vt 0.230440 1.006260
vt 0.265860 0.966170
vt 0.229910 0.907780
vt 0.748680 0.908010
vt 0.712660 0.966260
vt 0.744550 1.005190
vt 0.826160 0.946600
vt 0.807610 0.906630
vt 0.231360 1.172440
vt 0.289990 1.064350
vt 0.144060 1.172440
vt 0.686870 1.064910
vt 0.745160 1.173300
vt 0.832460 1.173300
vt 0.892190 0.092830
vt 0.950080 -0.015840
vt 0.892210 -0.075510
vt 0.809910 -0.133760
vt 0.805150 0.092830
vt -0.186940 0.947390
vt -0.268540 1.006010
vt -0.326070 1.065730
vt -0.267630 1.174090
vt -0.180600 1.174090
vt 0.829670 -0.174090
vt 0.925070 -0.114690
vt 0.888570 -0.172640
vt -0.264170 0.908790
vt -0.300270 0.967070
vt -0.205570 0.907430
vt -0.060550 0.382630
vt 0.075270 0.389300
vt 0.081150 0.276450
vt -0.129300 0.273690
vt -0.129010 0.276470
vt 0.570330 0.231130
vt 0.519650 0.441120
vt 0.588060 0.335080
vt -0.078200 0.486520
vt 0.519340 0.443890
vt 0.729910 0.441590
vt 0.723950 0.328710
vt 0.408850 0.264570
vt 0.355610 0.384980
vt 0.417330 0.441470
vt 0.497460 0.502090
vt 0.497460 0.268670
vt 0.843010 0.330740
vt 0.748150 0.375090
vt 0.700680 0.418740
vt 0.753650 0.536510
vt 0.843010 0.533730
vt 0.485280 0.535680
vt 0.387070 0.482340
vt 0.426110 0.537330
vt 0.771800 0.280090
vt 0.726010 0.330640
vt 0.830330 0.291200
vt 0.588630 1.034680
vt 0.724460 1.040670
vt 0.729770 0.928020
vt 0.519340 0.926300
vt 0.519640 0.929080
vt -0.296490 0.232670
vt -0.348350 0.442580
vt -0.279370 0.336740
vt 0.571520 1.138430
vt -0.348650 0.445350
vt -0.138230 0.443840
vt -0.143540 0.330870
vt 1.174530 0.241610
vt 1.198410 0.240930
vt 1.262430 0.009490
vt 1.237780 0.003770
vt 1.177230 0.354900
vt 1.201110 0.354220
vt 0.090010 0.689650
vt 1.268310 0.209320
vt 1.292290 0.210410
vt 1.348650 -0.005530
vt 1.324670 -0.006620
vt -0.129300 1.348650
vt 0.483700 0.329040
vt 0.508960 0.328860
vt 0.508960 0.096840
vt 0.483700 0.097020
vt 1.238550 0.664640
vt 1.262430 0.663960
vt 1.262430 0.421710
vt 1.286420 0.422800
vt 1.286960 0.425560
vt 1.262980 0.424470
vt 1.323800 0.664640
vt 1.348650 0.659350
vt 1.027710 1.048680
vt 1.174090 1.170260
vt -0.129300 0.689410
vt -0.338680 0.682500
vt -0.119380 1.348650
vt 0.090010 1.341060
vt 0.884430 0.258550
vt 0.883550 0.243010
vt 0.795650 0.244180
vt 0.796520 0.259730
vt 0.040740 1.121870
vt 0.040770 1.114410
vt -0.024630 1.118460
vt -0.024660 1.125920
vt -0.136640 1.048530
vt -0.136660 1.033060
vt -0.180600 1.043900
vt -0.180540 1.051390
vt 1.141970 0.259730
vt 1.139170 0.251720
vt 0.113260 1.051390
vt 0.113240 1.035930
vt 0.632300 0.686380
vt 0.632640 0.693910
vt 0.693260 0.693910
vt 0.692640 0.686400
vt 0.999520 0.231740
vt 1.023510 0.231010
vt 1.087590 -0.000590
vt 1.062820 -0.006250
vt 0.302590 0.629280
vt 0.299870 0.637250
vt 0.444830 0.637250
vt 0.447820 0.629340
vt 0.944010 0.783000
vt 0.136060 1.125920
vt 0.135980 1.118210
vt 0.797260 0.904990
vt 1.002040 0.345030
vt 1.026030 0.344290
vt 0.519340 0.680350
vt 1.004780 0.893880
vt 1.028800 0.894550
vt 1.089660 0.665310
vt 1.065640 0.664640
vt 0.303810 1.348650
vt 0.483700 0.099980
vt 0.458410 0.100140
vt 0.458410 0.332150
vt 0.483700 0.331990
vt 1.063600 0.664640
vt 1.087590 0.663910
vt 0.999520 1.106950
vt 1.023540 1.107620
vt 1.024110 1.110370
vt 1.000090 1.109700
vt 1.064880 1.348650
vt 1.089660 1.342930
vt 0.344060 1.048610
vt 0.488880 1.169800
vt 0.303810 0.680830
vt 0.093350 0.674760
vt 0.308870 1.348650
vt 0.519340 1.341890
vt 0.235760 0.657070
vt 0.232980 0.638090
vt 0.145080 0.639280
vt 0.147850 0.658270
vt -0.116050 1.127810
vt -0.116370 1.102500
vt -0.180600 1.102500
vt -0.180290 1.127810
vt -0.136710 0.944060
vt -0.132820 0.907430
vt -0.178150 0.921860
vt -0.180600 0.947200
vt 0.493290 0.658270
vt 0.490500 0.650260
vt 0.113170 0.947200
vt 0.114560 0.928380
vt 0.076630 0.975820
vt 0.079290 1.001010
vt 0.139960 1.001010
vt 0.137020 0.975840
vt 0.152890 0.629110
vt 0.150680 0.637250
vt 0.297380 0.637250
vt 0.299870 0.629160
vt 0.634120 1.050240
vt -0.025120 1.119460
vt -0.024660 1.111700
vt 0.488880 1.172080
vt -0.378690 1.051060
vt 0.140930 1.114410
vt 0.140720 1.106900
vt 0.042040 1.102500
vt 0.042230 1.109880
vt 1.001820 -0.030880
vt -0.024660 1.107030
vt -0.024470 1.114410
vt -0.137570 1.100370
vt -0.137830 1.085030
vt -0.180600 1.095070
vt -0.180420 1.102500
vt 0.884250 0.241800
vt 0.883420 0.226260
vt 0.795650 0.227480
vt 0.796460 0.243010
vt 1.141460 0.243010
vt 1.138700 0.235000
vt 0.521520 0.681370
vt 0.732060 0.677620
vt 0.111560 1.102500
vt 0.111290 1.087160
vt 0.693260 0.686350
vt 0.693660 0.693910
vt 0.753910 0.693910
vt 0.753240 0.686370
vt 0.085160 0.689650
vt 0.498300 0.685690
vt 0.496390 0.693910
vt 0.630120 0.693910
vt 0.632300 0.685740
vt 0.858500 0.774370
vt 0.833380 0.774800
vt 0.833380 1.006040
vt 0.858500 1.005610
vt 1.203830 1.042290
vt 1.179820 1.042870
vt 1.242190 1.348650
vt 1.266200 1.348070
vt -0.523220 1.172890
vt 0.391450 0.219890
vt 0.367430 0.219380
vt 0.362770 0.434110
vt 0.386790 0.434630
vt 0.732060 0.028180
vt 1.146980 0.090710
vt 0.454540 -0.002370
vt 0.430530 -0.002880
vt 0.387370 0.437380
vt 0.363350 0.436870
vt 0.429810 0.674760
vt 0.454540 0.668890
vt 1.177600 0.930840
vt 1.201610 0.930250
vt 1.266200 0.700520
vt 1.241430 0.694750
vt 0.085160 0.033990
vt -0.125250 0.029780
vt 0.648540 0.402530
vt -0.023300 1.085030
vt -0.022690 1.052520
vt -0.106440 1.051390
vt -0.117030 1.085030
vt 0.304980 0.402760
vt -0.164600 1.054240
vt -0.180600 1.083350
vt 0.842530 0.297940
vt 0.830360 0.264570
vt 0.406650 0.658950
vt 0.408080 0.693050
vt 0.496390 0.693910
vt 0.496390 0.658270
vt 0.145080 0.681660
vt 0.148060 0.689620
vt -0.345510 0.682500
vt -0.135120 0.679530
vt 0.076630 0.982810
vt 0.076630 0.947200
vt -0.180600 0.952850
vt -0.145040 0.959260
vt 0.142340 0.975820
vt 0.136820 0.953190
vt 0.076630 0.947200
vt 0.082530 0.975820
vt 0.732860 1.348650
vt 0.123510 1.084090
vt 0.119100 1.051390
vt -0.020850 1.075870
vt -0.022690 1.084090
vt 0.833380 0.774050
vt 0.808240 0.774370
vt 0.808240 1.006040
vt 0.833380 1.005710
vt 1.116250 1.032070
vt 1.092340 1.032700
vt 1.153690 1.348650
vt 1.177600 1.348020
vt 0.497460 0.516820
vt 1.117470 0.211010
vt 1.093470 0.209980
vt 1.087590 0.421780
vt 1.111590 0.422800
vt -0.135120 0.020290
vt 0.150680 0.288190
vt 1.174530 -0.008970
vt 1.150530 -0.009990
vt 1.112140 0.425560
vt 1.088140 0.424530
vt 1.149690 0.664640
vt 1.174530 0.659280
vt 1.089660 0.919600
vt 1.113570 0.918970
vt 1.177600 0.687790
vt 1.152920 0.682030
vt 0.732860 0.684570
vt 0.522470 0.681370
vn -0.7295 0.1482 0.6677
vn 0.7541 0.1064 0.6480
vn 0.7054 -0.0872 0.7035
vn -0.0188 -0.0813 0.9965
vn -0.7474 0.1297 0.6516
vn 0.0188 0.0813 -0.9965
vn 0.6882 0.0761 -0.7215
vn 0.6763 -0.0910 -0.7310
vn -0.7217 -0.0385 -0.6912
vn -0.6770 0.1751 -0.7148
vn -0.7145 0.2858 0.6386
vn -0.6056 0.4406 -0.6627
vn 0.7002 -0.5855 -0.4085
vn 0.1462 -0.8369 -0.5274
vn 0.0433 -0.1435 -0.9887
vn 0.4036 0.4078 -0.8190
vn 0.6741 0.2607 -0.6911
vn 0.7282 0.5132 0.4542
vn 0.4514 0.6977 0.5563
vn 0.0152 0.1954 0.9806
vn 0.1505 -0.5631 0.8126
vn 0.6610 -0.2774 0.6972
vn -0.6816 -0.0992 -0.7250
vn 0.0697 -0.1510 -0.9861
vn -0.5898 -0.6808 -0.4344
vn -0.0264 0.2081 0.9778
vn -0.7271 0.1507 0.6698
vn -0.5881 -0.4259 0.6876
vn 0.0056 0.8053 0.5928
vn -0.0452 -0.6702 0.7408
vn -0.2472 -0.6169 0.7473
vn -0.2924 0.1334 0.9469
vn -0.0072 0.8207 0.5714
vn 0.2924 -0.1334 -0.9469
vn 0.2165 -0.7670 -0.6041
vn 0.0630 -0.7585 -0.6486
vn 0.1187 0.6347 -0.7636
vn 0.3324 0.5918 -0.7344
vn 0.1437 0.7877 0.5991
vn 0.5727 0.5341 -0.6218
vn -0.4670 -0.7553 -0.4599
vn -0.6798 -0.2215 -0.6992
vn 0.1373 -0.0985 -0.9856
vn 0.6033 -0.4566 -0.6539
vn 0.4104 -0.7344 -0.5406
vn 0.3854 -0.6877 0.6153
vn 0.5571 -0.3653 0.7457
vn -0.0234 0.1035 0.9944
vn -0.7272 -0.0820 0.6815
vn -0.4355 -0.6040 0.6675
vn 0.0859 0.6344 -0.7682
vn 0.1342 -0.1285 -0.9826
vn -0.5680 0.5675 -0.5962
vn -0.0099 0.1447 0.9894
vn 0.0079 0.7864 0.6177
vn -0.5473 0.6489 0.5285
vn 0.1378 -0.7660 -0.6279
vn 0.1468 -0.0548 -0.9876
vn 0.1408 -0.0817 -0.9867
vn 0.8273 0.1210 -0.5486
vn 0.7132 -0.6034 -0.3567
vn 0.5536 0.2896 0.7808
vn -0.1960 0.1356 0.9712
vn -0.2063 0.0934 0.9740
vn -0.1092 -0.6380 0.7623
vn 0.4586 -0.4656 0.7569
vn 0.5447 0.6709 -0.5031
vn -0.4300 0.2665 -0.8626
vn -0.2986 0.5596 -0.7731
vn -0.5537 0.7526 0.3565
vn -0.7222 0.4820 0.4961
vn 0.2394 0.7631 0.6003
vn -0.0825 -0.1193 -0.9894
vn -0.1226 0.5806 -0.8049
vn 0.0507 0.5768 -0.8153
vn 0.0797 -0.8045 -0.5885
vn -0.1335 -0.7756 -0.6170
vn -0.2397 -0.6402 0.7299
vn -0.0847 -0.6590 0.7474
vn 0.0825 0.1192 0.9894
vn -0.4023 -0.7143 -0.5726
vn -0.1066 -0.6405 0.7606
vn -0.1511 0.8272 0.5413
vn 0.0379 0.7987 0.6005
vn 0.7794 0.0517 -0.6244
vn 0.0833 -0.0145 -0.9964
vn 0.0909 0.0772 -0.9929
vn -0.4524 0.8660 -0.2129
vn 0.5519 0.6388 -0.5360
vn -0.1474 0.7319 0.6652
vn -0.1369 0.0331 0.9900
vn -0.0933 -0.0050 0.9956
vn 0.6456 0.0054 0.7637
vn 0.4899 0.6139 0.6190
vn -0.8144 0.3853 -0.4339
vn -0.3920 -0.5562 -0.7328
vn -0.7947 -0.2521 -0.5522
vn -0.6109 -0.3102 0.7284
vn -0.5028 -0.4637 0.7295
vn -0.4664 0.1942 0.8630
vn 0.1142 -0.2910 -0.9499
vn -0.5895 -0.2484 -0.7686
vn -0.5722 -0.0818 -0.8160
vn 0.8080 -0.0967 -0.5812
vn 0.7652 -0.3074 -0.5657
vn 0.6244 -0.1117 0.7731
vn 0.6515 0.0299 0.7581
vn -0.1142 0.2910 0.9499
vn 0.6921 -0.5454 -0.4728
vn 0.6319 0.0119 0.7750
vn -0.8352 0.0189 0.5496
vn -0.7954 0.2058 0.5700
vn 0.7541 0.1064 0.6481
vn 0.5710 -0.4007 0.7165
vn 0.5780 -0.7114 -0.3997
vn 0.2970 0.7059 0.6430
vn -0.7145 0.2857 0.6387
vn 0.2969 0.7059 0.6431
vn 0.3406 0.8300 -0.4416
vn 0.5711 -0.4007 0.7165
vn -0.5742 -0.3951 0.7171
vn -0.5856 -0.7065 -0.3974
vn 0.2969 0.7060 0.6430
vn -0.6771 0.1751 -0.7148
vn -0.7474 0.1298 0.6516
vn -0.7217 -0.0385 -0.6911
vn -0.5742 -0.3950 0.7171
vn 0.4910 0.3010 -0.8175
vn -0.3087 0.5429 -0.7810
vn -0.5855 -0.7066 -0.3974
vn -0.5741 -0.3951 0.7171
vn -0.5898 -0.6808 -0.4345
vn -0.5881 -0.4258 0.6876
vn 0.4035 0.4078 -0.8191
vn -0.2536 0.9401 0.2279
vn 0.7003 -0.5854 -0.4085
vn 0.6741 0.2608 -0.6911
vn -0.5521 -0.4900 0.6746
vn -0.6118 -0.6336 -0.4736
vn 0.5104 0.6639 0.5466
vn 0.4910 0.3011 -0.8175
vn 0.5104 0.6639 0.5465
vn -0.2536 0.9401 0.2278
vn -0.2472 -0.6168 0.7473
vn 0.5522 -0.2089 0.8071
vn 0.5727 0.5341 -0.6219
vn 0.1436 0.7877 0.5991
vn 0.5523 -0.2089 0.8071
vn 0.9024 -0.3748 -0.2128
vn 0.9023 -0.3748 -0.2129
vn -0.5373 0.6472 0.5408
vn -0.5979 0.5222 -0.6081
vn 0.9023 -0.3747 -0.2129
vn 0.3323 0.5917 -0.7344
vn -0.0072 0.8206 0.5714
vn -0.5979 0.5221 -0.6082
vn -0.5373 0.6472 0.5407
vn 0.5265 -0.5659 -0.6345
vn 0.7298 0.2378 -0.6410
vn -0.6118 -0.6335 -0.4736
vn -0.5679 0.5675 -0.5962
vn -0.5474 0.6488 0.5286
vn 0.5572 -0.3653 0.7457
vn 0.4103 -0.7344 -0.5406
vn -0.6798 -0.2215 -0.6991
vn -0.4670 -0.7553 -0.4598
vn 0.8503 0.2928 0.4373
vn 0.7298 0.2377 -0.6410
vn -0.5680 0.5675 -0.5961
vn -0.4356 -0.6040 0.6675
vn -0.4669 -0.7553 -0.4599
vn 0.4103 -0.7344 -0.5407
vn 0.5216 -0.4269 0.7387
vn 0.5266 -0.5659 -0.6344
vn 0.7298 0.2379 -0.6409
vn 0.8503 0.2927 0.4373
vn 0.5266 -0.5659 -0.6343
vn 0.5215 -0.4268 0.7388
vn -0.6919 0.5409 0.4782
vn -0.3284 0.3591 -0.8736
vn -0.6919 0.5410 0.4782
vn -0.4300 0.2664 -0.8626
vn -0.3285 0.3591 -0.8736
vn -0.5537 0.7525 0.3565
vn -0.2986 0.5595 -0.7732
vn 0.5448 0.6709 -0.5031
vn 0.2394 0.7632 0.6002
vn -0.1092 -0.6380 0.7622
vn -0.9242 -0.2732 0.2669
vn -0.5245 -0.4408 -0.7284
vn 0.4271 -0.4496 0.7845
vn 0.3676 0.6836 0.6305
vn 0.5448 0.6710 -0.5030
vn -0.8521 0.2209 -0.4745
vn -0.6919 0.5409 0.4783
vn -0.5244 -0.4408 -0.7285
vn 0.6774 0.5583 -0.4790
vn 0.3676 0.6837 0.6305
vn 0.7386 -0.5929 -0.3208
vn 0.0380 0.7988 0.6004
vn -0.1226 0.5807 -0.8048
vn -0.8521 0.2209 -0.4744
vn -0.7234 0.3316 0.6056
vn -0.2397 -0.6401 0.7299
vn -0.7234 0.3315 0.6056
vn -0.5245 -0.4407 -0.7285
vn -0.1065 -0.6405 0.7605
vn 0.0797 -0.8045 -0.5886
vn 0.4271 -0.4495 0.7846
vn 0.0508 0.5768 -0.8153
vn -0.1510 0.8272 0.5413
vn 0.7387 -0.5928 -0.3208
vn -0.5127 -0.4870 0.7070
vn -0.4271 -0.5430 -0.7230
vn -0.5127 -0.4871 0.7070
vn -0.5028 -0.4636 0.7296
vn -0.7947 -0.2521 -0.5523
vn -0.4523 0.8660 -0.2132
vn 0.7794 0.0516 -0.6244
vn 0.4900 0.6139 0.6190
vn 0.1496 -0.8064 0.5722
vn 0.3971 -0.8060 -0.4390
vn 0.4771 0.5506 0.6850
vn -0.6576 0.5345 0.5309
vn 0.4900 0.6138 0.6190
vn -0.4524 0.8660 -0.2131
vn -0.1474 0.7321 0.6651
vn -0.4663 0.1942 0.8630
vn -0.2573 -0.9216 -0.2907
vn -0.5128 -0.4870 0.7070
vn -0.4272 -0.5430 -0.7230
vn 0.1495 -0.8064 0.5722
vn -0.5119 0.5979 -0.6168
vn -0.6575 0.5345 0.5310
vn 0.4770 0.5507 0.6850
vn 0.6408 0.6154 -0.4590
vn -0.7954 0.2059 0.5700
vn -0.2572 -0.9216 -0.2906
vn -0.3643 -0.5689 0.7373
vn 0.1497 -0.8063 0.5722
vn 0.6921 -0.5453 -0.4728
vn -0.3643 -0.5689 0.7374
vn -0.3643 -0.5688 0.7374
vn -0.2573 -0.9216 -0.2906
vn 0.8080 -0.0967 -0.5811
vn 0.6408 0.6155 -0.4588
vn 0.4771 0.5507 0.6849
vn -0.5722 -0.0817 -0.8160
vn -0.8353 0.0189 0.5495
vn -0.6576 0.5345 0.5310
vn -0.5119 0.5980 -0.6168
vn -0.5118 0.5980 -0.6168
usemtl Material.001
s 1
f 1/1/1 2/2/2 3/3/3
f 3/3/3 4/4/4 5/5/5
f 3/3/3 5/5/5 1/1/1
f 6/6/6 7/7/7 8/8/8
f 8/8/8 9/9/9 10/10/10
f 8/8/8 10/10/10 6/6/6
f 11/11/11 5/5/5 4/4/4
f 10/10/10 12/12/12 6/6/6
f 13/13/13 14/14/14 15/15/15
f 15/15/15 16/16/16 17/17/17
f 15/15/15 17/17/17 13/13/13
f 18/18/18 19/19/19 20/20/20
f 20/20/20 21/21/21 22/22/22
f 20/20/20 22/22/22 18/18/18
f 23/23/23 24/24/24 15/15/15
f 15/15/15 14/14/14 25/25/25
f 15/15/15 25/25/25 23/23/23
f 21/21/21 20/20/20 26/26/26
f 26/26/26 27/27/27 28/28/28
f 26/26/26 28/28/28 21/21/21
f 29/29/29 30/30/30 31/31/31
f 31/31/31 32/32/32 33/33/33
f 31/31/31 33/33/33 29/29/29
f 34/34/34 35/35/35 36/36/36
f 36/36/36 37/37/37 38/38/38
f 36/36/36 38/38/38 34/34/34
f 39/39/39 33/33/33 32/32/32
f 38/38/38 40/40/40 34/34/34
f 41/41/41 42/42/42 43/43/43
f 43/43/43 44/44/44 45/45/45
f 43/43/43 45/45/45 41/41/41
f 46/46/46 47/47/47 48/48/48
f 48/48/48 49/49/49 50/50/50
f 48/48/48 50/50/50 46/46/46
f 51/51/51 52/52/52 43/43/43
f 43/43/43 42/42/42 53/53/53
f 43/43/43 53/53/53 51/51/51
f 49/49/49 48/48/48 54/54/54
f 54/54/54 55/55/55 56/56/56
f 54/54/54 56/56/56 49/49/49
f 57/57/57 58/58/58 59/59/59
f 59/59/59 60/60/60 61/61/61
f 59/59/59 61/61/61 57/57/57
f 62/62/62 63/63/63 64/64/64
f 64/64/64 65/65/65 66/66/66
f 64/64/64 66/66/66 62/62/62
f 67/67/67 60/60/60 59/59/59
f 59/59/59 68/68/68 69/69/69
f 59/59/59 69/69/69 67/67/67
f 70/70/70 71/71/71 63/63/63
f 63/63/63 62/62/62 72/72/72
f 63/63/63 72/72/72 70/70/70
f 73/73/73 74/74/74 75/75/75
f 75/75/75 76/76/76 77/77/77
f 75/75/75 77/77/77 73/73/73
f 78/78/78 79/79/79 80/80/80
f 77/77/77 81/81/81 73/73/73
f 82/82/82 83/83/83 84/84/84
f 84/84/84 80/80/80 79/79/79
f 84/84/84 79/79/79 82/82/82
f 85/85/85 86/86/86 87/87/87
f 87/87/87 88/88/88 89/89/89
f 87/87/87 89/89/89 85/85/85
f 90/90/90 91/91/91 92/92/92
f 92/92/92 93/93/93 94/94/94
f 92/92/92 94/94/94 90/90/90
f 95/95/95 88/88/88 87/87/87
f 87/87/87 96/96/96 97/97/97
f 87/87/87 97/97/97 95/95/95
f 98/98/98 99/99/99 91/91/91
f 91/91/91 90/90/90 100/100/100
f 91/91/91 100/100/100 98/98/98
f 101/101/101 102/102/102 103/103/103
f 103/103/103 104/104/104 105/105/105
f 103/103/103 105/105/105 101/101/101
f 106/106/106 107/107/107 108/108/108
f 105/105/105 109/109/109 101/101/101
f 110/110/110 111/111/111 112/112/112
f 112/112/112 108/108/108 107/107/107
f 112/112/112 107/107/107 110/110/110
f 113/113/8 114/114/113 115/115/114
f 113/113/8 115/115/114 116/116/115
f 113/113/8 117/117/7 118/118/3
f 113/113/8 118/118/3 114/114/113
f 11/11/11 4/4/4 3/3/3
f 11/11/11 3/3/3 119/119/116
f 120/120/12 121/121/117 122/122/118
f 120/120/12 122/122/118 123/123/119
f 7/7/7 6/6/6 12/12/12
f 7/7/7 12/12/12 124/124/119
f 125/125/115 126/126/120 127/127/121
f 125/125/115 127/127/121 128/128/122
f 118/118/3 117/117/7 129/129/119
f 118/118/3 129/129/119 130/130/123
f 121/121/117 120/120/12 131/131/124
f 121/121/117 131/131/124 132/132/125
f 133/133/1 132/132/125 131/131/124
f 133/133/1 131/131/124 134/134/126
f 133/133/1 134/134/126 135/135/122
f 133/133/1 135/135/122 136/136/127
f 137/137/128 24/24/24 23/23/23
f 137/137/128 23/23/23 138/138/129
f 9/9/9 8/8/8 139/139/115
f 9/9/9 139/139/115 140/140/130
f 2/2/2 1/1/1 141/141/131
f 2/2/2 141/141/131 142/142/114
f 143/143/27 144/144/23 145/145/132
f 143/143/27 145/145/132 146/146/133
f 147/147/134 148/148/19 149/149/18
f 147/147/134 149/149/18 150/150/17
f 151/151/21 152/152/14 153/153/13
f 151/151/21 153/153/13 154/154/22
f 155/155/135 156/156/129 144/144/23
f 155/155/135 144/144/23 143/143/27
f 157/157/28 158/158/25 152/152/14
f 157/157/28 152/152/14 151/151/21
f 159/159/22 160/160/136 161/161/137
f 159/159/22 161/161/137 162/162/18
f 163/163/36 164/164/30 165/165/138
f 163/163/36 165/165/138 166/166/139
f 167/167/140 168/168/141 169/169/129
f 167/167/140 169/169/129 170/170/135
f 19/19/19 171/171/142 26/26/26
f 19/19/19 26/26/26 20/20/20
f 137/137/128 16/16/16 15/15/15
f 137/137/128 15/15/15 24/24/24
f 172/172/141 173/173/140 148/148/19
f 172/172/141 148/148/19 147/147/134
f 26/26/26 171/171/142 174/174/143
f 26/26/26 174/174/143 27/27/27
f 163/163/36 175/175/35 176/176/144
f 163/163/36 176/176/144 164/164/30
f 39/39/39 32/32/32 31/31/31
f 39/39/39 31/31/31 177/177/145
f 178/178/146 179/179/147 180/180/148
f 178/178/146 180/180/148 181/181/149
f 35/35/35 34/34/34 40/40/40
f 35/35/35 40/40/40 182/182/150
f 183/183/139 184/184/138 185/185/151
f 183/183/139 185/185/151 186/186/152
f 176/176/144 175/175/35 187/187/153
f 176/176/144 187/187/153 188/188/148
f 179/179/147 178/178/146 189/189/154
f 179/179/147 189/189/154 190/190/155
f 191/191/29 190/190/155 189/189/154
f 191/191/29 189/189/154 192/192/37
f 191/191/29 192/192/37 193/193/156
f 191/191/29 193/193/156 194/194/157
f 195/195/158 52/52/52 51/51/51
f 195/195/158 51/51/51 196/196/159
f 37/37/37 36/36/36 197/197/160
f 37/37/37 197/197/160 198/198/156
f 30/30/30 29/29/29 199/199/157
f 30/30/30 199/199/157 200/200/138
f 201/201/55 202/202/51 203/203/161
f 201/201/55 203/203/161 204/204/162
f 205/205/44 206/206/163 207/207/46
f 205/205/44 207/207/46 208/208/164
f 209/209/49 210/210/165 211/211/166
f 209/209/49 211/211/166 212/212/50
f 213/213/167 214/214/168 202/202/51
f 213/213/167 202/202/51 201/201/55
f 215/215/56 216/216/169 210/210/165
f 215/215/56 210/210/165 209/209/49
f 217/217/170 218/218/171 219/219/172
f 217/217/170 219/219/172 220/220/46
f 221/221/173 222/222/174 223/223/175
f 221/221/173 223/223/175 224/224/176
f 47/47/47 225/225/173 54/54/54
f 47/47/47 54/54/54 48/48/48
f 195/195/158 44/44/44 43/43/43
f 195/195/158 43/43/43 52/52/52
f 226/226/177 227/227/178 206/206/163
f 226/226/177 206/206/163 205/205/44
f 54/54/54 225/225/173 228/228/167
f 54/54/54 228/228/167 55/55/55
f 71/71/71 229/229/179 64/64/64
f 71/71/71 64/64/64 63/63/63
f 230/230/180 231/231/181 232/232/71
f 230/230/180 232/232/71 233/233/182
f 234/234/183 68/68/68 59/59/59
f 234/234/183 59/59/59 58/58/58
f 233/233/182 232/232/71 235/235/184
f 233/233/182 235/235/184 236/236/185
f 237/237/62 238/238/60 239/239/186
f 237/237/62 239/239/186 240/240/187
f 241/241/188 242/242/57 243/243/61
f 241/241/188 243/243/61 244/244/66
f 245/245/189 246/246/190 242/242/57
f 245/245/189 242/242/57 241/241/188
f 83/83/83 82/82/82 247/247/191
f 83/83/83 247/247/191 248/248/192
f 249/249/66 250/250/61 238/238/60
f 249/249/66 238/238/60 237/237/62
f 251/251/72 252/252/193 253/253/185
f 251/251/72 253/253/185 254/254/70
f 74/74/74 73/73/73 81/81/81
f 74/74/74 81/81/81 255/255/194
f 256/256/195 257/257/183 258/258/196
f 256/256/195 258/258/196 259/259/189
f 260/260/197 261/261/198 262/262/191
f 260/260/197 262/262/191 263/263/199
f 264/264/200 265/265/201 266/266/202
f 264/264/200 266/266/202 267/267/203
f 64/64/64 229/229/179 268/268/189
f 64/64/64 268/268/189 65/65/65
f 269/269/204 270/270/81 271/271/77
f 269/269/204 271/271/77 272/272/79
f 78/78/78 80/80/80 84/84/84
f 78/78/78 84/84/84 273/273/205
f 234/234/183 58/58/58 57/57/57
f 234/234/183 57/57/57 274/274/206
f 270/270/81 269/269/204 275/275/203
f 270/270/81 275/275/203 276/276/194
f 277/277/207 278/278/208 279/279/199
f 277/277/207 279/279/199 280/280/209
f 277/277/207 272/272/79 271/271/77
f 277/277/207 271/271/77 278/278/208
f 281/281/210 265/265/201 264/264/200
f 281/281/210 264/264/200 282/282/211
f 281/281/210 282/282/211 283/283/192
f 281/281/210 283/283/192 284/284/197
f 76/76/76 75/75/75 285/285/197
f 76/76/76 285/285/197 286/286/212
f 99/99/99 287/287/213 92/92/92
f 99/99/99 92/92/92 91/91/91
f 288/288/214 289/289/215 290/290/216
f 288/288/214 290/290/216 291/291/96
f 292/292/214 96/96/96 87/87/87
f 292/292/214 87/87/87 86/86/86
f 291/291/96 290/290/216 293/293/98
f 291/291/96 293/293/98 294/294/217
f 90/90/90 295/295/218 296/296/95
f 90/90/90 296/296/95 100/100/100
f 297/297/93 298/298/219 299/299/89
f 297/297/93 299/299/89 300/300/220
f 301/301/221 302/302/222 298/298/219
f 301/301/221 298/298/219 297/297/93
f 111/111/111 110/110/110 303/303/223
f 111/111/111 303/303/223 304/304/224
f 305/305/225 306/306/89 307/307/226
f 305/305/225 307/307/226 308/308/227
f 309/309/228 310/310/95 311/311/97
f 309/309/228 311/311/97 312/312/98
f 102/102/102 101/101/101 109/109/109
f 102/102/102 109/109/109 313/313/229
f 314/314/230 315/315/231 316/316/222
f 314/314/230 316/316/222 317/317/232
f 318/318/233 319/319/234 320/320/235
f 318/318/233 320/320/235 321/321/236
f 322/322/237 323/323/102 324/324/238
f 322/322/237 324/324/238 325/325/239
f 92/92/92 287/287/213 326/326/240
f 92/92/92 326/326/240 93/93/93
f 327/327/106 328/328/241 329/329/105
f 327/327/106 329/329/105 330/330/107
f 106/106/106 108/108/108 112/112/112
f 106/106/106 112/112/112 331/331/242
f 292/292/214 86/86/86 85/85/85
f 292/292/214 85/85/85 332/332/222
f 328/328/241 327/327/106 333/333/243
f 328/328/241 333/333/243 334/334/244
f 335/335/110 336/336/245 337/337/246
f 335/335/110 337/337/246 338/338/247
f 335/335/110 330/330/107 329/329/105
f 335/335/110 329/329/105 336/336/245
f 339/339/248 323/323/102 322/322/237
f 339/339/248 322/322/237 340/340/249
f 339/339/248 340/340/249 341/341/250
f 339/339/248 341/341/250 342/342/251
f 104/104/104 103/103/103 343/343/252
f 104/104/104 343/343/252 344/344/246
