# This file uses centimeters as units for non-parametric coordinates.

mtllib Voladores_Palo_01.mtl
g default
v 7.504949 0.000000 -2.438505
v 6.384091 0.000000 -4.638312
v 4.638313 0.000000 -6.384089
v 2.438505 0.000000 -7.504947
v 0.000000 0.000000 -7.891168
v -2.438505 0.000000 -7.504947
v -4.638312 0.000000 -6.384088
v -6.384088 0.000000 -4.638311
v -7.504945 0.000000 -2.438504
v -7.891167 0.000000 0.000001
v -7.504945 0.000000 2.438505
v -6.384088 0.000000 4.638311
v -4.638310 0.000000 6.384088
v -2.438504 0.000000 7.504946
v 0.000000 0.000000 7.891166
v 2.438504 0.000000 7.504945
v 4.638310 0.000000 6.384088
v 6.384087 0.000000 4.638311
v 7.504944 0.000000 2.438504
v 7.891165 0.000000 0.000001
v 7.504949 400.431458 -2.438505
v 6.384091 400.431458 -4.638312
v 4.638313 400.431458 -6.384089
v 2.438505 400.431458 -7.504947
v 0.000000 400.431458 -7.891168
v -2.438505 400.431458 -7.504947
v -4.638312 400.431458 -6.384088
v -6.384088 400.431458 -4.638311
v -7.504945 400.431458 -2.438504
v -7.891167 400.431458 0.000001
v -7.504945 400.431458 2.438505
v -6.384088 400.431458 4.638311
v -4.638310 400.431458 6.384088
v -2.438504 400.431458 7.504946
v 0.000000 400.431458 7.891166
v 2.438504 400.431458 7.504945
v 4.638310 400.431458 6.384088
v 6.384087 400.431458 4.638311
v 7.504944 400.431458 2.438504
v 7.891165 400.431458 0.000001
v 0.000000 0.000000 0.000001
v 0.000000 400.431458 0.000001
vt 0.312410 0.888295
vt 0.310761 0.885058
vt 0.308192 0.882490
vt 0.304955 0.880840
vt 0.301367 0.880272
vt 0.297779 0.880840
vt 0.294542 0.882490
vt 0.291974 0.885058
vt 0.290324 0.888295
vt 0.289756 0.891883
vt 0.290324 0.895471
vt 0.291974 0.898708
vt 0.294542 0.901277
vt 0.297779 0.902926
vt 0.301367 0.903494
vt 0.304955 0.902926
vt 0.308192 0.901277
vt 0.310761 0.898708
vt 0.312410 0.895471
vt 0.312978 0.891883
vt 0.274424 0.877013
vt 0.277119 0.877013
vt 0.279813 0.877013
vt 0.282507 0.877013
vt 0.285201 0.877013
vt 0.287896 0.877013
vt 0.290590 0.877013
vt 0.293284 0.877013
vt 0.295979 0.877013
vt 0.298673 0.877013
vt 0.301367 0.877013
vt 0.304061 0.877013
vt 0.306756 0.877013
vt 0.309450 0.877013
vt 0.312144 0.877013
vt 0.314839 0.877013
vt 0.317533 0.877013
vt 0.320227 0.877013
vt 0.322921 0.877013
vt 0.325616 0.877013
vt 0.328310 0.877013
vt 0.274424 0.958044
vt 0.277119 0.958044
vt 0.279813 0.958044
vt 0.282507 0.958044
vt 0.285201 0.958044
vt 0.287896 0.958044
vt 0.290590 0.958044
vt 0.293284 0.958044
vt 0.295979 0.958044
vt 0.298673 0.958044
vt 0.301367 0.958044
vt 0.304061 0.958044
vt 0.306756 0.958044
vt 0.309450 0.958044
vt 0.312144 0.958044
vt 0.314839 0.958044
vt 0.317533 0.958044
vt 0.320227 0.958044
vt 0.322921 0.958044
vt 0.325616 0.958044
vt 0.328310 0.958044
vt 0.312410 0.939384
vt 0.310761 0.936147
vt 0.308192 0.933578
vt 0.304955 0.931929
vt 0.301367 0.931361
vt 0.297779 0.931929
vt 0.294542 0.933578
vt 0.291974 0.936147
vt 0.290324 0.939384
vt 0.289756 0.942972
vt 0.290324 0.946560
vt 0.291974 0.949797
vt 0.294542 0.952366
vt 0.297779 0.954015
vt 0.301367 0.954583
vt 0.304955 0.954015
vt 0.308192 0.952366
vt 0.310761 0.949797
vt 0.312410 0.946560
vt 0.312978 0.942972
vt 0.301367 0.891419
vt 0.301367 0.942508
vn 0.951057 0.000000 -0.309016
vn 0.809017 0.000000 -0.587785
vn 0.809017 0.000000 -0.587785
vn 0.951057 0.000000 -0.309016
vn 0.809017 0.000000 -0.587785
vn 0.587785 0.000000 -0.809017
vn 0.587785 0.000000 -0.809017
vn 0.809017 0.000000 -0.587785
vn 0.587785 0.000000 -0.809017
vn 0.309017 0.000000 -0.951057
vn 0.309017 0.000000 -0.951057
vn 0.587785 0.000000 -0.809017
vn 0.309017 0.000000 -0.951057
vn -0.000000 0.000000 -1.000000
vn -0.000000 0.000000 -1.000000
vn 0.309017 0.000000 -0.951057
vn -0.000000 0.000000 -1.000000
vn -0.309017 0.000000 -0.951056
vn -0.309017 0.000000 -0.951056
vn -0.000000 0.000000 -1.000000
vn -0.309017 0.000000 -0.951056
vn -0.587785 0.000000 -0.809017
vn -0.587785 0.000000 -0.809017
vn -0.309017 0.000000 -0.951056
vn -0.587785 0.000000 -0.809017
vn -0.809017 0.000000 -0.587785
vn -0.809017 0.000000 -0.587785
vn -0.587785 0.000000 -0.809017
vn -0.809017 0.000000 -0.587785
vn -0.951057 0.000000 -0.309017
vn -0.951057 0.000000 -0.309017
vn -0.809017 0.000000 -0.587785
vn -0.951057 0.000000 -0.309017
vn -1.000000 0.000000 0.000000
vn -1.000000 0.000000 0.000000
vn -0.951057 0.000000 -0.309017
vn -1.000000 0.000000 0.000000
vn -0.951056 0.000000 0.309017
vn -0.951056 0.000000 0.309017
vn -1.000000 0.000000 0.000000
vn -0.951056 0.000000 0.309017
vn -0.809017 0.000000 0.587785
vn -0.809017 0.000000 0.587785
vn -0.951056 0.000000 0.309017
vn -0.809017 0.000000 0.587785
vn -0.587785 0.000000 0.809017
vn -0.587785 0.000000 0.809017
vn -0.809017 0.000000 0.587785
vn -0.587785 0.000000 0.809017
vn -0.309017 0.000000 0.951057
vn -0.309017 0.000000 0.951057
vn -0.587785 0.000000 0.809017
vn -0.309017 0.000000 0.951057
vn 0.000000 0.000000 1.000000
vn 0.000000 0.000000 1.000000
vn -0.309017 0.000000 0.951057
vn 0.000000 0.000000 1.000000
vn 0.309017 0.000000 0.951057
vn 0.309017 0.000000 0.951057
vn 0.000000 0.000000 1.000000
vn 0.309017 0.000000 0.951057
vn 0.587785 0.000000 0.809017
vn 0.587785 0.000000 0.809017
vn 0.309017 0.000000 0.951057
vn 0.587785 0.000000 0.809017
vn 0.809017 0.000000 0.587785
vn 0.809017 0.000000 0.587785
vn 0.587785 0.000000 0.809017
vn 0.809017 0.000000 0.587785
vn 0.951057 0.000000 0.309017
vn 0.951057 0.000000 0.309017
vn 0.809017 0.000000 0.587785
vn 0.951057 0.000000 0.309017
vn 1.000000 0.000000 0.000001
vn 1.000000 0.000000 0.000001
vn 0.951057 0.000000 0.309017
vn 1.000000 0.000000 0.000001
vn 0.951057 0.000000 -0.309016
vn 0.951057 0.000000 -0.309016
vn 1.000000 0.000000 0.000001
vn 0.000000 -1.000000 0.000000
vn 0.000000 -1.000000 0.000000
vn 0.000000 -1.000000 0.000000
vn 0.000000 -1.000000 0.000000
vn 0.000000 -1.000000 0.000000
vn 0.000000 -1.000000 0.000000
vn 0.000000 -1.000000 0.000000
vn 0.000000 -1.000000 0.000000
vn 0.000000 -1.000000 0.000000
vn 0.000000 -1.000000 0.000000
vn 0.000000 -1.000000 0.000000
vn 0.000000 -1.000000 0.000000
vn 0.000000 -1.000000 0.000000
vn 0.000000 -1.000000 0.000000
vn 0.000000 -1.000000 0.000000
vn 0.000000 -1.000000 0.000000
vn 0.000000 -1.000000 0.000000
vn 0.000000 -1.000000 0.000000
vn 0.000000 -1.000000 0.000000
vn 0.000000 -1.000000 0.000000
vn 0.000000 -1.000000 0.000000
vn 0.000000 -1.000000 0.000000
vn 0.000000 -1.000000 0.000000
vn 0.000000 -1.000000 0.000000
vn 0.000000 -1.000000 0.000000
vn 0.000000 -1.000000 0.000000
vn 0.000000 -1.000000 0.000000
vn 0.000000 -1.000000 0.000000
vn 0.000000 -1.000000 0.000000
vn 0.000000 -1.000000 0.000000
vn 0.000000 -1.000000 0.000000
vn 0.000000 -1.000000 0.000000
vn 0.000000 -1.000000 0.000000
vn 0.000000 -1.000000 0.000000
vn 0.000000 -1.000000 0.000000
vn 0.000000 -1.000000 0.000000
vn 0.000000 -1.000000 0.000000
vn 0.000000 -1.000000 0.000000
vn 0.000000 -1.000000 0.000000
vn 0.000000 -1.000000 0.000000
vn 0.000000 -1.000000 0.000000
vn 0.000000 -1.000000 0.000000
vn 0.000000 -1.000000 0.000000
vn 0.000000 -1.000000 0.000000
vn 0.000000 -1.000000 0.000000
vn 0.000000 -1.000000 0.000000
vn 0.000000 -1.000000 0.000000
vn 0.000000 -1.000000 0.000000
vn 0.000000 -1.000000 0.000000
vn 0.000000 -1.000000 0.000000
vn 0.000000 -1.000000 0.000000
vn 0.000000 -1.000000 0.000000
vn 0.000000 -1.000000 0.000000
vn 0.000000 -1.000000 0.000000
vn 0.000000 -1.000000 0.000000
vn 0.000000 -1.000000 0.000000
vn 0.000000 -1.000000 0.000000
vn 0.000000 -1.000000 0.000000
vn 0.000000 -1.000000 0.000000
vn 0.000000 -1.000000 0.000000
vn 0.000000 1.000000 0.000000
vn 0.000000 1.000000 0.000000
vn 0.000000 1.000000 -0.000000
vn 0.000000 1.000000 0.000000
vn 0.000000 1.000000 0.000000
vn 0.000000 1.000000 -0.000000
vn 0.000000 1.000000 0.000000
vn 0.000000 1.000000 0.000000
vn 0.000000 1.000000 -0.000000
vn 0.000000 1.000000 0.000000
vn 0.000000 1.000000 0.000000
vn 0.000000 1.000000 -0.000000
vn 0.000000 1.000000 0.000000
vn 0.000000 1.000000 -0.000003
vn 0.000000 1.000000 -0.000000
vn 0.000000 1.000000 -0.000003
vn 0.000000 1.000000 -0.000003
vn 0.000000 1.000000 -0.000000
vn 0.000000 1.000000 -0.000003
vn 0.000000 1.000000 0.000000
vn 0.000000 1.000000 -0.000000
vn 0.000000 1.000000 0.000000
vn 0.000000 1.000000 0.000000
vn 0.000000 1.000000 -0.000000
vn 0.000000 1.000000 0.000000
vn 0.000000 1.000000 0.000000
vn 0.000000 1.000000 -0.000000
vn 0.000000 1.000000 0.000000
vn 0.000000 1.000000 0.000000
vn 0.000000 1.000000 -0.000000
vn 0.000000 1.000000 0.000000
vn 0.000000 1.000000 0.000000
vn 0.000000 1.000000 -0.000000
vn 0.000000 1.000000 0.000000
vn 0.000000 1.000000 0.000006
vn 0.000000 1.000000 -0.000000
vn 0.000000 1.000000 0.000006
vn 0.000000 1.000000 0.000006
vn 0.000000 1.000000 -0.000000
vn 0.000000 1.000000 0.000006
vn 0.000000 1.000000 -0.000001
vn 0.000000 1.000000 -0.000000
vn 0.000000 1.000000 -0.000001
vn 0.000000 1.000000 -0.000005
vn 0.000000 1.000000 -0.000000
vn 0.000000 1.000000 -0.000005
vn 0.000000 1.000000 -0.000003
vn 0.000000 1.000000 -0.000000
vn 0.000000 1.000000 -0.000003
vn 0.000000 1.000000 0.000000
vn 0.000000 1.000000 -0.000000
vn 0.000000 1.000000 0.000000
vn 0.000000 1.000000 0.000000
vn 0.000000 1.000000 -0.000000
vn 0.000000 1.000000 0.000000
vn 0.000000 1.000000 0.000000
vn 0.000000 1.000000 -0.000000
vn 0.000000 1.000000 0.000000
vn 0.000000 1.000000 0.000000
vn 0.000000 1.000000 -0.000000
s off
g _hoop_from_ball_court_V1:_hoop_from_ball_court_V1:pCylinder1
usemtl _hoop_from_ball_court_V1:pCylinder1SG
f 1/21/1 2/22/2 22/43/3 21/42/4
f 2/22/5 3/23/6 23/44/7 22/43/8
f 3/23/9 4/24/10 24/45/11 23/44/12
f 4/24/13 5/25/14 25/46/15 24/45/16
f 5/25/17 6/26/18 26/47/19 25/46/20
f 6/26/21 7/27/22 27/48/23 26/47/24
f 7/27/25 8/28/26 28/49/27 27/48/28
f 8/28/29 9/29/30 29/50/31 28/49/32
f 9/29/33 10/30/34 30/51/35 29/50/36
f 10/30/37 11/31/38 31/52/39 30/51/40
f 11/31/41 12/32/42 32/53/43 31/52/44
f 12/32/45 13/33/46 33/54/47 32/53/48
f 13/33/49 14/34/50 34/55/51 33/54/52
f 14/34/53 15/35/54 35/56/55 34/55/56
f 15/35/57 16/36/58 36/57/59 35/56/60
f 16/36/61 17/37/62 37/58/63 36/57/64
f 17/37/65 18/38/66 38/59/67 37/58/68
f 18/38/69 19/39/70 39/60/71 38/59/72
f 19/39/73 20/40/74 40/61/75 39/60/76
f 20/40/77 1/41/78 21/62/79 40/61/80
f 2/2/81 1/1/82 41/83/83
f 3/3/84 2/2/85 41/83/86
f 4/4/87 3/3/88 41/83/89
f 5/5/90 4/4/91 41/83/92
f 6/6/93 5/5/94 41/83/95
f 7/7/96 6/6/97 41/83/98
f 8/8/99 7/7/100 41/83/101
f 9/9/102 8/8/103 41/83/104
f 10/10/105 9/9/106 41/83/107
f 11/11/108 10/10/109 41/83/110
f 12/12/111 11/11/112 41/83/113
f 13/13/114 12/12/115 41/83/116
f 14/14/117 13/13/118 41/83/119
f 15/15/120 14/14/121 41/83/122
f 16/16/123 15/15/124 41/83/125
f 17/17/126 16/16/127 41/83/128
f 18/18/129 17/17/130 41/83/131
f 19/19/132 18/18/133 41/83/134
f 20/20/135 19/19/136 41/83/137
f 1/1/138 20/20/139 41/83/140
f 21/81/141 22/80/142 42/84/143
f 22/80/144 23/79/145 42/84/146
f 23/79/147 24/78/148 42/84/149
f 24/78/150 25/77/151 42/84/152
f 25/77/153 26/76/154 42/84/155
f 26/76/156 27/75/157 42/84/158
f 27/75/159 28/74/160 42/84/161
f 28/74/162 29/73/163 42/84/164
f 29/73/165 30/72/166 42/84/167
f 30/72/168 31/71/169 42/84/170
f 31/71/171 32/70/172 42/84/173
f 32/70/174 33/69/175 42/84/176
f 33/69/177 34/68/178 42/84/179
f 34/68/180 35/67/181 42/84/182
f 35/67/183 36/66/184 42/84/185
f 36/66/186 37/65/187 42/84/188
f 37/65/189 38/64/190 42/84/191
f 38/64/192 39/63/193 42/84/194
f 39/63/195 40/82/196 42/84/197
f 40/82/198 21/81/199 42/84/200
